<svg width="151" height="153" viewBox="0 0 151 153" fill="none" xmlns="http://www.w3.org/2000/svg">
<path fill-rule="evenodd" clip-rule="evenodd" d="M150.856 82.565V80.1367C150.845 79.4478 150.715 78.5687 150.572 77.9938C150.367 77.1633 150.595 75.9426 150.43 75.2801C150.383 73.6136 150.336 71.947 150.289 70.2805C150.223 70.0236 150.263 69.2688 150.147 68.8522C149.754 67.4349 149.386 65.6441 149.01 64.281V62.4242C148.736 61.3535 148.896 59.9647 148.585 58.853C148.206 57.3774 147.827 55.9011 147.448 54.4248C147.188 53.8068 146.694 53.0499 146.455 52.425V51.8535C145.963 50.446 145.505 48.8419 144.893 47.4254C144.559 46.6539 143.335 45.1638 143.188 44.4256C143.099 43.975 143.715 43.5743 143.473 42.8542C143.361 42.523 142.934 42.1293 142.762 41.8543C142.716 41.664 142.668 41.4738 142.621 41.2828C142.479 41.1877 142.337 41.0926 142.195 40.9967C142.025 40.7509 142.082 40.5273 141.911 40.2829C141.769 40.1878 141.627 40.0926 141.485 39.9968C141.022 39.342 140.675 38.7775 140.207 38.14C139.923 37.9018 139.639 37.6637 139.355 37.4262C139.309 37.2359 139.26 37.045 139.213 36.8547C138.905 36.2791 138.602 35.5749 138.219 34.9979C138.078 34.9028 137.936 34.8076 137.794 34.7118C137.646 34.5021 137.517 34.0605 137.368 33.8549C137.179 33.7119 136.989 33.5689 136.8 33.4265V33.1411C136.681 32.9654 136.344 32.7488 136.232 32.5696C135.835 31.9315 135.776 31.21 135.38 30.5698C135.286 30.5226 135.192 30.4747 135.097 30.4267C135.05 30.2365 135.002 30.0455 134.955 29.8553C134.604 29.2991 134.028 28.6977 133.677 28.1408C133.405 27.7096 133.397 27.2721 133.109 26.8548C132.73 26.5694 132.352 26.2833 131.973 25.9979C130.266 23.6808 128.598 21.4226 126.293 19.713C125.766 19.3228 125.41 18.6812 125.014 18.1416C124.21 17.3799 123.405 16.6181 122.601 15.8557H122.317C122.033 15.5224 121.749 15.1891 121.465 14.8558H121.181C120.832 14.5974 120.565 14.0996 120.188 13.8558C119.999 13.8079 119.809 13.7607 119.62 13.7128C119.477 13.5225 119.336 13.3323 119.194 13.1413H118.91C118.768 12.9511 118.626 12.7608 118.484 12.5698H118.2C117.721 12.2185 117.296 11.606 116.78 11.2838C116.303 10.9859 115.854 11.2415 115.218 10.9984C114.782 10.8311 114.572 10.2534 114.224 9.99851C113.845 9.72075 113.404 9.61521 113.088 9.28398C112.354 9.30481 112.242 9.46522 111.81 9.71242C111.623 9.44508 111.095 9.38328 110.958 9.14094V8.28406C110.727 7.81813 109.851 7.57231 109.396 7.28414C108.468 6.69669 107.157 5.86551 106.13 5.42735L104.001 5.14126C102.508 4.57741 100.897 3.86636 99.315 3.4275C98.5889 3.22613 98.203 3.80386 97.753 3.7129L97.4693 3.4275C96.4153 2.99698 95.3372 2.48939 94.3453 2.1415C93.6357 2.09358 92.9255 2.04636 92.2152 1.99845C90.6581 1.55682 88.7468 1.16519 87.104 0.712443H85.3999C84.0794 0.354139 82.3042 0.0486072 80.7132 0C80.5095 0.162487 80.3204 0.0194429 80.0029 0.143044C79.8794 0.190957 79.6723 0.523569 79.577 0.571482C79.2568 0.500655 78.3243 0.362471 78.015 0.286088H75.7435C75.3494 0.185402 74.0745 -0.0715221 73.4712 0.143044C73.1606 0.253452 72.9825 0.743691 72.761 0.856876H68.7852C68.4491 0.717998 68.2613 0.248591 67.5069 0.428438C66.1575 0.750635 64.5679 0.920066 63.2475 1.14296C62.6339 1.24643 62.2549 0.640227 61.4018 0.856876C60.0593 1.19782 58.4773 1.26032 57.1424 1.71375C55.4913 2.27482 53.5311 2.85741 51.889 3.4282C51.4155 3.52333 50.942 3.61846 50.4692 3.71359C49.6954 4.05454 49.0535 4.78851 48.1969 5.14195C47.3831 5.47804 46.7398 4.8517 45.7832 5.14195C45.4671 5.23778 45.0612 5.58775 44.7892 5.71343H44.3634C44.3157 5.80857 44.2688 5.9037 44.2212 5.99883C43.4336 6.4731 42.6806 6.60781 41.8067 6.99875C41.209 7.26609 40.6313 7.80771 40.1032 8.14171C39.9141 8.18893 39.7243 8.23684 39.5352 8.28476C39.2094 8.49307 38.8663 8.93401 38.5412 9.14163C38.3521 9.18885 38.163 9.23676 37.9732 9.28468C37.9262 9.37981 37.8786 9.47494 37.831 9.57077C37.5756 9.7402 37.3754 9.68603 37.1207 9.85616C37.0738 9.95129 37.0262 10.0464 36.9786 10.1422H36.6942C36.6472 10.2374 36.5996 10.3325 36.552 10.4276C36.3629 10.4756 36.1737 10.5228 35.9839 10.5707C35.8093 10.6825 35.5912 11.0304 35.4159 11.1422C35.2267 11.1894 35.0369 11.2373 34.8478 11.2852C34.5897 11.4484 34.2542 11.8366 33.9961 11.9997C33.8069 12.047 33.6171 12.0949 33.428 12.1428C33.1022 12.3511 32.7592 12.792 32.4341 12.9997C30.4745 14.2509 28.5846 15.3432 26.7541 16.7139C26.4704 17.1424 26.1861 17.5708 25.9024 18H25.6187C25.4296 18.2381 25.2397 18.4763 25.0506 18.7138H24.7662C24.2927 19.2374 23.8192 19.7616 23.3464 20.2852C23.2042 20.3331 23.0621 20.3803 22.9206 20.4282V20.7136C22.8288 20.8345 22.6093 21.0254 22.4947 21.1421C22.1164 21.4754 21.7375 21.8087 21.3586 22.142V22.4281C21.05 22.853 20.5103 23.253 20.2224 23.7141C20.1279 23.9995 20.0333 24.2856 19.9387 24.571C19.7966 24.6661 19.6544 24.7612 19.5129 24.857V25.1431C19.3238 25.2862 19.1339 25.4285 18.9448 25.5716V25.8577C18.6604 26.0958 18.3767 26.334 18.0931 26.5722V26.8576C17.9039 27.0006 17.7141 27.1437 17.525 27.286V27.5721C17.3794 27.7631 17.1578 27.7068 16.9569 27.8575C16.4786 28.2172 16.1825 28.7915 15.8208 29.2859C15.5841 29.4761 15.3473 29.6671 15.1106 29.8573C14.0158 31.3718 13.0702 32.9015 11.9873 34.4285C11.7374 34.7806 11.2418 35.0826 10.9933 35.4284C10.8456 35.634 10.7145 36.0777 10.5674 36.2853C10.4253 36.3804 10.2831 36.4756 10.1416 36.5714C9.58869 37.3665 9.27532 38.2053 8.72175 38.9997C8.57957 39.0948 8.43738 39.1899 8.29588 39.2858V39.5712C8.07431 39.8989 7.66431 40.2433 7.44413 40.5711V40.8572C7.27985 41.0933 6.90023 41.3259 6.73457 41.571V41.8571C6.17065 42.6654 5.40173 43.2535 5.17257 44.4284C5.51631 44.8055 5.43486 45.1117 6.02432 45.2853C5.50112 46.4053 5.12632 47.5233 4.60451 48.7142C4.42988 49.1121 3.79624 49.8113 4.03644 50.571C4.09442 50.7543 4.4216 50.9196 4.46232 51.1425C4.11375 51.6473 4.14136 52.3521 3.89564 52.9958C2.98177 55.3893 2.46478 58.6953 1.76626 61.2805C1.71864 62.2805 1.6717 63.2804 1.62408 64.2803C0.906233 67.0342 0.471385 71.1929 0.772327 73.9934C0.330577 74.9996 0.652226 76.2773 0.346453 77.4223C0.240157 77.8195 -0.149826 78.6625 0.0620763 79.2791C0.100039 79.3888 0.45689 79.6305 0.487951 79.7075V84.4218C0.630139 84.5169 0.772327 84.612 0.913825 84.7071L1.05601 85.564V90.2775C1.42736 91.7232 1.39285 93.371 1.76626 94.8487C2.04098 95.9382 1.72416 97.0034 2.05064 97.9915C2.10448 98.1547 2.33985 98.7206 2.47652 98.8477C2.6187 98.8956 2.7602 98.9435 2.90239 98.9907V99.5622C3.15502 100.305 3.19022 101.182 3.47045 101.99C3.57951 102.304 3.91979 102.714 4.03851 102.99C4.1807 103.609 4.32289 104.228 4.46439 104.847C4.69562 105.519 5.08008 106.442 5.31614 107.132C5.4107 107.609 5.50526 108.085 5.60052 108.561C5.6578 108.696 5.976 108.998 6.02639 109.132V109.847C6.24312 110.499 6.75528 111.241 7.02033 111.847C7.20945 112.417 7.39927 112.99 7.58839 113.561L7.87277 113.703V113.99C8.01495 114.037 8.15714 114.085 8.29864 114.132C8.34558 114.322 8.3932 114.513 8.44083 114.703C8.55403 114.879 8.89776 115.098 9.00889 115.274C9.05652 115.464 9.10345 115.655 9.15108 115.846C9.26221 116.021 9.60801 116.241 9.71914 116.417C10.0857 116.998 10.2078 117.686 10.5709 118.274C11.188 119.272 12.0363 120.196 12.7003 121.131V121.416C12.9902 121.818 13.5458 122.158 13.8364 122.559V122.844C14.0731 123.035 14.3099 123.226 14.5459 123.415V123.701C14.6881 123.748 14.8303 123.796 14.9718 123.844C15.0194 124.082 15.0664 124.321 15.114 124.558C15.2562 124.653 15.3984 124.748 15.5399 124.844V125.129C16.0638 125.854 16.9942 126.397 17.5278 127.129C18.2849 128.168 18.9938 129.142 19.7993 130.129C19.9967 130.369 20.4875 130.421 20.6511 130.7C20.8091 130.969 20.7594 131.437 20.9354 131.699C21.4089 132.128 21.8824 132.556 22.3553 132.985C22.9806 133.841 23.5859 134.854 24.4846 135.414C24.7966 135.607 25.237 135.368 25.6208 135.557C26.2358 136.27 26.8514 136.986 27.4664 137.699C28.0393 138.272 28.7951 138.64 29.4543 139.128C29.6911 139.413 29.9278 139.699 30.1639 139.985C30.8576 140.682 31.7418 141.457 32.5783 141.985C32.8399 142.15 33.8898 142.624 34.1403 142.698C34.6138 142.651 35.0873 142.603 35.5601 142.556L35.8445 142.841C36.5886 143.144 37.2243 143.124 37.9739 143.413C38.0981 143.46 38.7145 143.823 38.8256 143.841C38.9699 143.864 39.2191 143.55 39.5359 143.698L39.9618 144.27C40.2537 144.545 40.6119 144.6 40.9557 144.841C41.0502 144.984 41.1448 145.127 41.2401 145.269C41.6004 145.509 42.0083 145.468 42.3762 145.697C42.4231 145.793 42.4708 145.888 42.5184 145.983C43.0167 146.291 44.0017 146.625 44.5063 146.84C45.0943 147.09 46.0745 147.475 46.92 147.268C47.0125 147.246 47.3224 147.039 47.6302 147.126C48.1086 147.26 48.8596 147.672 49.3337 147.84H49.9018C51.049 148.283 52.4363 149.051 53.5932 149.411H55.013C55.6031 149.578 56.4376 149.929 57.0009 150.125H57.5689C58.5787 150.483 59.4933 151.22 60.5507 151.554C61.0739 151.718 61.5619 151.576 61.8291 151.554C62.3626 151.509 63.2399 151.72 63.6747 151.839H64.5265C66.2976 152.342 68.7162 152.339 70.6323 152.839C71.2742 153.007 72.2833 152.86 72.7617 152.982C73.661 152.934 74.5604 152.886 75.4598 152.839C76.375 153.075 77.8618 152.982 79.0097 152.982C81.5559 152.981 84.2492 153.079 86.2509 152.553C87.7204 152.168 88.9491 152.82 90.3689 152.411C92.0896 151.914 94.1872 151.214 95.9059 150.696C96.6638 150.649 97.4203 150.601 98.1782 150.553C99.6877 150.029 101.261 149.162 102.722 148.553C103.385 148.458 104.047 148.363 104.71 148.268C105.64 147.904 106.257 146.915 107.124 146.554H107.691C107.926 146.469 108.541 146.277 108.827 146.125C108.874 146.03 108.922 145.935 108.969 145.84C109.345 145.613 109.733 145.644 110.105 145.411C110.458 145.19 110.863 144.754 111.241 144.554C111.667 144.411 112.093 144.269 112.519 144.126C112.696 144.015 112.912 143.672 113.087 143.555C113.419 143.332 113.899 143.212 114.223 142.984C114.318 142.841 114.412 142.698 114.507 142.555H114.791C114.885 142.412 114.98 142.269 115.074 142.127H115.359C115.453 141.984 115.547 141.841 115.642 141.698C116.114 141.386 116.746 141.311 117.204 140.985C117.347 140.794 117.488 140.603 117.63 140.413C118.401 139.849 119.13 139.411 119.902 138.842C120.233 138.461 120.565 138.079 120.896 137.699H121.322C121.57 137.574 121.914 137.318 122.173 137.127C122.883 136.366 123.593 135.604 124.304 134.842C125.117 134.24 125.904 133.73 126.717 133.128C127.001 132.794 127.285 132.461 127.569 132.128H127.853L128.421 131.414H128.704C128.894 131.176 129.083 130.937 129.272 130.7C130.471 129.817 131.234 129.011 132.254 127.986C132.585 127.7 132.916 127.415 133.248 127.129V126.843C133.342 126.796 133.437 126.748 133.531 126.701C133.762 126.323 133.718 125.906 133.957 125.558C134.099 125.463 134.241 125.368 134.383 125.273C134.533 125.06 134.658 124.628 134.809 124.416C134.951 124.321 135.093 124.226 135.235 124.13C135.48 123.776 135.565 123.353 135.802 122.987C135.874 122.876 136.176 122.701 136.228 122.559C136.276 122.082 136.323 121.606 136.37 121.13C137.207 119.675 138.475 118.52 139.352 117.13L139.494 116.559C139.589 116.512 139.683 116.464 139.778 116.416C139.872 116.13 139.967 115.845 140.062 115.56C140.156 115.512 140.251 115.464 140.345 115.417C140.685 114.865 140.715 114.253 141.056 113.702C141.216 113.442 141.604 113.104 141.765 112.845C141.981 112.499 141.961 112.167 142.191 111.846C142.711 111.37 143.233 110.893 143.753 110.417V110.132C143.895 110.036 144.037 109.941 144.179 109.846V109.56C144.273 109.513 144.368 109.465 144.463 109.418C144.558 109.132 144.652 108.846 144.746 108.561C144.979 108.121 145.393 107.584 145.598 107.132C145.646 106.894 145.693 106.655 145.74 106.418H146.024C146.314 106.166 146.719 105.635 146.876 105.275C147.349 103.561 147.823 101.846 148.296 100.132L148.438 98.704C149.059 96.6402 149.533 94.2613 150.142 92.1329C150.189 91.0851 150.237 90.0373 150.284 88.9908C150.685 87.4819 151.275 84.2829 150.856 82.565ZM148.585 83.5649C148.326 84.5752 148.582 86.0876 148.301 87.1361C148.052 88.0617 147.718 89.3318 147.591 90.2782C147.546 90.6192 147.869 91.0469 147.733 91.5642C147.466 92.5739 147.141 93.8384 146.881 94.8494C146.784 95.2285 147.049 95.6896 147.023 95.8493C146.836 97.0277 146.065 98.4672 145.745 99.5636C145.636 99.9365 145.868 100.442 145.887 100.563C145.792 101.039 145.698 101.516 145.603 101.992C145.414 102.384 144.84 102.647 144.61 102.991C144.135 103.699 144.113 104.576 143.758 105.419C143.692 105.577 143.396 105.951 143.332 106.134C143.285 106.467 143.237 106.801 143.19 107.133C143.001 107.276 142.811 107.419 142.622 107.562C142.252 107.945 142.088 108.398 141.771 108.848C141.628 108.943 141.486 109.038 141.345 109.133C141.203 109.561 141.061 109.99 140.919 110.419C140.73 110.562 140.54 110.705 140.351 110.847C140.024 111.186 139.599 111.745 139.358 112.133C139.026 112.895 138.695 113.657 138.364 114.419C138.029 114.954 137.426 115.451 137.085 115.991C136.812 116.424 136.8 116.85 136.518 117.276C136.376 117.372 136.234 117.466 136.092 117.562C135.866 117.889 135.826 118.327 135.524 118.561C135.314 118.725 134.981 118.76 134.814 118.99V119.276C134.649 119.515 134.257 119.755 134.105 119.99C133.867 120.352 133.907 120.763 133.679 121.133C133.584 121.18 133.49 121.228 133.395 121.276C133.168 121.646 133.207 122.056 132.969 122.419C132.827 122.514 132.685 122.609 132.543 122.704C132.049 123.408 131.746 124.122 131.265 124.847C131.149 125.023 130.808 125.24 130.697 125.418C130.532 125.686 130.571 126.157 130.413 126.418C130.294 126.614 130.034 126.56 129.845 126.704C129.394 127.047 128.569 127.97 128.141 128.418C127.858 128.846 127.574 129.274 127.289 129.704C126.986 129.939 126.603 129.912 126.296 130.132C126.059 130.417 125.823 130.703 125.586 130.989C125.165 131.301 124.81 131.49 124.45 131.846C124.308 132.036 124.166 132.227 124.024 132.417H123.598C123.076 132.715 122.652 133.355 122.178 133.703H121.895C121.657 133.989 121.42 134.274 121.184 134.559C120.901 134.655 120.617 134.75 120.333 134.846C120.144 135.084 119.954 135.322 119.765 135.559C119.258 135.978 118.6 136.471 118.203 136.988C118.156 137.131 118.108 137.274 118.061 137.416C117.777 137.512 117.493 137.606 117.209 137.702C116.921 137.864 116.75 138.248 116.5 138.416C116.062 138.708 115.502 138.695 115.079 138.988C114.985 139.13 114.89 139.273 114.796 139.415C114.588 139.564 114.148 139.694 113.944 139.844C113.802 140.034 113.66 140.225 113.518 140.415C112.29 141.294 111.08 142 109.826 142.843C109.515 143.054 109.159 143.524 108.833 143.7H108.407C108.159 143.816 107.803 144.16 107.555 144.272H107.129C106.804 144.418 106.451 144.861 106.135 144.986H105.426C105.139 145.083 104.659 145.253 104.29 145.414C103.514 145.752 102.743 146.385 102.017 146.7C101.45 146.795 100.881 146.89 100.314 146.986C99.4641 147.284 98.486 147.851 97.6156 148.128C96.9061 148.224 96.1958 148.319 95.4856 148.414C95.0121 148.57 94.2576 148.999 93.7821 149.128C92.8703 149.376 92.6687 148.352 91.5098 148.7C90.6739 148.951 89.0616 149.723 88.1021 149.699C87.5658 149.686 86.2889 149.302 85.5462 149.557C85.4461 149.591 85.0754 149.971 84.9781 149.985C84.5916 150.044 84.2168 149.304 83.2739 149.557C82.0743 149.879 80.5965 150.231 79.4404 150.556H76.7423C76.0734 150.732 73.046 150.969 72.1984 150.699C71.8098 150.576 71.54 150.107 71.2045 149.985H67.6498C66.5986 149.982 66.3597 149.751 65.6619 149.557C64.4312 149.51 63.2005 149.461 61.9699 149.414C61.4964 149.271 61.0229 149.128 60.5501 148.985C60.4451 148.923 60.2588 148.607 60.1242 148.557C59.4622 148.51 58.7989 148.462 58.1363 148.414C57.4695 148.207 56.7151 147.758 56.0069 147.558H54.7286C53.7216 147.249 52.5502 146.674 51.6046 146.272C50.9303 145.985 50.1089 146.031 49.4752 145.7C48.9148 145.408 48.239 144.823 47.6296 144.557L45.0736 143.986C44.5856 143.816 43.8595 143.433 43.3701 143.272C42.9912 143.225 42.6129 143.177 42.234 143.129C41.6887 142.884 41.1986 142.275 40.672 141.986C40.4159 141.846 40.0163 141.63 39.8203 141.557H38.9685C38.3618 141.335 37.7654 140.755 37.265 140.415H36.9806C36.8861 140.271 36.7915 140.129 36.6963 139.986C36.2704 139.843 35.8445 139.701 35.4186 139.558C35.028 139.312 34.6525 138.818 34.2825 138.558H33.9988C33.673 138.336 33.3307 137.923 33.0049 137.702H32.7205C32.6259 137.558 32.5314 137.415 32.4361 137.273C32.1897 137.099 31.9764 137.156 31.7266 136.987C30.9715 136.479 30.2053 135.788 29.4543 135.273H29.1699C28.6633 134.908 28.2581 134.207 27.7501 133.844C27.2394 133.48 26.3862 133.447 25.9044 133.13C25.6208 132.797 25.3364 132.464 25.0527 132.13H24.7683C24.4729 131.917 24.2016 131.504 23.9166 131.274H23.6329V130.988C22.866 130.055 21.7789 129.272 21.0769 128.275V127.988C20.9824 127.941 20.8878 127.893 20.7933 127.846C20.6987 127.56 20.6041 127.275 20.5089 126.989C20.4143 126.942 20.3198 126.893 20.2245 126.846C20.1776 126.656 20.1299 126.465 20.0823 126.275C19.9712 126.099 19.6247 125.88 19.5143 125.704C19.4666 125.514 19.4197 125.323 19.3721 125.132C19.1243 124.741 18.637 124.363 18.3781 123.989C18.2076 123.744 18.2649 123.52 18.0944 123.276C17.9523 123.18 17.8101 123.085 17.6686 122.99C17.4981 122.744 17.5554 122.52 17.3842 122.276C17.1585 121.953 16.7029 121.521 16.3903 121.276H16.1059V120.99C15.5558 120.308 14.8897 119.584 14.4024 118.848C14.2353 118.596 14.2906 118.381 14.118 118.134C13.7204 117.564 12.9453 117.245 12.556 116.705C12.3248 116.384 12.3462 116.051 12.1301 115.705C11.8968 115.332 11.4634 114.849 11.2784 114.419C11.2314 114.134 11.1838 113.849 11.1362 113.563C10.8622 112.915 10.4121 112.06 10.1423 111.42C9.88894 110.82 9.97039 110.306 9.71638 109.706C7.95628 105.547 6.39774 101.052 5.03038 96.5638C4.74601 94.707 4.46232 92.8496 4.17863 90.9935V89.279C3.94326 88.377 3.83697 87.091 3.61057 86.2792V84.4224C3.09289 82.4372 3.04182 80.3047 3.04251 77.8514V75.2801C3.08461 75.1558 3.42697 74.8329 3.46838 74.7086V71.5658C3.63749 70.9041 3.3966 69.6785 3.61057 68.8515C3.98192 67.4134 4.08752 65.6719 4.46232 64.2803L5.17188 58.4231C5.88075 55.9011 6.259 52.9534 7.01757 50.4238C7.15975 49.6141 7.30194 48.8045 7.44344 47.9955C7.89485 46.6796 8.6334 45.4985 9.14763 44.2812C9.37748 43.7375 9.33882 43.2424 9.5735 42.7098C9.90343 41.9599 10.4791 41.128 10.8511 40.4239C10.9457 40.1378 11.0402 39.8524 11.1355 39.567C11.5614 39.1865 11.9873 38.8052 12.4138 38.424C12.9322 37.697 13.1703 36.8714 13.6914 36.1381C13.9758 35.8999 14.2595 35.6617 14.5432 35.4236C15.0339 34.7354 15.3321 33.9716 15.8215 33.2814C16.0106 33.1383 16.1998 32.9953 16.3896 32.8529C17.2848 31.6072 18.0434 30.3795 18.9455 29.1387C19.3541 28.5762 20.0954 28.1408 20.5075 27.5673C21.3454 26.4007 21.9439 25.1765 22.7798 23.996C23.3858 23.1391 24.3155 22.451 25.052 21.7101C25.3833 21.3296 25.7146 20.9483 26.0459 20.5671C26.42 20.3123 26.9543 20.2609 27.3243 19.9956C27.5134 19.7575 27.7025 19.5193 27.8923 19.2811H28.176C28.4128 18.9957 28.6495 18.7096 28.8863 18.4242H29.1699C29.3121 18.234 29.4543 18.0437 29.5958 17.8527C31.0218 16.8153 32.5493 16.0341 33.9974 14.996C34.1396 14.8058 34.2811 14.6155 34.4233 14.4245H34.707C34.8016 14.2815 34.8961 14.1385 34.9914 13.9961C35.3268 13.7704 35.6574 13.7871 35.9853 13.5677C36.5941 13.1601 37.2112 12.5282 37.831 12.1393C38.3804 11.7942 38.9996 11.7671 39.5352 11.4255C40.2144 10.9915 40.8411 10.2839 41.5231 9.85408C42.0325 9.53257 42.5011 9.54438 43.0851 9.28259C43.8264 8.94998 44.8693 8.27017 45.641 7.99659H47.0608C47.7248 7.76188 48.5124 7.14526 49.1909 6.85362C50.0992 6.46337 51.1891 6.44532 51.889 5.8537C52.1672 5.63983 52.1499 5.63566 52.1734 5.13917C52.4495 5.07876 52.7028 4.90725 52.8829 4.85378C53.7347 4.80587 54.5871 4.75865 55.4389 4.71074C56.8193 4.31285 58.4441 3.83095 59.8405 3.42542C61.4874 2.94699 63.5857 3.13308 65.2361 2.7109H67.5083C68.467 2.46855 70.0076 2.56785 71.2004 2.56785C73.9924 2.61507 76.7857 2.66298 79.5777 2.7109C79.7289 2.53244 79.8656 2.48869 80.0036 2.28246L82.5595 2.56855H85.1155V2.42828H85.2577C86.3696 2.60882 87.9813 3.10461 89.0912 3.4282C90.1107 3.7254 91.1474 3.52958 92.073 3.85664C92.7046 4.07884 93.3327 4.63366 93.9187 4.85656C94.7656 5.17806 95.0818 4.49964 95.4807 4.57047C95.6422 4.59963 97.8586 5.83981 98.0367 5.99883C98.5295 5.94397 98.6738 5.88634 98.8884 5.57039C99.5138 5.68566 99.3626 5.92314 99.7402 6.14187C99.9769 6.18979 100.214 6.237 100.45 6.28492C100.497 6.38005 100.545 6.47518 100.592 6.57031C100.781 6.61822 100.971 6.66544 101.159 6.71335C101.417 6.87584 101.753 7.26609 102.011 7.42719C102.645 7.82299 103.322 7.96117 104 8.28406C104.378 8.4646 105.121 8.95901 105.845 8.7125C106.095 8.62709 106.21 8.38892 106.555 8.28406C107.236 9.07567 108.264 9.65548 109.111 10.2839C109.996 10.9408 110.566 12.1351 111.808 12.4268C112.188 12.6441 112.414 12.2074 112.66 12.2837C113.027 12.3983 113.996 13.3503 114.364 13.5698C114.655 13.7427 115.002 13.5441 115.358 13.7128C116.139 14.0822 116.732 15.5231 117.63 15.8557C118.305 16.1057 118.776 15.6078 119.192 15.8557C119.848 16.248 120.132 17.3014 120.754 17.7125C121.038 17.7597 121.322 17.8076 121.605 17.8555C122.031 18.3319 122.457 18.8082 122.884 19.2839C123.357 19.6651 123.831 20.0456 124.304 20.4268C125.059 21.4525 125.794 22.4135 126.576 23.4266C126.861 23.796 127.57 23.7759 127.854 24.1411V24.4265C127.996 24.5217 128.138 24.6168 128.28 24.7126C128.45 24.9563 128.392 25.1848 128.564 25.4264C128.753 25.5695 128.943 25.7125 129.132 25.8549V26.141C129.273 26.2361 129.415 26.3312 129.558 26.4264V26.7125C129.778 27.0402 130.188 27.3846 130.409 27.7124V27.9985C131.008 28.8588 131.977 29.5213 132.539 30.4267C132.728 30.9503 132.918 31.4746 133.107 31.9981C133.251 32.2044 133.878 32.3231 133.959 32.4266C134.005 32.7599 134.053 33.0932 134.101 33.4265C134.195 33.4744 134.289 33.5216 134.384 33.5696C134.785 34.2459 134.919 34.9562 135.378 35.5694L136.514 36.2832V36.5693C136.71 36.8554 137.075 37.2325 137.223 37.5692C137.366 37.9977 137.507 38.4261 137.649 38.8552C137.98 39.0934 138.312 39.3316 138.642 39.5691C138.69 39.8072 138.738 40.0454 138.785 40.2836C139.119 40.8342 139.654 41.5231 139.921 42.1404C139.968 42.4258 140.016 42.7119 140.063 42.9973C140.172 43.2493 140.506 43.6069 140.631 43.8541C140.678 44.0923 140.726 44.3305 140.773 44.5687C141.11 45.3297 141.708 46.2165 142.051 46.997C142.734 48.5566 143.201 50.3988 143.755 51.9966C143.802 52.3292 143.85 52.6632 143.897 52.9965C144.063 53.3798 144.614 53.7353 144.748 53.9964V54.5679C144.964 55.2088 145.138 56.1802 145.316 56.8538V58.8536C145.432 59.1661 145.899 59.4022 146.026 59.7105C146.277 60.3167 146.43 61.5326 146.594 62.1388V63.8533C146.851 64.8379 146.914 66.1864 147.162 67.1384V69.7097C147.214 69.9083 147.314 70.6423 147.446 70.8527C147.682 71.043 147.919 71.2332 148.155 71.4242V73.7101C148.155 75.5627 148.554 77.5098 148.155 79.1381C147.725 80.9116 149.059 81.7109 148.585 83.5649Z" fill="#A38068"/>
</svg>
