<svg width="25" height="25" viewBox="0 0 25 25" fill="none" xmlns="http://www.w3.org/2000/svg">
<path d="M0.439341 24.1673C-0.146446 23.5815 -0.146446 22.6317 0.439341 22.0459L21.6525 0.832738C22.2383 0.246952 23.1881 0.246952 23.7739 0.832738C24.3597 1.41852 24.3597 2.36827 23.7739 2.95406L2.56066 24.1673C1.97487 24.753 1.02513 24.753 0.439341 24.1673Z" fill="white"/>
<path d="M0.439341 24.1673C-0.146446 23.5815 -0.146446 22.6317 0.439341 22.0459L21.6525 0.832738C22.2383 0.246952 23.1881 0.246952 23.7739 0.832738C24.3597 1.41852 24.3597 2.36827 23.7739 2.95406L2.56066 24.1673C1.97487 24.753 1.02513 24.753 0.439341 24.1673Z" fill="#C27346"/>
<path d="M23.7739 24.1673C23.1881 24.753 22.2383 24.753 21.6525 24.1673L0.43934 2.95406C-0.146446 2.36827 -0.146447 1.41853 0.439339 0.832739C1.02513 0.246953 1.97487 0.246953 2.56066 0.832739L23.7739 22.0459C24.3597 22.6317 24.3597 23.5815 23.7739 24.1673Z" fill="white"/>
<path d="M23.7739 24.1673C23.1881 24.753 22.2383 24.753 21.6525 24.1673L0.43934 2.95406C-0.146446 2.36827 -0.146447 1.41853 0.439339 0.832739C1.02513 0.246953 1.97487 0.246953 2.56066 0.832739L23.7739 22.0459C24.3597 22.6317 24.3597 23.5815 23.7739 24.1673Z" fill="#C27346"/>
</svg>
