<svg width="24" height="28" viewBox="0 0 24 28" fill="none" xmlns="http://www.w3.org/2000/svg">
<path fill-rule="evenodd" clip-rule="evenodd" d="M21.8608 10.3567C21.8148 10.0317 21.0926 9.55938 20.7821 9.38992C20.6114 9.29636 20.4271 9.34245 20.3211 9.24136C20.235 9.16284 20.2249 9.09963 20.1525 9.01806C20.2367 8.53096 20.4603 8.53592 20.8174 8.43472C20.8414 8.17748 20.7824 8.17867 20.7617 7.97601C20.1543 7.72449 18.9602 7.43984 18.2079 7.44422C17.8749 7.36201 17.5405 7.27908 17.2069 7.19678C17.3106 6.68832 17.4028 6.45371 17.3552 6.00615L17.4801 5.32394C17.4708 5.28394 17.3324 5.10447 17.3228 5.03903C17.2773 4.73076 17.4233 4.56692 17.3126 4.33208C17.2341 4.25355 17.156 4.17512 17.077 4.0965C16.9663 3.88612 16.8888 3.48894 16.7289 3.32814C16.5747 3.17207 16.3494 3.10497 16.2458 2.91896C15.5378 2.76117 14.994 2.72158 14.3216 2.75903C14.1151 2.7429 13.9092 2.72642 13.7027 2.70984C13.5007 2.76282 13.3322 2.97792 13.1509 3.05731C13.0018 3.12276 12.8041 3.11886 12.7006 3.23142C12.5326 3.41339 12.5892 3.58987 12.4519 3.82683C12.3806 3.94991 12.1666 4.10361 12.1022 4.21132L11.9659 4.9556C11.9218 5.0292 11.7703 5.1408 11.7065 5.22834C11.5077 5.17024 11.3862 5.07648 11.2563 5.01762L10.0413 4.79513C9.96555 4.7591 9.80047 4.57983 9.73805 4.54763C9.1924 4.2659 8.13417 4.3859 7.74743 3.99069C6.43049 3.71584 6.75063 4.59538 6.30474 5.39279C5.99987 5.37065 4.90635 5.17317 4.57186 5.33203C3.96597 5.76605 4.64825 6.42627 4.35555 6.89457L4.20907 6.93189C4.05181 7.17626 3.99783 8.17049 4.01541 8.37075C3.92805 8.97401 3.8406 9.57772 3.75372 10.1811C3.72686 10.4539 3.7 10.7268 3.67362 10.9998C3.6844 11.0507 3.83286 11.1863 3.84219 11.2231L3.56969 12.7112C3.49132 12.8703 3.22495 13.1893 3.28693 13.4928C3.31763 13.6433 3.55263 13.726 3.57924 13.8029L3.43159 14.6092C3.30184 15.3178 3.03742 16.2241 3.09035 16.854C3.11069 17.0995 2.94943 17.4534 2.8865 17.5859C2.6169 18.1502 2.70317 19.0012 2.4669 19.496C2.36087 19.7184 2.38624 20.1065 2.39816 20.2527L2.03482 22.2368C2.05617 22.3616 2.15671 22.4709 2.16938 22.6458C2.3527 22.7228 2.51641 22.8492 2.67525 22.9309L2.94498 22.9803C2.98003 23.0001 3.14766 23.2094 3.18111 23.2159C3.23927 23.2275 3.49859 23.1555 3.54161 23.1537C3.95706 23.1342 4.42129 23.2626 4.77928 23.2525C4.94944 23.2477 5.11414 23.3632 5.17276 23.3887L5.98294 23.5371C6.58781 23.8246 7.39002 24.1316 7.98485 24.4163L8.86258 24.577C9.12539 24.6999 9.51371 24.9685 9.73928 25.122C9.91575 25.176 10.493 25.4524 10.5829 25.4689C10.7166 25.5478 10.9084 25.7352 11.0774 25.816C11.2349 25.8448 11.8197 26.0798 11.9325 26.1004C11.9977 26.1368 12.1578 26.3101 12.2362 26.3484L13.9236 26.6574C14.0082 26.5959 14.1212 26.552 14.2279 26.5207C14.4707 25.9851 14.8127 25.6916 14.928 24.9826C15.3714 25.0929 15.8541 25.5292 16.2667 25.2924C16.5931 25.1777 16.8708 24.7694 17.0446 24.4732C17.2335 23.5678 17.4229 22.6625 17.6118 21.7571L17.8048 20.703C18.1099 20.0847 18.4036 19.4191 18.7081 18.8177L18.8218 18.1967C18.8816 18.0784 19.0614 17.8373 19.1153 17.7378L19.2516 16.9935C19.4537 16.6194 19.7231 15.9576 19.929 15.5791L20.0312 15.021L20.1886 14.9215L20.2567 14.5496C20.5036 14.0678 20.6363 13.3488 20.9124 12.8751C20.9726 12.6725 21.0333 12.4699 21.0935 12.2673C21.2314 12.0055 21.9576 10.5525 21.8608 10.3567ZM13.4063 5.09108L13.4404 4.9049C13.5156 4.87575 13.6885 4.69377 13.6999 4.63171C13.6999 4.63171 13.9952 4.04208 14.6912 4.17229C15.148 4.24809 15.544 4.3183 15.7375 4.55631C16.1744 4.92748 15.9894 6.46991 15.9551 6.70913C15.9313 6.88012 14.9036 6.34493 14.5046 6.15141C14.0815 5.94658 13.4152 5.81349 13.2371 5.6369C12.9517 5.42314 13.3015 5.23293 13.4063 5.09108ZM7.66733 4.80939C8.96278 5.19613 10.1452 5.72275 11.4918 6.02239L11.4577 6.20858C10.7864 6.06442 10.1152 5.91982 9.44386 5.77566C8.85536 5.67851 8.09313 5.592 7.40786 5.46651C7.46245 5.13826 7.52689 4.97287 7.66733 4.80939ZM13.5196 25.4294C13.3798 25.3728 12.5523 25.124 12.0685 24.9712C11.9414 24.9023 11.7186 24.6926 11.574 24.6241L11.0335 24.5251L11.0108 24.6493C10.7824 24.7057 9.77867 24.2266 9.7066 24.1539C9.6614 24.1456 9.07321 23.9096 9.08458 23.8475L13.9257 24.734C13.8235 25.078 13.6594 25.4859 13.5196 25.4294ZM17.7569 15.2455L17.2572 17.9739C17.1724 18.4373 17.098 19.0434 16.9285 19.3875C16.649 19.9538 16.5912 21.5066 16.5418 21.8805C16.5 22.194 16.4518 22.8852 16.2585 23.0469C16.1924 23.4298 16.1383 23.9501 15.9746 24.2127C14.6288 23.9445 13.282 23.6767 11.9361 23.409C11.367 23.3048 10.6469 23.1337 10.1698 23.1497C9.85868 23.071 9.5475 22.9928 9.23585 22.9145C8.19184 22.9568 6.53102 22.4833 5.37675 22.272C4.90051 22.2064 4.42435 22.1405 3.9477 22.0744C3.77185 21.9896 3.71418 21.8328 3.52068 21.7401C3.50353 21.4772 3.49855 20.9558 3.51113 20.6484C3.51821 20.4808 3.68165 20.1753 3.71489 19.917L3.78363 19.1603C3.9594 18.7957 4.10305 18.014 4.06758 17.6097L4.36281 15.9975L4.25043 15.8486L4.42065 14.9191C4.41243 14.8377 4.31464 14.6366 4.35421 14.5221C4.42756 14.308 4.64439 13.8124 4.6148 13.4803C4.58169 13.1125 4.63125 12.6361 4.70681 12.2152L4.8431 11.471C4.77394 10.7103 4.79345 9.68484 4.98271 8.80491C5.06763 8.407 5.44516 7.94178 5.36719 7.46513L5.25529 7.31635C5.2784 7.06402 5.30093 6.81204 5.32403 6.55971C5.31299 6.47462 5.24999 6.35234 5.24574 6.22467L5.3133 6.23704L5.32466 6.17498C6.55306 6.44514 8.02784 6.66998 9.44261 6.92905C9.8319 7.00034 10.6583 7.2661 10.9392 7.13897C11.1313 7.17877 11.2237 7.2146 11.3327 7.27517C11.1254 8.40145 10.9734 9.59921 10.7871 10.6361C10.6633 11.3231 10.377 12.058 10.4236 12.6207C10.486 13.3718 9.85803 13.8387 10.0154 14.4688C10.0154 14.4688 10.1472 15.1643 10.2613 15.4109C10.3759 15.6575 10.6585 16.0258 10.7553 16.1423C10.8135 16.2822 10.9383 16.454 11.0287 16.4706C11.0929 16.5202 11.4087 16.8392 11.6749 16.9549C11.9404 17.0709 12.8527 17.339 13.4322 17.1456C13.6884 17.0601 13.832 16.726 14.0299 16.5504C14.1409 16.4517 14.5693 16.2681 14.6602 16.1532L14.7169 15.8433L14.8742 15.7443C14.9548 15.6059 15.0058 15.2779 15.0444 15.1987L15.3284 13.6481C15.6444 12.9948 15.8677 12.0662 15.9626 11.3287L16.1899 10.087C16.1788 10.0245 16.0538 9.86504 16.0327 9.80211C15.9565 9.57912 15.9388 9.34377 15.876 9.13247C14.6547 8.6398 13.4419 8.49293 12.8368 9.34516C12.6459 9.61385 12.7493 10.1081 12.5199 10.3129L11.9862 13.2275C12.0347 13.4099 12.283 13.5352 12.3905 13.686C12.6212 13.7181 12.6892 13.7227 12.8181 13.636C13.0393 13.61 13.029 13.5209 13.2012 13.45C13.2939 12.9548 13.2646 12.2153 13.5305 11.6516C13.6497 11.3989 13.5644 11.0086 13.7458 10.8577C13.8028 10.5243 13.8578 10.0979 13.995 9.87796C14.4195 9.98476 14.3473 10.1511 14.6132 10.3119C14.6243 10.5368 14.6589 10.8634 14.6796 11.0933C14.7239 11.5785 14.4011 12.0598 14.2951 12.433C14.0963 13.1266 14.0881 13.893 13.875 14.3431C13.6427 14.8354 13.7142 15.2928 13.3106 15.5217C13.0823 15.6575 12.43 15.6262 12.2193 15.386C10.9274 15.0982 11.8252 12.5622 12.0343 11.4422C12.1386 10.8841 12.0478 10.6118 12.1491 10.0531C12.2466 9.51489 12.5681 8.67854 12.3881 8.36641C12.4421 8.0496 12.4973 7.65501 12.626 7.44877C13.8224 7.64664 15.0188 7.8445 16.2149 8.04183C16.6178 8.11561 17.4861 8.39598 17.7785 8.26403C18.1341 8.32176 18.9278 8.37665 19.1173 8.57332L19.2524 8.59806C18.7544 10.8132 18.2551 13.0294 17.7569 15.2455ZM20.543 11.0766L20.4976 11.3248C20.4553 11.3941 20.2746 11.5387 20.2387 11.5977L20.1706 11.9696C20.131 12.0348 19.9453 12.2176 19.8998 12.3044L19.809 12.8004C19.6751 13.0758 19.5381 13.58 19.4133 13.8174C19.3261 13.9833 19.3756 14.1437 19.2662 14.239L19.2549 14.3011L19.1873 14.2887C19.1095 13.8744 19.3171 12.9849 19.4939 12.6144L19.6642 11.6844C19.872 11.249 19.9359 10.4832 19.9708 10.0101C20.4322 10.1209 20.4984 10.3029 21.0842 10.4064C20.9536 10.6751 20.688 10.8636 20.543 11.0766Z" fill="#BB4604"/>
</svg>
