<svg width="40" height="35" viewBox="0 0 40 35" fill="none" xmlns="http://www.w3.org/2000/svg">
<path fill-rule="evenodd" clip-rule="evenodd" d="M14.8414 13.4856C22.4616 13.5119 30.1042 13.5629 37.2719 13.15C39.9318 14.1582 41.1157 19.4166 38.6535 21.5512C31.1307 22.4572 22.571 21.5512 14.8414 21.5512C14.672 22.5842 15.9218 22.8453 16.5662 23.5675C17.1462 24.211 17.5972 25.1287 18.2911 25.9166C19.6353 27.4427 21.513 28.4612 21.3961 30.9561C21.3137 32.7215 19.4854 35.1859 16.5647 34.9889C14.4772 34.8474 13.2529 32.9025 11.7318 31.2946C10.1539 29.6225 8.45299 27.5551 6.55731 25.9166C6.2561 25.6554 5.46785 25.5329 5.17563 25.2454C4.61068 24.6895 4.12065 23.5675 3.45079 22.8935C1.68998 21.1251 0.0895106 20.1344 0.00409253 18.1881C-0.0843227 16.1513 1.27338 14.9913 2.76594 13.1486C4.06969 11.5407 5.45287 10.1998 6.56031 9.1187C9.68181 6.0766 11.1489 3.80196 13.8089 0.719016C16.4388 -1.65776 20.948 2.42463 21.0544 4.75034C21.1413 6.68356 19.5723 7.99815 18.2926 9.45427C16.9543 10.9804 15.5607 12.3038 14.8414 13.4856ZM15.5337 2.73541C14.6466 4.0748 13.6875 4.97503 12.7719 6.09557C12.4976 6.42823 12.4377 6.99871 12.0825 7.43934C11.7963 7.79097 11.032 8.07257 10.7023 8.44608C10.3412 8.85607 10.3801 9.33755 10.0115 9.78985C8.5504 11.5888 6.65022 12.74 5.5263 14.4938C4.84745 15.5458 4.32745 16.1148 3.79845 16.8472C3.46727 17.3024 3.46128 18.0874 2.76594 18.1881C3.30093 19.7682 4.97782 20.7253 6.21564 21.8867C8.80815 24.316 11.543 26.5177 13.8089 28.9412C14.8773 30.088 15.703 32.7157 17.9479 31.6302C18.7631 28.9791 15.9113 27.7652 14.4967 26.2522C14.128 25.8568 13.8598 25.368 13.4612 24.9099C12.3208 23.5894 10.3652 22.4558 10.3562 20.5415C11.2373 19.1788 13.2874 19.3174 14.8429 19.1977C21.2897 18.7017 30.1072 19.5698 36.9287 19.1977C37.3738 18.2231 37.3738 16.8122 36.9287 15.8376C35.6849 15.3284 34.2358 15.8055 32.7852 15.8376C27.3694 15.9601 20.7367 15.6785 15.5337 15.8376C13.5451 15.8988 11.552 17.0194 10.3547 15.1664C10.2618 13.9671 11.4591 13.2609 12.0825 12.4789C12.7853 11.5903 13.4162 10.6551 14.152 9.78985C15.5502 8.14989 17.263 6.73171 18.2926 4.75034C17.4938 3.96246 17.1626 2.71644 15.5337 2.73541Z" fill="#CAAC87"/>
</svg>
