<svg width="17" height="17" viewBox="0 0 17 17" fill="none" xmlns="http://www.w3.org/2000/svg">
<path d="M5.48656 15.6071C6.4827 15.9392 7.52728 16.0616 8.58957 15.9694C11.6582 15.703 14.3789 13.6621 15.5152 10.7708C17.1543 6.59874 14.156 2.06936 10.3772 0.807781C9.48498 0.509984 9.29342 1.14135 8.45876 0.878162C5.56046 -0.033696 2.52961 2.78455 1.25904 6.01381C-0.333647 10.0687 1.52235 14.2805 5.48656 15.6071Z" fill="#BB4604"/>
<path d="M12.0773 4.40425C10.0626 4.10094 6.20118 4.53063 4.52229 4.78338C4.11935 5.39001 4.3544 6.04717 4.52229 6.29993C8.55164 5.54165 11.5737 5.92079 12.0773 5.92079C12.4803 5.92079 12.2452 4.90976 12.0773 4.40425Z" fill="white"/>
<path d="M12.0773 7.40425C10.0626 7.10094 6.20118 7.53063 4.52229 7.78338C4.11935 8.39001 4.3544 9.04717 4.52229 9.29993C8.55164 8.54165 11.5737 8.92079 12.0773 8.92079C12.4803 8.92079 12.2452 7.90976 12.0773 7.40425Z" fill="white"/>
<path d="M12.0773 10.4042C10.0626 10.1009 6.20118 10.5306 4.52229 10.7834C4.11935 11.39 4.3544 12.0472 4.52229 12.2999C8.55164 11.5417 11.5737 11.9208 12.0773 11.9208C12.4803 11.9208 12.2452 10.9098 12.0773 10.4042Z" fill="white"/>
</svg>
