<svg width="294" height="354" viewBox="0 0 294 354" fill="none" xmlns="http://www.w3.org/2000/svg">
<path fill-rule="evenodd" clip-rule="evenodd" d="M143.424 14.3959C144.253 16.9746 141.688 16.7581 140.425 17.3951C137.653 18.7915 135.153 19.2576 131.428 20.3942C124.063 22.6412 116.093 25.2223 111.036 29.9915C113.566 37.4576 117.474 43.5465 120.632 50.3858C124.855 54.7819 128.781 59.3178 132.028 64.7817C132.447 65.4871 132.136 65.4691 132.628 65.9814C133.444 66.8331 134.972 69.47 136.226 70.78C137.109 71.7013 138.969 74.6981 139.225 76.7783C143.823 76.7783 148.422 76.7783 153.02 76.7783C157.492 75.2529 159.694 71.456 163.216 68.9805C163.85 66.7185 165.638 64.9688 166.815 62.9822C167.953 61.0615 168.713 58.9279 169.814 56.9839C171.896 53.3075 173.967 48.8568 178.211 47.3866C181.098 47.0975 179.686 51.1104 181.81 51.5854C185.012 55.78 185.82 62.371 189.007 66.5812C188.601 70.5851 191.146 71.639 191.406 74.9788C196.22 75.1948 199.933 74.3088 204.001 73.7792C205.058 72.8764 202.345 70.6702 202.802 68.3807C203.11 62.4909 203.085 56.2677 204.001 50.9856C205.225 49.3571 207.343 50.0133 209.399 49.7859C218.085 48.8244 231.821 50.0271 239.388 50.9856C242.074 52.6177 240.527 55.972 240.588 58.7834C240.624 60.4563 241.265 61.9199 241.188 63.582C241.06 66.3137 239.596 69.0807 240.588 71.3798C239.928 73.3191 235.828 71.8183 234.59 73.1793C235.156 75.4197 238.474 74.3292 239.988 74.379C245.402 74.5559 251.467 74.6867 254.983 76.7783C258.506 75.7466 265.557 74.4444 268.778 76.7783C268.728 83.3267 266.338 87.5345 265.779 93.5736C264.463 94.2568 263.328 95.1217 260.981 94.7732C261.003 99.1496 263.409 101.142 262.78 106.17C263.788 108.96 266.058 110.49 266.978 113.368C268.048 122.094 270.705 129.235 275.375 134.362C276.278 139.858 278.527 144.006 280.174 148.758C279.983 151.567 278.891 153.474 278.374 155.956C276.529 156.91 277.471 160.651 275.375 161.354C274.308 162.122 269.779 162.51 268.778 161.354C266.885 160.848 267.071 158.262 265.179 157.755C265.71 164.976 264.46 171.95 265.179 178.15C265.854 183.967 268.755 188.805 269.377 193.745C272.965 198.754 275.29 205.027 277.175 211.74C280.146 216.966 284.266 221.044 288.57 224.936C288.837 227.602 286.946 228.11 286.171 229.735C288.569 233.239 291.8 234.524 291.569 238.733C291.478 240.402 290.903 240.761 289.77 242.331C289.501 242.704 288.789 243.178 288.57 243.531C287.285 245.598 284.957 249.139 283.172 250.729C283.457 264.93 283.69 278 284.972 290.918C285.48 296.041 286.878 300.942 287.971 305.913C289.111 311.104 289.686 316.267 290.37 321.509C291.69 331.642 294.317 341.621 293.968 352.1C286.394 353.823 277.414 351.9 270.577 350.9C269.317 351.841 268.67 353.392 266.978 353.899C261.327 353.456 255.478 354.727 250.784 353.3C249.855 353.017 249.294 352.226 248.385 352.1C247.247 351.942 245.759 352.792 244.187 352.7C229.678 351.848 212.006 351.657 193.205 351.5C190.256 351.75 188.772 353.465 186.008 353.899C179.432 352.878 171.278 353.435 163.816 353.3C160.349 353.568 160.826 349.892 157.818 349.701C135.194 350.061 110.571 353.037 87.6441 351.5C79.1344 350.93 70.7693 348.41 60.654 348.501C58.2615 347.908 58.8481 350.294 56.4556 349.701C40.0564 349.306 22.0756 350.494 6.6738 349.101C4.95123 349.813 3.48957 350.359 1.87556 349.701C-1.15333 345.081 0.307737 335.73 0.676002 329.306C1.88756 327.119 4.87626 326.709 6.6738 325.108C7.84097 314.119 10.0973 303.844 12.0718 292.717C14.0721 281.444 14.3702 267.636 14.4709 252.529C8.66267 251.54 6.49867 246.905 3.6749 242.931C4.59976 240.257 6.92751 238.986 8.47314 236.933C9.30684 233.579 11.6184 230.814 13.2714 227.336C14.5069 224.737 14.9814 222.159 16.2703 219.538C17.116 217.818 17.7283 217.468 18.6694 215.939C19.193 215.088 20.305 213.582 22.2681 213.54C20.6487 211.495 22.7635 209.322 23.4676 207.541C25.5309 202.323 29.1865 197.822 31.2648 191.946C29.0978 183.897 34.1245 178.615 34.8635 171.552C36.4817 170.371 40.1043 171.195 42.6606 170.952C42.5598 163.055 42.0098 155.607 40.2615 149.358C38.4843 149.861 37.908 152.29 37.2626 154.156C36.5596 156.189 37.0545 158.893 35.4632 160.155C33.6765 161.967 30.0628 161.952 27.0663 162.554C24.6186 161.403 24.2612 158.161 22.8679 155.956C22.3838 153.841 19.2068 154.419 19.2692 151.757C19.8576 146.456 22.46 141.904 24.0674 137.361C24.9485 134.871 25.4601 132.414 26.4665 130.163C27.3854 128.108 28.7313 126.29 29.4654 124.165C30.9643 121.703 28.3876 121.764 28.8657 118.766C32.6419 112.346 35.9767 105.484 39.0619 98.3722C38.4256 92.0026 35.8225 83.2751 38.4621 77.3781C44.6111 75.6242 54.6556 74.9218 61.8536 76.1785C64.1867 75.9128 64.3097 73.4361 65.4522 71.9797C74.0891 62.6223 79.324 49.8627 85.245 37.7893C87.9404 35.2868 89.7577 31.9056 91.8426 28.7919C91.6315 18.5678 93.6755 8.81871 93.6419 0.599835C94.1277 0.485868 94.2399 -0.00179452 94.8415 4.96721e-06C96.041 4.96721e-06 97.2406 4.96721e-06 98.4402 4.96721e-06C101.547 0.691609 104.2 1.83729 106.237 3.59899C108.791 3.24449 110.204 4.03027 112.235 4.19882C118.74 7.49069 126.735 9.29258 135.627 10.1971C137.32 10.503 138.174 11.6481 139.825 11.9966C142.063 11.7573 143.344 12.4759 143.424 14.3959Z" fill="#EAC27B"/>
</svg>
