<svg width="145" height="125" viewBox="0 0 145 125" fill="none" xmlns="http://www.w3.org/2000/svg">
<path d="M125.229 75.987C125.229 74.1584 123.939 72.6147 122.199 72.24C122.574 71.4297 122.772 70.5496 122.772 69.6587C122.772 66.2703 120.012 63.5117 116.624 63.5117C115.715 63.5117 114.816 63.7175 113.991 64.1115C113.497 61.1209 111.043 58.7977 108.048 58.4422C108.316 58.0904 108.571 57.7295 108.803 57.3562L120.173 62.4757C120.228 62.4987 120.282 62.5125 120.339 62.5125C120.492 62.5125 120.64 62.4234 120.707 62.2721C120.799 62.0709 120.707 61.8313 120.505 61.7415L109.209 56.6558C109.556 56.0122 109.851 55.3448 110.097 54.6575L118.094 57.0313C118.309 57.0959 118.531 56.973 118.595 56.7595C118.658 56.5467 118.538 56.3225 118.323 56.2587L110.342 53.8887C110.551 53.1783 110.702 52.4487 110.794 51.7084L114.939 52.1722C115.156 52.196 115.361 52.0371 115.386 51.8182C115.41 51.5962 115.25 51.395 115.028 51.3712L110.872 50.905C110.892 50.5909 110.905 50.2722 110.905 49.9543C110.905 49.4873 110.882 49.0242 110.837 48.5696L115.69 47.9698C115.908 47.9429 116.066 47.7409 116.039 47.5213C116.011 47.2985 115.817 47.1342 115.589 47.1703L110.733 47.7685C110.61 46.9598 110.412 46.1757 110.154 45.4192L120.448 42.4502C120.664 42.3864 120.786 42.1645 120.725 41.9517C120.664 41.7375 120.442 41.6123 120.227 41.676L109.869 44.662C109.62 44.0491 109.329 43.4586 108.998 42.8925L111.915 41.0225C112.1 40.9027 112.157 40.6538 112.035 40.4664C111.915 40.2775 111.666 40.2238 111.478 40.3428L108.572 42.2075C108.125 41.5332 107.625 40.9027 107.072 40.3167L111.418 36.0674C111.578 35.913 111.58 35.6565 111.425 35.4975C111.269 35.3393 111.017 35.3355 110.856 35.4906L106.502 39.7468C106.049 39.316 105.564 38.9159 105.056 38.548L109.414 31.8733C109.534 31.6883 109.482 31.4371 109.296 31.3158C109.11 31.1937 108.861 31.2474 108.738 31.4317L104.39 38.0949C103.834 37.7408 103.252 37.4229 102.649 37.1502L104.331 31.4026C104.391 31.1883 104.269 30.9656 104.058 30.9026C103.84 30.8389 103.619 30.9633 103.555 31.176L101.902 36.8354C101.31 36.6073 100.699 36.4176 100.07 36.2686L101.255 26.0427C101.279 25.8215 101.121 25.6219 100.899 25.595C100.683 25.5673 100.478 25.7294 100.451 25.949L99.2787 36.1081C98.6182 35.9921 97.937 35.9214 97.2481 35.9015V32.0892C97.2481 31.868 97.0676 31.6867 96.8449 31.6867C96.6214 31.6867 96.4409 31.868 96.4409 32.0892V35.9015C95.7474 35.9207 95.0586 35.9929 94.3804 36.1111L93.0464 29.1439C93.0042 28.925 92.7884 28.7814 92.5749 28.8244C92.3575 28.8651 92.2131 29.0763 92.2554 29.2952L93.5901 36.2763C92.4074 36.5558 91.2662 36.9974 90.1925 37.5765C90.0835 36.6656 89.9836 35.7917 89.893 34.9638C90.7624 35.0313 91.2854 35.0851 91.3069 35.0874C91.7193 35.1289 92.1125 34.92 92.3053 34.5575C92.4988 34.1912 92.4497 33.7457 92.1816 33.4324C87.3894 27.8122 82.6554 18.5056 82.6086 18.4111C82.4227 18.0463 82.0326 17.8259 81.6263 17.8636C81.2177 17.8966 80.8714 18.1738 80.7477 18.5655C79.0612 23.9338 76.2427 28.2953 74.7743 30.3466C73.5493 27.687 72.4334 24.8869 71.574 22.0468C71.4481 21.6306 71.0687 21.3403 70.6317 21.3311C70.197 21.2957 69.8038 21.593 69.6586 22.0031C69.6149 22.1244 66.2149 31.6499 60.7545 40.8312C60.8781 37.982 60.8973 36.0374 60.8943 34.9553C61.0056 34.9952 61.1216 35.0175 61.2383 35.0175C61.5125 35.0175 61.7851 34.9077 61.9841 34.6903C62.3588 34.2787 62.3297 33.642 61.9195 33.2665C60.9212 32.3533 59.2892 29.8297 58.7462 28.9335C58.5557 28.6216 58.2224 28.4366 57.8461 28.4496C57.4813 28.4642 57.1518 28.6746 56.9859 29.0018C55.923 31.0977 53.8341 33.2888 53.8134 33.311C53.4286 33.7127 53.4416 34.3517 53.8448 34.7357C54.053 34.9369 54.3241 35.0221 54.5929 35.0091C54.354 38.6325 53.7634 43.6014 53.4009 46.4814C52.3073 44.4416 51.2905 42.3672 50.4273 40.3175C50.2683 39.9396 49.8927 39.7192 49.4842 39.7023C49.0733 39.7084 48.707 39.9634 48.5595 40.3451C48.5388 40.3981 47.9797 41.8373 47.0358 44.0776C46.3269 43.6667 45.5275 43.4386 44.7019 43.4386C43.1774 43.4386 41.7612 44.1759 40.858 45.4277C40.1837 45.2695 39.5102 45.1904 38.8528 45.1904C33.8155 45.1904 29.7183 49.4074 29.7183 54.5922C29.7183 55.2557 29.7874 55.9185 29.9249 56.5721C29.4065 56.4438 28.8796 56.3801 28.3535 56.3801C24.5627 56.3801 21.48 59.5534 21.48 63.4564C21.48 64.8787 21.8839 66.2296 22.6519 67.4016C20.9009 68.1588 19.7197 69.9529 19.7197 71.9358C19.7197 73.3367 20.3134 74.6806 21.3264 75.6091C20.2865 76.7788 19.7197 78.2749 19.7197 79.8708C19.7197 83.3644 22.4822 86.2052 25.8775 86.2052C26.4574 86.2052 27.0341 86.1199 27.5978 85.9487C28.4457 88.3034 30.6137 89.933 33.056 90.0644C31.9155 94.5464 30.5853 99.3686 29.0808 104.181C28.0026 104.496 27.0257 104.798 26.1632 105.079C25.6341 105.254 25.3453 105.821 25.5181 106.35C25.6917 106.879 26.2577 107.166 26.7884 106.996C34.0106 104.64 49.1754 100.73 69.5765 101.065C93.2438 101.443 108.879 106.957 116.092 110.21C116.225 110.272 116.365 110.3 116.503 110.3C116.888 110.3 117.255 110.08 117.424 109.705C117.651 109.2 117.426 108.602 116.919 108.375C115.785 107.863 114.446 107.297 112.908 106.704C111.292 102.213 109.816 96.7467 108.607 91.6902C108.876 91.7186 109.16 91.7386 109.481 91.7386C111.872 91.7386 114.071 90.5789 115.431 88.6198C116.152 88.8855 116.907 89.0191 117.68 89.0191C121.279 89.0191 124.206 86.0908 124.206 82.4927C124.206 81.3584 123.914 80.2578 123.358 79.2779C124.51 78.5882 125.229 77.3402 125.229 75.987ZM57.9214 31.3811C58.2531 31.8803 58.6494 32.4547 59.0618 33.0054L56.5651 33.2196C56.9929 32.6913 57.4721 32.06 57.9214 31.3811Z" fill="#231F20"/>
<path d="M96.8466 36.701C103.578 36.701 109.152 41.7467 109.991 48.2562C109.991 48.2593 109.991 48.2631 109.993 48.2662C109.993 48.2724 109.993 48.2762 109.993 48.2816C110.062 48.8292 110.099 49.3883 110.099 49.9543C110.099 52.3043 109.472 54.6076 108.305 56.6174C108.295 56.6328 108.287 56.6458 108.28 56.6604C107.932 57.2533 107.539 57.8224 107.099 58.3577C107.088 58.3715 107.085 58.3861 107.077 58.3992C104.186 58.4744 101.677 60.4098 100.76 63.0809C96.2437 57.6949 92.5657 52.9095 92.1364 52.3497C91.4752 47.6265 90.8101 42.6844 90.2979 38.4389C92.2847 37.3039 94.5403 36.701 96.8466 36.701Z" fill="white"/>
<path d="M67.7718 82.5526C67.9315 82.9205 68.1604 83.4573 68.3386 83.9104C68.0383 83.9957 67.7465 84.0917 67.4623 84.1984C67.1259 83.6086 66.6236 82.7615 66.6236 82.7615L65.9294 83.1693C65.9294 83.1693 66.384 83.9404 66.7127 84.5118C66.3103 84.6976 65.9179 84.8988 65.55 85.1285C65.4133 84.9081 65.2727 84.6753 65.1345 84.4503C64.451 83.3298 64.3381 83.1601 64.2014 83.0702C64.0171 82.9458 63.7414 82.9773 63.6162 83.1601C63.4941 83.3459 63.5186 83.5756 63.703 83.6985C63.7951 83.8021 64.1714 84.4188 64.4464 84.8697C64.5938 85.1139 64.7413 85.3512 64.8818 85.5777C64.6384 85.7559 64.4034 85.9395 64.1768 86.133C63.6753 85.5762 63.0433 85.1162 62.9488 85.0501C62.7683 84.9196 62.5164 84.9618 62.3859 85.1431C62.2568 85.3243 62.3006 85.5754 62.4811 85.7052C62.703 85.8627 63.2068 86.2636 63.5824 86.6775C63.3074 86.9432 63.0425 87.2205 62.7944 87.507C62.1101 86.8664 61.1947 86.0954 60.9459 85.8888C60.7738 85.7459 60.5196 85.7705 60.3783 85.9395C60.2347 86.1123 60.2593 86.3657 60.4298 86.5093C60.9697 86.9563 61.7484 87.6298 62.286 88.1336C62.0387 88.4593 61.8083 88.7933 61.5887 89.1328C60.9428 88.6689 60.2462 88.1935 60.2024 88.1651C60.0174 88.0392 59.7678 88.0899 59.6426 88.2719C59.5174 88.4593 59.5658 88.7081 59.7509 88.8325C59.7624 88.8402 60.5112 89.3471 61.1663 89.8225C61.0004 90.1089 60.8445 90.3984 60.6955 90.6911C59.6249 90.0913 58.1857 89.3632 58.1158 89.3263C57.9153 89.2273 57.6742 89.3071 57.5744 89.5045C57.4738 89.7057 57.5536 89.9469 57.7518 90.0459C57.7679 90.0567 59.2762 90.8201 60.343 91.4153C60.1003 91.9437 59.8837 92.4728 59.6894 92.9966C59.1733 92.704 58.5428 92.4129 58.4453 92.3684C58.2425 92.277 58.0029 92.3653 57.9115 92.5665C57.8201 92.7708 57.9092 93.0104 58.112 93.1003C58.4737 93.2654 59.0451 93.5488 59.4183 93.7707C59.2563 94.2615 59.1127 94.7415 58.9875 95.2061C58.0098 94.7591 56.9077 94.4289 56.857 94.4143C56.6435 94.3513 56.4201 94.4742 56.3563 94.6869C56.2933 94.9012 56.4155 95.1232 56.6282 95.1861C56.6412 95.1923 57.8316 95.5479 58.7855 96.001C58.6657 96.5032 58.5658 96.9802 58.4844 97.4187C58.0236 97.3511 57.3201 97.0885 56.9116 96.9011C56.7088 96.8066 56.4692 96.898 56.3763 97.0977C56.2841 97.2989 56.3717 97.5385 56.5729 97.633C56.6958 97.6883 57.6089 98.1007 58.3454 98.212C58.2786 98.6383 58.231 99.0054 58.1964 99.3057C55.192 99.4869 52.3428 99.7511 49.6548 100.074C51.6808 93.4136 52.5593 86.878 52.9126 83.4327C56.7503 83.0802 61.8989 82.7116 67.7718 82.5526ZM68.6396 82.5311C68.7879 82.8759 68.9753 83.3198 69.1266 83.71C69.4576 83.6439 69.7993 83.5856 70.1511 83.5433C70.0842 83.0871 70.0389 82.7531 70.0105 82.505C69.5505 82.5134 69.0928 82.5211 68.6396 82.5311ZM59.5696 56.6458C59.3638 56.3386 59.1557 56.0253 58.9452 55.7066C58.966 55.5775 58.9905 55.4216 59.0174 55.235C59.6257 55.1106 60.8844 54.8771 61.73 54.8771C61.9535 54.8771 62.1339 54.6982 62.1339 54.4747C62.1339 54.2527 61.9535 54.0715 61.73 54.0715C60.9197 54.0715 59.82 54.2573 59.1288 54.391C59.1718 54.0423 59.2179 53.6476 59.2647 53.2029C59.6487 53.1391 60.1157 53.0693 60.4689 53.0693C60.6917 53.0693 60.8714 52.8903 60.8714 52.6676C60.8714 52.4433 60.6917 52.2644 60.4689 52.2644C60.1241 52.2644 59.7109 52.3182 59.3438 52.3742C59.3822 51.9587 59.4199 51.5102 59.4552 51.0302C60.0657 50.9104 61.5372 50.6462 62.7299 50.604C62.9519 50.5963 63.1262 50.4097 63.1185 50.1862C63.1108 49.965 62.9311 49.7822 62.703 49.7976C61.561 49.8368 60.2255 50.0641 59.5105 50.1985C59.532 49.8598 59.5527 49.5096 59.5704 49.1463C61.869 48.6418 65.4962 48.0658 70.0835 48.0658C73.9496 48.0658 77.861 48.4782 81.7478 49.28C81.7731 51.382 81.9644 57.0759 83.1202 66.0699C78.3509 66.2212 72.3037 66.3817 66.6805 66.4193C66.6782 66.4147 66.6782 66.4116 66.6743 66.407C66.6252 66.3471 64.3688 63.5509 61.4289 59.3568C61.7615 59.3484 62.1063 59.3576 62.3536 59.4175C62.3835 59.4221 62.4143 59.4252 62.4442 59.4252C62.627 59.4252 62.7937 59.3008 62.8374 59.1149C62.8866 58.8976 62.7522 58.6818 62.5341 58.6319C62.0433 58.5182 61.3444 58.5435 60.886 58.5781C60.6233 58.1987 60.3576 57.8093 60.0857 57.4107C60.886 57.3462 61.9957 57.2948 62.6347 57.4269C62.852 57.4706 63.0663 57.3324 63.1108 57.1128C63.1562 56.8946 63.0164 56.6819 62.7975 56.6366C61.9212 56.4554 60.3837 56.5667 59.5696 56.6458ZM63.5232 61.3252C63.5217 61.6048 63.6354 61.8728 63.8366 62.0633C64.0378 62.2552 64.3104 62.3505 64.5885 62.3367C65.7128 62.2721 67.0222 62.2414 68.4814 62.2414C72.2016 62.2414 75.7029 62.4511 75.7375 62.4557C75.7582 62.4557 75.7789 62.4572 75.7989 62.4572C76.0692 62.4572 76.3273 62.3474 76.5193 62.1546C76.7236 61.9473 76.8272 61.6601 76.805 61.3713C76.5193 57.7133 75.9886 50.9066 70.3791 50.9066C63.6607 50.9074 63.5248 60.902 63.5232 61.3252ZM62.167 52.8427C62.1839 52.8427 62.2023 52.8412 62.2184 52.8396C62.6001 52.7912 63.6976 52.6806 64.1929 52.7513C64.4164 52.7797 64.6176 52.6284 64.6499 52.4111C64.6806 52.1907 64.5286 51.9864 64.3081 51.9549C63.6054 51.8535 62.177 52.0332 62.1163 52.0401C61.8959 52.0686 61.7392 52.2713 61.7676 52.4917C61.7937 52.6952 61.9673 52.8427 62.167 52.8427ZM79.0514 82.5588C77.768 82.5242 76.4709 82.5004 75.1569 82.4912C75.0025 82.859 74.8235 83.3413 74.7598 83.7184C75.1607 83.7952 75.5462 83.8912 75.9179 83.9972C76.1053 83.4051 76.3158 82.7669 76.3158 82.7669L77.0799 83.0219C77.0799 83.0234 76.8695 83.6608 76.6829 84.2506C76.9993 84.3689 77.3019 84.4933 77.5952 84.63C78.1397 83.6731 78.907 82.6993 78.95 82.644C78.9769 82.6079 79.0137 82.5826 79.0514 82.5588ZM70.82 82.4942C70.8507 82.7415 70.896 83.0718 70.9567 83.4827C71.0657 83.478 71.1679 83.4635 71.2792 83.4573C71.5511 83.4512 71.8115 83.4542 72.0733 83.4573C72.091 83.1785 72.0818 82.8168 72.0603 82.4812C71.6448 82.485 71.2316 82.4866 70.82 82.4942ZM92.1188 83.3951C88.1168 82.9765 83.8982 82.7024 79.5006 82.5718C79.506 82.5733 79.5122 82.5733 79.516 82.578C79.6911 82.7162 79.7203 82.9712 79.5813 83.1463C79.5705 83.1586 78.8194 84.1109 78.3079 85.0017C78.5867 85.1607 78.8532 85.3304 79.109 85.5086C79.5513 84.8397 80.0536 84.1255 80.0858 84.0809C80.2126 83.8981 80.4645 83.8544 80.6465 83.9834C80.8293 84.1124 80.8723 84.3643 80.7433 84.544C80.7356 84.5548 80.1995 85.3182 79.7541 85.9963C79.9453 86.1522 80.1296 86.3143 80.3086 86.4824C81.0696 85.6952 82.1157 84.7368 82.4021 84.4803C82.5665 84.3321 82.8214 84.3436 82.9712 84.5087C83.1194 84.6738 83.1079 84.9288 82.9443 85.077C82.2009 85.749 81.4129 86.5009 80.873 87.0538C81.1319 87.3357 81.3784 87.6268 81.608 87.9286C81.9843 87.6298 82.5557 87.222 83.4381 86.646C83.6225 86.5278 83.8736 86.5784 83.9949 86.7658C84.1155 86.9501 84.0633 87.2005 83.8767 87.3226C83.2354 87.7397 82.5227 88.2373 82.0719 88.5898C82.2163 88.8072 82.353 89.0291 82.4828 89.2526C83.0925 88.8386 83.5165 88.801 83.5779 88.7995C83.8037 88.7933 83.9873 88.9646 83.9972 89.1881C84.0049 89.4054 83.8352 89.5913 83.6163 89.6051C83.5971 89.6082 83.3114 89.6489 82.8706 89.9668C83.0073 90.2341 83.134 90.5098 83.2569 90.784C83.8291 90.5759 84.713 90.2725 85.4864 90.1135C85.7007 90.0697 85.9165 90.2065 85.9625 90.4253C86.0086 90.6442 85.8673 90.8562 85.6507 90.9007C84.9411 91.0474 84.1155 91.3285 83.5672 91.5289C83.7123 91.9022 83.8483 92.2793 83.9696 92.6587C84.5456 92.4713 85.2537 92.2854 85.7076 92.3422C85.928 92.3691 86.0839 92.5719 86.057 92.7954C86.0278 93.0158 85.8212 93.1655 85.6062 93.1417C85.319 93.1026 84.746 93.2485 84.2031 93.4267C84.3344 93.8859 84.4488 94.3444 84.5525 94.8021C84.905 94.7138 85.2929 94.6401 85.6361 94.6224C85.8796 94.6086 86.047 94.7829 86.0585 95.0049C86.0701 95.2268 85.8996 95.4142 85.6776 95.4265C85.3827 95.4419 85.0371 95.5102 84.7207 95.5886C84.7821 95.8919 84.8367 96.1899 84.8881 96.4871C85.6392 96.3596 86.7083 96.1991 87.1583 96.2352C87.381 96.2544 87.5462 96.4495 87.5262 96.6699C87.5085 96.8949 87.292 97.0493 87.0915 97.0385C86.7674 97.007 85.8274 97.1422 85.0148 97.2797C85.0701 97.6483 85.1193 98.0101 85.1631 98.3641C85.5847 98.3203 86.1185 98.3149 86.5362 98.4901C86.7413 98.5768 86.8381 98.8126 86.7528 99.0169C86.6883 99.1728 86.5378 99.2657 86.3803 99.2657C86.3297 99.2657 86.2751 99.2565 86.226 99.2342C85.9741 99.129 85.5893 99.1306 85.2575 99.1636C85.2944 99.4923 85.3259 99.8072 85.3574 100.113C89.202 100.581 92.7486 101.17 95.9918 101.836C95.2115 98.4954 93.3238 90.2249 92.1188 83.3951ZM72.8675 82.4789C72.8859 82.7861 72.8966 83.1601 72.8767 83.4896C73.2507 83.5103 73.6132 83.5433 73.9642 83.5917C74.0248 83.2254 74.1585 82.8222 74.2898 82.482C74.0387 82.4804 73.7929 82.4743 73.5402 82.4743C73.3144 82.4743 73.0917 82.4743 72.8675 82.4789Z" fill="#FFFBDE"/>
<path d="M60.2262 99.1951C63.2168 99.0584 66.3479 99.0015 69.6127 99.0507C70.1687 99.0599 70.7163 99.076 71.2623 99.0899L71.482 85.4733C71.4359 85.4733 71.3937 85.4733 71.346 85.4733C62.544 85.7682 60.6248 95.8074 60.2262 99.1951ZM70.5066 94.273C70.3415 95.0978 69.4614 95.8197 68.6204 95.8197C68.5421 95.8197 68.4645 95.8136 68.3862 95.8021C67.9807 95.7329 67.6074 95.4795 67.334 95.0794C67.0253 94.6324 66.8924 94.0687 66.9854 93.6064C67.0937 93.0634 67.4761 92.4997 68.0314 92.2263C68.0421 91.863 68.1312 91.4506 68.4046 90.999C68.5198 90.8086 68.7694 90.7517 68.9583 90.8623C69.1488 90.9775 69.2103 91.2286 69.0943 91.4191C68.953 91.6503 68.88 91.8692 68.8485 92.0612C69.0167 92.0734 69.1849 92.1003 69.3554 92.1633C70.1795 92.4536 70.6863 93.3806 70.5066 94.273ZM69.7164 94.1155C69.6211 94.5925 68.9929 95.0832 68.5183 95.0049C68.334 94.9734 68.1443 94.8352 67.9976 94.624C67.8125 94.3552 67.7249 94.0165 67.7749 93.763C67.8186 93.5457 67.9592 93.2754 68.175 93.0864C68.2871 93.3744 68.4223 93.5488 68.4369 93.5664C68.5167 93.664 68.6312 93.7146 68.7479 93.7146C68.8355 93.7146 68.9238 93.6847 68.9983 93.6279C69.1718 93.4912 69.201 93.2362 69.0659 93.0642C69.059 93.0549 69.0175 92.9966 68.9706 92.9006C69.0106 92.9113 69.0467 92.9067 69.0858 92.9198C69.5343 93.081 69.817 93.6148 69.7164 94.1155ZM76.1898 93.889C76.3972 94.3014 76.2543 94.6432 76.1506 94.8114C75.9632 95.1155 75.633 95.3105 75.3104 95.3105C74.6676 95.3105 73.8559 94.9519 73.69 93.9366C73.6416 93.6378 73.7307 93.326 73.9357 93.0864C74.1362 92.8507 74.4111 92.7201 74.7099 92.7201C74.7621 92.7201 74.8105 92.7262 74.8596 92.7293C74.8082 92.896 74.7398 93.068 74.6346 93.2577C74.5255 93.4512 74.5939 93.697 74.7874 93.8068C74.8519 93.8398 74.9195 93.8575 74.9848 93.8575C75.1277 93.8575 75.2636 93.7822 75.3373 93.6517C75.4571 93.4374 75.5462 93.2316 75.6153 93.0365C75.8104 93.2185 75.9886 93.4889 76.1898 93.889ZM72.2884 85.4717L72.0695 99.1114C76.0485 99.2358 79.7886 99.5046 83.2984 99.8809C82.4497 92.3515 80.2947 85.6799 72.2884 85.4717ZM76.8349 95.2361C76.4993 95.7806 75.9148 96.1177 75.3104 96.1177C74.2752 96.1177 73.127 95.4849 72.8943 94.0672C72.8068 93.5349 72.9634 92.9858 73.3213 92.5642C73.6723 92.1502 74.1776 91.916 74.7099 91.916C74.7936 91.916 74.8688 91.9268 74.9472 91.9321C74.8965 91.479 74.6868 91.2148 74.6822 91.211C74.5363 91.0428 74.554 90.7894 74.7229 90.6442C74.8896 90.4975 75.1438 90.5152 75.2905 90.6834C75.3189 90.7164 75.7797 91.264 75.7697 92.1579C76.2627 92.4221 76.5945 92.9006 76.9094 93.5242C77.1882 94.0841 77.1621 94.7054 76.8349 95.2361ZM58.188 69.9828C57.2372 69.9828 56.4439 69.5136 55.9623 69.1442C56.1213 68.8139 56.2534 68.5351 56.3578 68.3086C57.7333 68.3639 59.3169 68.4015 61.0918 68.4253C60.1794 69.4422 59.2163 69.969 58.2256 69.982C58.2118 69.9828 58.2003 69.9828 58.188 69.9828ZM65.199 70.2363C63.6968 70.2363 62.3866 68.8815 61.9919 68.433C62.7291 68.4391 63.4941 68.4422 64.2912 68.4422C65.4885 68.4422 66.7189 68.433 67.9623 68.423C67.9254 68.4484 67.8893 68.4783 67.8624 68.5175C67.0783 69.6318 66.2035 70.2125 65.2612 70.2347C65.2412 70.2363 65.2197 70.2363 65.199 70.2363ZM84.8904 69.3331C83.965 69.2179 83.3229 68.4898 83.0319 68.0851C84.8136 68.0298 86.4195 67.973 87.7658 67.9215C86.7436 68.9637 85.7721 69.4398 84.8904 69.3331ZM79.2072 69.8446C77.4631 69.9705 75.984 68.4568 75.8265 68.2909C77.96 68.2402 80.0213 68.1796 81.919 68.1227C81.0988 69.1949 80.1895 69.7755 79.2072 69.8446ZM68.4584 68.4453C68.4453 68.433 68.4277 68.4276 68.4138 68.4199C70.6564 68.3961 72.9381 68.3554 75.1561 68.3047C74.3704 69.274 73.4496 69.8139 72.4166 69.9053C70.3584 70.0842 68.4783 68.4599 68.4584 68.4453ZM88.6582 67.8885C89.8294 67.8432 90.7464 67.8063 91.3224 67.7802C91.5589 68.3247 91.797 68.8523 92.0351 69.37C90.3125 69.7332 89.0023 68.3101 88.6582 67.8885ZM92.3845 70.1218C92.9828 71.3921 93.5826 72.5848 94.1678 73.6976C91.8469 73.7099 90.8063 71.8345 90.7594 71.7477C90.6896 71.6171 90.5528 71.5365 90.4031 71.5365C90.2564 71.5365 90.1174 71.6148 90.0483 71.7477C89.3648 73.0195 88.586 73.7022 87.7328 73.7744C86.3174 73.8973 85.0348 72.2937 85.0225 72.2791C84.9442 72.1785 84.8152 72.1294 84.7 72.1248C84.5732 72.1248 84.4565 72.1847 84.3797 72.2868C83.4358 73.5632 82.4444 74.2114 81.4367 74.2114C81.4283 74.2114 81.4206 74.2114 81.4129 74.2114C79.8024 74.1937 78.6036 72.531 78.5913 72.5118C78.5137 72.4035 78.387 72.3436 78.2526 72.3406C78.1175 72.3452 77.9938 72.4158 77.9201 72.531C77.1099 73.809 76.222 74.4671 75.2828 74.481C75.2728 74.481 75.2628 74.481 75.2536 74.481C73.5079 74.481 72.038 72.3206 72.0234 72.3045C71.9505 72.1931 71.8322 72.1286 71.7016 72.1248C71.578 72.1294 71.4505 72.177 71.3699 72.2791C70.3814 73.554 69.3032 74.2183 68.1673 74.2544C66.328 74.3143 64.8903 72.6992 64.8764 72.6808C64.7996 72.5955 64.6722 72.5203 64.5746 72.5441C64.4602 72.5441 64.3511 72.5925 64.2728 72.6792C63.2237 73.8451 62.1923 74.3834 61.2223 74.2751C59.7278 74.1146 58.7778 72.4826 58.7693 72.4673C58.6995 72.3444 58.5689 72.2661 58.4299 72.2645C58.2817 72.2707 58.1557 72.3306 58.0797 72.4488C57.5382 73.3006 56.8494 73.8213 56.033 74.001C55.0745 74.2137 54.1184 73.9173 53.5285 73.6607C54.4079 72.1578 55.0945 70.8691 55.5968 69.8745C56.185 70.3023 57.0844 70.7854 58.1872 70.7854C58.1995 70.7854 58.2126 70.7854 58.2256 70.7854C59.3953 70.7746 60.5089 70.2201 61.538 69.1342C62.137 69.7778 63.5309 71.0419 65.1982 71.0419C65.2251 71.0419 65.252 71.0419 65.2789 71.0403C66.384 71.015 67.3886 70.4344 68.2687 69.3185C68.9614 69.8315 70.6172 70.8722 72.4819 70.7063C73.6278 70.6072 74.6484 70.0719 75.5232 69.1181C76.1383 69.6779 77.5691 70.7662 79.2549 70.6464C80.4514 70.568 81.5381 69.9175 82.4874 68.7103C82.8982 69.234 83.6708 69.9897 84.7829 70.1341C85.8973 70.277 87.05 69.7624 88.2158 68.6158C89.0384 69.5282 90.5905 70.5918 92.3845 70.1218ZM94.5841 74.4733C95.6185 76.3795 96.607 78.0268 97.484 79.4038C95.6216 79.6811 94.1901 77.92 94.1225 77.8363C94.0511 77.748 93.9466 77.6935 93.8337 77.6866C93.7208 77.6797 93.6102 77.7181 93.5273 77.7979C93.5165 77.8056 92.3753 78.8662 91.0367 78.7487C90.2234 78.6735 89.4777 78.1789 88.8202 77.2711C88.7504 77.1705 88.6375 77.1106 88.5169 77.1044C88.3925 77.0968 88.2765 77.1451 88.1959 77.235C88.1836 77.2488 86.9102 78.6281 85.3466 78.5636C84.4381 78.5291 83.5879 78.0114 82.8184 77.0261C82.7462 76.9316 82.6348 76.8763 82.5173 76.8717C82.3944 76.8594 82.2846 76.9124 82.2055 76.9992C82.1894 77.0154 80.7271 78.5636 78.9477 78.5636C78.92 78.5636 78.8908 78.5636 78.8624 78.5621C77.8679 78.5352 76.9424 78.013 76.1091 77.0154C75.9686 76.8441 75.7113 76.8218 75.5431 76.9631C75.3834 77.0937 71.6394 80.1403 68.7349 77.1113C68.5882 76.9601 68.3447 76.9447 68.1811 77.086C68.0337 77.2135 64.5163 80.1787 61.6278 77.1582C61.5495 77.0776 61.4435 77.0246 61.3268 77.0338C61.2146 77.0338 61.1079 77.0845 61.0326 77.1705C61.0142 77.1912 59.1987 79.2287 57.3055 79.0743C56.3509 78.9945 55.5015 78.357 54.7827 77.1828C54.7105 77.0645 54.5815 76.9908 54.4425 76.9892C54.3027 76.9716 54.1744 77.0553 54.0992 77.172C54.083 77.1974 52.5747 79.4921 49.7661 79.4776C51.0748 77.6374 52.1899 75.9048 53.1154 74.3612C53.7996 74.6745 54.967 75.0631 56.1996 74.792C57.0636 74.6015 57.8078 74.1262 58.413 73.3697C58.8838 73.9787 59.8192 74.9341 61.1325 75.0785C62.2799 75.2014 63.4411 74.6822 64.5815 73.5287C65.1637 74.0686 66.4892 75.1215 68.1873 75.06C69.4437 75.0239 70.6157 74.3911 71.6755 73.1746C72.2661 73.9034 73.6109 75.2866 75.2536 75.2866C75.2667 75.2866 75.279 75.2866 75.2905 75.2866C76.3933 75.2712 77.4009 74.643 78.2933 73.4142C78.8378 74.011 79.9553 74.9994 81.3991 75.0147C81.4129 75.0178 81.4244 75.0178 81.4383 75.0178C82.5987 75.0178 83.7023 74.3911 84.7245 73.1531C85.2736 73.7168 86.4279 74.6906 87.7973 74.5777C88.7926 74.4956 89.6773 73.8574 90.4323 72.68C91.0444 73.4373 92.4076 74.6522 94.5841 74.4733ZM97.9517 80.1273C98.5162 80.9867 99.0284 81.7278 99.4639 82.3322C91.6918 81.0903 82.985 80.4598 73.541 80.4598C62.0433 80.4598 52.3305 81.4121 47.9621 81.9205C48.396 81.3553 48.8084 80.7985 49.2093 80.2509C49.4129 80.2686 49.6156 80.2901 49.8084 80.2901C52.2099 80.2901 53.7574 78.8578 54.4163 78.0821C55.2151 79.1849 56.1643 79.7878 57.2426 79.8777C59.0727 80.0244 60.697 78.6458 61.346 78.0099C64.173 80.5973 67.4277 78.6328 68.4115 77.9231C71.2616 80.5643 74.6976 78.5475 75.7428 77.8164C76.6698 78.8155 77.712 79.3385 78.8463 79.3685C80.5029 79.3969 81.8637 78.3947 82.4682 77.8625C83.3183 78.8225 84.2768 79.3309 85.3167 79.3716C86.7374 79.4184 87.8987 78.5882 88.4524 78.1059C89.1858 78.9806 90.0314 79.466 90.9637 79.5505C92.2025 79.6619 93.2547 79.0267 93.7615 78.6458C94.5902 79.5167 96.1823 80.5696 97.9517 80.1273ZM106.4 74.9986C106.999 74.9986 107.638 74.8396 108.303 74.5424C108.876 75.1276 109.439 75.6852 109.989 76.2136C106.801 75.8142 101.739 75.2328 97.1407 74.9172C96.8834 74.4625 96.6208 73.9887 96.3543 73.4979C96.6062 73.5624 96.8665 73.6031 97.1407 73.5893C97.7351 73.5548 98.2735 73.309 98.7489 72.8574C99.1444 73.3267 99.8963 74.0302 100.909 74.1208C101.723 74.1914 102.518 73.8719 103.289 73.1608C103.61 73.6677 104.228 74.4226 105.21 74.7851C105.589 74.9264 105.986 74.9986 106.4 74.9986ZM93.472 61.6823C93.2316 60.0388 92.9728 58.2432 92.7032 56.3624C93.8191 57.7832 95.2952 59.6325 96.9718 61.68C95.8804 62.6569 94.3437 62.1216 93.472 61.6823ZM100.077 68.7886C100.794 68.7886 101.528 68.5098 102.269 67.9668C104.067 70.0335 105.917 72.081 107.691 73.9188C106.887 74.2229 106.146 74.2728 105.497 74.0309C104.297 73.5932 103.759 72.3452 103.752 72.3329C103.701 72.2069 103.584 72.1171 103.448 72.0925C103.308 72.0718 103.173 72.1179 103.08 72.22C102.374 73.0103 101.669 73.3812 100.988 73.3213C99.884 73.2238 99.1283 72.0265 99.1221 72.0165C99.0515 71.9043 98.934 71.8337 98.8019 71.826C98.6713 71.8199 98.5446 71.8744 98.464 71.9758C98.0608 72.4826 97.603 72.7545 97.1015 72.7845C96.6062 72.8175 96.1262 72.6086 95.7714 72.3943C95.4404 71.7646 95.1101 71.1164 94.7776 70.4382C94.7246 70.0903 94.5833 69.1649 94.3813 67.8055C95.1193 67.9031 96.1538 67.8309 97.2536 67.0944C97.6253 67.6297 98.4141 68.5405 99.5929 68.744C99.7519 68.7748 99.9139 68.7886 100.077 68.7886ZM95.4757 63.0255C96.1823 63.0255 96.8842 62.8243 97.4809 62.3013C98.8111 63.918 100.253 65.6367 101.742 67.357C101.037 67.8578 100.366 68.0621 99.735 67.9522C98.4701 67.7349 97.7305 66.3394 97.7244 66.3264C97.6683 66.2181 97.5677 66.1405 97.4494 66.1167C97.3319 66.0929 97.2075 66.1213 97.1146 66.1966C95.9726 67.1113 94.8959 67.1013 94.2546 66.9677C94.0726 65.7542 93.856 64.2843 93.6125 62.6316C94.1832 62.8589 94.829 63.0255 95.4757 63.0255ZM76.1545 33.1981C76.0239 32.9378 75.8926 32.6736 75.762 32.4102C75.9156 32.2082 76.1092 31.9486 76.338 31.6353C76.421 31.6437 76.5001 31.6568 76.5938 31.6568C77.3211 31.6568 78.3187 31.3703 79.3808 30.2137C79.9023 30.6161 81.0074 31.3073 82.2685 31.2167C83.0979 31.1576 83.8459 30.7789 84.5018 30.0885C85.2207 30.8903 86.5324 31.775 88.093 31.4333C88.4432 31.9271 88.801 32.4125 89.162 32.8871C86.1668 32.6882 80.84 32.5008 76.1545 33.1981ZM76.9156 30.8166C77.616 29.7982 78.483 28.4419 79.3731 26.8176C80.1895 26.995 81.267 26.9297 82.1395 26.0473C82.6079 26.5089 83.3713 26.9628 84.3513 26.9628C84.5817 26.9628 84.8267 26.9336 85.0816 26.8775C85.8527 28.124 86.6921 29.4242 87.5746 30.6968C85.9764 30.8181 84.8981 29.3044 84.8436 29.2284C84.7706 29.1216 84.6516 29.0579 84.5248 29.054C84.3966 29.0525 84.2752 29.107 84.1946 29.2084C83.6125 29.9533 82.9474 30.3581 82.2155 30.4111C80.8331 30.5101 79.6258 29.3704 79.6128 29.3597C79.5321 29.2829 79.4169 29.2368 79.3102 29.2476C79.198 29.2552 79.0936 29.3067 79.0206 29.3927C78.2196 30.375 77.4816 30.7229 76.9156 30.8166ZM79.7756 26.0704C80.5105 24.668 81.2478 23.0944 81.9021 21.3825C82.5711 22.6151 83.5165 24.2978 84.6308 26.1387C83.2569 26.2946 82.5112 25.254 82.4735 25.2002C82.4006 25.0904 82.2792 25.0251 82.1479 25.0236C81.9805 25.0336 81.8937 25.082 81.8154 25.1872C81.181 26.0489 80.3731 26.1518 79.7756 26.0704ZM63.6722 39.8344C64.6507 38.0956 65.55 36.3776 66.3641 34.7326C66.7458 35.019 67.2926 35.307 67.9546 35.307C67.983 35.307 68.0099 35.307 68.0383 35.3055C68.8862 35.274 69.6864 34.7779 70.4221 33.8279C70.7378 34.1443 71.2539 34.5306 71.9697 34.6397C72.7138 34.7533 73.4926 34.5391 74.2936 34.0145C75.2021 35.8178 76.136 37.5196 77.0523 39.0994C76.4885 39.2615 75.9694 39.2822 75.5063 39.1263C74.534 38.7991 74.0978 37.853 74.0939 37.8453C74.0356 37.7116 73.9081 37.6187 73.7622 37.6049C73.6139 37.5903 73.4749 37.6571 73.3928 37.7792C72.5564 38.9973 71.6148 39.6516 70.5957 39.7199C68.8885 39.839 67.4538 38.2815 67.44 38.2646C67.3563 38.1747 67.2365 38.1264 67.1113 38.134C66.9884 38.1448 66.8755 38.2078 66.8072 38.3107C65.6905 39.9742 64.4418 40.0225 63.6722 39.8344ZM70.0827 46.0505C65.2366 46.0505 61.4343 46.6596 59.0266 47.1948C59.3185 46.7886 59.6011 46.3762 59.8845 45.9622C60.0135 45.9776 60.1494 45.9876 60.2954 45.9876C61.23 45.9876 62.4749 45.6143 63.5156 44.0077C64.0286 44.5737 65.017 45.4384 66.2919 45.4738C67.3747 45.506 68.3701 44.9538 69.3147 43.8449C69.9729 44.4623 71.5273 45.6919 73.2937 45.5629C74.3896 45.4807 75.3627 44.8916 76.1952 43.8134C76.8818 44.6589 78.5529 46.2203 80.9944 45.3954C81.4882 46.1273 81.9428 46.7847 82.3376 47.3377C78.2588 46.4814 74.1462 46.0505 70.0827 46.0505ZM68.0137 34.5006C67.4723 34.5191 67.0161 34.2303 66.7281 33.9907C68.4254 30.5032 69.724 27.4151 70.545 25.3507C71.5265 28.1048 72.6992 30.7751 73.9327 33.2803C73.2768 33.7311 72.6601 33.9277 72.0979 33.8448C71.2278 33.7173 70.7455 32.9639 70.7409 32.9585C70.6694 32.841 70.5412 32.7681 70.4045 32.7665C70.2716 32.7681 70.138 32.8318 70.062 32.9462C69.3976 33.9492 68.7072 34.4715 68.0137 34.5006ZM60.4067 45.1858C61.4174 43.6628 62.372 42.1023 63.2637 40.5486C63.5578 40.64 63.9172 40.7145 64.3197 40.7145C65.1829 40.7145 66.2312 40.3781 67.1943 39.1501C67.7941 39.6815 69.0997 40.6362 70.6456 40.5248C71.7707 40.4518 72.7945 39.8467 73.693 38.7262C73.9895 39.1255 74.4895 39.6324 75.2375 39.8874C75.9195 40.1193 76.6675 40.094 77.4723 39.8221C78.5552 41.6576 79.6005 43.3011 80.5236 44.692C78.0291 45.367 76.6053 43.0315 76.54 42.9171C76.4686 42.7973 76.3419 42.722 76.2028 42.719C76.0562 42.7159 75.9317 42.7835 75.8565 42.9018C75.0992 44.0568 74.2183 44.6835 73.2376 44.7588C71.3499 44.9085 69.6019 42.9916 69.585 42.9709C69.5044 42.8818 69.393 42.8403 69.2678 42.8372C69.1488 42.8449 69.0367 42.9025 68.963 42.9962C68.1066 44.129 67.2296 44.682 66.3203 44.6674C64.8764 44.6297 63.8097 43.0907 63.7989 43.0753C63.7206 42.9601 63.587 42.8887 63.4457 42.8995C63.3044 42.9079 63.1769 42.9878 63.1116 43.1122C62.2407 44.7319 61.1901 45.1466 60.4067 45.1858ZM56.2357 65.394C47.8292 65.394 40.8359 66.7273 37.1318 67.6097C37.555 67.0022 37.9743 66.3617 38.3921 65.712C39.4051 65.5392 40.9956 64.9425 42.3888 62.9672C43.0155 63.4456 44.3986 64.3158 46.0959 64.2421C47.4207 64.1929 48.6579 63.5954 49.7777 62.468C50.4543 63.0778 52.1769 64.4102 54.1683 64.3096C55.4263 64.2513 56.5637 63.6484 57.559 62.5164C58.2364 63.2152 59.9183 64.5692 62.4012 64.1453C62.8497 64.7497 63.2591 65.2942 63.6131 65.7596C61.2131 65.5169 58.7417 65.394 56.2357 65.394ZM39.0234 64.7159C40.127 62.9326 41.1991 61.0288 42.2221 59.1019C43.037 59.2524 44.5415 59.1817 46.1051 57.3524C46.5682 57.9353 47.5144 58.8799 48.9252 59.1326C49.1617 59.1748 49.399 59.1948 49.6379 59.1948C50.7837 59.1948 51.978 58.7179 53.2014 57.7671C53.8811 58.277 55.7465 59.3568 58.3685 58.4644C59.641 60.3391 60.8345 62.0149 61.8559 63.4065C59.343 63.6284 57.943 61.7507 57.8754 61.6593C57.8009 61.5571 57.6826 61.4949 57.5551 61.4926C57.3946 61.4811 57.3078 61.5479 57.2295 61.6493C56.3171 62.8243 55.275 63.4479 54.1345 63.5055C51.9703 63.6192 50.0764 61.6378 50.0572 61.6201C49.9804 61.5364 49.8675 61.4849 49.7592 61.4926C49.6463 61.4949 49.5388 61.5418 49.4635 61.624C48.4237 62.779 47.2832 63.388 46.0721 63.438C44.1014 63.4979 42.5946 62.094 42.58 62.0809C42.494 61.9987 42.3757 61.9596 42.2528 61.9734C42.1346 61.9895 42.027 62.0548 41.9625 62.1569C40.9849 63.6883 39.8889 64.3964 39.0234 64.7159ZM49.5488 47.9744C48.813 47.9736 48.2079 47.6718 47.8147 47.4068C48.5181 45.7894 49.1118 44.3732 49.5503 43.3011C50.1632 44.6182 50.8298 45.9338 51.5248 47.2371C50.8805 47.7248 50.2193 47.9744 49.5526 47.9744C49.5519 47.9744 49.5503 47.9744 49.5488 47.9744ZM42.6222 58.3392C43.5584 56.546 44.4462 54.7512 45.2626 53.027C45.7326 53.3642 46.3524 53.6798 47.0866 53.6975C47.9567 53.7167 48.8 53.3165 49.5741 52.5032C50.0948 52.9817 51.1915 53.8188 52.5033 53.8188C52.5394 53.8188 52.5739 53.8188 52.61 53.818C53.3865 53.7904 54.1053 53.4717 54.7566 52.868C55.52 54.1137 56.2864 55.3249 57.0414 56.4753C57.0552 56.4991 57.0675 56.5199 57.0836 56.5398C57.3578 56.9584 57.6289 57.3662 57.8984 57.7694C55.1989 58.5888 53.5639 57.0367 53.4886 56.9614C53.3412 56.8171 53.1061 56.8055 52.9472 56.9369C51.5694 58.0774 50.2661 58.552 49.0742 58.3415C47.4092 58.0459 46.4822 56.4953 46.4737 56.4799C46.4046 56.3639 46.2833 56.2879 46.1481 56.2795C46.0145 56.2756 45.8847 56.3317 45.8033 56.4407C44.5315 58.1357 43.3334 58.3845 42.6222 58.3392ZM47.1096 52.8903C46.5129 52.8788 45.9899 52.5816 45.6113 52.2859C46.2925 50.8298 46.9238 49.4343 47.486 48.1564C47.9759 48.4628 48.681 48.7769 49.5365 48.7808C49.5419 48.7808 49.5465 48.7808 49.5526 48.7808C50.3644 48.7808 51.1539 48.5004 51.9104 47.9513C52.6884 49.3829 53.4994 50.7891 54.3234 52.1561C53.7851 52.696 53.2037 52.9901 52.5854 53.0124C51.1416 53.0808 49.8729 51.6638 49.8606 51.65C49.7815 51.5601 49.6402 51.5133 49.5519 51.5133C49.4336 51.5141 49.3215 51.5678 49.2462 51.6607C48.5581 52.4917 47.8239 52.9264 47.1096 52.8903Z" fill="#AC693E"/>
<path d="M43.2783 80.3193C43.8958 80.2471 44.4357 80.1887 44.8297 80.148C45.1077 79.0682 45.4932 77.5199 45.772 75.9678L43.8666 76.2451C43.6093 77.8847 43.4058 79.36 43.2783 80.3193Z" fill="white"/>
<path d="M88.9065 43.5231C88.587 44.0046 88.1193 45.2526 88.4295 48.2785C88.7521 48.3261 89.1453 48.4037 89.5731 48.5219C89.3434 46.837 89.1184 45.1574 88.9065 43.5231Z" fill="white"/>
<path d="M40.4797 80.6879C41.1563 80.5873 41.8276 80.4974 42.4512 80.4191C42.5702 79.5144 42.7722 78.0352 43.0302 76.3664L41.1717 76.6367C40.8476 78.0391 40.6164 79.4729 40.4797 80.6879Z" fill="white"/>
<path d="M70.7501 52.951C70.7156 54.1245 70.6803 55.6551 70.6495 57.0813C71.7885 57.0958 73.0134 57.1373 74.2345 57.2264C73.7161 54.8909 72.7523 53.1414 70.7501 52.951Z" fill="white"/>
<path d="M44.9749 70.4144C44.9619 70.4144 44.9481 70.4159 44.9342 70.4159C44.5925 71.9312 44.2722 73.7175 43.998 75.4125L45.9104 75.1322C46.1953 73.2376 46.2544 71.4666 45.6677 70.707C45.554 70.5626 45.3843 70.4144 44.9749 70.4144Z" fill="white"/>
<path d="M41.3813 75.7904L43.1616 75.5323C43.4211 73.9165 43.723 72.2008 44.0478 70.6932C42.8743 71.4105 41.9904 73.4833 41.3813 75.7904Z" fill="white"/>
<path d="M65.6014 60.2746C66.4823 60.2431 67.4462 60.2239 68.4814 60.2239C68.9199 60.2239 69.3523 60.23 69.7786 60.2347C69.7901 59.6464 69.8054 58.8154 69.8262 57.8815C68.155 57.8784 66.7565 57.9299 65.9647 57.9683C65.7673 58.8392 65.659 59.661 65.6014 60.2746Z" fill="white"/>
<path d="M84.0726 55.6443C84.1848 57.1573 84.3337 58.8922 84.5373 60.8506C85.1885 60.8644 85.7261 60.8959 86.1554 60.9304C85.6455 57.5628 84.6878 56.1919 84.0726 55.6443Z" fill="white"/>
<path d="M70.6318 57.8869C70.6126 58.8254 70.5957 59.6579 70.5842 60.2477C72.2485 60.2769 73.7315 60.3376 74.6961 60.3829C74.6208 59.5788 74.5225 58.7931 74.3943 58.0474C73.1171 57.9483 71.8276 57.9022 70.6318 57.8869Z" fill="white"/>
<path d="M66.1768 57.1511C67.0093 57.1143 68.3172 57.0728 69.8416 57.0751C69.8724 55.6589 69.9084 54.1368 69.9422 52.961C67.8525 53.2067 66.7528 55.1759 66.1768 57.1511Z" fill="white"/>
<path d="M41.3766 46.1043C41.2814 46.251 41.1024 46.3232 40.9319 46.2771C40.2315 46.0912 39.5342 45.9968 38.8553 45.9968C34.2627 45.9968 30.5264 49.8529 30.5264 54.5929C30.5264 55.4216 30.6446 56.2487 30.8773 57.0498C30.9204 57.1964 30.8773 57.3523 30.766 57.4553C30.6569 57.5597 30.4956 57.5927 30.3543 57.5413C29.7 57.3055 29.0265 57.1857 28.3552 57.1857C25.0099 57.1857 22.2873 59.9966 22.2873 63.4571C22.2873 64.8818 22.7443 66.2304 23.6075 67.3509C23.6897 67.4546 23.7135 67.5951 23.672 67.7195C23.6305 67.8439 23.5315 67.9461 23.404 67.9837C21.7098 68.4891 20.5278 70.1149 20.5278 71.9358C20.5278 73.2391 21.1376 74.4802 22.1591 75.2536C22.2528 75.3242 22.3103 75.4333 22.318 75.5508C22.3265 75.666 22.2819 75.7819 22.199 75.8626C21.1207 76.9216 20.5278 78.3424 20.5278 79.8708C20.5278 82.9189 22.9278 85.3995 25.8785 85.3995C26.4975 85.3995 27.1149 85.2843 27.7132 85.0578C27.8184 85.0186 27.9359 85.0232 28.0365 85.0755C28.1364 85.1261 28.2124 85.2168 28.2431 85.3228C28.9005 87.616 30.9518 89.2196 33.2566 89.2741C33.8695 86.8395 34.4262 84.5117 34.9231 82.3544C32.9248 81.4436 31.3397 80.4375 30.084 79.4115C30.0525 79.4292 30.0187 79.443 29.9834 79.4537C26.0689 80.4275 23.9984 79.466 23.9116 79.4238C23.7096 79.3293 23.6252 79.0874 23.7227 78.8869C23.8187 78.6857 24.0575 78.6051 24.258 78.698C24.278 78.7088 26.0321 79.496 29.3444 78.7748C25.486 75.2513 25.2763 71.7246 25.2687 71.5242C25.2595 71.3022 25.4307 71.1148 25.6527 71.1025C25.8677 71.1148 26.0635 71.2677 26.0728 71.4896C26.0758 71.5434 26.4068 76.639 33.2167 80.5735C32.3312 77.0246 32.4993 73.7483 32.507 73.5985C32.5201 73.375 32.7052 73.2053 32.9317 73.2176C33.1552 73.2299 33.3242 73.4204 33.3127 73.6408C33.3111 73.6799 33.1214 77.4147 34.1966 81.1065C34.4885 81.2562 34.7926 81.4067 35.1067 81.5488C36.3578 76.0515 37.2072 71.7223 37.6119 69.5727C35.9 69.9744 34.9178 70.2777 34.8878 70.2869C34.7895 70.3169 34.6881 70.3322 34.5883 70.3322C34.2604 70.3322 33.9455 70.1733 33.7543 69.8914C33.5047 69.5228 33.5254 69.0366 33.8042 68.691C34.1574 68.2533 34.51 67.7863 34.8632 67.3048C31.3351 66.844 28.8406 65.5561 27.4621 63.441C27.439 63.4065 27.4198 63.375 27.4045 63.3542C27.2824 63.2421 27.2355 63.0647 27.3 62.9027C27.3837 62.6961 27.6195 62.5985 27.8246 62.6799C27.9643 62.736 28.0288 62.8335 28.1379 63.0002C29.4343 64.9893 31.885 66.1789 35.4001 66.5552C36.5152 64.967 37.6219 63.183 38.694 61.3114C38.5527 60.7791 38.4221 60.2577 38.3138 59.7592C35.1167 57.8001 34.0783 55.3663 34.0353 55.2626C33.9509 55.0568 34.0484 54.8241 34.2527 54.7373C34.4593 54.6513 34.6943 54.7481 34.7803 54.9516C34.7887 54.9739 35.6312 56.9253 38.0957 58.6518C37.0566 52.8081 38.2378 49.419 38.2985 49.2531C38.3745 49.0434 38.6064 48.9351 38.8146 49.0104C39.0227 49.0872 39.1325 49.316 39.0565 49.5249C39.0465 49.5518 38.4575 51.2583 38.4897 54.2965C40.7515 52.7221 41.3881 50.3513 41.3958 50.3275C41.4503 50.1125 41.6708 49.9796 41.8866 50.0395C42.1016 50.0925 42.2314 50.3137 42.1746 50.5302C42.1438 50.6501 41.3743 53.5139 38.5181 55.2404C38.5911 56.685 38.8115 58.3822 39.2677 60.2953C42.3166 54.8241 45.0269 48.8023 46.7219 44.8187C46.1136 44.4462 45.4178 44.2473 44.702 44.2473C43.3619 44.2457 42.117 44.94 41.3766 46.1043Z" fill="#D0A140"/>
<path d="M122.626 78.7541C123.717 78.2618 124.422 77.1743 124.422 75.9862C124.422 74.3826 123.161 73.0555 121.551 72.9634C121.411 72.9542 121.286 72.8735 121.22 72.7506C121.154 72.6278 121.155 72.478 121.227 72.3559C121.711 71.5357 121.965 70.601 121.965 69.6572C121.965 66.7111 119.568 64.3188 116.624 64.3188C115.658 64.3188 114.707 64.5845 113.871 65.0899C113.752 65.1575 113.601 65.1667 113.477 65.1022C113.351 65.0377 113.272 64.9117 113.26 64.7735C113.027 61.6447 110.385 59.194 107.25 59.194C104.463 59.194 102.05 61.1608 101.378 63.815C102.954 65.6812 104.612 67.5982 106.262 69.4191C106.285 67.7633 106.475 64.8772 107.402 62.7337C107.492 62.5279 107.728 62.4349 107.93 62.5256C108.137 62.6123 108.228 62.8489 108.14 63.0547C107.079 65.5054 107.049 69.1311 107.068 70.31C107.258 70.5158 107.449 70.7193 107.637 70.9205C109.062 70.6356 113.426 69.6049 116.773 67.1243C116.953 66.9922 117.205 67.0283 117.335 67.2065C117.468 67.3847 117.432 67.6373 117.252 67.7702C115.738 68.8938 114.046 69.7278 112.492 70.3368C112.987 70.6579 114.701 71.657 116.604 71.6386C116.804 71.601 117.009 71.8145 117.011 72.0379C117.015 72.2599 116.835 72.4411 116.612 72.4458C116.591 72.4458 116.566 72.4458 116.543 72.4458C114.05 72.4458 111.964 70.9589 111.878 70.8944C111.786 70.8284 111.73 70.7308 111.716 70.6271C110.315 71.1263 109.094 71.4343 108.284 71.6109C110.223 73.6646 112.087 75.5016 113.709 76.8579C114.054 77.1474 114.166 77.632 113.982 78.0414C113.818 78.4092 113.454 78.6381 113.063 78.6381C113.014 78.6381 112.969 78.635 112.921 78.6289C112.868 78.6197 109.728 78.1819 105.636 77.7242C105.96 79.4522 106.593 82.7223 107.455 86.6567C107.923 86.4348 108.796 85.9725 109.881 85.1369C108.88 82.7968 109.207 81.0796 109.223 81.0074C109.267 80.7885 109.475 80.6518 109.695 80.691C109.915 80.7347 110.056 80.9444 110.012 81.1648C110.01 81.1809 109.747 82.6186 110.534 84.6054C112.22 83.1716 114.253 80.9083 115.975 77.4508C116.075 77.2496 116.319 77.1674 116.516 77.2695C116.715 77.3671 116.797 77.6082 116.697 77.8094C115.604 80.0051 114.398 81.7347 113.225 83.0863C113.977 83.5602 116.11 84.6361 119.688 84.5801C119.912 84.5878 120.093 84.756 120.097 84.9764C120.099 85.2014 119.922 85.3826 119.698 85.3857C115.665 85.4364 113.436 84.2068 112.676 83.6953C110.412 86.1161 108.366 87.1467 107.63 87.4647C107.874 88.5568 108.134 89.6934 108.407 90.8561C108.727 90.9068 109.069 90.9299 109.48 90.9299C111.703 90.9299 113.745 89.8001 114.936 87.9086C115.041 87.7404 115.253 87.6759 115.436 87.7511C116.147 88.0553 116.902 88.2135 117.678 88.2135C120.833 88.2135 123.4 85.6453 123.4 82.4911C123.4 81.3676 123.071 80.277 122.45 79.3408C122.387 79.2448 122.369 79.1219 122.401 79.0075C122.437 78.8938 122.518 78.8025 122.626 78.7541Z" fill="#D0A140"/>
<path d="M56.5997 35.2387L58.8799 35.0452C58.883 36.5405 58.8392 39.6316 58.5581 44.3226C57.638 45.7027 56.6719 47.0443 55.6651 48.3108C55.3855 48.6633 55.3732 49.1586 55.6343 49.5257C55.8279 49.7961 56.1358 49.9474 56.4546 49.9474C56.5682 49.9474 56.6834 49.9251 56.7948 49.8859C56.8063 49.8828 57.0643 49.7945 57.5244 49.6594C57.4483 50.9918 57.3485 52.14 57.2494 53.0731C56.4968 51.8727 55.7434 50.6278 55.0061 49.3545C55.0476 49.2685 55.086 49.1763 55.0998 49.0741C55.1098 48.9858 56.2318 40.6899 56.5997 35.2387ZM39.7507 69.1004C43.295 68.3762 48.5181 67.5644 54.5392 67.4292C54.4132 67.7019 54.2374 68.0713 54.0116 68.529C51.7767 68.3447 49.2623 69.1772 49.154 69.2148C48.9436 69.284 48.8299 69.5136 48.9013 69.7233C48.9574 69.893 49.1141 69.999 49.283 69.999C49.3253 69.999 49.369 69.9928 49.4113 69.9798C49.4351 69.9705 51.6269 69.2479 53.6145 69.3124C53.3818 69.7655 53.1199 70.2616 52.8166 70.8153C52.3896 70.8276 51.9933 70.8752 51.8696 70.8906C51.6492 70.9206 51.4941 71.1218 51.5233 71.3437C51.5532 71.5626 51.756 71.717 51.9764 71.687C52.0877 71.6763 52.2175 71.6601 52.3535 71.6478C52.1284 72.0472 51.8896 72.4627 51.6331 72.8958C50.8328 72.8313 49.7699 72.9742 49.5073 73.011C49.2869 73.0441 49.1348 73.2468 49.1655 73.4672C49.197 73.6876 49.4005 73.8451 49.6225 73.809C50.1209 73.7368 50.6931 73.6907 51.1562 73.6861C50.905 74.1001 50.6408 74.5263 50.3628 74.9625C49.4865 74.9234 48.6632 74.9986 48.6218 75.0017C48.4006 75.024 48.237 75.2206 48.2593 75.441C48.2792 75.6614 48.4682 75.8296 48.6978 75.8042C48.7047 75.8042 49.2231 75.7574 49.8521 75.7574C49.0042 77.0591 48.0481 78.4438 46.976 79.8761C48.0389 75.6069 48.7923 71.452 47.2593 69.4737C46.6388 68.6726 45.731 68.2994 44.5591 68.4207C39.3636 68.9637 38.442 80.5044 38.3529 81.8184C38.3329 82.1256 38.4543 82.4274 38.6839 82.6348C38.8705 82.803 39.1117 82.8944 39.3582 82.8944C39.415 82.8944 39.4726 82.8898 39.5295 82.8806C41.6753 82.5119 44.1712 82.24 45.218 82.1348C45.0936 82.2846 44.9784 82.4351 44.8524 82.5895C44.589 82.909 44.5491 83.3621 44.7534 83.7238C44.9577 84.0855 45.3647 84.2821 45.7748 84.2245C45.8224 84.2199 47.6933 83.9542 50.8605 83.6324C50.839 83.8405 50.8136 84.0556 50.7875 84.2821C49.2308 84.2476 47.8845 84.5863 47.8215 84.6032C47.6057 84.6585 47.4759 84.8773 47.5328 85.0955C47.5796 85.2767 47.7424 85.3973 47.9221 85.3973C47.9551 85.3973 47.9897 85.3911 48.0227 85.3834C48.0373 85.3804 49.2746 85.067 50.6907 85.0893C50.5725 86.0478 50.4212 87.1368 50.233 88.3172C47.6257 88.331 46.4222 88.7043 46.3708 88.7188C46.1596 88.7926 46.0459 89.0176 46.1158 89.2288C46.1711 89.3985 46.3293 89.5045 46.4983 89.5045C46.5405 89.5045 46.582 89.4999 46.6242 89.4868C46.6357 89.4822 47.7271 89.1451 50.1048 89.1236C49.9074 90.3055 49.6739 91.5689 49.4005 92.8829C48.7001 92.8799 48.2255 92.9113 48.1994 92.9113C47.9774 92.9267 47.81 93.1172 47.8246 93.3407C47.8407 93.5657 48.0442 93.7231 48.2547 93.7154C48.2608 93.7154 48.6448 93.6901 49.2269 93.6885C49.1094 94.2269 48.9866 94.7684 48.8545 95.3205C46.3892 95.3643 44.7495 95.7076 44.6766 95.7222C44.4585 95.7706 44.321 95.9833 44.3663 96.2022C44.407 96.3896 44.5737 96.5202 44.7595 96.5202C44.7879 96.5202 44.8164 96.5186 44.8448 96.5094C44.8617 96.5063 46.3861 96.1914 48.6533 96.1315C48.5404 96.5831 48.4213 97.0347 48.2977 97.4909C46.208 97.6591 44.2811 98.073 43.2896 98.2842C42.9985 98.3472 42.8004 98.3925 42.7213 98.3979C42.5039 98.4056 42.3311 98.5838 42.3311 98.8011C42.3311 99.0246 42.5108 99.2058 42.7335 99.2058C42.8342 99.2058 42.977 99.1743 43.457 99.0722C44.3847 98.871 46.145 98.4962 48.0688 98.3203C47.8768 98.9954 47.6695 99.6751 47.4544 100.352C41.0002 101.227 35.5873 102.414 31.3956 103.537C36.1895 87.8771 39.1355 72.4496 39.7507 69.1004ZM45.5989 87.0761C45.6419 87.2635 45.8078 87.3879 45.9898 87.3879C46.0213 87.3879 46.0521 87.3833 46.082 87.3756C46.0981 87.3741 47.84 86.9778 48.7761 87.0247C48.9881 87.0439 49.1886 86.8657 49.2001 86.6453C49.2131 86.4233 49.0419 86.2313 48.8207 86.2175C47.7578 86.1576 45.9753 86.5731 45.8992 86.5907C45.6827 86.643 45.5475 86.8588 45.5989 87.0761ZM44.4777 91.8C44.5261 91.9798 44.6889 92.0973 44.8663 92.0973C44.9016 92.0973 44.9369 92.0957 44.9715 92.0834C44.9922 92.0788 46.9253 91.5689 48.7884 91.6127C48.7907 91.6127 48.7953 91.6127 48.7984 91.6127C49.0165 91.6127 49.1962 91.4368 49.2016 91.2179C49.207 90.996 49.0303 90.8101 48.8084 90.807C46.8216 90.7617 44.844 91.2824 44.7618 91.3032C44.546 91.3631 44.4201 91.585 44.4777 91.8ZM42.8595 94.1517C42.9186 94.3183 43.0738 94.422 43.2389 94.422C43.2834 94.422 43.3303 94.4112 43.3756 94.3966C43.3925 94.392 45.1643 93.7623 46.5098 93.717C46.7317 93.7093 46.9061 93.5234 46.8984 93.3015C46.8915 93.078 46.6787 92.8921 46.4829 92.9113C45.0122 92.9582 43.1798 93.6087 43.103 93.6386C42.8941 93.7154 42.7842 93.9435 42.8595 94.1517ZM48.6648 71.7492C48.7224 71.919 48.8798 72.0265 49.0488 72.0265C49.091 72.0265 49.1333 72.0203 49.1747 72.0057C49.5964 71.8675 50.4066 71.6624 50.7891 71.697C51.0164 71.7177 51.2068 71.5526 51.2268 71.3322C51.246 71.1087 51.0832 70.9136 50.862 70.8929C50.1969 70.8315 49.0503 71.1986 48.9244 71.2423C48.7109 71.3099 48.5957 71.5396 48.6648 71.7492ZM110.462 105.805C107.108 104.62 103.009 103.388 98.1713 102.304C98.0991 101.994 97.997 101.564 97.8756 101.04C98.9086 101.15 100.414 101.358 101.514 101.707C101.557 101.719 101.597 101.726 101.636 101.726C101.807 101.726 101.967 101.615 102.021 101.443C102.087 101.23 101.971 101.004 101.759 100.938C100.476 100.531 98.7389 100.313 97.6813 100.207C97.4517 99.2127 97.1737 97.9886 96.8649 96.61C97.9463 96.7613 100.029 97.0647 100.723 97.2206C100.751 97.2282 100.782 97.2313 100.811 97.2313C100.994 97.2313 101.16 97.1038 101.204 96.9164C101.253 96.7022 101.117 96.4833 100.9 96.4349C100.099 96.2537 97.6276 95.9011 96.6791 95.7706C96.5508 95.1977 96.4218 94.6025 96.2905 93.9904C97.0769 94.1447 98.2834 94.3713 98.7289 94.4181C98.7404 94.4212 98.7558 94.4228 98.7719 94.4228C98.9762 94.4228 99.1474 94.2684 99.172 94.0626C99.1966 93.8406 99.0368 93.6409 98.8126 93.6156C98.3341 93.5664 96.8173 93.2754 96.1046 93.1341C95.9887 92.5926 95.8712 92.045 95.7552 91.4844C98.4839 91.9176 100.67 92.5796 100.694 92.5888C100.733 92.5995 100.774 92.6041 100.812 92.6041C100.985 92.6041 101.146 92.4959 101.197 92.3208C101.262 92.108 101.141 91.8815 100.929 91.82C100.904 91.8093 98.5077 91.082 95.577 90.6427C95.4641 90.0997 95.352 89.5506 95.2399 89.003C97.1791 89.3194 99.3847 90.0621 99.4101 90.0728C99.4539 90.0867 99.4969 90.0936 99.5406 90.0936C99.7065 90.0936 99.8647 89.9868 99.9216 89.8209C99.9938 89.6113 99.8824 89.3816 99.6697 89.3094C99.5598 89.2718 97.1414 88.4547 95.0709 88.1621C94.9772 87.6897 94.8835 87.2174 94.7914 86.7489C95.8136 86.9248 97.1099 87.1928 97.1276 87.1975C97.1553 87.2036 97.1837 87.2067 97.2098 87.2067C97.3972 87.2067 97.5646 87.0792 97.6045 86.8872C97.6506 86.6683 97.5108 86.4548 97.2935 86.4103C97.2105 86.3941 95.6937 86.0754 94.6285 85.9049C94.554 85.5148 94.4826 85.1308 94.4089 84.7483C95.1431 84.8336 97.1092 85.0816 97.9133 85.3735C97.9593 85.3911 98.0062 85.3988 98.0523 85.3988C98.2151 85.3988 98.3717 85.2951 98.4301 85.1331C98.5077 84.925 98.3994 84.6923 98.1897 84.6155C97.1645 84.2437 94.6347 83.9596 94.2591 83.9197C94.2415 83.8283 94.2246 83.7369 94.2085 83.6424C96.7759 83.9511 99.2619 84.3159 101.643 84.7506C101.701 84.7614 101.762 84.7644 101.822 84.7644C102.178 84.7644 102.51 84.5801 102.695 84.2637C102.907 83.8958 102.867 83.4327 102.592 83.1071C102.573 83.0848 101.805 82.1648 100.616 80.4537C100.997 80.5336 101.437 80.6203 101.754 80.6741C101.778 80.6802 101.801 80.6802 101.824 80.6802C102.016 80.6802 102.188 80.5405 102.22 80.3454C102.258 80.125 102.108 79.9176 101.89 79.8792C101.219 79.7656 99.9861 79.4968 99.9845 79.4968L99.9769 79.5175C99.7027 79.1035 99.4062 78.6474 99.0975 78.1628C99.6443 78.2741 100.434 78.4538 101.203 78.6934C101.244 78.7073 101.286 78.7111 101.325 78.7111C101.496 78.7111 101.655 78.6013 101.71 78.4292C101.775 78.2165 101.656 77.99 101.445 77.9239C100.04 77.4846 98.5945 77.2473 98.5315 77.2366C98.5277 77.235 98.5238 77.2366 98.5161 77.2366C98.4747 77.1705 98.434 77.0998 98.3917 77.0307C100.118 77.1659 101.878 77.331 103.547 77.503C104.175 80.9068 106.934 95.3428 110.462 105.805ZM101.472 88.2895C101.525 88.3149 101.583 88.3272 101.636 88.3272C101.789 88.3272 101.937 88.2373 102.004 88.0868C102.096 87.8856 102.007 87.6475 101.802 87.5561C100.867 87.1345 98.9577 86.6168 98.8756 86.5946C98.6644 86.5393 98.4386 86.6652 98.3817 86.878C98.3226 87.0922 98.4509 87.3157 98.6651 87.3741C98.6859 87.3779 100.597 87.8971 101.472 88.2895ZM102.027 95.1746C102.076 95.1938 102.127 95.2061 102.176 95.2061C102.337 95.2061 102.487 95.1086 102.551 94.9527C102.634 94.7453 102.534 94.5118 102.328 94.4274C101.771 94.2023 100.627 93.8782 100.58 93.8652C100.369 93.8053 100.142 93.9297 100.084 94.144C100.022 94.3567 100.146 94.5817 100.362 94.6401C100.372 94.6439 101.512 94.9665 102.027 95.1746ZM104.006 99.3556C101.9 98.5784 99.3233 98.3488 99.2142 98.3403C99.0007 98.3196 98.7988 98.4847 98.7796 98.7082C98.7604 98.9286 98.9232 99.1237 99.1451 99.1444C99.1712 99.1459 101.723 99.3725 103.729 100.114C103.776 100.129 103.821 100.136 103.87 100.136C104.033 100.136 104.187 100.035 104.246 99.8732C104.323 99.6628 104.217 99.4332 104.006 99.3556ZM104.799 97.6291C104.843 97.4133 104.699 97.1998 104.482 97.1568C104.088 97.0831 103.113 96.759 102.769 96.6423C102.559 96.5685 102.329 96.6814 102.257 96.8911C102.184 97.0992 102.297 97.3304 102.507 97.4026C102.558 97.4202 103.799 97.848 104.326 97.9502C104.353 97.9532 104.379 97.9548 104.406 97.9548C104.593 97.954 104.761 97.8227 104.799 97.6291ZM89.88 50.7591C90.6642 56.4162 91.4675 61.925 92.035 65.7481C91.9997 65.7466 91.9628 65.7374 91.9252 65.7389C91.8622 65.7404 89.152 65.8618 85.1415 65.9985C85.0754 65.4885 85.0102 64.977 84.9503 64.4894C85.8588 64.4517 87.5507 64.411 89.0997 64.5208C89.1097 64.5208 89.1189 64.5208 89.1297 64.5208C89.3394 64.5208 89.5152 64.3588 89.5306 64.1461C89.5467 63.9257 89.3793 63.7321 89.1581 63.7168C87.5123 63.6 85.7605 63.6461 84.8543 63.6853C84.8228 63.4149 84.7875 63.1362 84.7583 62.872C86.3595 62.9226 87.0722 63.0832 87.0738 63.0847C87.1544 63.1024 87.2358 63.1146 87.318 63.1146C87.5584 63.1146 87.7911 63.0294 87.9769 62.8689C88.0952 62.7652 88.1851 62.637 88.245 62.4941C88.4546 62.4941 88.7303 62.4941 89.1105 62.5095C89.1174 62.5118 89.122 62.5118 89.1289 62.5118C89.3424 62.5118 89.5229 62.342 89.5298 62.1232C89.5398 61.9028 89.3655 61.7154 89.1435 61.7054C88.7818 61.69 88.4976 61.6862 88.2788 61.6885C88.2258 61.2162 88.1643 60.7592 88.0929 60.3245C88.4293 60.3199 88.7872 60.3276 89.0567 60.3783C89.0798 60.3829 89.1044 60.3844 89.1289 60.3844C89.3194 60.3844 89.4907 60.2477 89.5244 60.0526C89.5636 59.8345 89.4169 59.6241 89.198 59.5849C88.8332 59.5212 88.3625 59.5112 87.9462 59.5235C87.7911 58.7616 87.606 58.0697 87.3894 57.4415C87.7143 57.4292 88.1751 57.4353 88.8018 57.5044C88.8179 57.506 88.8317 57.5098 88.8463 57.5098C89.0491 57.5098 89.2249 57.3554 89.2464 57.1489C89.271 56.9277 89.1105 56.7288 88.8901 56.7034C88.0361 56.6097 87.4555 56.6205 87.0891 56.6489C86.8818 56.162 86.6568 55.7165 86.4056 55.3279C86.8526 55.3118 87.2635 55.3249 87.4516 55.3932C87.4977 55.4116 87.5461 55.4193 87.5929 55.4193C87.7565 55.4193 87.9101 55.3203 87.97 55.1567C88.0484 54.9485 87.9416 54.7174 87.7335 54.6406C87.2896 54.4709 86.4371 54.5016 85.825 54.5523C85.6392 54.3434 85.4464 54.1575 85.2421 53.9939C85.1054 53.8826 84.9702 53.7866 84.8381 53.7052C85.7797 53.6506 87.0722 53.6291 88.1252 53.8127C88.1497 53.8181 88.1728 53.8188 88.1958 53.8188C88.3894 53.8188 88.5591 53.6821 88.5921 53.4847C88.6328 53.2674 88.4846 53.0577 88.2642 53.0193C86.7151 52.7475 84.7636 52.8842 83.8997 52.9687C83.8766 52.544 83.8574 52.1523 83.8405 51.7852C84.4495 51.736 85.3834 51.6999 86.2013 51.8566C86.2267 51.8604 86.252 51.865 86.2781 51.865C86.4678 51.865 86.6368 51.7299 86.6744 51.5379C86.7167 51.3167 86.5715 51.107 86.3549 51.0656C85.4571 50.8928 84.4672 50.9258 83.809 50.9795C83.7929 50.4988 83.7806 50.0848 83.7729 49.7362C84.0202 49.7968 84.2691 49.8498 84.5163 49.9151C84.9372 50.0234 85.3742 49.8498 85.6107 49.4904C85.8465 49.1287 85.8266 48.6594 85.5631 48.3192C85.5217 48.267 83.8021 46.0421 81.5143 42.4978C81.7976 42.4978 82.0864 42.5009 82.2992 42.5132C82.3068 42.5132 82.3153 42.5132 82.3222 42.5132C82.5349 42.5132 82.7123 42.3473 82.7238 42.1338C82.7361 41.9134 82.5679 41.7214 82.3452 41.7091C81.9728 41.6868 81.406 41.6899 81.002 41.6952C80.84 41.4418 80.6779 41.1822 80.512 40.9165C80.9889 40.8443 81.5911 40.8021 82.1363 40.8988C82.3498 40.9349 82.5641 40.7913 82.6033 40.5724C82.6432 40.3543 82.4965 40.1447 82.2769 40.1055C81.4858 39.9642 80.6241 40.0679 80.0535 40.1777C79.8354 39.8183 79.6135 39.4496 79.39 39.0748C79.6442 39.0718 79.9529 39.0748 80.277 39.0971C80.5005 39.1094 80.6925 38.9428 80.7063 38.7208C80.7225 38.4988 80.5527 38.3061 80.3308 38.2915C79.7371 38.2523 79.2003 38.2661 78.9223 38.2807C78.708 37.9129 78.4914 37.5366 78.2764 37.1533C79.1196 37.0205 80.1065 36.9014 80.4621 36.9544C80.6871 36.989 80.8883 36.8384 80.9221 36.618C80.9559 36.3976 80.8046 36.191 80.5842 36.158C80.009 36.0704 78.6089 36.2786 77.8571 36.4038C77.619 35.9744 77.3809 35.539 77.1413 35.0951C80.8807 34.6174 85.0186 34.6896 87.8518 34.8332C88.0599 36.7547 88.321 38.9366 88.6144 41.259C88.2849 41.385 87.9408 41.5893 87.6283 41.908C86.401 43.1537 86.0293 45.6543 86.5239 49.3368C86.5899 49.8329 87.01 50.2046 87.5108 50.21C87.5254 50.21 88.6643 50.243 89.88 50.7591ZM83.9058 38.7354C83.9288 38.5157 83.7691 38.3168 83.5487 38.293C82.4888 38.1794 81.687 38.29 81.6525 38.2953C81.4328 38.3253 81.28 38.5303 81.3115 38.7508C81.3422 38.9689 81.5358 39.1255 81.7662 39.0933C81.7731 39.091 82.5088 38.9904 83.4604 39.094C83.4765 39.0971 83.4911 39.0971 83.5057 39.0971C83.7092 39.0964 83.8843 38.9428 83.9058 38.7354Z" fill="#E7D0B0"/>
<path d="M84.67 113.613C84.8628 113.454 85.4688 113.153 85.809 113.613C85.8835 113.984 86.1922 114.027 86.3527 114.027C86.6807 114.027 86.9256 113.857 87.0431 113.431C87.3611 113.016 88.1598 113.419 88.1598 113.419C88.2458 114.461 87.4356 115.229 86.352 115.229C84.8083 115.23 84.5003 113.962 84.67 113.613ZM42.8734 117.42C42.8734 119.529 39.6816 120.636 38.171 120.793C38.1817 121.667 38.2355 122.465 38.2455 123.369C37.9037 123.604 37.5635 123.689 37.3308 123.689C37.1073 123.689 36.8953 123.624 36.7133 123.412C36.6388 122.434 36.6173 121.028 36.6173 119.879C36.6173 118.91 36.6281 118.188 36.6388 117.751C36.3616 117.529 36.2671 117.23 36.4353 116.773C37.3723 115.602 38.8614 115.528 39.9788 115.528C41.2337 115.527 42.8734 116.176 42.8734 117.42ZM41.2023 117.538C41.2023 117.08 40.3943 116.941 39.7346 116.941C39.2777 116.941 38.5749 117.122 38.2555 117.271C38.2132 117.794 38.1909 118.698 38.171 119.325C39.0004 119.22 41.2023 118.677 41.2023 117.538ZM35.1366 119.4C35.1366 122.272 32.8918 123.559 30.9019 123.559C28.902 123.559 27.3607 122.007 27.3607 119.602C27.3607 116.994 29.296 115.495 31.3496 115.495C33.573 115.495 35.1366 117.049 35.1366 119.4ZM33.4993 119.4C33.4993 117.826 32.4886 117.037 31.3934 117.037C30.16 117.037 28.9566 117.835 28.9566 119.623C28.9566 121.187 29.8075 121.974 30.9772 121.974C31.9041 121.974 33.4993 121.495 33.4993 119.4ZM117.333 115.455C117.171 115.209 116.874 115.07 116.597 115.07C116.236 115.07 115.884 115.251 115.758 115.625C115.758 116.921 115.768 117.57 115.789 118.241C114.481 118.379 113.544 118.453 112.927 118.486C112.895 116.964 112.875 115.602 112.65 115.199C112.011 115.005 111.29 115.314 111.151 115.782C111.118 116.496 111.234 118.314 111.234 118.826C110.948 119.144 110.926 119.816 111.234 120.115L111.299 122.828C111.415 123.094 111.736 123.21 112.054 123.21C112.47 123.21 112.895 122.998 112.895 122.582C112.895 122.008 112.819 120.316 112.865 120.061C113.193 119.974 114.928 119.795 115.841 119.699C115.841 120.581 115.831 121.74 115.822 122.593C115.98 122.944 116.344 123.094 116.662 123.094C117.066 123.094 117.427 122.881 117.491 122.518C117.47 121.805 117.47 120.879 117.47 119.954C117.47 118.326 117.46 116.579 117.333 115.455ZM118.76 115.675C118.614 116.059 118.729 116.559 118.996 116.985C119.761 116.964 120.356 116.845 121.079 116.741C121.038 118.314 121.069 122.175 121.218 122.965C121.709 123.286 122.273 123.125 122.73 122.699L122.667 116.55C123.624 116.442 124.23 116.39 124.687 116.22C124.955 115.803 124.964 115.23 124.657 114.921C123.571 114.921 119.645 115.303 118.76 115.675ZM127.744 120.411C127.754 121.284 127.808 122.082 127.818 122.985C127.477 123.221 127.136 123.305 126.904 123.305C126.68 123.305 126.467 123.242 126.285 123.029C126.211 122.051 126.19 120.645 126.19 119.495C126.19 118.527 126.2 117.804 126.211 117.367C125.934 117.145 125.838 116.845 126.01 116.39C126.945 115.219 128.434 115.145 129.552 115.145C130.806 115.145 132.446 115.795 132.446 117.038C132.447 119.143 129.254 120.25 127.744 120.411ZM130.776 117.155C130.776 116.698 129.967 116.559 129.307 116.559C128.851 116.559 128.148 116.74 127.83 116.889C127.787 117.411 127.764 118.314 127.745 118.943C128.574 118.836 130.776 118.294 130.776 117.155ZM26.267 120.07C26.267 122.485 23.447 123.518 21.0746 123.559C20.7021 123.559 20.4879 123.241 20.3089 122.773C20.2344 122.007 20.1922 121.294 20.1484 120.293C19.9464 120.197 19.8727 119.952 19.8727 119.707C19.8727 119.474 19.9365 119.241 20.0962 119.102C20.0747 118.357 20.0747 118.1 20.0747 117.622C19.7982 117.367 19.6592 117.026 19.6592 116.635C20.5846 115.867 21.6821 115.495 23.3087 115.495C24.6496 115.495 25.8416 115.846 25.8416 116.719C25.8416 117.558 25.3739 118.144 24.6711 118.624C25.595 118.794 26.267 119.112 26.267 120.07ZM21.7243 118.581C23.2335 118.294 24.172 117.814 24.172 117.102C24.172 116.963 23.7664 116.889 23.3517 116.889C22.7773 116.889 22.0861 117.027 21.7036 117.175C21.6698 117.4 21.7121 118.23 21.7243 118.581ZM24.6604 120.25C24.6604 119.976 24.4047 119.751 23.7872 119.751C23.182 119.751 22.169 119.976 21.7766 120.207C21.7766 120.9 21.8288 121.561 21.8833 121.975C22.9785 121.836 24.6604 121.261 24.6604 120.25ZM12.5706 116.059C12.4224 116.442 12.5391 116.941 12.8048 117.367C13.5705 117.347 14.1665 117.229 14.89 117.123C14.8477 118.698 14.8792 122.561 15.029 123.348C15.5189 123.667 16.0819 123.507 16.5404 123.081L16.4759 116.932C17.4343 116.824 18.0403 116.771 18.498 116.602C18.7637 116.186 18.7752 115.612 18.4673 115.303C17.379 115.303 13.4538 115.689 12.5706 116.059ZM81.1227 115.75C80.8999 115.474 80.3554 115.314 80.0805 115.239C79.2503 115.39 77.1974 119.165 76.2597 120.635C76.2497 119.593 76.3242 116.324 76.196 115.186C75.6745 115.112 74.9626 115.176 74.6108 115.59C74.6108 117.569 74.5586 121.824 74.6753 123.038C75.1323 123.462 75.3351 123.422 75.8995 123.537C76.454 123.292 78.5061 119.974 79.506 118.324C79.4423 119.621 79.3778 120.485 79.3778 121.207C79.3778 122.218 79.4945 123.08 79.8586 123.325C80.2287 123.517 81.0374 123.292 81.1757 122.805C81.1342 122.442 81.1234 121.963 81.1234 121.389C81.1119 120.537 81.2617 116.272 81.1227 115.75ZM102.232 121.165C101.964 121.135 101.656 121.165 101.348 121.165C101.348 116.985 101.338 115.644 101.242 115.155C101.038 114.909 100.752 114.867 100.487 114.867C100.154 114.867 99.8149 114.933 99.636 115.282L99.6675 121.336C98.8373 121.518 97.8266 121.591 97.0394 121.614C96.9319 120.528 97.0394 115.986 97.0279 115.303C96.7836 115.102 96.5279 115.027 96.3059 115.027C95.8252 115.027 95.2945 115.326 95.273 115.709C95.283 119.74 95.2937 121.495 95.3997 122.529C95.5595 122.997 95.7822 123.113 96.1239 123.273C97.2613 123.23 99.6022 122.955 100.922 122.807C100.922 123.305 100.922 123.986 101.177 124.381C101.614 124.381 102.189 124.316 102.518 123.943L102.602 121.72C102.495 121.434 102.432 121.357 102.232 121.165ZM89.5 115.75C89.2757 115.474 88.735 115.314 88.4578 115.239C87.6284 115.39 85.5747 119.165 84.637 120.635C84.627 119.593 84.7015 116.324 84.5748 115.186C84.0526 115.112 83.3406 115.176 82.9889 115.59C82.9889 117.569 82.9359 121.824 83.0526 123.038C83.5119 123.462 83.7108 123.422 84.2768 123.537C84.829 123.292 86.8834 119.974 87.8818 118.324C87.8196 119.621 87.7551 120.485 87.7551 121.207C87.7551 122.218 87.8718 123.08 88.2335 123.325C88.606 123.517 89.4147 123.292 89.553 122.805C89.51 122.442 89.5007 121.963 89.5007 121.389C89.49 120.537 89.6382 116.272 89.5 115.75ZM108.988 121.08C107.819 121.41 106.413 121.604 105.435 121.656C105.435 120.889 105.454 120.294 105.487 119.835C105.762 119.816 105.987 119.816 106.413 119.783C107.158 119.741 108.062 119.678 108.744 119.594C109.052 119.453 109.222 119.079 109.222 118.742C109.222 118.496 109.116 118.21 108.829 118.029C107.763 118.157 106.274 118.271 105.561 118.305C105.54 117.888 105.551 117.392 105.561 116.975C106.561 116.846 108.083 116.846 109.071 116.655C109.37 116.55 109.539 116.21 109.539 115.878C109.539 115.689 109.477 115.455 109.327 115.239C108.817 115.123 105.657 115.356 104.476 115.421C104.062 115.625 103.859 115.729 103.53 116.007C103.53 116.421 103.656 116.772 103.934 117.006C103.934 117.284 103.924 117.677 103.881 118.635C103.742 118.782 103.646 119.039 103.646 119.273C103.646 119.495 103.711 119.707 103.869 119.86L103.785 122.518C104.103 122.965 104.263 123.104 104.699 123.273C106.243 123.221 108.148 123.125 109.53 122.477C109.625 122.24 109.659 122.051 109.659 121.922C109.66 121.485 109.435 121.113 108.988 121.08ZM57.0921 121.465C55.9232 121.796 54.517 121.986 53.5386 122.038C53.5386 121.273 53.5593 120.678 53.5916 120.219C53.8688 120.198 54.0915 120.198 54.517 120.167C55.2627 120.124 56.1667 120.06 56.8479 119.976C57.1558 119.837 57.3256 119.465 57.3256 119.125C57.3256 118.879 57.2203 118.592 56.9316 118.412C55.8687 118.539 54.378 118.656 53.6653 118.688C53.6453 118.274 53.6553 117.774 53.6653 117.357C54.6652 117.23 56.1874 117.23 57.1758 117.038C57.4738 116.933 57.6443 116.592 57.6443 116.262C57.6443 116.069 57.5805 115.838 57.4331 115.625C56.9216 115.508 53.7613 115.742 52.5801 115.803C52.1662 116.007 51.9634 116.112 51.6339 116.39C51.6339 116.804 51.763 117.155 52.0387 117.392C52.0387 117.666 52.0264 118.061 51.9865 119.018C51.8474 119.166 51.7514 119.421 51.7514 119.655C51.7514 119.879 51.8152 120.09 51.9742 120.242L51.8897 122.9C52.2099 123.349 52.3689 123.487 52.8044 123.656C54.3473 123.604 56.2511 123.508 57.6343 122.859C57.7311 122.625 57.7618 122.433 57.7618 122.307C57.7625 121.869 57.5391 121.495 57.0921 121.465ZM73.0879 116.314C72.8206 115.803 72.2577 115.548 71.853 115.665L68.8862 118.337C68.8754 117.749 69.0667 116.304 68.7902 115.665C68.5237 115.569 68.2902 115.527 68.109 115.527C67.7465 115.527 67.4278 115.643 67.3103 115.994C67.258 116.602 67.2365 117.464 67.2365 118.41C67.2365 120.165 67.321 122.306 67.4278 123.368C68.0345 123.719 68.652 123.401 69.0444 123.047C69.0444 122.399 68.9046 120.952 68.9046 120.324C69.0659 120.176 69.2249 120.036 69.3746 119.931L72.3099 123.623C72.6501 123.518 73.4596 123.281 73.4596 122.612C72.7254 121.409 71.2032 119.622 70.5236 118.909C71.1088 118.378 72.5549 117.303 73.0879 116.314ZM49.3983 115.23C49.0051 115.23 48.4291 115.527 48.3454 115.857C48.4614 116.993 48.5243 118.209 48.5243 119.241C48.1211 119.602 47.4607 119.815 46.834 119.815C46.1842 119.815 45.354 119.464 45.354 118.453C45.354 117.657 45.5253 116.845 46.0982 115.995C45.9093 115.625 45.3763 115.326 44.9939 115.326C44.8126 115.326 44.6214 115.368 44.4509 115.517C43.9194 116.505 43.7174 117.391 43.7174 118.25C43.7174 120.453 45.2488 121.402 46.665 121.402C47.3554 121.402 48.0374 121.189 48.5796 120.932V123.349C48.7916 123.497 49.0458 123.593 49.2708 123.593C49.5788 123.593 49.9198 123.455 50.1003 123.186C50.164 120.698 50.164 118.274 50.0142 115.592C49.8875 115.335 49.641 115.23 49.3983 115.23ZM64.7797 120.452C63.769 121.687 63.2046 122.017 62.2684 122.017C61.4059 122.017 60.4283 121.252 60.4283 119.996C60.4283 117.782 61.674 117.049 62.7791 117.049C63.673 117.049 64.12 117.443 64.4925 117.887C65.0347 117.804 65.5462 117.42 65.5662 116.953C65.3427 116.186 64.1192 115.591 62.8858 115.591C60.5458 115.591 58.7886 117.187 58.7886 119.9C58.7886 121.677 60.151 123.537 62.2046 123.537C63.4933 123.537 64.9594 122.825 65.7789 121.591C65.8342 120.987 65.3127 120.496 64.7797 120.452Z" fill="#231F20"/>
<path d="M21.8026 31.6453L23.6919 34.6143L18.0034 43.2873L16.2423 41.6046L17.2223 39.763L12.9684 35.8746L11.2112 38.5995L9.33499 37.4736L15.7654 28.4051L19.1077 29.8366L18.4926 31.3711L16.5833 30.7575L14.264 34.0675L16.0035 35.2948L17.6816 32.6582L19.3796 34.2035L17.5026 36.5228L19.0862 37.9451L21.3925 34.374L20.3358 32.8395L21.8026 31.6453ZM32.2343 22.9823L29.1562 18.2307L30.6945 17.1908L28.9058 15.0281L23.6919 19.4357L25.5781 21.1007L26.8269 20.0608L28.0103 21.4133L23.9791 24.943L22.9308 24.1366L24.4514 22.7634L22.3356 20.9018L18.0095 25.8008L19.673 27.1732L20.921 25.8008L25.4145 29.0456L23.6927 30.8757L25.6887 32.1936L30.2014 27.5073L28.3659 26.0512L27.0987 27.3445L25.7693 26.3223L29.3367 22.9354L30.5716 24.3462L29.3244 25.2609L30.9963 26.7777L34.9453 23.4953L33.6075 21.7258L32.2343 22.9823ZM142.363 74.0563L140.943 74.0409L140.735 67.9092L142.193 67.7411L142.146 70.0735L144.951 69.7855L143.462 58.6434L141.324 58.9321L141.956 64.1069L136.782 65.1045L136.522 63.3282L133.904 64.0554L134.557 69.8001L137.147 69.7448L137.022 68.3224L138.648 68.0329L139.139 74.0163L137.356 73.9127L137.313 71.538L134.535 71.4121L134.396 77.2412L137.313 77.6282L137.401 76.1882L142.125 77.0069L141.81 80.9321L144.614 81.0911L144.896 71.7462L142.393 72.0011L142.363 74.0563ZM10.0846 85.8105L10.3096 87.3042L7.31977 87.6176L10.3741 83.3068L6.16547 80.3561L9.10536 79.7203L9.41793 81.3131L11.6474 80.86L10.5423 74.7982H8.7252V77.149L3.12728 78.4892L2.74942 74.1239L0.183551 73.5102L0.741884 81.5458L3.16568 81.8276L3.09733 80.7309L7.05634 84.1239L4.37297 87.8602L3.7002 86.4548L1.59205 87.649L4.56266 95.3828L6.8943 94.2546L5.76688 91.0973L10.689 89.8839L11.3372 92.5765L13.8047 92.0243L12.1988 85.355L10.0846 85.8105ZM2.12735 69.2732L0 68.784L0.359422 61.8482L9.86721 58.8408L9.97089 56.9384L12.655 56.6934L11.3487 62.7706L9.65985 62.8512L9.83188 61.4673L8.8788 61.7975L8.00405 67.5736L9.21057 68.6596L9.27892 67.2073L11.0415 67.6904L10.5415 73.0502L8.34427 72.498L8.62152 70.5258L2.72562 66.1037L2.12735 69.2732ZM3.60958 63.6154L6.412 66.1398C6.59247 65.0853 6.8943 63.5225 7.11318 62.4066L3.60958 63.6154ZM14.671 44.9585L7.25295 40.8197L3.7194 49.5641C3.7194 49.5641 9.2674 49.6594 11.2588 51.1462C12.3094 51.9303 12.1912 52.9072 11.6728 53.1668C10.8525 53.5761 9.81652 52.2552 9.81652 52.2552L8.19451 53.6115C8.19451 53.6115 10.063 56.2357 12.655 55.2127C15.247 54.1898 14.8646 50.5065 12.655 49.0749C10.4455 47.6426 7.18076 47.4829 7.18076 47.4829L8.48558 44.3218L13.6511 47.2333L13.413 48.6295L14.9452 49.8076L17.3221 44.5806L15.3384 43.487L14.671 44.9585ZM44.907 17.2822C43.2666 19.1707 36.6833 22.3794 36.6833 22.3794L35.3071 20.3788L36.9567 19.2629L34.1558 14.4475L32.3902 15.671L31.1968 13.7371L36.9575 10.1859L38.2216 11.9216L36.1695 12.9883L37.2739 15.2762C37.9459 14.0128 39.6416 11.6075 42.5631 11.6075C45.4815 11.606 46.8631 15.0281 44.907 17.2822ZM41.2982 14.2893C39.68 15.0281 38.2208 16.8137 38.2208 16.8137L39.0879 18.4711C39.0879 18.4711 42.454 16.4489 42.9947 15.5911C43.6659 14.5259 42.6276 13.6834 41.2982 14.2893ZM77.8632 9.03009L77.9216 11.609L71.6509 11.3617L71.5664 9.18216L73.0095 9.17755L72.4535 8.28744L66.7212 8.02863L66.2942 9.09076L68.155 9.21825L67.9169 11.3049L62.2944 11.639L62.0141 9.12532L64.0263 9.07694L67.4899 2.29016L64.676 2.22949L64.3327 0.291838L71.2531 0L76.0853 9.16833L77.8632 9.03009ZM71.4589 6.68771L69.2824 2.99134L67.4669 6.46575L71.4589 6.68771ZM103.856 13.3132C106.249 10.9002 110.165 15.8338 110.165 15.8338L109.138 16.475L110.593 18.1861L115.741 15.1526L114.103 12.9691L112.425 14.3377C112.425 14.3377 111.356 11.9869 107.989 10.2535C103.155 7.76367 96.7244 12.3371 102.005 18.6823C105.493 22.8732 110.964 23.9292 110.964 23.9292L111.691 21.2911C106.688 20.7459 101.461 15.7255 103.856 13.3132ZM122.544 25.807L124.539 27.5311L123.905 29.9334L126.768 30.9894L127.766 26.7938L117.783 17.6048L113.543 19.1623L114.142 21.6498L117.248 20.4172L119.684 23.3332L116.869 26.4475L115.467 25.1565L113.792 26.9636L119.694 32.3918L121.283 31.0147L119.641 29.1915L122.544 25.807ZM131.107 51.8243L128.115 44.8079L130.397 43.7658L131.869 47.317L139.053 49.76L138.275 46.7571L140.943 45.9215L142.396 53.8711L136.024 60.0119L136.307 61.6747L133.568 62.6001L132.254 56.0145L133.683 55.3471L134.122 57.082L135.503 56.0422L134.318 50.167L132.184 49.5718L132.641 51.5663L131.107 51.8243ZM135.904 50.5641L136.804 54.8449L139.675 51.9511L135.904 50.5641ZM94.4366 3.48824L93.7899 5.33757L92.6525 4.94205L90.4054 11.4539L91.6526 11.9139L91.0766 14.0589L85.8957 12.3279L86.4748 10.3119L87.8863 10.7443L88.4785 8.88878C88.3026 8.86037 87.9547 8.83886 87.7911 8.80661L87.808 8.82273C84.5632 8.61 83.2093 11.907 83.2093 11.907L79.3378 11.4116L79.6058 9.04545L82.2938 9.34804C82.9743 8.42414 83.8636 7.82357 84.5694 7.45493C82.2554 5.62403 82.9504 2.77323 85.4142 1.66962C88.7603 0.169727 94.4366 3.48824 94.4366 3.48824ZM85.9295 4.09342C85.3804 5.70698 87.0569 6.92962 89.0545 6.92962L90.294 3.94135C90.2948 3.94212 86.4679 2.50597 85.9295 4.09342ZM58.1703 9.92327C55.8648 7.79362 54.1337 7.64079 53.3872 7.70607L55.2642 5.4136L58.0213 4.58109L57.3217 1.85855L53.729 3.27934L49.6932 8.86113L48.9351 7.2253L50.4151 6.67311L49.5073 4.97661L44.0215 7.10703L44.6021 9.01704L46.3892 8.32968L48.4406 13.1442L46.7832 13.7763L47.6019 15.8722L53.5139 13.7694L52.7029 11.3295L51.1639 12.0391L50.6846 11.0031L51.8389 9.59457C55.3548 9.62068 56.8225 12.8063 56.8225 12.8063L61.0211 11.8632L60.3967 9.27739L58.1703 9.92327ZM141.938 84.4365L144.403 84.1063L142.684 91.6242L133.521 93.7869L132.566 96.4226L130.192 95.683L132.308 89.0814L134.617 89.4039L134.418 90.367L135.502 90.1228L137.139 85.3765L135.851 84.2752L135.287 86.1399L133.208 85.6976L134.151 78.9369L137.006 79.4768L136.633 81.373L141.637 87.0654L141.938 84.4365ZM140.298 88.7864L138.42 86.6983L137.298 89.6635L140.298 88.7864ZM128.548 41.5839L126.98 42.7943L122.18 35.7901L123.871 34.5444L124.821 35.7909L129.731 32.4455L128.761 31.1115L130.565 29.9342C130.565 29.9342 136.294 36.2125 137.079 39.3905C137.769 42.1906 135.167 44.9876 132.487 43.8241C129.809 42.6606 128.019 39.0357 127.876 37.6794L126.759 38.6448L128.548 41.5839ZM129.82 36.3423C129.82 36.3423 130.803 40.0955 132.37 40.9987C133.624 41.7191 134.762 40.8359 134.593 39.6416C134.312 37.6502 131.692 35.0029 131.692 35.0029L129.82 36.3423Z" fill="#231F20"/>
</svg>
