<svg width="305" height="349" viewBox="0 0 305 349" fill="none" xmlns="http://www.w3.org/2000/svg">
<path fill-rule="evenodd" clip-rule="evenodd" d="M190.238 94.4551C195.035 96.4514 201.054 95.6613 207.091 95.6613C215.902 95.6613 225.206 95.6438 233.575 96.2644C234.603 93.4751 235.07 90.1232 237.187 88.4243C237.678 84.2437 237.727 81.3 239.594 79.378C241.574 77.339 246.147 76.6213 248.623 77.5687C248.911 77.6791 248.997 78.6724 249.225 78.7749C252.198 80.118 252.179 83.2046 254.04 87.2181C254.981 89.2481 256.031 90.8113 257.049 92.0428C256.916 93.9847 258.114 94.5945 257.651 96.8675C260.37 98.9228 263.204 103.901 262.466 108.929C262.066 111.66 260.616 113.322 258.855 114.96C261.11 118.694 261.46 123.078 263.068 127.022C264.183 129.753 266.243 131.684 267.282 134.259C268.234 136.621 268.08 139.289 269.087 141.496C270.888 145.442 275.066 147.807 275.708 152.351C277.8 154.88 279.698 157.601 282.329 159.588C282.231 161.497 283.929 161.604 283.533 163.81C284.97 166.19 287.673 167.301 288.348 170.444C291.162 172.84 294.367 175.126 294.367 179.49C294.367 184.297 290.763 186.544 287.144 188.537C288.463 190.633 291.993 190.512 291.96 193.964C293.945 194.89 295.963 195.69 297.377 197.583C298.275 198.786 300.504 204.902 299.784 208.438C299.486 209.903 297.882 212.003 296.775 213.263C295.581 214.622 293.711 216.59 291.96 216.278C293.026 224.86 293.702 233.831 294.367 242.814C294.781 244.929 297.03 245.873 297.979 248.242C298.728 250.113 299.355 253.321 299.183 255.479C298.966 258.181 297.461 259.734 296.775 262.113C297.228 266.283 298.46 269.671 297.979 274.778C296.868 277.033 295.529 278.234 293.765 280.206C293.647 280.338 293.284 281.357 293.164 281.412C292.033 281.922 291.647 282.149 290.756 283.221C290.596 283.413 286.523 288.24 286.543 288.046C286.528 288.19 287.861 290.84 288.348 291.664C289.855 294.214 291.978 296.352 291.96 301.314C295.174 304.357 301.57 307.441 298.581 315.788C300.068 317.714 301.701 319.496 301.59 323.025C304.608 326.251 306.146 330.355 303.998 335.086C302.696 337.952 302.603 338.512 298.581 339.911C296.479 340.642 294.647 341.274 291.358 341.117C290.567 341.079 288.889 340.517 288.95 340.514C287.443 340.6 286.094 341.767 284.737 341.72C282.483 341.641 280.475 340.607 278.116 340.514C275.871 340.425 273.849 341.118 271.495 341.117C270.013 341.116 268.069 340.423 266.68 340.514C264.726 340.641 262.887 341.672 261.263 341.72C258.275 341.808 255.781 340.468 253.438 341.117C251.305 341.945 249.884 344.139 248.021 344.735C246.788 345.13 243.994 345.35 242.604 345.338C240.845 345.324 239.031 344.268 237.187 344.132C236.138 344.055 234.139 344.655 232.973 344.735C228.241 345.058 224.482 345.391 219.731 345.941C216.818 346.279 213.723 346.224 210.703 346.544C203.581 347.302 197.66 349.32 189.034 348.957C188.697 348.943 187.693 348.194 186.627 348.354C186.052 348.44 185.73 349.029 184.821 348.957C183.006 348.813 181.133 347.95 179.404 347.751C168.668 346.518 157.705 347.79 145.697 347.751C140.813 347.735 133.733 347.762 128.844 347.751C125.709 347.744 122.273 347.616 119.214 347.751C115.552 347.912 111.939 348.932 108.38 348.957C102.687 348.997 96.6761 348.354 91.5263 348.354C87.2859 348.354 82.6392 347.701 78.8863 347.751C76.7508 347.779 76.2831 348.384 74.0711 347.751C71.2452 346.942 69.0536 344.999 66.8483 342.926C60.9412 344.28 53.8105 343.138 46.9855 343.53C42.7987 343.77 38.2007 345.079 34.3456 342.926C29.6176 344.201 23.5691 344.035 17.4923 344.132C9.21313 344.265 0.913503 342.9 0.0371335 336.896C-0.161494 335.534 0.494579 333.26 0.639036 330.865C0.876185 326.94 0.701634 324.116 1.24094 322.422C3.06049 316.71 7.9684 314.669 12.0752 312.772C11.2614 310.154 12.3051 307.539 12.6771 304.932C13.0539 302.289 12.9196 299.4 13.8809 297.092C14.7825 294.927 16.7526 293.591 18.0942 291.664C19.4882 289.661 20.1473 287.644 21.7056 286.236C21.6689 282.652 21.8874 280.243 22.3075 275.984C22.5621 273.403 22.5615 273.169 21.7056 270.556C20.6776 269.435 19.8632 269.313 18.6961 268.144C16.8778 266.322 12.5392 265.432 9.66757 263.319C5.74377 255.153 11.3649 247.94 14.4828 242.814C14.121 239.369 10.9478 237.889 10.8714 234.371C10.7576 229.14 15.4332 224.753 21.7056 224.722C22.8288 219.606 21.8152 214.911 22.3075 210.248C22.4863 208.555 23.4361 206.594 23.5113 204.82C23.5529 203.837 23.0141 201.989 22.9094 200.598C22.7216 198.111 23.4517 194.728 22.9094 192.758C22.4797 191.197 21.2078 189.669 19.8999 188.537C17.9931 186.886 14.8909 186.216 12.6771 184.315C10.2929 182.267 9.57367 175.43 11.4733 171.047C12.9834 167.563 17.8101 165.042 20.5018 162.001C21.5437 156.612 25.3826 154.025 28.3265 150.542C26.6833 144.271 32.7836 141.083 35.5494 137.274C36.7477 135.605 35.884 134.359 36.7532 132.45C36.879 132.172 37.8559 132.071 37.957 131.846C38.4066 130.847 38.3657 130.545 39.1608 129.434C39.9553 128.324 41.253 127.307 41.5684 126.419C42.1462 124.789 41.4269 122.684 42.1703 120.991C43.4638 118.044 46.8152 116.236 47.5874 113.151C48.3356 111.927 47.2148 110.535 46.9855 109.532C46.6057 107.874 46.2518 106.671 46.3836 104.708C46.5136 102.77 48.0485 100.777 48.7912 98.0737C49.363 95.99 48.8622 93.5771 49.3931 92.0428C50.2412 89.5919 52.1342 88.1873 53.0045 86.615C53.8309 83.7317 54.0765 79.2863 56.6159 77.5687C58.5456 76.2631 62.9185 76.1798 65.6445 77.5687C68.143 78.8419 69.6748 81.9707 69.8578 86.615C71.2674 89.625 73.7148 91.5959 73.4692 96.2644C86.711 96.2644 99.9529 96.2644 113.195 96.2644C115.33 91.0338 111.916 83.7938 113.797 78.7749C112.247 75.5032 109.438 73.4931 106.574 71.5379C106.313 66.7132 101.317 62.798 102.361 57.6669C103.141 53.8283 106.749 52.7548 110.787 51.033C112.422 50.2586 112.519 47.944 114.399 47.4145C117.238 45.6366 118.753 42.5307 121.621 40.7805C122.571 38.7017 124.882 38.0371 126.437 36.5589C127.177 35.8545 127.554 34.9083 128.242 34.1466C128.932 33.3825 129.893 33.0327 130.65 32.3373C132.124 30.981 133.394 29.4473 134.863 28.1157C135.315 27.7056 136.232 27.9197 136.669 27.5126C137.385 26.8444 137.827 24.838 139.678 24.4972C137.596 23.8127 135.763 23.665 133.659 22.688C129.044 20.5452 130.112 13.5464 131.252 7.61082C133.769 4.90598 137.735 3.65338 143.29 3.99231C145.25 3.18357 146.08 1.00945 148.105 0.373796C152.355 -0.959627 157.19 1.42015 158.337 5.19848C158.918 7.10966 158.188 10.4514 158.939 13.6417C159.916 17.7909 163.401 20.0585 162.551 23.291C163.555 24.8983 165.804 25.2577 166.162 27.5126C169.327 28.5626 169.825 32.2861 173.385 32.9404C174.6 35.7442 177.76 36.5987 179.404 38.9713C180.593 40.8493 182.373 41.5344 184.219 43.1929C184.352 43.3117 185.368 43.6747 185.423 43.796C185.527 44.0269 185.244 44.8423 185.423 45.0021C187.495 46.8506 190.619 47.979 191.442 51.033C196.2 52.8525 201.523 56.3353 201.674 61.8885C201.787 66.0064 198.637 68.3198 197.461 72.141C194.02 73.7193 191.367 76.0864 189.636 79.378C189.768 84.4717 190.606 88.8591 190.238 94.4551Z" fill="#EAC27B"/>
</svg>
