<svg width="22" height="19" viewBox="0 0 22 19" fill="none" xmlns="http://www.w3.org/2000/svg">
<path fill-rule="evenodd" clip-rule="evenodd" d="M6.61947 8.42227C7.26837 8.42227 7.91747 8.42227 8.56637 8.42227C9.09457 8.2554 10.8082 7.6204 11.6814 7.83467C12.7579 8.0989 13.6729 8.46262 15.1858 8.42227C16.4836 8.29163 17.7818 8.16118 19.0796 8.03054C19.7626 8.23855 20.4935 9.03025 21.0266 9.40161C21.5559 9.77043 21.4866 9.23512 21.8053 9.98921C22.0055 10.2364 21.9903 10.4744 22 10.9685C21.5121 11.2457 20.5965 11.7708 20.0531 11.9479C19.2004 12.2258 17.5001 11.8942 16.9381 11.752C16.2243 11.752 15.5102 11.752 14.7965 11.752C13.7749 11.4982 12.4538 11.6576 11.292 11.3603C9.66968 11.3603 8.04713 11.3603 6.42478 11.3603C5.918 11.1256 6.10159 10.7239 5.25664 10.5768C5.25664 10.642 5.25664 10.7075 5.25664 10.7727C6.44386 11.4976 7.09257 12.9057 8.17699 13.7107C9.64788 14.8024 11.432 15.9173 11.6814 18.2156C11.0545 18.786 11.0604 19.0165 9.73451 18.9991C9.27543 18.2881 8.888 18.4861 8.17699 18.0198C7.9823 17.7587 7.78761 17.4974 7.59292 17.2363C7.26837 17.1711 6.94402 17.1056 6.61947 17.0404C6.15474 16.7306 5.98595 16.1336 5.64602 15.6693C4.73759 14.8207 3.82878 13.9718 2.92035 13.1231C2.75273 12.9529 2.47958 12.7108 2.33628 12.5355C2.33628 12.4048 2.33628 12.2744 2.33628 12.1437C2.14159 12.0785 1.9469 12.0131 1.75221 11.9479C1.73664 11.9332 1.36283 11.1644 1.36283 11.1644C0.475628 10.5239 0.167044 11.7873 0 9.98921C0.401257 9.57848 0.251929 8.9378 0.584071 8.42227C1.62235 7.57358 2.66083 6.7247 3.69912 5.87601C4.72864 4.84163 7.65386 0.758201 8.76106 0.391734C9.21527 0.456957 9.66968 0.522377 10.1239 0.587601C10.737 0.422093 10.7564 0.0387816 11.8761 0C12.1125 0.442267 12.2137 0.438546 12.2655 1.1752C12.0009 1.42493 12.0982 1.63784 11.8761 1.95867C11.292 2.48085 10.708 3.00342 10.1239 3.5256C9.48745 4.39643 9.00871 5.19537 8.37168 6.07187C7.79014 6.87199 6.82136 7.19967 6.61947 8.42227Z" fill="#BB4604"/>
</svg>
