<svg width="67" height="89" viewBox="0 0 67 89" fill="none" xmlns="http://www.w3.org/2000/svg">
<path fill-rule="evenodd" clip-rule="evenodd" d="M33.9015 88.9939C33.2879 88.6649 34.0353 87.9218 33.5787 87.3786C32.4759 86.7249 32.3896 85.2745 31.8026 83.8257C31.2185 82.3844 30.6677 81.0527 30.1879 79.3033C29.9678 78.5001 29.7863 77.6721 29.542 76.8807C29.046 75.2732 28.5307 73.6903 27.9275 72.1969C27.3184 70.6888 26.5024 69.3399 26.1517 67.8363C23.5414 66.5708 19.9336 66.3037 18.079 64.283C16.9608 64.1098 16.0554 63.502 15.1727 62.991C14.7372 62.7387 14.1098 62.3414 13.5582 62.0216C13.3071 61.8763 13.0797 61.7279 12.7509 61.5374C11.4762 60.7992 10.4285 59.6963 9.68318 58.3072C9.47534 57.9198 9.24743 57.4025 9.03724 57.0151C8.99865 56.9436 8.74284 56.9139 8.71441 56.8536C8.56707 56.5427 8.57177 56.0677 8.39158 55.7231C8.18948 55.337 7.71174 55.0852 7.74564 54.5925C6.56904 54.7466 6.06367 54.2291 5.32386 53.9463C5.02136 53.2261 4.56736 52.6574 4.35509 51.8466C1.87464 49.882 1.31659 45.9328 0.641709 41.8331C0.501936 40.9853 0.228126 40.1636 0.157457 39.4104C-0.208927 35.5103 0.0875698 31.1471 0.803387 27.2972C1.51477 23.4693 2.36619 19.7335 4.03252 17.2834C4.02418 16.3459 4.22262 15.1446 4.67819 14.2149C4.99033 13.5779 5.70719 12.926 6.4543 12.1152C6.64023 11.9133 6.78183 11.8494 6.93856 11.6308C7.22097 11.2371 7.39647 10.963 7.7459 10.5002C8.13002 9.99151 8.83984 9.53656 9.52176 9.04666C9.95151 8.73806 10.3575 8.43389 10.8136 8.07755C11.2517 7.73504 11.653 7.37557 12.105 7.10844C12.3535 6.96158 12.6745 6.91775 12.9123 6.78549C13.256 6.59454 13.4576 6.23846 13.8811 5.97786C14.9158 5.34083 16.5402 4.50945 17.7559 3.71669C18.2873 3.37026 18.7601 2.80706 19.3703 2.5861C20.1161 2.31637 20.9495 2.23994 21.7924 1.93994C21.9368 1.88882 22.0977 1.69369 22.2766 1.61699C22.7168 1.42813 23.4407 1.29665 24.0527 1.13231C25.2353 0.815099 26.3319 0.641364 27.7661 0.324936C28.9469 0.0643326 29.9258 0.0640717 31.6409 0.163461C32.4423 0.209895 33.5153 0.352326 34.3855 0.324936C35.0661 0.303284 35.8159 0.0249422 36.4842 0.00198612C37.0869 -0.018883 37.6032 0.130853 38.2606 0.163461C38.8499 0.192678 39.5548 0.101375 40.0364 0.163461C40.5199 0.225807 40.988 0.526062 41.4895 0.647885C42.0827 0.792143 42.7214 0.699797 43.2656 0.809621C43.7733 0.91188 44.1937 1.20587 44.7186 1.29405C45.3567 1.40152 45.9471 1.30265 46.4947 1.45578C46.95 1.58282 47.3519 2.01429 47.9477 2.26342C48.4849 2.48776 49.243 2.52376 49.7238 2.74784C50.0485 2.89914 50.5085 3.22418 50.854 3.55547C50.9774 3.67365 51.1784 3.70782 51.5 3.87842C52.2385 4.27024 52.9459 4.47789 53.4375 4.84753C53.491 4.88771 53.5509 5.14857 53.5989 5.17048C54.2208 5.45091 54.4819 6.11742 55.0519 6.78549C55.1547 6.90575 55.2501 7.18279 55.3748 7.26992C55.5289 7.37765 55.7336 7.30592 55.859 7.43139C56.0888 7.66095 56.1545 8.01103 56.3433 8.23903C57.5321 9.67404 58.8563 11.0029 60.2181 12.4384C60.9295 13.1881 61.3866 13.6958 61.9942 14.6996C62.0988 14.8728 62.0427 15.0364 62.1556 15.184C62.4873 15.6183 63.29 16.5045 63.2858 17.2837C63.9265 18.0752 64.5229 18.6081 65.0616 19.5449C65.1967 19.7796 65.4674 20.1378 65.5459 20.3525C66.0221 21.6506 65.971 23.5885 66.1921 25.521C66.3303 26.7332 66.4406 28.0655 66.6761 29.3972C66.8182 30.1986 66.8132 31.1598 66.8375 32.3042C66.8495 32.8588 67.0148 33.4565 66.9992 33.9193C66.9827 34.3977 66.7254 34.8959 66.6761 35.3728C66.6114 35.9994 66.7376 36.5793 66.6761 37.1495C66.6244 37.6319 66.4051 38.0913 66.3532 38.6031C66.2927 39.2036 66.4278 39.8469 66.3532 40.3798C66.2844 40.8731 65.984 41.393 65.8692 41.9948C65.7524 42.605 65.8361 43.2798 65.7078 43.7716C65.5657 44.3144 65.1485 44.7441 64.9005 45.3866C64.694 45.9206 64.647 46.6288 64.4162 47.1633C64.0741 47.9545 63.3974 48.7037 62.9632 49.586C62.843 49.8301 62.9194 50.1541 62.8015 50.3936C62.7238 50.5522 62.4059 50.6926 62.3175 50.878C62.1316 51.2654 62.014 51.7751 61.8333 52.1701C61.4406 53.026 60.9933 53.9072 60.5417 54.7542C60.3216 55.1664 60.1224 55.6625 59.8958 56.0463C59.781 56.2406 59.5231 56.3327 59.4115 56.5307C59.3035 56.7216 59.3839 57.0015 59.2501 57.1768C58.8761 57.6654 58.0657 58.416 57.474 58.9536C57.2917 59.1192 56.9689 59.1435 56.828 59.2765C56.495 59.5911 56.1453 60.1692 55.6979 60.5686C55.5453 60.7048 55.2574 60.7155 55.0519 60.8913C54.9158 61.0082 54.8652 61.2633 54.7291 61.376C54.5466 61.5268 54.2628 61.5448 54.0832 61.6989C53.783 61.9561 53.5867 62.1447 53.1144 62.5066C53.062 62.5465 53.0004 62.8079 52.953 62.8295C52.8753 62.8645 52.6964 62.7786 52.6301 62.8295C52.2849 63.0951 52.0551 63.5156 51.8228 63.6369C51.3088 63.9056 50.7437 63.8857 50.2084 64.1216C49.7332 64.3308 49.3895 64.6467 48.9168 64.9289C47.8014 65.5954 46.2543 66.467 44.8803 66.8674C44.3457 67.4257 44.2161 68.1989 43.7501 68.9669C43.6241 69.175 43.349 69.2616 43.2658 69.4515C43.1308 69.7596 43.0591 70.2341 42.943 70.5821C42.4282 72.1246 41.8441 73.9916 41.1669 75.5886C40.9025 76.2121 40.4662 76.7432 40.1981 77.3654C40.0341 77.7465 40.0271 78.1516 39.8753 78.4959C39.7566 78.7657 39.5269 79.0122 39.3913 79.3036C38.8301 80.5077 38.3135 81.8113 37.6149 83.0183C37.3007 83.5614 36.7666 84.0482 36.4847 84.633C36.3924 84.8245 36.419 85.1942 36.3233 85.4409C36.1736 85.8275 35.8409 86.6443 35.5162 87.2174C35.3121 87.5774 34.9681 87.869 34.7086 88.1868C34.4685 88.4805 34.4353 89.0654 33.9015 88.9939Z" fill="white"/>
<path fill-rule="evenodd" clip-rule="evenodd" d="M33.9015 88.9939C33.2879 88.6649 34.0353 87.9218 33.5787 87.3786C32.4759 86.7249 32.3896 85.2745 31.8026 83.8257C31.2185 82.3844 30.6677 81.0527 30.1879 79.3033C29.9678 78.5001 29.7863 77.6721 29.542 76.8807C29.046 75.2732 28.5307 73.6903 27.9275 72.1969C27.3184 70.6888 26.5024 69.3399 26.1517 67.8363C23.5414 66.5708 19.9336 66.3037 18.079 64.283C16.9608 64.1098 16.0554 63.502 15.1727 62.991C14.7372 62.7387 14.1098 62.3414 13.5582 62.0216C13.3071 61.8763 13.0797 61.7279 12.7509 61.5374C11.4762 60.7992 10.4285 59.6963 9.68318 58.3072C9.47534 57.9198 9.24743 57.4025 9.03724 57.0151C8.99865 56.9436 8.74284 56.9139 8.71441 56.8536C8.56707 56.5427 8.57177 56.0677 8.39158 55.7231C8.18948 55.337 7.71174 55.0852 7.74564 54.5925C6.56904 54.7466 6.06367 54.2291 5.32386 53.9463C5.02136 53.2261 4.56736 52.6574 4.35509 51.8466C1.87464 49.882 1.31659 45.9328 0.641709 41.8331C0.501936 40.9853 0.228126 40.1636 0.157457 39.4104C-0.208927 35.5103 0.0875698 31.1471 0.803387 27.2972C1.51477 23.4693 2.36619 19.7335 4.03252 17.2834C4.02418 16.3459 4.22262 15.1446 4.67819 14.2149C4.99033 13.5779 5.70719 12.926 6.4543 12.1152C6.64023 11.9133 6.78183 11.8494 6.93856 11.6308C7.22097 11.2371 7.39647 10.963 7.7459 10.5002C8.13002 9.99151 8.83984 9.53656 9.52176 9.04666C9.95151 8.73806 10.3575 8.43389 10.8136 8.07755C11.2517 7.73504 11.653 7.37557 12.105 7.10844C12.3535 6.96158 12.6745 6.91775 12.9123 6.78549C13.256 6.59454 13.4576 6.23846 13.8811 5.97786C14.9158 5.34083 16.5402 4.50945 17.7559 3.71669C18.2873 3.37026 18.7601 2.80706 19.3703 2.5861C20.1161 2.31637 20.9495 2.23994 21.7924 1.93994C21.9368 1.88882 22.0977 1.69369 22.2766 1.61699C22.7168 1.42813 23.4407 1.29665 24.0527 1.13231C25.2353 0.815099 26.3319 0.641364 27.7661 0.324936C28.9469 0.0643326 29.9258 0.0640717 31.6409 0.163461C32.4423 0.209895 33.5153 0.352326 34.3855 0.324936C35.0661 0.303284 35.8159 0.0249422 36.4842 0.00198612C37.0869 -0.018883 37.6032 0.130853 38.2606 0.163461C38.8499 0.192678 39.5548 0.101375 40.0364 0.163461C40.5199 0.225807 40.988 0.526062 41.4895 0.647885C42.0827 0.792143 42.7214 0.699797 43.2656 0.809621C43.7733 0.91188 44.1937 1.20587 44.7186 1.29405C45.3567 1.40152 45.9471 1.30265 46.4947 1.45578C46.95 1.58282 47.3519 2.01429 47.9477 2.26342C48.4849 2.48776 49.243 2.52376 49.7238 2.74784C50.0485 2.89914 50.5085 3.22418 50.854 3.55547C50.9774 3.67365 51.1784 3.70782 51.5 3.87842C52.2385 4.27024 52.9459 4.47789 53.4375 4.84753C53.491 4.88771 53.5509 5.14857 53.5989 5.17048C54.2208 5.45091 54.4819 6.11742 55.0519 6.78549C55.1547 6.90575 55.2501 7.18279 55.3748 7.26992C55.5289 7.37765 55.7336 7.30592 55.859 7.43139C56.0888 7.66095 56.1545 8.01103 56.3433 8.23903C57.5321 9.67404 58.8563 11.0029 60.2181 12.4384C60.9295 13.1881 61.3866 13.6958 61.9942 14.6996C62.0988 14.8728 62.0427 15.0364 62.1556 15.184C62.4873 15.6183 63.29 16.5045 63.2858 17.2837C63.9265 18.0752 64.5229 18.6081 65.0616 19.5449C65.1967 19.7796 65.4674 20.1378 65.5459 20.3525C66.0221 21.6506 65.971 23.5885 66.1921 25.521C66.3303 26.7332 66.4406 28.0655 66.6761 29.3972C66.8182 30.1986 66.8132 31.1598 66.8375 32.3042C66.8495 32.8588 67.0148 33.4565 66.9992 33.9193C66.9827 34.3977 66.7254 34.8959 66.6761 35.3728C66.6114 35.9994 66.7376 36.5793 66.6761 37.1495C66.6244 37.6319 66.4051 38.0913 66.3532 38.6031C66.2927 39.2036 66.4278 39.8469 66.3532 40.3798C66.2844 40.8731 65.984 41.393 65.8692 41.9948C65.7524 42.605 65.8361 43.2798 65.7078 43.7716C65.5657 44.3144 65.1485 44.7441 64.9005 45.3866C64.694 45.9206 64.647 46.6288 64.4162 47.1633C64.0741 47.9545 63.3974 48.7037 62.9632 49.586C62.843 49.8301 62.9194 50.1541 62.8015 50.3936C62.7238 50.5522 62.4059 50.6926 62.3175 50.878C62.1316 51.2654 62.014 51.7751 61.8333 52.1701C61.4406 53.026 60.9933 53.9072 60.5417 54.7542C60.3216 55.1664 60.1224 55.6625 59.8958 56.0463C59.781 56.2406 59.5231 56.3327 59.4115 56.5307C59.3035 56.7216 59.3839 57.0015 59.2501 57.1768C58.8761 57.6654 58.0657 58.416 57.474 58.9536C57.2917 59.1192 56.9689 59.1435 56.828 59.2765C56.495 59.5911 56.1453 60.1692 55.6979 60.5686C55.5453 60.7048 55.2574 60.7155 55.0519 60.8913C54.9158 61.0082 54.8652 61.2633 54.7291 61.376C54.5466 61.5268 54.2628 61.5448 54.0832 61.6989C53.783 61.9561 53.5867 62.1447 53.1144 62.5066C53.062 62.5465 53.0004 62.8079 52.953 62.8295C52.8753 62.8645 52.6964 62.7786 52.6301 62.8295C52.2849 63.0951 52.0551 63.5156 51.8228 63.6369C51.3088 63.9056 50.7437 63.8857 50.2084 64.1216C49.7332 64.3308 49.3895 64.6467 48.9168 64.9289C47.8014 65.5954 46.2543 66.467 44.8803 66.8674C44.3457 67.4257 44.2161 68.1989 43.7501 68.9669C43.6241 69.175 43.349 69.2616 43.2658 69.4515C43.1308 69.7596 43.0591 70.2341 42.943 70.5821C42.4282 72.1246 41.8441 73.9916 41.1669 75.5886C40.9025 76.2121 40.4662 76.7432 40.1981 77.3654C40.0341 77.7465 40.0271 78.1516 39.8753 78.4959C39.7566 78.7657 39.5269 79.0122 39.3913 79.3036C38.8301 80.5077 38.3135 81.8113 37.6149 83.0183C37.3007 83.5614 36.7666 84.0482 36.4847 84.633C36.3924 84.8245 36.419 85.1942 36.3233 85.4409C36.1736 85.8275 35.8409 86.6443 35.5162 87.2174C35.3121 87.5774 34.9681 87.869 34.7086 88.1868C34.4685 88.4805 34.4353 89.0654 33.9015 88.9939Z" fill="#E7D0B0"/>
<path d="M51.1418 36.3742C51.1418 35.7636 50.711 35.2481 50.1299 35.123C50.2553 34.8524 50.3212 34.5585 50.3212 34.261C50.3212 33.1295 49.3997 32.2084 48.2683 32.2084C47.9649 32.2084 47.6646 32.2771 47.3891 32.4086C47.224 31.41 46.4046 30.6342 45.4044 30.5155C45.4939 30.398 45.5793 30.2775 45.6568 30.1529L49.4533 31.8624C49.4718 31.8701 49.4898 31.8747 49.5087 31.8747C49.5598 31.8747 49.6093 31.845 49.6316 31.7944C49.6626 31.7272 49.6316 31.6472 49.5644 31.6172L45.7922 29.919C45.9081 29.7041 46.0066 29.4812 46.0886 29.2517L48.7591 30.0444C48.8309 30.0659 48.905 30.0249 48.9263 29.9536C48.9476 29.8826 48.9076 29.8077 48.8358 29.7864L46.1707 28.995C46.2402 28.7577 46.2907 28.5141 46.3215 28.2669L47.7056 28.4218C47.7782 28.4297 47.8466 28.3766 47.8548 28.3036C47.8628 28.2294 47.8095 28.1623 47.7353 28.1543L46.3474 27.9986C46.3543 27.8937 46.3584 27.7873 46.3584 27.6811C46.3584 27.5252 46.3507 27.3706 46.3359 27.2188L47.9564 27.0185C48.0292 27.0095 48.0818 26.942 48.0731 26.8687C48.0636 26.7943 47.9987 26.7394 47.9228 26.7515L46.3012 26.9513C46.26 26.6812 46.194 26.4194 46.1076 26.1668L49.5452 25.1753C49.6172 25.154 49.658 25.0799 49.6377 25.0089C49.6172 24.9373 49.5431 24.8955 49.4713 24.9168L46.0127 25.9139C45.9294 25.7093 45.8322 25.512 45.7217 25.323L46.6959 24.6986C46.7577 24.6586 46.7767 24.5755 46.7359 24.5129C46.6959 24.4498 46.6128 24.4318 46.55 24.4716L45.5796 25.0943C45.4303 24.8691 45.2631 24.6586 45.0785 24.4629L46.53 23.0439C46.5833 22.9924 46.5841 22.9067 46.5323 22.8536C46.4802 22.8008 46.3959 22.7995 46.3423 22.8513L44.8882 24.2726C44.7371 24.1287 44.575 23.9951 44.4053 23.8723L45.8606 21.6434C45.9007 21.5816 45.8835 21.4977 45.8214 21.4572C45.7591 21.4164 45.676 21.4344 45.635 21.4959L44.1829 23.7209C43.9975 23.6027 43.8031 23.4966 43.6018 23.4055L44.1632 21.4862C44.1834 21.4146 44.1427 21.3403 44.0721 21.3192C43.9993 21.298 43.9257 21.3395 43.9041 21.4105L43.3523 23.3004C43.1545 23.2242 42.9504 23.1608 42.7406 23.1111L43.1361 19.6964C43.144 19.6225 43.0914 19.5559 43.0173 19.5469C42.945 19.5376 42.8765 19.5918 42.8678 19.6651L42.4762 23.0575C42.2557 23.0188 42.0282 22.9952 41.7981 22.9885V21.7155C41.7981 21.6416 41.7379 21.5811 41.6635 21.5811C41.5889 21.5811 41.5286 21.6416 41.5286 21.7155V22.9885C41.297 22.9949 41.067 23.019 40.8405 23.0585L40.3951 20.732C40.381 20.6589 40.3089 20.6109 40.2376 20.6253C40.165 20.6389 40.1168 20.7094 40.1309 20.7825L40.5766 23.1137C40.1817 23.207 39.8006 23.3545 39.4421 23.5478C39.4057 23.2437 39.3723 22.9518 39.3421 22.6754C39.6324 22.6979 39.807 22.7159 39.8142 22.7167C39.9519 22.7305 40.0832 22.6608 40.1476 22.5397C40.2122 22.4174 40.1958 22.2686 40.1063 22.164C38.506 20.2873 36.9252 17.1795 36.9096 17.148C36.8475 17.0262 36.7172 16.9526 36.5816 16.9651C36.4451 16.9762 36.3295 17.0687 36.2882 17.1995C35.725 18.9922 34.7838 20.4486 34.2935 21.1336C33.8844 20.2455 33.5118 19.3104 33.2248 18.362C33.1828 18.2231 33.0561 18.1261 32.9101 18.123C32.765 18.1112 32.6337 18.2105 32.5852 18.3474C32.5706 18.388 31.4353 21.5688 29.6119 24.6347C29.6532 23.6833 29.6596 23.0339 29.6585 22.6726C29.6957 22.6859 29.7345 22.6933 29.7734 22.6933C29.865 22.6933 29.956 22.6567 30.0225 22.5841C30.1476 22.4466 30.1379 22.234 30.0009 22.1086C29.6675 21.8037 29.1225 20.961 28.9412 20.6617C28.8776 20.5576 28.7663 20.4958 28.6407 20.5001C28.5189 20.505 28.4088 20.5753 28.3534 20.6845C27.9985 21.3844 27.3009 22.116 27.294 22.1235C27.1655 22.2576 27.1699 22.471 27.3045 22.5992C27.374 22.6664 27.4646 22.6949 27.5543 22.6905C27.4746 23.9005 27.2774 25.5597 27.1563 26.5214C26.7911 25.8403 26.4516 25.1476 26.1633 24.4631C26.1102 24.337 25.9848 24.2634 25.8484 24.2577C25.7112 24.2598 25.5888 24.3449 25.5396 24.4724C25.5327 24.4901 25.346 24.9707 25.0308 25.7187C24.7941 25.5815 24.5271 25.5054 24.2514 25.5054C23.7424 25.5054 23.2695 25.7516 22.9679 26.1696C22.7427 26.1168 22.5178 26.0903 22.2983 26.0903C20.6162 26.0903 19.248 27.4985 19.248 29.2299C19.248 29.4515 19.2711 29.6728 19.317 29.891C19.1439 29.8482 18.9679 29.8269 18.7923 29.8269C17.5264 29.8269 16.497 30.8866 16.497 32.1899C16.497 32.6648 16.6319 33.1159 16.8883 33.5073C16.3036 33.7602 15.9092 34.3592 15.9092 35.0214C15.9092 35.4892 16.1074 35.938 16.4457 36.248C16.0984 36.6386 15.9092 37.1382 15.9092 37.6711C15.9092 38.8377 16.8317 39.7864 17.9654 39.7864C18.1591 39.7864 18.3517 39.7579 18.5399 39.7007C18.823 40.487 19.547 41.0312 20.3625 41.0751C19.9817 42.5717 19.5375 44.182 19.0351 45.789C18.6751 45.8941 18.3488 45.9949 18.0608 46.089C17.8841 46.1472 17.7877 46.3365 17.8454 46.5132C17.9034 46.6899 18.0924 46.7858 18.2696 46.7291C20.6813 45.9423 25.7453 44.6365 32.5578 44.7485C40.461 44.8747 45.6822 46.7161 48.0905 47.8024C48.1349 47.8229 48.1818 47.8324 48.2277 47.8324C48.3565 47.8324 48.4791 47.7588 48.5355 47.6337C48.6114 47.4649 48.536 47.2654 48.3667 47.1895C47.9882 47.0187 47.5409 46.8294 47.0273 46.6314C46.4877 45.1317 45.9948 43.3065 45.5911 41.618C45.6811 41.6275 45.7758 41.6341 45.883 41.6341C46.6813 41.6341 47.4158 41.2469 47.87 40.5927C48.1105 40.6814 48.3629 40.726 48.6209 40.726C49.8229 40.726 50.8002 39.7482 50.8002 38.5467C50.8002 38.1679 50.7025 37.8004 50.5169 37.4731C50.9015 37.2428 51.1418 36.8261 51.1418 36.3742ZM28.6658 21.479C28.7766 21.6457 28.9089 21.8375 29.0466 22.0214L28.2129 22.093C28.3557 21.9165 28.5158 21.7057 28.6658 21.479Z" fill="#231F20"/>
<path d="M41.6653 23.2555C43.9131 23.2555 45.7745 24.9404 46.0546 27.1141C46.0546 27.1152 46.0546 27.1164 46.0553 27.1175C46.0553 27.1195 46.0553 27.1208 46.0553 27.1226C46.0784 27.3054 46.0907 27.4921 46.0907 27.6812C46.0907 28.4659 45.8814 29.235 45.4916 29.9062C45.4883 29.9113 45.4857 29.9157 45.4834 29.9205C45.367 30.1185 45.2357 30.3085 45.0887 30.4873C45.0852 30.4919 45.0844 30.4968 45.0816 30.5011C44.1163 30.5263 43.2784 31.1725 42.9722 32.0645C41.464 30.266 40.2358 28.668 40.0925 28.481C39.8717 26.9038 39.6496 25.2535 39.4785 23.8359C40.142 23.4568 40.8952 23.2555 41.6653 23.2555Z" fill="white"/>
<path d="M31.9551 38.5667C32.0084 38.6895 32.0848 38.8688 32.1443 39.0201C32.0441 39.0486 31.9466 39.0806 31.8517 39.1163C31.7394 38.9193 31.5717 38.6364 31.5717 38.6364L31.3398 38.7726C31.3398 38.7726 31.4916 39.0301 31.6014 39.2209C31.467 39.283 31.336 39.3502 31.2131 39.4268C31.1675 39.3532 31.1206 39.2755 31.0744 39.2004C30.8461 38.8262 30.8085 38.7695 30.7628 38.7395C30.7013 38.698 30.6092 38.7085 30.5674 38.7695C30.5266 38.8316 30.5348 38.9083 30.5964 38.9493C30.6271 38.9839 30.7528 39.1899 30.8446 39.3404C30.8939 39.422 30.9431 39.5012 30.99 39.5769C30.9087 39.6364 30.8303 39.6977 30.7546 39.7623C30.5871 39.5764 30.3761 39.4227 30.3445 39.4007C30.2843 39.3571 30.2001 39.3712 30.1565 39.4317C30.1135 39.4922 30.1281 39.5761 30.1883 39.6194C30.2625 39.672 30.4307 39.8059 30.5561 39.9441C30.4643 40.0328 30.3758 40.1254 30.293 40.2211C30.0645 40.0072 29.7588 39.7497 29.6757 39.6807C29.6182 39.633 29.5334 39.6412 29.4862 39.6977C29.4382 39.7554 29.4464 39.84 29.5033 39.8879C29.6836 40.0372 29.9437 40.2621 30.1232 40.4303C30.0406 40.5391 29.9637 40.6506 29.8903 40.764C29.6747 40.6091 29.4421 40.4504 29.4274 40.4409C29.3656 40.3988 29.2823 40.4157 29.2405 40.4765C29.1987 40.5391 29.2148 40.6222 29.2766 40.6637C29.2805 40.6663 29.5305 40.8355 29.7493 40.9943C29.6939 41.09 29.6418 41.1866 29.5921 41.2843C29.2346 41.0841 28.754 40.8409 28.7306 40.8286C28.6637 40.7955 28.5832 40.8222 28.5498 40.8881C28.5163 40.9553 28.5429 41.0358 28.6091 41.0689C28.6145 41.0725 29.1182 41.3274 29.4744 41.5262C29.3933 41.7026 29.321 41.8793 29.2561 42.0542C29.0838 41.9565 28.8732 41.8593 28.8407 41.8444C28.773 41.8139 28.6929 41.8434 28.6624 41.9106C28.6319 41.9788 28.6617 42.0588 28.7294 42.0888C28.8502 42.144 29.041 42.2386 29.1656 42.3127C29.1115 42.4766 29.0635 42.6369 29.0217 42.7921C28.6953 42.6428 28.3272 42.5325 28.3103 42.5276C28.239 42.5066 28.1644 42.5476 28.1431 42.6187C28.1221 42.6902 28.1629 42.7644 28.2339 42.7854C28.2383 42.7874 28.6358 42.9062 28.9543 43.0575C28.9143 43.2252 28.8809 43.3845 28.8537 43.5309C28.6999 43.5083 28.465 43.4206 28.3285 43.358C28.2608 43.3265 28.1808 43.357 28.1498 43.4237C28.119 43.4909 28.1482 43.5709 28.2154 43.6024C28.2565 43.6209 28.5614 43.7586 28.8073 43.7958C28.785 43.9382 28.7691 44.0607 28.7576 44.161C27.7543 44.2215 26.8029 44.3098 25.9053 44.4175C26.5818 42.1935 26.8752 40.011 26.9932 38.8606C28.2747 38.7429 29.9939 38.6198 31.9551 38.5667ZM32.2449 38.5595C32.2944 38.6747 32.3569 38.8229 32.4075 38.9532C32.518 38.9311 32.6321 38.9116 32.7496 38.8975C32.7273 38.7452 32.7121 38.6336 32.7026 38.5508C32.549 38.5536 32.3962 38.5562 32.2449 38.5595ZM29.2161 29.9157C29.1474 29.8131 29.0779 29.7084 29.0076 29.602C29.0145 29.5589 29.0228 29.5069 29.0317 29.4446C29.2348 29.403 29.6552 29.325 29.9375 29.325C30.0122 29.325 30.0724 29.2653 30.0724 29.1907C30.0724 29.1165 30.0122 29.056 29.9375 29.056C29.667 29.056 29.2997 29.1181 29.0689 29.1627C29.0833 29.0463 29.0987 28.9145 29.1143 28.766C29.2425 28.7447 29.3985 28.7213 29.5164 28.7213C29.5908 28.7213 29.6508 28.6616 29.6508 28.5872C29.6508 28.5123 29.5908 28.4526 29.5164 28.4526C29.4013 28.4526 29.2633 28.4705 29.1407 28.4893C29.1535 28.3505 29.1661 28.2007 29.1779 28.0405C29.3818 28.0004 29.8732 27.9122 30.2714 27.8981C30.3455 27.8956 30.4038 27.8332 30.4012 27.7586C30.3986 27.6848 30.3386 27.6237 30.2625 27.6288C29.8811 27.6419 29.4351 27.7178 29.1964 27.7627C29.2036 27.6496 29.2105 27.5327 29.2164 27.4114C29.9839 27.2429 31.1952 27.0505 32.727 27.0505C34.018 27.0505 35.3241 27.1883 36.622 27.456C36.6305 28.1579 36.6944 30.0593 37.0803 33.0626C35.4877 33.1132 33.4684 33.1668 31.5906 33.1793C31.5899 33.1778 31.5899 33.1768 31.5886 33.1752C31.5722 33.1552 30.8187 32.2215 29.837 30.821C29.948 30.8181 30.0632 30.8212 30.1458 30.8412C30.1558 30.8427 30.166 30.8438 30.176 30.8438C30.2371 30.8438 30.2927 30.8022 30.3073 30.7402C30.3238 30.6676 30.2789 30.5955 30.206 30.5789C30.0422 30.5409 29.8088 30.5494 29.6557 30.5609C29.568 30.4342 29.4792 30.3042 29.3885 30.1711C29.6557 30.1495 30.0263 30.1324 30.2396 30.1765C30.3122 30.1911 30.3838 30.1449 30.3986 30.0716C30.4138 29.9988 30.3671 29.9277 30.294 29.9126C30.0014 29.8521 29.488 29.8892 29.2161 29.9157ZM30.5364 31.4782C30.5358 31.5716 30.5738 31.6611 30.641 31.7247C30.7082 31.7888 30.7992 31.8206 30.8921 31.816C31.2675 31.7945 31.7048 31.7842 32.192 31.7842C33.4343 31.7842 34.6035 31.8542 34.615 31.8557C34.6219 31.8557 34.6289 31.8563 34.6355 31.8563C34.7258 31.8563 34.812 31.8196 34.8761 31.7552C34.9443 31.686 34.9789 31.5901 34.9715 31.4936C34.8761 30.2721 34.6989 27.9992 32.8257 27.9992C30.5823 27.9994 30.5369 31.3369 30.5364 31.4782ZM30.0835 28.6457C30.0891 28.6457 30.0952 28.6452 30.1006 28.6447C30.2281 28.6285 30.5946 28.5916 30.76 28.6152C30.8346 28.6247 30.9018 28.5741 30.9126 28.5016C30.9228 28.428 30.8721 28.3597 30.7984 28.3492C30.5638 28.3154 30.0868 28.3754 30.0665 28.3777C29.9929 28.3872 29.9406 28.4549 29.9501 28.5285C29.9588 28.5965 30.0168 28.6457 30.0835 28.6457ZM35.7216 38.5687C35.2931 38.5572 34.8599 38.5492 34.4211 38.5462C34.3696 38.669 34.3098 38.8301 34.2886 38.956C34.4224 38.9816 34.5512 39.0137 34.6753 39.0491C34.7379 38.8514 34.8081 38.6382 34.8081 38.6382L35.0633 38.7234C35.0633 38.7239 34.993 38.9368 34.9307 39.1337C35.0364 39.1732 35.1374 39.2147 35.2354 39.2604C35.4172 38.9409 35.6734 38.6157 35.6878 38.5972C35.6968 38.5851 35.7091 38.5767 35.7216 38.5687ZM32.9729 38.5472C32.9832 38.6298 32.9983 38.74 33.0186 38.8773C33.055 38.8757 33.0891 38.8708 33.1263 38.8688C33.2171 38.8667 33.304 38.8678 33.3915 38.8688C33.3974 38.7757 33.3943 38.6549 33.3871 38.5428C33.2484 38.5441 33.1104 38.5446 32.9729 38.5472ZM40.0852 38.848C38.7488 38.7082 37.3401 38.6167 35.8717 38.5731C35.8735 38.5736 35.8755 38.5736 35.8768 38.5751C35.9353 38.6213 35.945 38.7065 35.8986 38.7649C35.895 38.769 35.6442 39.087 35.4734 39.3845C35.5665 39.4376 35.6555 39.4943 35.7409 39.5538C35.8886 39.3304 36.0563 39.0919 36.0671 39.077C36.1094 39.016 36.1935 39.0014 36.2543 39.0445C36.3153 39.0875 36.3297 39.1717 36.2866 39.2317C36.284 39.2353 36.105 39.4902 35.9563 39.7166C36.0201 39.7687 36.0817 39.8228 36.1414 39.879C36.3956 39.6161 36.7449 39.296 36.8405 39.2104C36.8954 39.1609 36.9806 39.1647 37.0306 39.2199C37.0801 39.275 37.0762 39.3602 37.0216 39.4097C36.7734 39.6341 36.5102 39.8851 36.3299 40.0698C36.4164 40.1639 36.4987 40.2611 36.5754 40.3619C36.701 40.2621 36.8918 40.1259 37.1865 39.9336C37.2481 39.8941 37.3319 39.911 37.3724 39.9736C37.4127 40.0351 37.3953 40.1188 37.3329 40.1595C37.1188 40.2988 36.8808 40.465 36.7303 40.5827C36.7785 40.6553 36.8241 40.7294 36.8675 40.804C37.0711 40.6658 37.2127 40.6532 37.2332 40.6527C37.3086 40.6506 37.3699 40.7078 37.3732 40.7825C37.3758 40.855 37.3191 40.9171 37.246 40.9217C37.2396 40.9227 37.1442 40.9363 36.997 41.0425C37.0426 41.1318 37.0849 41.2238 37.126 41.3154C37.317 41.2459 37.6122 41.1446 37.8705 41.0915C37.942 41.0769 38.0141 41.1225 38.0295 41.1956C38.0449 41.2687 37.9977 41.3395 37.9254 41.3544C37.6884 41.4033 37.4127 41.4972 37.2296 41.5641C37.2781 41.6888 37.3235 41.8147 37.364 41.9414C37.5563 41.8788 37.7928 41.8167 37.9443 41.8357C38.0179 41.8447 38.07 41.9124 38.061 41.987C38.0513 42.0606 37.9823 42.1106 37.9105 42.1027C37.8146 42.0896 37.6233 42.1383 37.4419 42.1978C37.4858 42.3512 37.524 42.5043 37.5586 42.6572C37.6763 42.6277 37.8058 42.603 37.9205 42.5971C38.0018 42.5925 38.0577 42.6507 38.0615 42.7249C38.0654 42.799 38.0084 42.8615 37.9343 42.8657C37.8359 42.8708 37.7204 42.8936 37.6148 42.9198C37.6353 43.0211 37.6535 43.1206 37.6707 43.2198C37.9215 43.1772 38.2785 43.1236 38.4288 43.1357C38.5032 43.1421 38.5583 43.2073 38.5516 43.2809C38.5457 43.356 38.4734 43.4075 38.4065 43.404C38.2982 43.3934 37.9843 43.4386 37.713 43.4845C37.7315 43.6076 37.7479 43.7284 37.7625 43.8466C37.9033 43.832 38.0815 43.8302 38.2211 43.8887C38.2895 43.9176 38.3218 43.9964 38.2934 44.0646C38.2718 44.1166 38.2216 44.1477 38.169 44.1477C38.1521 44.1477 38.1339 44.1446 38.1174 44.1372C38.0333 44.102 37.9048 44.1025 37.7941 44.1136C37.8064 44.2233 37.8169 44.3285 37.8274 44.4305C39.1112 44.5867 40.2955 44.7837 41.3785 45.006C41.118 43.8905 40.4876 41.1287 40.0852 38.848ZM33.6566 38.5421C33.6628 38.6446 33.6664 38.7695 33.6597 38.8796C33.7846 38.8865 33.9057 38.8975 34.0229 38.9137C34.0431 38.7913 34.0878 38.6567 34.1316 38.5431C34.0477 38.5426 33.9657 38.5405 33.8813 38.5405C33.8059 38.5405 33.7315 38.5405 33.6566 38.5421Z" fill="#FFFBDE"/>
<path d="M29.4355 44.124C30.4342 44.0784 31.4797 44.0594 32.5699 44.0758C32.7556 44.0789 32.9384 44.0843 33.1208 44.0889L33.1941 39.5419C33.1787 39.5419 33.1646 39.5419 33.1487 39.5419C30.2095 39.6404 29.5686 42.9928 29.4355 44.124ZM32.8684 42.4804C32.8133 42.7559 32.5194 42.9969 32.2386 42.9969C32.2124 42.9969 32.1865 42.9949 32.1604 42.991C32.0249 42.9679 31.9003 42.8833 31.809 42.7497C31.7059 42.6004 31.6616 42.4122 31.6926 42.2578C31.7287 42.0765 31.8565 41.8883 32.0419 41.797C32.0455 41.6757 32.0752 41.5379 32.1665 41.3871C32.205 41.3235 32.2883 41.3046 32.3514 41.3415C32.415 41.38 32.4355 41.4638 32.3968 41.5274C32.3496 41.6046 32.3253 41.6777 32.3147 41.7418C32.3709 41.7459 32.4271 41.7549 32.484 41.7759C32.7592 41.8729 32.9284 42.1824 32.8684 42.4804ZM32.6045 42.4278C32.5727 42.5871 32.363 42.751 32.2045 42.7248C32.1429 42.7143 32.0796 42.6681 32.0306 42.5976C31.9688 42.5079 31.9395 42.3948 31.9562 42.3101C31.9708 42.2376 32.0178 42.1473 32.0898 42.0842C32.1273 42.1804 32.1724 42.2386 32.1773 42.2445C32.204 42.2771 32.2422 42.294 32.2811 42.294C32.3104 42.294 32.3399 42.284 32.3648 42.265C32.4227 42.2193 32.4325 42.1342 32.3873 42.0768C32.385 42.0737 32.3712 42.0542 32.3555 42.0221C32.3689 42.0257 32.3809 42.0242 32.394 42.0285C32.5438 42.0824 32.6381 42.2606 32.6045 42.4278ZM34.7662 42.3522C34.8354 42.4899 34.7877 42.604 34.7531 42.6602C34.6905 42.7618 34.5803 42.8269 34.4726 42.8269C34.2579 42.8269 33.9868 42.7071 33.9314 42.3681C33.9153 42.2683 33.945 42.1642 34.0135 42.0842C34.0804 42.0055 34.1723 41.9619 34.272 41.9619C34.2895 41.9619 34.3056 41.9639 34.322 41.9649C34.3048 42.0206 34.282 42.078 34.2469 42.1414C34.2105 42.206 34.2333 42.2881 34.2979 42.3247C34.3195 42.3358 34.342 42.3417 34.3638 42.3417C34.4115 42.3417 34.4569 42.3165 34.4815 42.2729C34.5215 42.2014 34.5513 42.1327 34.5744 42.0675C34.6395 42.1283 34.699 42.2186 34.7662 42.3522ZM33.4634 39.5414L33.3903 44.0961C34.719 44.1376 35.968 44.2274 37.14 44.3531C36.8566 41.8388 36.137 39.6109 33.4634 39.5414ZM34.9816 42.802C34.8696 42.9838 34.6744 43.0964 34.4726 43.0964C34.1269 43.0964 33.7435 42.8851 33.6658 42.4117C33.6365 42.234 33.6888 42.0506 33.8083 41.9098C33.9255 41.7716 34.0943 41.6934 34.272 41.6934C34.3 41.6934 34.3251 41.6969 34.3513 41.6987C34.3343 41.5474 34.2643 41.4592 34.2628 41.4579C34.2141 41.4018 34.22 41.3171 34.2764 41.2687C34.332 41.2197 34.4169 41.2256 34.4659 41.2817C34.4754 41.2928 34.6293 41.4756 34.6259 41.7741C34.7906 41.8624 34.9014 42.0221 35.0065 42.2304C35.0996 42.4173 35.0909 42.6248 34.9816 42.802ZM28.7549 34.3692C28.4374 34.3692 28.1725 34.2125 28.0117 34.0892C28.0648 33.9789 28.1089 33.8858 28.1437 33.8102C28.6031 33.8286 29.1319 33.8412 29.7245 33.8491C29.4199 34.1887 29.0983 34.3646 28.7674 34.369C28.7628 34.3692 28.759 34.3692 28.7549 34.3692ZM31.0961 34.4539C30.5944 34.4539 30.1569 34.0015 30.0251 33.8517C30.2713 33.8538 30.5267 33.8548 30.7929 33.8548C31.1927 33.8548 31.6036 33.8517 32.0188 33.8484C32.0065 33.8568 31.9944 33.8668 31.9855 33.8799C31.7236 34.252 31.4315 34.4459 31.1168 34.4534C31.1102 34.4539 31.103 34.4539 31.0961 34.4539ZM37.6716 34.1523C37.3626 34.1138 37.1482 33.8707 37.051 33.7355C37.6459 33.7171 38.1822 33.6981 38.6318 33.6809C38.2904 34.0289 37.966 34.1879 37.6716 34.1523ZM35.7738 34.3231C35.1914 34.3651 34.6975 33.8597 34.6449 33.8043C35.3573 33.7873 36.0457 33.7671 36.6794 33.7481C36.4055 34.1061 36.1018 34.3 35.7738 34.3231ZM32.1845 33.8558C32.1801 33.8517 32.1742 33.8499 32.1696 33.8473C32.9184 33.8394 33.6804 33.8258 34.421 33.8089C34.1587 34.1325 33.8512 34.3128 33.5062 34.3433C32.8189 34.4031 32.1911 33.8607 32.1845 33.8558ZM38.9298 33.6699C39.3209 33.6547 39.6271 33.6424 39.8194 33.6337C39.8984 33.8155 39.9779 33.9917 40.0574 34.1646C39.4822 34.2859 39.0447 33.8107 38.9298 33.6699ZM40.1741 34.4157C40.3739 34.8398 40.5742 35.2381 40.7696 35.6097C39.9946 35.6138 39.6471 34.9875 39.6314 34.9586C39.6081 34.915 39.5624 34.888 39.5124 34.888C39.4634 34.888 39.417 34.9142 39.3939 34.9586C39.1657 35.3833 38.9057 35.6112 38.6207 35.6354C38.1481 35.6764 37.7198 35.1409 37.7157 35.136C37.6895 35.1024 37.6465 35.086 37.608 35.0845C37.5657 35.0845 37.5267 35.1045 37.501 35.1386C37.1859 35.5648 36.8548 35.7813 36.5183 35.7813C36.5155 35.7813 36.5129 35.7813 36.5104 35.7813C35.9726 35.7754 35.5722 35.2202 35.5681 35.2137C35.5422 35.1776 35.4999 35.1576 35.455 35.1566C35.4099 35.1581 35.3686 35.1817 35.344 35.2202C35.0734 35.6469 34.777 35.8667 34.4633 35.8713C34.46 35.8713 34.4567 35.8713 34.4536 35.8713C33.8707 35.8713 33.3798 35.1499 33.3749 35.1445C33.3506 35.1073 33.3111 35.0858 33.2675 35.0845C33.2262 35.086 33.1836 35.1019 33.1567 35.136C32.8266 35.5618 32.4666 35.7836 32.0873 35.7956C31.4731 35.8156 30.993 35.2763 30.9884 35.2702C30.9627 35.2417 30.9201 35.2166 30.8876 35.2245C30.8494 35.2245 30.8129 35.2407 30.7868 35.2696C30.4365 35.659 30.092 35.8387 29.7681 35.8026C29.2691 35.749 28.9518 35.204 28.949 35.1989C28.9257 35.1578 28.8821 35.1317 28.8357 35.1312C28.7862 35.1332 28.7441 35.1532 28.7187 35.1927C28.5379 35.4771 28.3079 35.651 28.0353 35.711C27.7152 35.7821 27.3959 35.6831 27.199 35.5974C27.4926 35.0955 27.7219 34.6652 27.8896 34.3331C28.086 34.4759 28.3864 34.6372 28.7546 34.6372C28.7587 34.6372 28.7631 34.6372 28.7674 34.6372C29.158 34.6336 29.5299 34.4485 29.8735 34.0858C30.0736 34.3008 30.539 34.7229 31.0958 34.7229C31.1048 34.7229 31.1138 34.7229 31.1227 34.7224C31.4918 34.7139 31.8272 34.52 32.1211 34.1474C32.3524 34.3187 32.9054 34.6662 33.528 34.6108C33.9107 34.5777 34.2515 34.399 34.5436 34.0805C34.749 34.2674 35.2268 34.6308 35.7897 34.5908C36.1893 34.5647 36.5522 34.3474 36.8691 33.9443C37.0063 34.1192 37.2643 34.3715 37.6357 34.4198C38.0078 34.4675 38.3927 34.2956 38.782 33.9127C39.0567 34.2174 39.575 34.5726 40.1741 34.4157ZM40.9086 35.8687C41.254 36.5053 41.5841 37.0554 41.877 37.5152C41.255 37.6078 40.777 37.0197 40.7544 36.9918C40.7306 36.9623 40.6957 36.9441 40.658 36.9417C40.6203 36.9394 40.5834 36.9523 40.5557 36.9789C40.5521 36.9815 40.171 37.3357 39.724 37.2964C39.4524 37.2713 39.2034 37.1061 38.9839 36.803C38.9605 36.7694 38.9228 36.7494 38.8826 36.7474C38.841 36.7448 38.8023 36.7609 38.7754 36.7909C38.7713 36.7956 38.3461 37.2562 37.8239 37.2346C37.5205 37.2231 37.2366 37.0502 36.9797 36.7212C36.9556 36.6896 36.9184 36.6712 36.8791 36.6696C36.8381 36.6655 36.8014 36.6832 36.775 36.7122C36.7696 36.7176 36.2813 37.2346 35.6871 37.2346C35.6779 37.2346 35.6682 37.2346 35.6587 37.2341C35.3266 37.2251 35.0175 37.0507 34.7393 36.7176C34.6923 36.6604 34.6064 36.653 34.5503 36.7002C34.4969 36.7438 33.2467 37.7611 32.2768 36.7497C32.2278 36.6991 32.1465 36.694 32.0919 36.7412C32.0426 36.7838 30.8681 37.7739 29.9035 36.7653C29.8774 36.7384 29.842 36.7207 29.803 36.7238C29.7656 36.7238 29.7299 36.7407 29.7048 36.7694C29.6986 36.7763 29.0924 37.4567 28.4602 37.4052C28.1414 37.3785 27.8578 37.1656 27.6178 36.7735C27.5936 36.734 27.5506 36.7094 27.5041 36.7089C27.4575 36.703 27.4146 36.7309 27.3895 36.7699C27.3841 36.7784 26.8804 37.5447 25.9426 37.5398C26.3796 36.9253 26.752 36.3468 27.061 35.8313C27.2895 35.9359 27.6793 36.0657 28.0909 35.9752C28.3794 35.9116 28.6279 35.7528 28.83 35.5002C28.9872 35.7036 29.2996 36.0226 29.7381 36.0708C30.1213 36.1119 30.509 35.9385 30.8899 35.5533C31.0843 35.7336 31.5269 36.0852 32.0939 36.0647C32.5135 36.0526 32.9048 35.8413 33.2588 35.4351C33.456 35.6784 33.905 36.1403 34.4536 36.1403C34.4579 36.1403 34.462 36.1403 34.4659 36.1403C34.8342 36.1352 35.1706 35.9254 35.4686 35.5151C35.6505 35.7143 36.0236 36.0444 36.5057 36.0495C36.5104 36.0506 36.5142 36.0506 36.5188 36.0506C36.9063 36.0506 37.2749 35.8413 37.6162 35.4279C37.7996 35.6161 38.185 35.9413 38.6423 35.9036C38.9746 35.8762 39.2701 35.6631 39.5222 35.2699C39.7266 35.5228 40.1818 35.9285 40.9086 35.8687ZM42.0331 37.7568C42.2216 38.0437 42.3927 38.2912 42.5381 38.493C39.9428 38.0784 37.0353 37.8678 33.8817 37.8678C30.0423 37.8678 26.7989 38.1858 25.3402 38.3556C25.4851 38.1668 25.6228 37.9809 25.7567 37.798C25.8246 37.8039 25.8923 37.8111 25.9567 37.8111C26.7586 37.8111 27.2754 37.3328 27.4954 37.0738C27.7621 37.4421 28.0791 37.6434 28.4392 37.6734C29.0503 37.7224 29.5927 37.2621 29.8094 37.0497C30.7534 37.9137 31.8403 37.2577 32.1688 37.0207C33.1205 37.9027 34.2679 37.2292 34.6169 36.9851C34.9265 37.3187 35.2745 37.4934 35.6533 37.5034C36.2065 37.5129 36.6609 37.1782 36.8627 37.0005C37.1466 37.321 37.4667 37.4908 37.8139 37.5044C38.2884 37.5201 38.6761 37.2428 38.861 37.0818C39.1059 37.3739 39.3883 37.536 39.6996 37.5642C40.1133 37.6013 40.4647 37.3893 40.6339 37.2621C40.9106 37.5529 41.4423 37.9045 42.0331 37.7568ZM44.8542 36.0441C45.0544 36.0441 45.2678 35.9911 45.4896 35.8918C45.681 36.0872 45.8692 36.2734 46.0526 36.4499C44.988 36.3165 43.298 36.1224 41.7623 36.017C41.6764 35.8651 41.5887 35.7069 41.4997 35.543C41.5838 35.5646 41.6708 35.5782 41.7623 35.5735C41.9608 35.562 42.1406 35.4799 42.2993 35.3291C42.4314 35.4858 42.6825 35.7208 43.0207 35.751C43.2926 35.7746 43.558 35.6679 43.8155 35.4304C43.9227 35.5997 44.1289 35.8518 44.4569 35.9729C44.5833 36.02 44.7162 36.0441 44.8542 36.0441ZM40.5372 31.5975C40.457 31.0486 40.3705 30.4491 40.2805 29.821C40.6531 30.2954 41.1461 30.913 41.7059 31.5967C41.3415 31.9229 40.8283 31.7442 40.5372 31.5975ZM42.7428 33.9704C42.9823 33.9704 43.2274 33.8774 43.4747 33.696C44.0753 34.3862 44.6928 35.0699 45.2853 35.6836C45.0167 35.7851 44.7695 35.8018 44.5526 35.721C44.152 35.5748 43.9725 35.1581 43.9701 35.154C43.953 35.1119 43.914 35.0819 43.8686 35.0737C43.8217 35.0668 43.7765 35.0822 43.7457 35.1163C43.5098 35.3802 43.2744 35.5041 43.0472 35.484C42.6784 35.4515 42.426 35.0517 42.424 35.0483C42.4004 35.0109 42.3611 34.9873 42.317 34.9847C42.2734 34.9827 42.2311 35.0009 42.2042 35.0347C42.0696 35.204 41.9167 35.2948 41.7492 35.3048C41.5838 35.3158 41.4235 35.2461 41.3051 35.1745C41.1945 34.9642 41.0842 34.7478 40.9732 34.5213C40.9555 34.4051 40.9083 34.0961 40.8409 33.6422C41.0873 33.6748 41.4328 33.6506 41.8 33.4047C41.9241 33.5835 42.1875 33.8876 42.5812 33.9556C42.6343 33.9658 42.6884 33.9704 42.7428 33.9704ZM41.2063 32.046C41.4423 32.046 41.6767 31.9788 41.8759 31.8042C42.3201 32.344 42.8017 32.918 43.2987 33.4924C43.0633 33.6596 42.8392 33.7278 42.6286 33.6912C42.2062 33.6186 41.9593 33.1526 41.9572 33.1482C41.9385 33.1121 41.9049 33.0862 41.8654 33.0782C41.8262 33.0703 41.7846 33.0798 41.7536 33.1049C41.3722 33.4103 41.0127 33.407 40.7986 33.3624C40.7378 32.9572 40.6655 32.4663 40.5842 31.9144C40.7747 31.9904 40.9904 32.046 41.2063 32.046ZM34.7544 22.0858C34.7108 21.9988 34.667 21.9106 34.6234 21.8226C34.6747 21.7552 34.7393 21.6685 34.8157 21.5639C34.8434 21.5667 34.8698 21.5711 34.9011 21.5711C35.144 21.5711 35.4771 21.4754 35.8318 21.0892C36.0059 21.2236 36.375 21.4544 36.7961 21.4241C37.073 21.4044 37.3228 21.2779 37.5418 21.0474C37.7819 21.3151 38.2199 21.6106 38.741 21.4964C38.858 21.6613 38.9775 21.8234 39.098 21.9819C38.0978 21.9155 36.319 21.8529 34.7544 22.0858ZM35.0086 21.2905C35.2424 20.9504 35.532 20.4975 35.8292 19.9551C36.1018 20.0144 36.4616 19.9926 36.753 19.6979C36.9094 19.852 37.1643 20.0036 37.4916 20.0036C37.5685 20.0036 37.6503 19.9939 37.7354 19.9751C37.9929 20.3914 38.2732 20.8255 38.5679 21.2505C38.0342 21.291 37.6742 20.7855 37.6559 20.7602C37.6316 20.7245 37.5918 20.7032 37.5495 20.7019C37.5067 20.7014 37.4662 20.7196 37.4392 20.7535C37.2448 21.0022 37.0228 21.1374 36.7784 21.1551C36.3167 21.1882 35.9136 20.8076 35.9092 20.804C35.8823 20.7784 35.8438 20.763 35.8082 20.7666C35.7707 20.7691 35.7359 20.7863 35.7115 20.815C35.444 21.143 35.1976 21.2592 35.0086 21.2905ZM35.9636 19.7056C36.209 19.2373 36.4552 18.7118 36.6737 18.1402C36.8971 18.5518 37.2128 19.1137 37.5849 19.7284C37.1261 19.7805 36.8771 19.433 36.8645 19.415C36.8402 19.3784 36.7996 19.3566 36.7558 19.3561C36.6999 19.3594 36.6709 19.3755 36.6447 19.4107C36.4329 19.6984 36.1631 19.7328 35.9636 19.7056ZM30.5862 24.3018C30.913 23.7212 31.2133 23.1475 31.4851 22.5982C31.6126 22.6938 31.7952 22.79 32.0162 22.79C32.0257 22.79 32.0347 22.79 32.0442 22.7895C32.3273 22.779 32.5945 22.6133 32.8402 22.2961C32.9456 22.4017 33.118 22.5307 33.357 22.5671C33.6055 22.6051 33.8655 22.5335 34.133 22.3584C34.4364 22.9605 34.7483 23.5288 35.0542 24.0564C34.866 24.1105 34.6926 24.1174 34.538 24.0654C34.2133 23.9561 34.0676 23.6401 34.0663 23.6376C34.0468 23.593 34.0043 23.5619 33.9555 23.5573C33.9061 23.5524 33.8596 23.5748 33.8322 23.6155C33.5529 24.0223 33.2385 24.2408 32.8982 24.2636C32.3281 24.3033 31.849 23.7833 31.8444 23.7776C31.8165 23.7476 31.7764 23.7314 31.7346 23.734C31.6936 23.7376 31.6559 23.7586 31.6331 23.793C31.2602 24.3485 30.8432 24.3646 30.5862 24.3018ZM32.7269 26.3776C31.1086 26.3776 29.8389 26.5809 29.0349 26.7597C29.1324 26.624 29.2268 26.4863 29.3214 26.3481C29.3645 26.3532 29.4099 26.3565 29.4586 26.3565C29.7707 26.3565 30.1864 26.2319 30.5339 25.6954C30.7052 25.8844 31.0353 26.1732 31.461 26.185C31.8226 26.1957 32.155 26.0113 32.4704 25.641C32.6902 25.8472 33.2093 26.2578 33.7991 26.2147C34.1651 26.1873 34.49 25.9906 34.768 25.6305C34.9973 25.9129 35.5553 26.4342 36.3706 26.1588C36.5355 26.4032 36.6873 26.6227 36.8191 26.8074C35.4571 26.5214 34.0838 26.3776 32.7269 26.3776ZM32.036 22.5207C31.8552 22.5269 31.7028 22.4304 31.6067 22.3504C32.1734 21.1859 32.6071 20.1547 32.8813 19.4653C33.209 20.385 33.6006 21.2767 34.0125 22.1132C33.7935 22.2638 33.5875 22.3294 33.3998 22.3017C33.1092 22.2591 32.9482 22.0076 32.9467 22.0058C32.9228 21.9665 32.88 21.9422 32.8343 21.9416C32.79 21.9422 32.7453 21.9634 32.7199 22.0017C32.4981 22.3366 32.2676 22.511 32.036 22.5207ZM29.4958 26.0888C29.8333 25.5802 30.1521 25.0591 30.4498 24.5403C30.548 24.5708 30.668 24.5957 30.8024 24.5957C31.0907 24.5957 31.4407 24.4834 31.7623 24.0733C31.9626 24.2508 32.3986 24.5695 32.9149 24.5324C33.2906 24.508 33.6324 24.3059 33.9325 23.9317C34.0315 24.0651 34.1984 24.2344 34.4482 24.3195C34.6759 24.397 34.9257 24.3885 35.1945 24.2977C35.5561 24.9106 35.9051 25.4594 36.2134 25.9239C35.3804 26.1493 34.9049 25.3694 34.8831 25.3312C34.8593 25.2912 34.817 25.2661 34.7706 25.2651C34.7216 25.264 34.68 25.2866 34.6549 25.3261C34.402 25.7118 34.1079 25.9211 33.7804 25.9462C33.15 25.9962 32.5663 25.3561 32.5607 25.3492C32.5338 25.3194 32.4966 25.3056 32.4548 25.3045C32.415 25.3071 32.3776 25.3263 32.353 25.3576C32.067 25.7359 31.7741 25.9206 31.4705 25.9157C30.9884 25.9031 30.6321 25.3892 30.6285 25.384C30.6024 25.3456 30.5578 25.3217 30.5106 25.3253C30.4634 25.3281 30.4208 25.3548 30.399 25.3964C30.1082 25.9372 29.7574 26.0757 29.4958 26.0888ZM28.103 32.8369C25.2958 32.8369 22.9605 33.2821 21.7236 33.5768C21.8649 33.3739 22.005 33.16 22.1445 32.9431C22.4827 32.8854 23.0139 32.6861 23.4791 32.0265C23.6883 32.1863 24.1502 32.4768 24.717 32.4522C25.1594 32.4358 25.5725 32.2363 25.9464 31.8598C26.1724 32.0634 26.7476 32.5084 27.4126 32.4748C27.8327 32.4553 28.2125 32.254 28.5448 31.876C28.771 32.1093 29.3327 32.5615 30.1618 32.4199C30.3116 32.6217 30.4483 32.8036 30.5665 32.959C29.7651 32.8779 28.9398 32.8369 28.103 32.8369ZM22.3553 32.6105C22.7238 32.015 23.0818 31.3792 23.4234 30.7358C23.6955 30.786 24.1979 30.7624 24.7201 30.1516C24.8747 30.3462 25.1907 30.6617 25.6618 30.746C25.7408 30.7601 25.82 30.7668 25.8998 30.7668C26.2824 30.7668 26.6812 30.6075 27.0897 30.29C27.3167 30.4603 27.9396 30.8209 28.8151 30.5229C29.2401 31.1489 29.6386 31.7085 29.9797 32.1732C29.1406 32.2473 28.6731 31.6203 28.6505 31.5898C28.6256 31.5557 28.5861 31.5349 28.5436 31.5341C28.49 31.5303 28.461 31.5526 28.4348 31.5864C28.1302 31.9788 27.7821 32.1871 27.4013 32.2063C26.6786 32.2442 26.0462 31.5826 26.0398 31.5767C26.0141 31.5487 25.9764 31.5316 25.9403 31.5341C25.9026 31.5349 25.8667 31.5505 25.8415 31.578C25.4943 31.9637 25.1135 32.167 24.709 32.1837C24.051 32.2037 23.5478 31.7349 23.5429 31.7306C23.5142 31.7031 23.4747 31.69 23.4337 31.6947C23.3942 31.7 23.3583 31.7218 23.3367 31.7559C23.0103 32.2673 22.6443 32.5038 22.3553 32.6105ZM25.87 27.02C25.6243 27.0197 25.4222 26.9189 25.2909 26.8305C25.5258 26.2904 25.7241 25.8175 25.8705 25.4594C26.0752 25.8993 26.2978 26.3386 26.5299 26.7738C26.3147 26.9366 26.0939 27.02 25.8713 27.02C25.871 27.02 25.8705 27.02 25.87 27.02ZM23.557 30.4811C23.8697 29.8823 24.1661 29.2829 24.4387 28.7072C24.5957 28.8198 24.8026 28.9252 25.0478 28.9311C25.3384 28.9375 25.62 28.8039 25.8785 28.5323C26.0524 28.6921 26.4186 28.9716 26.8566 28.9716C26.8686 28.9716 26.8802 28.9716 26.8922 28.9714C27.1515 28.9621 27.3916 28.8557 27.609 28.6541C27.864 29.0701 28.1199 29.4745 28.372 29.8587C28.3766 29.8666 28.3807 29.8736 28.3861 29.8802C28.4777 30.02 28.5682 30.1562 28.6582 30.2908C27.7568 30.5645 27.2108 30.0462 27.1856 30.021C27.1364 29.9728 27.0579 29.969 27.0048 30.0128C26.5447 30.3937 26.1095 30.5521 25.7115 30.4819C25.1555 30.3831 24.846 29.8654 24.8432 29.8602C24.8201 29.8215 24.7796 29.7961 24.7344 29.7933C24.6898 29.792 24.6465 29.8107 24.6193 29.8471C24.1946 30.4131 23.7945 30.4962 23.557 30.4811ZM25.0555 28.6616C24.8562 28.6577 24.6816 28.5585 24.5552 28.4597C24.7826 27.9735 24.9934 27.5075 25.1812 27.0808C25.3448 27.1831 25.5802 27.288 25.8659 27.2893C25.8677 27.2893 25.8692 27.2893 25.8713 27.2893C26.1424 27.2893 26.406 27.1957 26.6586 27.0123C26.9184 27.4903 27.1892 27.9599 27.4644 28.4164C27.2846 28.5967 27.0905 28.6949 26.884 28.7023C26.4019 28.7252 25.9782 28.252 25.9741 28.2474C25.9477 28.2174 25.9005 28.2017 25.871 28.2017C25.8315 28.202 25.7941 28.2199 25.769 28.251C25.5392 28.5285 25.294 28.6736 25.0555 28.6616Z" fill="#AC693E"/>
<path d="M23.7764 37.8209C23.9826 37.7968 24.1628 37.7773 24.2944 37.7637C24.3872 37.4031 24.516 36.8861 24.6091 36.3678L23.9728 36.4604C23.8869 37.0079 23.8189 37.5006 23.7764 37.8209Z" fill="white"/>
<path d="M39.0136 25.5336C38.9069 25.6944 38.7507 26.1112 38.8543 27.1216C38.962 27.1375 39.0934 27.1634 39.2362 27.2029C39.1595 26.6402 39.0844 26.0794 39.0136 25.5336Z" fill="white"/>
<path d="M22.8418 37.944C23.0677 37.9104 23.2919 37.8804 23.5001 37.8542C23.5399 37.5521 23.6073 37.0582 23.6935 36.5009L23.0729 36.5912C22.9646 37.0595 22.8874 37.5383 22.8418 37.944Z" fill="white"/>
<path d="M32.9496 28.6819C32.9381 29.0737 32.9263 29.5849 32.916 30.0611C33.2963 30.066 33.7054 30.0798 34.1132 30.1096C33.94 29.3297 33.6182 28.7455 32.9496 28.6819Z" fill="white"/>
<path d="M24.3438 34.5134C24.3394 34.5134 24.3348 34.5139 24.3302 34.5139C24.2161 35.0199 24.1091 35.6164 24.0176 36.1824L24.6562 36.0888C24.7513 35.4561 24.771 34.8647 24.5751 34.6111C24.5372 34.5629 24.4805 34.5134 24.3438 34.5134Z" fill="white"/>
<path d="M23.1436 36.3086L23.738 36.2224C23.8247 35.6828 23.9255 35.1099 24.034 34.6065C23.6421 34.846 23.3469 35.5382 23.1436 36.3086Z" fill="white"/>
<path d="M31.2314 31.1274C31.5256 31.1169 31.8475 31.1105 32.1932 31.1105C32.3396 31.1105 32.484 31.1125 32.6263 31.1141C32.6302 30.9176 32.6353 30.6401 32.6422 30.3283C32.0842 30.3273 31.6172 30.3444 31.3527 30.3573C31.2868 30.6481 31.2507 30.9225 31.2314 31.1274Z" fill="white"/>
<path d="M37.3984 29.5812C37.4359 30.0865 37.4856 30.6658 37.5536 31.3198C37.7711 31.3244 37.9506 31.3349 38.0939 31.3464C37.9237 30.2219 37.6039 29.7641 37.3984 29.5812Z" fill="white"/>
<path d="M32.9104 30.3301C32.904 30.6435 32.8984 30.9215 32.8945 31.1184C33.4503 31.1282 33.9455 31.1484 34.2676 31.1636C34.2425 30.8951 34.2096 30.6327 34.1668 30.3837C33.7403 30.3506 33.3097 30.3352 32.9104 30.3301Z" fill="white"/>
<path d="M31.4229 30.0844C31.7008 30.0721 32.1376 30.0582 32.6467 30.059C32.6569 29.5861 32.669 29.0778 32.6803 28.6852C31.9824 28.7672 31.6152 29.4248 31.4229 30.0844Z" fill="white"/>
<path d="M23.1417 26.3955C23.1099 26.4445 23.0501 26.4686 22.9932 26.4532C22.7593 26.3911 22.5265 26.3596 22.2997 26.3596C20.7661 26.3596 19.5185 27.6473 19.5185 29.2301C19.5185 29.5068 19.558 29.783 19.6357 30.0505C19.65 30.0995 19.6357 30.1516 19.5985 30.1859C19.5621 30.2208 19.5082 30.2318 19.461 30.2146C19.2425 30.1359 19.0176 30.0959 18.7935 30.0959C17.6764 30.0959 16.7672 31.0345 16.7672 32.1901C16.7672 32.6658 16.9198 33.1162 17.2081 33.4904C17.2355 33.525 17.2435 33.5719 17.2296 33.6135C17.2158 33.655 17.1827 33.6891 17.1401 33.7017C16.5744 33.8704 16.1797 34.4133 16.1797 35.0214C16.1797 35.4566 16.3833 35.871 16.7244 36.1293C16.7557 36.1529 16.7749 36.1893 16.7775 36.2285C16.7803 36.267 16.7654 36.3057 16.7377 36.3327C16.3777 36.6863 16.1797 37.1607 16.1797 37.6711C16.1797 38.689 16.9811 39.5173 17.9664 39.5173C18.1731 39.5173 18.3793 39.4788 18.5791 39.4032C18.6142 39.3901 18.6535 39.3917 18.6871 39.4091C18.7204 39.426 18.7458 39.4563 18.756 39.4917C18.9756 40.2575 19.6606 40.7929 20.4302 40.8111C20.6348 39.9982 20.8208 39.2209 20.9867 38.5005C20.3194 38.1963 19.7901 37.8604 19.3708 37.5177C19.3603 37.5236 19.349 37.5282 19.3372 37.5318C18.03 37.857 17.3386 37.5359 17.3096 37.5218C17.2422 37.4903 17.214 37.4095 17.2465 37.3426C17.2786 37.2754 17.3584 37.2485 17.4253 37.2795C17.432 37.2831 18.0177 37.5459 19.1238 37.3051C17.8354 36.1285 17.7654 34.9509 17.7628 34.8839C17.7597 34.8098 17.8169 34.7472 17.891 34.7431C17.9628 34.7472 18.0282 34.7983 18.0313 34.8724C18.0323 34.8903 18.1429 36.5919 20.4168 37.9058C20.1212 36.7207 20.1773 35.6266 20.1799 35.5766C20.1842 35.502 20.246 35.4453 20.3217 35.4494C20.3963 35.4535 20.4528 35.5171 20.4489 35.5907C20.4484 35.6038 20.385 36.8509 20.7441 38.0837C20.8415 38.1337 20.9431 38.184 21.048 38.2314C21.4658 36.3957 21.7494 34.9501 21.8845 34.2323C21.3129 34.3664 20.9849 34.4677 20.9749 34.4708C20.9421 34.4808 20.9082 34.4859 20.8749 34.4859C20.7654 34.4859 20.6602 34.4328 20.5964 34.3387C20.513 34.2156 20.5199 34.0533 20.613 33.9379C20.731 33.7917 20.8487 33.6358 20.9667 33.475C19.7885 33.3211 18.9556 32.891 18.4952 32.1847C18.4875 32.1732 18.4811 32.1627 18.476 32.1558C18.4352 32.1183 18.4196 32.0591 18.4411 32.005C18.4691 31.936 18.5478 31.9034 18.6163 31.9306C18.6629 31.9493 18.6845 31.9819 18.7209 32.0375C19.1538 32.7017 19.9722 33.099 21.146 33.2247C21.5183 32.6943 21.8879 32.0986 22.2459 31.4736C22.1987 31.2959 22.1551 31.1217 22.1189 30.9553C21.0513 30.3011 20.7046 29.4884 20.6902 29.4537C20.662 29.385 20.6946 29.3073 20.7628 29.2783C20.8318 29.2496 20.9103 29.2819 20.939 29.3499C20.9418 29.3573 21.2231 30.009 22.0461 30.5855C21.6991 28.6341 22.0936 27.5024 22.1138 27.447C22.1392 27.377 22.2167 27.3408 22.2862 27.3659C22.3557 27.3916 22.3923 27.468 22.3669 27.5378C22.3636 27.5467 22.1669 28.1166 22.1777 29.1311C22.9329 28.6054 23.1455 27.8137 23.1481 27.8058C23.1663 27.7339 23.2399 27.6896 23.312 27.7096C23.3838 27.7273 23.4271 27.8011 23.4081 27.8735C23.3979 27.9135 23.1409 28.8698 22.1872 29.4463C22.2115 29.9287 22.2851 30.4955 22.4375 31.1343C23.4556 29.3073 24.3606 27.2964 24.9266 25.9662C24.7235 25.8418 24.4912 25.7754 24.2521 25.7754C23.8046 25.7749 23.3889 26.0067 23.1417 26.3955Z" fill="#D0A140"/>
<path d="M50.2728 37.2982C50.6373 37.1338 50.8727 36.7706 50.8727 36.3739C50.8727 35.8384 50.4516 35.3952 49.9138 35.3645C49.8671 35.3614 49.8256 35.3345 49.8035 35.2934C49.7812 35.2524 49.7817 35.2024 49.8058 35.1616C49.9674 34.8877 50.052 34.5756 50.052 34.2604C50.052 33.2767 49.2519 32.4778 48.2686 32.4778C47.946 32.4778 47.6285 32.5665 47.3495 32.7353C47.3095 32.7579 47.2592 32.7609 47.2177 32.7394C47.1759 32.7179 47.1492 32.6758 47.1454 32.6296C47.0674 31.5848 46.1854 30.7665 45.1383 30.7665C44.2079 30.7665 43.4021 31.4233 43.1777 32.3096C43.7037 32.9328 44.2574 33.5729 44.8085 34.1809C44.8162 33.628 44.8796 32.6643 45.1891 31.9485C45.2191 31.8798 45.2981 31.8487 45.3656 31.879C45.4345 31.908 45.4651 31.987 45.4356 32.0557C45.0814 32.874 45.0711 34.0848 45.0776 34.4784C45.1412 34.5472 45.2048 34.6151 45.2676 34.6823C45.7436 34.5872 47.2008 34.243 48.3184 33.4146C48.3784 33.3705 48.4628 33.3826 48.5061 33.4421C48.5505 33.5016 48.5384 33.586 48.4784 33.6303C47.9727 34.0055 47.4077 34.284 46.8889 34.4874C47.0543 34.5946 47.6265 34.9282 48.262 34.9221C48.3286 34.9095 48.3971 34.9808 48.3979 35.0554C48.3992 35.1296 48.3392 35.1901 48.2648 35.1916C48.2576 35.1916 48.2494 35.1916 48.2417 35.1916C47.4093 35.1916 46.7125 34.6951 46.6837 34.6736C46.653 34.6515 46.6345 34.619 46.6296 34.5843C46.1619 34.751 45.7541 34.8539 45.4838 34.9129C46.1311 35.5986 46.7535 36.2121 47.2951 36.665C47.4105 36.7616 47.4477 36.9235 47.3864 37.0602C47.3315 37.183 47.2102 37.2594 47.0795 37.2594C47.0633 37.2594 47.0482 37.2584 47.032 37.2564C47.0146 37.2533 45.9659 37.1071 44.5995 36.9542C44.7078 37.5313 44.9191 38.6233 45.2068 39.9371C45.3633 39.863 45.6548 39.7086 46.017 39.4296C45.6828 38.6481 45.792 38.0747 45.7972 38.0506C45.8118 37.9775 45.8815 37.9319 45.9549 37.9449C46.0282 37.9596 46.0754 38.0296 46.0608 38.1032C46.06 38.1086 45.9721 38.5886 46.2349 39.2521C46.7981 38.7733 47.477 38.0175 48.0519 36.8629C48.0853 36.7958 48.1668 36.7683 48.2325 36.8024C48.2992 36.835 48.3263 36.9155 48.293 36.9827C47.9281 37.7159 47.5254 38.2935 47.1336 38.7448C47.3846 38.9031 48.0971 39.2623 49.2919 39.2436C49.3665 39.2462 49.427 39.3024 49.4283 39.376C49.4291 39.4511 49.3699 39.5116 49.2952 39.5126C47.9483 39.5296 47.2041 39.119 46.9505 38.9482C46.1944 39.7565 45.5112 40.1007 45.2653 40.2069C45.3468 40.5716 45.4335 40.9511 45.5248 41.3394C45.6318 41.3563 45.7459 41.364 45.8831 41.364C46.6253 41.364 47.3072 40.9868 47.7049 40.3551C47.7401 40.2989 47.8109 40.2774 47.8719 40.3025C48.1094 40.4041 48.3615 40.4569 48.6208 40.4569C49.6743 40.4569 50.5313 39.5993 50.5313 38.5461C50.5313 38.1709 50.4216 37.8067 50.2141 37.4941C50.1931 37.462 50.1869 37.421 50.1977 37.3828C50.2098 37.3448 50.2369 37.3143 50.2728 37.2982Z" fill="#D0A140"/>
<path d="M28.225 22.7671L28.9864 22.7025C28.9874 23.2018 28.9728 24.2341 28.8789 25.8005C28.5717 26.2614 28.2491 26.7094 27.9129 27.1323C27.8195 27.25 27.8154 27.4154 27.9026 27.538C27.9672 27.6283 28.0701 27.6788 28.1765 27.6788C28.2144 27.6788 28.2529 27.6713 28.2901 27.6583C28.2939 27.6572 28.3801 27.6277 28.5337 27.5826C28.5083 28.0276 28.475 28.411 28.4419 28.7226C28.1906 28.3217 27.939 27.906 27.6928 27.4808C27.7067 27.4521 27.7195 27.4213 27.7241 27.3872C27.7274 27.3577 28.1021 24.5875 28.225 22.7671ZM22.5986 34.0745C23.7821 33.8327 25.5263 33.5616 27.5369 33.5165C27.4948 33.6075 27.4361 33.7309 27.3607 33.8837C26.6144 33.8222 25.7748 34.1002 25.7386 34.1127C25.6684 34.1358 25.6304 34.2125 25.6542 34.2825C25.673 34.3392 25.7253 34.3746 25.7817 34.3746C25.7958 34.3746 25.8104 34.3725 25.8245 34.3682C25.8325 34.3651 26.5644 34.1238 27.2281 34.1453C27.1504 34.2966 27.063 34.4623 26.9617 34.6472C26.8191 34.6513 26.6867 34.6672 26.6454 34.6723C26.5718 34.6823 26.52 34.7495 26.5298 34.8236C26.5398 34.8967 26.6075 34.9483 26.6811 34.9383C26.7183 34.9347 26.7616 34.9293 26.807 34.9252C26.7319 35.0586 26.6521 35.1973 26.5665 35.3419C26.2992 35.3204 25.9443 35.3681 25.8566 35.3804C25.783 35.3914 25.7322 35.4591 25.7425 35.5327C25.753 35.6063 25.8209 35.6589 25.8951 35.6469C26.0615 35.6228 26.2526 35.6074 26.4072 35.6058C26.3233 35.7441 26.2351 35.8864 26.1423 36.0321C25.8497 36.019 25.5747 36.0441 25.5609 36.0451C25.487 36.0526 25.4324 36.1182 25.4398 36.1918C25.4465 36.2654 25.5096 36.3216 25.5863 36.3131C25.5886 36.3131 25.7617 36.2975 25.9717 36.2975C25.6886 36.7322 25.3693 37.1946 25.0113 37.6729C25.3662 36.2472 25.6178 34.8598 25.1059 34.1992C24.8987 33.9317 24.5956 33.807 24.2042 33.8476C22.4693 34.0289 22.1616 37.8826 22.1318 38.3214C22.1252 38.424 22.1657 38.5248 22.2424 38.5941C22.3047 38.6502 22.3852 38.6807 22.4675 38.6807C22.4865 38.6807 22.5057 38.6792 22.5247 38.6761C23.2413 38.553 24.0747 38.4622 24.4243 38.4271C24.3827 38.4771 24.3443 38.5274 24.3022 38.5789C24.2142 38.6856 24.2009 38.8369 24.2691 38.9577C24.3373 39.0785 24.4733 39.1442 24.6102 39.1249C24.6261 39.1234 25.2508 39.0346 26.3085 38.9272C26.3013 38.9967 26.2928 39.0685 26.2841 39.1442C25.7643 39.1326 25.3147 39.2457 25.2937 39.2514C25.2216 39.2698 25.1783 39.3429 25.1972 39.4157C25.2129 39.4763 25.2673 39.5165 25.3273 39.5165C25.3383 39.5165 25.3498 39.5145 25.3609 39.5119C25.3657 39.5109 25.7789 39.4062 26.2518 39.4137C26.2123 39.7337 26.1618 40.0974 26.0989 40.4916C25.2283 40.4962 24.8264 40.6208 24.8092 40.6257C24.7387 40.6503 24.7007 40.7255 24.7241 40.796C24.7425 40.8527 24.7954 40.8881 24.8518 40.8881C24.8659 40.8881 24.8797 40.8865 24.8939 40.8822C24.8977 40.8806 25.2621 40.768 26.0561 40.7608C25.9902 41.1555 25.9122 41.5774 25.8209 42.0162C25.5871 42.0152 25.4286 42.0257 25.4198 42.0257C25.3457 42.0308 25.2898 42.0944 25.2947 42.169C25.3001 42.2442 25.368 42.2968 25.4383 42.2942C25.4404 42.2942 25.5686 42.2857 25.763 42.2852C25.7237 42.465 25.6827 42.6458 25.6386 42.8302C24.8154 42.8448 24.2678 42.9594 24.2435 42.9643C24.1707 42.9805 24.1247 43.0515 24.1399 43.1246C24.1535 43.1872 24.2091 43.2308 24.2712 43.2308C24.2807 43.2308 24.2902 43.2303 24.2996 43.2272C24.3053 43.2262 24.8144 43.121 25.5714 43.101C25.5337 43.2518 25.494 43.4026 25.4527 43.5549C24.7549 43.6111 24.1114 43.7493 23.7803 43.8199C23.6831 43.8409 23.617 43.856 23.5905 43.8578C23.518 43.8604 23.4603 43.9199 23.4603 43.9924C23.4603 44.0671 23.5203 44.1276 23.5947 44.1276C23.6282 44.1276 23.6759 44.1171 23.8362 44.083C24.146 44.0158 24.7338 43.8906 25.3762 43.8319C25.3121 44.0573 25.2429 44.2843 25.1711 44.5105C23.0158 44.8026 21.2083 45.1988 19.8086 45.5738C21.4094 40.3446 22.3932 35.1929 22.5986 34.0745ZM24.5515 40.0771C24.5658 40.1397 24.6212 40.1813 24.682 40.1813C24.6925 40.1813 24.7028 40.1797 24.7128 40.1772C24.7182 40.1766 25.2998 40.0443 25.6124 40.06C25.6832 40.0664 25.7502 40.0069 25.754 39.9333C25.7584 39.8591 25.7012 39.795 25.6273 39.7904C25.2724 39.7704 24.6771 39.9092 24.6518 39.9151C24.5794 39.9325 24.5343 40.0046 24.5515 40.0771ZM24.1771 41.6546C24.1932 41.7146 24.2476 41.7538 24.3068 41.7538C24.3186 41.7538 24.3304 41.7533 24.342 41.7492C24.3489 41.7477 24.9944 41.5774 25.6165 41.592C25.6173 41.592 25.6189 41.592 25.6199 41.592C25.6927 41.592 25.7527 41.5333 25.7545 41.4602C25.7563 41.3861 25.6973 41.324 25.6232 41.323C24.9598 41.3079 24.2994 41.4817 24.2719 41.4887C24.1999 41.5087 24.1578 41.5828 24.1771 41.6546ZM23.6367 42.4399C23.6565 42.4955 23.7083 42.5301 23.7634 42.5301C23.7783 42.5301 23.7939 42.5265 23.809 42.5217C23.8147 42.5201 24.4063 42.3098 24.8556 42.2947C24.9298 42.2921 24.988 42.2301 24.9854 42.156C24.9831 42.0813 24.9121 42.0193 24.8467 42.0257C24.3556 42.0413 23.7437 42.2586 23.718 42.2686C23.6482 42.2942 23.6116 42.3704 23.6367 42.4399ZM25.5753 34.9591C25.5945 35.0157 25.6471 35.0516 25.7035 35.0516C25.7176 35.0516 25.7317 35.0496 25.7455 35.0447C25.8863 34.9985 26.1569 34.9301 26.2846 34.9416C26.3605 34.9485 26.4241 34.8934 26.4308 34.8198C26.4372 34.7452 26.3828 34.68 26.309 34.6731C26.0869 34.6526 25.704 34.7752 25.6619 34.7898C25.5906 34.8124 25.5522 34.889 25.5753 34.9591ZM46.2112 46.3313C45.0913 45.9356 43.7223 45.524 42.1069 45.1621C42.0828 45.0585 42.0487 44.9152 42.0082 44.74C42.3531 44.7767 42.8558 44.8462 43.2233 44.9629C43.2374 44.967 43.251 44.9693 43.2638 44.9693C43.321 44.9693 43.3743 44.9321 43.3925 44.8747C43.4143 44.8036 43.3759 44.728 43.3048 44.7059C42.8765 44.5702 42.2964 44.4974 41.9433 44.462C41.8666 44.1299 41.7738 43.7211 41.6707 43.2608C42.0318 43.3113 42.7273 43.4126 42.9591 43.4647C42.9683 43.4672 42.9789 43.4683 42.9883 43.4683C43.0494 43.4683 43.105 43.4257 43.1197 43.3631C43.1358 43.2916 43.0904 43.2185 43.0181 43.2023C42.7506 43.1418 41.9253 43.0241 41.6086 42.9805C41.5658 42.7892 41.5227 42.5904 41.4788 42.386C41.7415 42.4376 42.1444 42.5132 42.2931 42.5289C42.2969 42.5299 42.3021 42.5304 42.3075 42.5304C42.3757 42.5304 42.4329 42.4788 42.4411 42.4101C42.4493 42.336 42.3959 42.2693 42.321 42.2609C42.1613 42.2444 41.6548 42.1472 41.4168 42.1001C41.3781 41.9193 41.3388 41.7364 41.3001 41.5492C42.2113 41.6938 42.9412 41.9149 42.9494 41.918C42.9622 41.9216 42.976 41.9231 42.9889 41.9231C43.0466 41.9231 43.1002 41.8869 43.1173 41.8285C43.1391 41.7574 43.0986 41.6818 43.0278 41.6613C43.0194 41.6577 42.2192 41.4148 41.2406 41.2681C41.2029 41.0868 41.1655 40.9034 41.128 40.7206C41.7756 40.8262 42.5121 41.0742 42.5206 41.0778C42.5352 41.0824 42.5496 41.0848 42.5642 41.0848C42.6196 41.0848 42.6724 41.0491 42.6914 40.9937C42.7155 40.9237 42.6783 40.847 42.6073 40.8229C42.5706 40.8103 41.763 40.5375 41.0716 40.4398C41.0403 40.282 41.009 40.1243 40.9782 39.9679C41.3196 40.0266 41.7525 40.1161 41.7584 40.1177C41.7676 40.1197 41.7771 40.1207 41.7858 40.1207C41.8484 40.1207 41.9043 40.0782 41.9176 40.014C41.933 39.941 41.8864 39.8697 41.8138 39.8548C41.7861 39.8494 41.2796 39.743 40.9239 39.686C40.899 39.5558 40.8752 39.4275 40.8505 39.2998C41.0957 39.3283 41.7522 39.4111 42.0207 39.5086C42.0361 39.5145 42.0518 39.517 42.0672 39.517C42.1215 39.517 42.1738 39.4824 42.1933 39.4283C42.2192 39.3588 42.1831 39.2811 42.1131 39.2555C41.7707 39.1313 40.9259 39.0364 40.8005 39.0231C40.7946 38.9926 40.789 38.9621 40.7836 38.9305C41.6409 39.0336 42.4711 39.1554 43.2661 39.3006C43.2856 39.3042 43.3061 39.3052 43.3258 39.3052C43.4448 39.3052 43.5559 39.2437 43.6174 39.138C43.6882 39.0152 43.6749 38.8605 43.5831 38.7518C43.5767 38.7443 43.3202 38.4371 42.9232 37.8657C43.0504 37.8924 43.1974 37.9214 43.3033 37.9393C43.3112 37.9414 43.3189 37.9414 43.3266 37.9414C43.3907 37.9414 43.4482 37.8947 43.4589 37.8296C43.4715 37.756 43.4215 37.6867 43.3487 37.6739C43.1248 37.6359 42.7129 37.5462 42.7124 37.5462L42.7098 37.5531C42.6183 37.4149 42.5193 37.2625 42.4162 37.1007C42.5988 37.1379 42.8624 37.1979 43.1194 37.2779C43.133 37.2825 43.1468 37.2838 43.1599 37.2838C43.2171 37.2838 43.2702 37.2471 43.2887 37.1897C43.3102 37.1187 43.2707 37.043 43.1999 37.021C42.7309 36.8743 42.2482 36.795 42.2272 36.7914C42.2259 36.7909 42.2246 36.7914 42.2221 36.7914C42.2082 36.7694 42.1946 36.7458 42.1805 36.7227C42.757 36.7678 43.3446 36.823 43.9021 36.8804C44.1116 38.017 45.0331 42.8376 46.2112 46.3313ZM43.2092 40.4823C43.2269 40.4908 43.2461 40.4949 43.2638 40.4949C43.3151 40.4949 43.3643 40.4649 43.3869 40.4146C43.4174 40.3474 43.3876 40.2679 43.3194 40.2374C43.0071 40.0966 42.3695 39.9238 42.3421 39.9163C42.2716 39.8979 42.1962 39.9399 42.1772 40.011C42.1574 40.0825 42.2003 40.1572 42.2718 40.1766C42.2787 40.1779 42.9168 40.3513 43.2092 40.4823ZM43.3943 42.7815C43.4107 42.7879 43.4279 42.792 43.4443 42.792C43.4979 42.792 43.5482 42.7594 43.5695 42.7073C43.5972 42.6381 43.5638 42.5601 43.4949 42.5319C43.3089 42.4568 42.9271 42.3486 42.9112 42.3442C42.8409 42.3242 42.765 42.3657 42.7455 42.4373C42.725 42.5083 42.7663 42.5835 42.8383 42.603C42.8417 42.6043 43.2225 42.712 43.3943 42.7815ZM44.0552 44.1776C43.352 43.9181 42.4916 43.8414 42.4552 43.8386C42.3839 43.8317 42.3164 43.8868 42.31 43.9614C42.3036 44.035 42.358 44.1002 42.4321 44.1071C42.4408 44.1076 43.2928 44.1833 43.9629 44.4307C43.9785 44.4359 43.9937 44.4382 44.0098 44.4382C44.0644 44.4382 44.1157 44.4046 44.1355 44.3505C44.1611 44.2802 44.1257 44.2035 44.0552 44.1776ZM44.3201 43.6011C44.3347 43.529 44.2865 43.4577 44.2142 43.4434C44.0826 43.4188 43.7569 43.3105 43.6421 43.2716C43.572 43.2469 43.4954 43.2846 43.4713 43.3546C43.4469 43.4241 43.4846 43.5013 43.5546 43.5254C43.5718 43.5313 43.9862 43.6742 44.1621 43.7083C44.1711 43.7093 44.1798 43.7098 44.1888 43.7098C44.2511 43.7096 44.3076 43.6657 44.3201 43.6011ZM39.3382 27.9499C39.6001 29.8389 39.8683 31.6785 40.0578 32.9551C40.046 32.9546 40.0337 32.9515 40.0212 32.952C40.0001 32.9525 39.0951 32.9931 37.7559 33.0387C37.7338 32.8684 37.712 32.6976 37.692 32.5348C37.9954 32.5222 38.5604 32.5086 39.0777 32.5453C39.081 32.5453 39.0841 32.5453 39.0877 32.5453C39.1577 32.5453 39.2164 32.4912 39.2215 32.4201C39.2269 32.3465 39.171 32.2819 39.0971 32.2768C38.5476 32.2378 37.9626 32.2532 37.66 32.2663C37.6495 32.176 37.6377 32.0829 37.6279 31.9947C38.1626 32.0116 38.4006 32.0652 38.4011 32.0657C38.4281 32.0716 38.4552 32.0757 38.4827 32.0757C38.5629 32.0757 38.6407 32.0473 38.7027 31.9937C38.7422 31.959 38.7722 31.9162 38.7922 31.8685C38.8622 31.8685 38.9543 31.8685 39.0812 31.8736C39.0836 31.8744 39.0851 31.8744 39.0874 31.8744C39.1587 31.8744 39.219 31.8177 39.2213 31.7446C39.2246 31.671 39.1664 31.6085 39.0923 31.6051C38.9715 31.6 38.8766 31.5987 38.8035 31.5995C38.7858 31.4418 38.7653 31.2892 38.7414 31.144C38.8538 31.1425 38.9733 31.145 39.0633 31.162C39.071 31.1635 39.0792 31.164 39.0874 31.164C39.151 31.164 39.2082 31.1184 39.2195 31.0532C39.2326 30.9804 39.1836 30.9101 39.1105 30.897C38.9887 30.8758 38.8315 30.8724 38.6925 30.8765C38.6407 30.6221 38.5788 30.3911 38.5065 30.1813C38.615 30.1772 38.7689 30.1792 38.9782 30.2023C38.9835 30.2028 38.9882 30.2041 38.993 30.2041C39.0607 30.2041 39.1195 30.1526 39.1266 30.0836C39.1348 30.0097 39.0812 29.9433 39.0076 29.9348C38.7225 29.9035 38.5286 29.9071 38.4063 29.9166C38.337 29.754 38.2619 29.6053 38.178 29.4755C38.3273 29.4701 38.4645 29.4745 38.5273 29.4973C38.5427 29.5035 38.5588 29.506 38.5745 29.506C38.6291 29.506 38.6804 29.4729 38.7004 29.4183C38.7266 29.3488 38.6909 29.2716 38.6214 29.246C38.4732 29.1893 38.1885 29.1996 37.9841 29.2165C37.9221 29.1467 37.8577 29.0847 37.7895 29.03C37.7438 28.9929 37.6987 28.9608 37.6546 28.9336C37.969 28.9154 38.4006 28.9082 38.7522 28.9695C38.7604 28.9713 38.7681 28.9716 38.7758 28.9716C38.8404 28.9716 38.8971 28.9259 38.9081 28.86C38.9217 28.7874 38.8722 28.7174 38.7986 28.7046C38.2814 28.6138 37.6297 28.6595 37.3412 28.6877C37.3335 28.5459 37.3271 28.4151 37.3214 28.2925C37.5248 28.2761 37.8367 28.264 38.1098 28.3163C38.1183 28.3176 38.1267 28.3192 38.1354 28.3192C38.1988 28.3192 38.2552 28.274 38.2678 28.2099C38.2819 28.136 38.2334 28.066 38.1611 28.0522C37.8613 27.9945 37.5307 28.0055 37.3109 28.0235C37.3055 27.8629 37.3014 27.7247 37.2989 27.6083C37.3815 27.6285 37.4645 27.6462 37.5471 27.668C37.6877 27.7042 37.8336 27.6462 37.9126 27.5262C37.9913 27.4054 37.9846 27.2487 37.8967 27.1351C37.8828 27.1177 37.3086 26.3747 36.5446 25.1912C36.6393 25.1912 36.7357 25.1922 36.8067 25.1963C36.8093 25.1963 36.8121 25.1963 36.8144 25.1963C36.8855 25.1963 36.9447 25.1409 36.9486 25.0696C36.9527 24.996 36.8965 24.9319 36.8221 24.9278C36.6977 24.9203 36.5085 24.9214 36.3736 24.9232C36.3195 24.8385 36.2654 24.7519 36.21 24.6631C36.3692 24.639 36.5703 24.6249 36.7524 24.6572C36.8237 24.6693 36.8952 24.6213 36.9083 24.5482C36.9216 24.4754 36.8726 24.4054 36.7993 24.3923C36.5352 24.3451 36.2474 24.3797 36.0569 24.4164C35.984 24.2964 35.9099 24.1733 35.8353 24.0481C35.9202 24.0471 36.0233 24.0481 36.1315 24.0556C36.2061 24.0597 36.2702 24.004 36.2749 23.9299C36.2802 23.8558 36.2236 23.7914 36.1494 23.7866C35.9512 23.7735 35.7719 23.7781 35.6791 23.783C35.6076 23.6601 35.5352 23.5345 35.4634 23.4065C35.745 23.3621 36.0746 23.3224 36.1933 23.3401C36.2684 23.3516 36.3356 23.3013 36.3469 23.2277C36.3582 23.1541 36.3077 23.0851 36.2341 23.0741C36.042 23.0449 35.5745 23.1144 35.3234 23.1562C35.2439 23.0128 35.1644 22.8674 35.0844 22.7192C36.3331 22.5597 37.7148 22.5838 38.6609 22.6317C38.7304 23.2734 38.8176 24.002 38.9156 24.7775C38.8056 24.8196 38.6907 24.8878 38.5863 24.9942C38.1765 25.4102 38.0523 26.2452 38.2175 27.4749C38.2396 27.6406 38.3798 27.7647 38.547 27.7665C38.5519 27.7665 38.9322 27.7775 39.3382 27.9499ZM37.3432 23.9348C37.3509 23.8614 37.2976 23.795 37.224 23.7871C36.8701 23.7491 36.6023 23.786 36.5908 23.7878C36.5175 23.7978 36.4664 23.8663 36.4769 23.9399C36.4872 24.0127 36.5518 24.0651 36.6288 24.0543C36.6311 24.0535 36.8768 24.0199 37.1945 24.0545C37.1999 24.0556 37.2048 24.0556 37.2096 24.0556C37.2776 24.0553 37.3361 24.004 37.3432 23.9348Z" fill="#E7D0B0"/>
<path d="M37.5987 48.9385C37.6631 48.8854 37.8655 48.7852 37.9791 48.9385C38.004 49.0626 38.107 49.0767 38.1606 49.0767C38.2702 49.0767 38.352 49.0201 38.3912 48.878C38.4974 48.7392 38.7641 48.8739 38.7641 48.8739C38.7928 49.2219 38.5222 49.4784 38.1604 49.4784C37.6449 49.4786 37.5421 49.0552 37.5987 48.9385ZM23.6417 50.2098C23.6417 50.914 22.5758 51.2838 22.0714 51.3364C22.075 51.628 22.0929 51.8944 22.0963 52.1965C21.9821 52.2747 21.8685 52.3032 21.7908 52.3032C21.7162 52.3032 21.6454 52.2817 21.5846 52.2106C21.5597 51.8842 21.5526 51.4146 21.5526 51.0309C21.5526 50.7073 21.5562 50.4665 21.5597 50.3203C21.4672 50.2462 21.4356 50.1464 21.4918 49.9938C21.8047 49.6027 22.3019 49.5781 22.6751 49.5781C23.0941 49.5776 23.6417 49.7946 23.6417 50.2098ZM23.0836 50.2493C23.0836 50.0964 22.8138 50.05 22.5935 50.05C22.4409 50.05 22.2063 50.1105 22.0996 50.1603C22.0855 50.3347 22.078 50.6365 22.0714 50.846C22.3483 50.8109 23.0836 50.6296 23.0836 50.2493ZM21.0581 50.8709C21.0581 51.8301 20.3085 52.2599 19.644 52.2599C18.9762 52.2599 18.4615 51.7416 18.4615 50.9386C18.4615 50.0677 19.1078 49.5671 19.7935 49.5671C20.536 49.5671 21.0581 50.0862 21.0581 50.8709ZM20.5114 50.8709C20.5114 50.3454 20.1739 50.0821 19.8082 50.0821C19.3963 50.0821 18.9944 50.3485 18.9944 50.9455C18.9944 51.4679 19.2786 51.7305 19.6692 51.7305C19.9787 51.7305 20.5114 51.5708 20.5114 50.8709ZM48.5058 49.5538C48.4517 49.4717 48.3527 49.425 48.2601 49.425C48.1396 49.425 48.0221 49.4855 47.9798 49.6104C47.9798 50.0433 47.9832 50.26 47.9903 50.4839C47.5536 50.5301 47.2405 50.555 47.0345 50.566C47.024 50.0577 47.0171 49.6027 46.9419 49.4681C46.7288 49.4035 46.4878 49.5066 46.4413 49.663C46.4303 49.9015 46.4693 50.5085 46.4693 50.6793C46.3736 50.7855 46.3665 51.0099 46.4693 51.1097L46.4908 52.0157C46.5298 52.1045 46.6368 52.1434 46.7429 52.1434C46.8819 52.1434 47.024 52.0724 47.024 51.9337C47.024 51.7418 46.9986 51.1769 47.0138 51.0917C47.1233 51.0627 47.7029 51.003 48.0078 50.9709C48.0078 51.2653 48.0044 51.6526 48.0014 51.9373C48.0542 52.0545 48.1755 52.1045 48.2817 52.1045C48.4166 52.1045 48.5371 52.0334 48.5586 51.9121C48.5517 51.6741 48.5517 51.3651 48.5517 51.0561C48.5517 50.5124 48.5484 49.9292 48.5058 49.5538ZM48.9823 49.6274C48.9336 49.7556 48.972 49.9223 49.0613 50.0646C49.3167 50.0577 49.5155 50.0179 49.7568 49.9831C49.7432 50.5085 49.7535 51.7977 49.8032 52.0614C49.9671 52.1686 50.1553 52.115 50.3079 51.9726L50.2872 49.9195C50.6064 49.8833 50.809 49.8659 50.9616 49.8092C51.0511 49.6699 51.0542 49.4786 50.9514 49.3755C50.5887 49.3753 49.2777 49.503 48.9823 49.6274ZM51.9823 51.2087C51.9857 51.5003 52.0036 51.7667 52.0069 52.0683C51.8931 52.147 51.7795 52.175 51.702 52.175C51.6271 52.175 51.5561 52.154 51.4953 52.0829C51.4704 51.7565 51.4635 51.2869 51.4635 50.9027C51.4635 50.5796 51.4669 50.3383 51.4704 50.1923C51.3781 50.1182 51.3461 50.0179 51.4033 49.8659C51.7156 49.4748 52.2129 49.4501 52.5863 49.4501C53.0048 49.4501 53.5526 49.6671 53.5526 50.0823C53.5529 50.7853 52.4868 51.1551 51.9823 51.2087ZM52.9948 50.1215C52.9948 49.9687 52.7248 49.9223 52.5045 49.9223C52.3519 49.9223 52.1172 49.9828 52.0111 50.0326C51.9967 50.2069 51.989 50.5083 51.9826 50.7183C52.2596 50.6827 52.9948 50.5019 52.9948 50.1215ZM18.0963 51.0948C18.0963 51.9013 17.1546 52.2463 16.3624 52.2599C16.238 52.2599 16.1665 52.1537 16.1067 51.9975C16.0819 51.7416 16.0677 51.5036 16.0531 51.1694C15.9857 51.1374 15.9611 51.0553 15.9611 50.9735C15.9611 50.8958 15.9823 50.8178 16.0357 50.7717C16.0285 50.5226 16.0285 50.437 16.0285 50.2772C15.9362 50.1921 15.8898 50.0785 15.8898 49.9477C16.1988 49.6912 16.5653 49.5671 17.1084 49.5671C17.5562 49.5671 17.9542 49.6843 17.9542 49.9759C17.9542 50.2559 17.7981 50.4516 17.5634 50.6119C17.8719 50.6686 18.0963 50.7747 18.0963 51.0948ZM16.5794 50.5975C17.0833 50.5019 17.3967 50.3416 17.3967 50.1036C17.3967 50.0574 17.2613 50.0326 17.1228 50.0326C16.931 50.0326 16.7002 50.0787 16.5725 50.1282C16.5612 50.2034 16.5753 50.4803 16.5794 50.5975ZM17.5598 51.1551C17.5598 51.0635 17.4744 50.9884 17.2682 50.9884C17.0661 50.9884 16.7279 51.0635 16.5968 51.1407C16.5968 51.372 16.6143 51.5926 16.6325 51.7308C16.9982 51.6844 17.5598 51.4926 17.5598 51.1551ZM13.5227 49.7556C13.4732 49.8833 13.5122 50.05 13.6009 50.1923C13.8566 50.1854 14.0556 50.1462 14.2972 50.1108C14.2831 50.6368 14.2936 51.9265 14.3436 52.1893C14.5072 52.296 14.6952 52.2424 14.8483 52.1001L14.8268 50.0469C15.1468 50.0108 15.3492 49.9933 15.502 49.9366C15.5907 49.7979 15.5946 49.6061 15.4917 49.503C15.1283 49.503 13.8176 49.6317 13.5227 49.7556ZM36.4142 49.6522C36.3398 49.5602 36.158 49.5066 36.0662 49.4814C35.7889 49.532 35.1034 50.7927 34.7903 51.2835C34.787 50.9355 34.8118 49.8441 34.769 49.4637C34.5949 49.4391 34.3571 49.4607 34.2397 49.5989C34.2397 50.2595 34.2223 51.6805 34.2612 52.0857C34.4138 52.2276 34.4815 52.214 34.67 52.2524C34.8552 52.1709 35.5404 51.0627 35.8743 50.5119C35.8531 50.945 35.8315 51.2335 35.8315 51.4746C35.8315 51.8121 35.8705 52.0998 35.9921 52.1819C36.1157 52.246 36.3857 52.1709 36.4319 52.008C36.418 51.8867 36.4144 51.727 36.4144 51.5351C36.4106 51.2507 36.4606 49.8266 36.4142 49.6522ZM43.4631 51.4605C43.3736 51.4505 43.2708 51.4605 43.1679 51.4605C43.1679 50.0646 43.1646 49.6168 43.1326 49.4535C43.0646 49.3714 42.9689 49.3573 42.8805 49.3573C42.7694 49.3573 42.6561 49.3794 42.5963 49.4961L42.6068 51.5177C42.3296 51.5782 41.9921 51.6028 41.7292 51.6103C41.6933 51.2476 41.7292 49.731 41.7254 49.503C41.6438 49.4358 41.5584 49.4109 41.4843 49.4109C41.3238 49.4109 41.1466 49.5107 41.1394 49.6384C41.1427 50.9848 41.1463 51.5708 41.1817 51.916C41.235 52.0722 41.3094 52.1109 41.4235 52.1645C41.8033 52.1499 42.585 52.0583 43.0256 52.0088C43.0256 52.175 43.0256 52.4025 43.111 52.5343C43.2569 52.5343 43.4488 52.5127 43.5588 52.3881L43.5867 51.6457C43.5511 51.5503 43.5301 51.5246 43.4631 51.4605ZM39.2116 49.6522C39.1367 49.5602 38.9562 49.5066 38.8636 49.4814C38.5866 49.532 37.9009 50.7927 37.5877 51.2835C37.5844 50.9355 37.6093 49.8441 37.5669 49.4637C37.3926 49.4391 37.1548 49.4607 37.0374 49.5989C37.0374 50.2595 37.0197 51.6805 37.0587 52.0857C37.212 52.2276 37.2784 52.214 37.4674 52.2524C37.6518 52.1709 38.3379 51.0627 38.6712 50.5119C38.6505 50.945 38.6289 51.2335 38.6289 51.4746C38.6289 51.8121 38.6679 52.0998 38.7887 52.1819C38.9131 52.246 39.1831 52.1709 39.2293 52.008C39.2149 51.8867 39.2119 51.727 39.2119 51.5351C39.2083 51.2507 39.2578 49.8266 39.2116 49.6522ZM45.7192 51.432C45.3288 51.5423 44.8593 51.6069 44.5328 51.6244C44.5328 51.3684 44.5392 51.1697 44.5502 51.0163C44.6421 51.0099 44.7172 51.0099 44.8593 50.9989C45.1083 50.9848 45.4101 50.9637 45.6376 50.9358C45.7404 50.8886 45.7974 50.764 45.7974 50.6514C45.7974 50.5693 45.762 50.4737 45.6661 50.4134C45.3101 50.456 44.8128 50.4939 44.5749 50.5055C44.5679 50.3662 44.5715 50.2005 44.5749 50.0613C44.9088 50.0182 45.4171 50.0182 45.7469 49.9546C45.8466 49.9195 45.9033 49.8058 45.9033 49.6951C45.9033 49.632 45.8825 49.5538 45.8323 49.4817C45.6622 49.4427 44.6069 49.5207 44.2125 49.5422C44.0743 49.6104 44.0066 49.6453 43.8965 49.7381C43.8965 49.8764 43.9388 49.9936 44.0314 50.0718C44.0314 50.1644 44.0281 50.2957 44.0137 50.6157C43.9673 50.6647 43.9355 50.7504 43.9355 50.8286C43.9355 50.9027 43.9571 50.9737 44.0099 51.0245L43.9819 51.9121C44.0881 52.0614 44.1414 52.1081 44.2869 52.1645C44.8026 52.147 45.4386 52.115 45.9002 51.8985C45.932 51.8193 45.9433 51.7562 45.9433 51.7131C45.9436 51.5672 45.8684 51.4431 45.7192 51.432ZM28.3897 51.5608C27.9994 51.6711 27.5298 51.7347 27.2031 51.7521C27.2031 51.4967 27.21 51.2979 27.2208 51.1445C27.3133 51.1376 27.3877 51.1376 27.5298 51.1271C27.7788 51.113 28.0807 51.0915 28.3081 51.0635C28.411 51.0168 28.4676 50.8927 28.4676 50.7791C28.4676 50.697 28.4325 50.6014 28.3361 50.5411C27.9811 50.5837 27.4834 50.6227 27.2454 50.6332C27.2387 50.4949 27.242 50.3282 27.2454 50.189C27.5793 50.1464 28.0876 50.1464 28.4176 50.0823C28.5171 50.0472 28.5741 49.9336 28.5741 49.8233C28.5741 49.7587 28.5528 49.6815 28.5035 49.6104C28.3327 49.5714 27.2774 49.6494 26.883 49.6699C26.7448 49.7381 26.6771 49.773 26.567 49.8659C26.567 50.0041 26.6101 50.1213 26.7022 50.2005C26.7022 50.2921 26.6981 50.4239 26.6848 50.7435C26.6383 50.7929 26.6063 50.8781 26.6063 50.9563C26.6063 51.0309 26.6276 51.1015 26.6807 51.1522L26.6524 52.0398C26.7594 52.1896 26.8125 52.2358 26.9579 52.2922C27.4731 52.2747 28.1089 52.2427 28.5707 52.0262C28.603 51.948 28.6133 51.8839 28.6133 51.8419C28.6136 51.6954 28.5389 51.5708 28.3897 51.5608ZM33.7311 49.8407C33.6419 49.6699 33.4539 49.5848 33.3188 49.6238L32.3281 50.5162C32.3245 50.3198 32.3883 49.8371 32.296 49.6238C32.207 49.5917 32.1291 49.5776 32.0685 49.5776C31.9475 49.5776 31.8411 49.6166 31.8018 49.7338C31.7844 49.9366 31.7772 50.2246 31.7772 50.5406C31.7772 51.1266 31.8054 51.8413 31.8411 52.196C32.0437 52.3132 32.2499 52.207 32.3809 52.0888C32.3809 51.8724 32.3342 51.3895 32.3342 51.1797C32.3881 51.1302 32.4412 51.0835 32.4912 51.0484L33.4713 52.2812C33.585 52.246 33.8553 52.167 33.8553 51.9437C33.6101 51.5421 33.1018 50.9453 32.8748 50.707C33.0703 50.5298 33.5532 50.1708 33.7311 49.8407ZM25.8205 49.4786C25.6892 49.4786 25.4969 49.5779 25.4689 49.6879C25.5076 50.0674 25.5287 50.4734 25.5287 50.8178C25.394 50.9386 25.1735 51.0097 24.9642 51.0097C24.7472 51.0097 24.47 50.8925 24.47 50.555C24.47 50.289 24.5272 50.0179 24.7185 49.734C24.6554 49.6104 24.4774 49.5107 24.3497 49.5107C24.2892 49.5107 24.2253 49.5248 24.1684 49.5743C23.9909 49.9043 23.9235 50.2003 23.9235 50.487C23.9235 51.2228 24.4349 51.5395 24.9078 51.5395C25.1383 51.5395 25.3661 51.4685 25.5471 51.3828V52.1896C25.6179 52.2391 25.7028 52.2712 25.7779 52.2712C25.8808 52.2712 25.9946 52.225 26.0549 52.1355C26.0762 51.3046 26.0762 50.4952 26.0262 49.5994C25.9839 49.5135 25.9015 49.4786 25.8205 49.4786ZM30.9568 51.2225C30.6193 51.6346 30.4308 51.7449 30.1182 51.7449C29.8302 51.7449 29.5037 51.4895 29.5037 51.0702C29.5037 50.3308 29.9197 50.0859 30.2887 50.0859C30.5872 50.0859 30.7365 50.2177 30.8609 50.3659C31.0419 50.338 31.2127 50.2098 31.2194 50.0538C31.1448 49.7979 30.7362 49.5991 30.3244 49.5991C29.543 49.5991 28.9562 50.1321 28.9562 51.0381C28.9562 51.6313 29.4111 52.2527 30.0969 52.2527C30.5272 52.2527 31.0168 52.0147 31.2904 51.6026C31.3089 51.401 31.1348 51.2371 30.9568 51.2225Z" fill="#231F20"/>
<path d="M16.6047 21.5673L17.2356 22.5587L15.3361 25.4549L14.748 24.893L15.0752 24.278L13.6547 22.9796L13.068 23.8895L12.4414 23.5135L14.5887 20.4853L15.7048 20.9633L15.4994 21.4757L14.8619 21.2708L14.0874 22.3761L14.6682 22.7859L15.2286 21.9055L15.7956 22.4215L15.1688 23.196L15.6977 23.671L16.4678 22.4784L16.1149 21.966L16.6047 21.5673ZM20.0882 18.6744L19.0603 17.0877L19.574 16.7405L18.9767 16.0183L17.2356 17.4901L17.8655 18.0461L18.2825 17.6989L18.6777 18.1505L17.3315 19.3292L16.9815 19.0599L17.4893 18.6013L16.7827 17.9797L15.3381 19.6156L15.8936 20.0739L16.3103 19.6156L17.8109 20.6992L17.2359 21.3103L17.9024 21.7504L19.4093 20.1855L18.7964 19.6992L18.3733 20.1311L17.9293 19.7898L19.1206 18.6588L19.533 19.1299L19.1165 19.4353L19.6748 19.9418L20.9935 18.8458L20.5467 18.2549L20.0882 18.6744ZM56.8634 35.7295L56.389 35.7244L56.3197 33.6768L56.8065 33.6207L56.7909 34.3995L57.7274 34.3034L57.2302 30.5827L56.5164 30.6791L56.7275 32.4071L54.9995 32.7403L54.9128 32.1471L54.0386 32.3899L54.2566 34.3082L55.1216 34.2898L55.0798 33.8148L55.6227 33.7181L55.7866 35.7162L55.1913 35.6816L55.177 34.8886L54.2494 34.8465L54.203 36.793L55.177 36.9223L55.2062 36.4414L56.7837 36.7148L56.6788 38.0256L57.6148 38.0787L57.7092 34.9581L56.8734 35.0432L56.8634 35.7295ZM12.6917 39.6546L12.7669 40.1534L11.7685 40.258L12.7884 38.8185L11.383 37.8332L12.3648 37.6209L12.4691 38.1528L13.2136 38.0015L12.8446 35.9773H12.2378V36.7623L10.3685 37.2098L10.2423 35.7521L9.38551 35.5472L9.57196 38.2305L10.3813 38.3246L10.3585 37.9584L11.6805 39.0914L10.7845 40.3391L10.5598 39.8697L9.85585 40.2685L10.8478 42.851L11.6264 42.4743L11.2499 41.42L12.8936 41.0148L13.11 41.9139L13.934 41.7296L13.3978 39.5025L12.6917 39.6546ZM10.0346 34.1323L9.32422 33.969L9.44424 31.6529L12.6192 30.6486L12.6538 30.0134L13.5501 29.9316L13.1139 31.9609L12.5499 31.9878L12.6074 31.5257L12.2891 31.636L11.997 33.5648L12.3999 33.9274L12.4227 33.4424L13.0113 33.6038L12.8443 35.3936L12.1106 35.2092L12.2032 34.5506L10.2344 33.0739L10.0346 34.1323ZM10.5296 32.243L11.4654 33.086C11.5256 32.7339 11.6264 32.212 11.6995 31.8393L10.5296 32.243ZM14.2233 26.0129L11.7462 24.6309L10.5662 27.5509C10.5662 27.5509 12.4189 27.5827 13.0839 28.0792C13.4347 28.341 13.3952 28.6672 13.2221 28.7539C12.9482 28.8906 12.6022 28.4495 12.6022 28.4495L12.0606 28.9024C12.0606 28.9024 12.6846 29.7787 13.5501 29.4371C14.4156 29.0955 14.2879 27.8656 13.5501 27.3875C12.8123 26.9092 11.7221 26.8559 11.7221 26.8559L12.1578 25.8003L13.8827 26.7725L13.8032 27.2388L14.3148 27.6322L15.1086 25.8867L14.4462 25.5216L14.2233 26.0129ZM24.32 16.771C23.7722 17.4016 21.5738 18.4731 21.5738 18.4731L21.1143 17.8051L21.6651 17.4324L20.7298 15.8244L20.1402 16.233L19.7417 15.5872L21.6654 14.4014L22.0875 14.981L21.4023 15.3372L21.771 16.1012C21.9954 15.6793 22.5617 14.8761 23.5373 14.8761C24.5118 14.8756 24.9732 16.0183 24.32 16.771ZM23.1149 15.7716C22.5745 16.0183 22.0873 16.6146 22.0873 16.6146L22.3768 17.168C22.3768 17.168 23.5008 16.4928 23.6814 16.2063C23.9055 15.8506 23.5588 15.5693 23.1149 15.7716ZM35.325 14.0154L35.3445 14.8766L33.2505 14.794L33.2223 14.0662L33.7042 14.0646L33.5185 13.7674L31.6043 13.681L31.4617 14.0357L32.0831 14.0782L32.0036 14.775L30.1261 14.8866L30.0325 14.0472L30.7044 14.0311L31.861 11.7648L30.9214 11.7445L30.8067 11.0975L33.1177 11L34.7313 14.0616L35.325 14.0154ZM33.1864 13.2332L32.4596 11.9989L31.8533 13.1591L33.1864 13.2332ZM44.0047 15.4457C44.8038 14.6399 46.1115 16.2873 46.1115 16.2873L45.7686 16.5015L46.2544 17.0729L47.9734 16.0599L47.4264 15.3308L46.8663 15.7878C46.8663 15.7878 46.509 15.0028 45.3847 14.4239C43.7706 13.5925 41.6233 15.1197 43.3867 17.2385C44.5515 18.638 46.3782 18.9906 46.3782 18.9906L46.6211 18.1097C44.9503 17.9276 43.2048 16.2512 44.0047 15.4457ZM50.2451 19.6177L50.9113 20.1934L50.6995 20.9956L51.6558 21.3482L51.989 19.9472L48.6553 16.8787L47.2394 17.3988L47.4394 18.2295L48.4766 17.8179L49.2903 18.7916L48.3501 19.8316L47.8821 19.4005L47.3228 20.0039L49.2936 21.8165L49.824 21.3567L49.2757 20.7479L50.2451 19.6177ZM53.1046 28.3056L52.1054 25.9627L52.8676 25.6146L53.3592 26.8005L55.7581 27.6163L55.4981 26.6135L56.3892 26.3345L56.8742 28.9891L54.7464 31.0397L54.841 31.5949L53.9265 31.904L53.4877 29.7049L53.965 29.482L54.1114 30.0613L54.5725 29.7141L54.1768 27.7522L53.4644 27.5534L53.617 28.2195L53.1046 28.3056ZM54.7064 27.8848L55.0069 29.3143L55.9656 28.3479L54.7064 27.8848ZM40.8593 12.1648L40.6434 12.7824L40.2636 12.6503L39.5132 14.8248L39.9297 14.9784L39.7373 15.6947L38.0073 15.1166L38.2006 14.4434L38.672 14.5878L38.8697 13.9682C38.811 13.9587 38.6948 13.9515 38.6402 13.9408L38.6458 13.9462C37.5623 13.8751 37.1102 14.9761 37.1102 14.9761L35.8174 14.8107L35.9069 14.0205L36.8045 14.1216C37.0317 13.8131 37.3287 13.6125 37.5644 13.4894C36.7917 12.878 37.0238 11.9261 37.8465 11.5575C38.9638 11.0567 40.8593 12.1648 40.8593 12.1648ZM38.0185 12.3669C37.8352 12.9057 38.395 13.314 39.0621 13.314L39.476 12.3161C39.4762 12.3164 38.1983 11.8368 38.0185 12.3669ZM28.7489 14.3137C27.9791 13.6025 27.401 13.5515 27.1517 13.5733L27.7785 12.8078L28.6992 12.5298L28.4656 11.6206L27.2659 12.0951L25.9182 13.959L25.6651 13.4127L26.1593 13.2283L25.8561 12.6618L24.0243 13.3732L24.2181 14.011L24.8149 13.7815L25.4999 15.3892L24.9465 15.6003L25.2199 16.3002L27.1941 15.598L26.9232 14.7832L26.4093 15.0202L26.2493 14.6742L26.6347 14.2039C27.8088 14.2126 28.2989 15.2764 28.2989 15.2764L29.7009 14.9615L29.4924 14.098L28.7489 14.3137ZM56.7213 39.1958L57.5446 39.0855L56.9704 41.5959L53.9106 42.3181L53.5918 43.1983L52.7991 42.9513L53.5056 40.7468L54.2768 40.8545L54.2104 41.1761L54.5723 41.0946L55.119 39.5097L54.6887 39.1419L54.5004 39.7646L53.8062 39.6169L54.1211 37.3593L55.0744 37.5396L54.95 38.1728L56.6208 40.0736L56.7213 39.1958ZM56.1738 40.6483L55.5468 39.951L55.1718 40.9412L56.1738 40.6483ZM52.25 24.8861L51.7266 25.2902L50.1238 22.9514L50.6882 22.5354L51.0055 22.9516L52.645 21.8345L52.3211 21.389L52.9235 20.9959C52.9235 20.9959 54.8367 23.0924 55.0988 24.1536C55.3293 25.0887 54.4604 26.0227 53.5654 25.6341C52.6711 25.2456 52.0733 24.0351 52.0256 23.5822L51.6528 23.9046L52.25 24.8861ZM52.6747 23.1357C52.6747 23.1357 53.003 24.389 53.5264 24.6906C53.9452 24.9312 54.325 24.6363 54.2686 24.2375C54.1747 23.5725 53.3 22.6885 53.3 22.6885L52.6747 23.1357Z" fill="#231F20"/>
</svg>
