<svg width="133" height="203" viewBox="0 0 133 203" fill="none" xmlns="http://www.w3.org/2000/svg">
<g clip-path="url(#clip0)">
<path fill-rule="evenodd" clip-rule="evenodd" d="M54.1599 1.18503C55.0609 1.03803 55.4989 0.264027 56.2249 0.103027C59.0189 -0.524973 61.3869 1.87003 62.4169 3.34703C62.5419 4.58803 62.1929 5.35003 62.2189 6.49403C62.0069 7.15803 61.3619 7.35203 60.8449 7.86903C60.3869 8.32503 60.2239 9.02603 59.6639 9.24503C58.6529 9.64203 56.8469 9.40003 55.9299 8.94903C53.4569 7.73303 52.8619 4.24603 54.1599 1.18503ZM27.2269 3.54303C25.8869 4.72303 25.1149 7.28803 26.2429 9.54003C26.4399 9.93303 27.4409 11.399 27.7199 11.602C28.3939 12.101 30.0159 12.376 30.8649 12.293C31.3549 12.242 32.7129 11.778 33.2239 11.405C33.5299 11.185 33.7069 10.673 34.0109 10.325C34.9229 9.27903 34.7489 9.17503 34.8949 7.57203C34.9959 6.44903 35.4299 5.50503 35.3879 4.33003C33.6099 2.39603 29.3589 1.66803 27.2269 3.54303ZM56.5169 13.866C55.0999 16.132 54.1119 17.875 52.5879 20.155C52.1269 20.841 50.9649 23.098 50.2289 23.104C49.9559 23.106 49.2539 22.474 48.7539 22.024C47.6189 20.997 47.0979 20.463 46.0989 19.564C43.9839 17.661 41.6349 15.764 39.3149 14.062C38.4469 13.422 37.4699 12.022 36.6619 11.702C36.0809 11.473 33.9259 11.231 33.7129 11.506C32.9049 12.806 33.4519 15.549 33.6149 17.503C33.8349 20.113 33.8879 22.265 34.0099 24.383C34.1399 26.686 33.9469 29.043 34.2059 30.969C34.3449 32 35.0209 32.962 34.5979 33.918C30.7929 33.376 27.1229 33.147 23.4929 33.032C22.4219 31.261 22.4829 28.579 20.2499 28.117C18.6729 27.793 16.4389 28.363 15.3359 29.297C14.3369 30.139 13.8509 31.734 14.0579 33.621C15.4609 35.692 18.4479 37.238 21.6239 35.883C22.0659 36.132 22.3219 36.56 22.2119 37.358C23.2889 38.443 24.3119 39.585 25.1619 40.896C24.4549 41.563 23.7349 42.219 23.0969 42.96C22.9179 43.686 22.3999 44.576 22.1179 45.516C21.9169 46.168 21.8869 46.844 21.4259 47.087C20.9519 47.34 20.2429 47.136 19.7579 47.185C14.2259 47.743 9.60094 50.811 9.04394 56.622C8.97694 57.327 9.39394 57.877 9.04394 58.688C8.70794 59.467 7.22894 60.053 6.68594 60.651C6.29794 61.079 5.68194 61.959 5.20894 62.719C4.17794 64.392 3.58594 65.984 3.34194 68.321C3.26094 69.075 3.00594 69.904 3.04894 70.679C3.22894 74.198 5.30294 76.252 7.27394 78.838C5.98594 79.985 5.96694 82.791 6.29194 84.54C6.47394 85.51 6.32394 86.543 6.48794 87.291C6.88294 89.076 9.76694 91.079 12.3869 91.519C14.3319 91.845 16.5079 91.545 17.8919 91.421C18.1659 91.961 17.8399 92.652 17.7909 93.191C18.1309 94.591 19.4289 95.023 19.3639 96.827C20.5469 97.398 21.7099 98.909 23.5919 99.382C27.3859 100.34 31.5449 99.349 32.9299 97.024C33.2799 96.437 33.1729 95.569 33.9129 95.059C36.1949 96.759 38.2409 98.992 40.5969 100.463C41.3779 100.954 42.4879 101.197 42.9579 102.136C41.0439 103.172 39.9439 105.02 37.9439 105.966C37.7749 106.583 37.7909 108.083 37.0579 108.427C36.3049 108.781 34.9889 108.305 33.9119 108.328C27.9859 108.458 20.0809 109.787 13.9569 109.801C13.5339 108.88 12.4799 107.998 11.5989 106.756C10.7379 105.544 10.1279 103.813 9.23994 103.117C8.27494 102.367 6.76194 102.546 6.19094 103.411C6.67794 105.355 7.99294 106.461 8.75094 108.132C9.13894 108.639 10.2059 108.951 10.0249 109.705C8.68594 109.569 7.24794 108.923 5.70094 108.328C4.19094 107.745 2.76394 106.684 1.27694 106.853C0.705943 106.918 0.00794257 107.368 0.00094257 107.835C-0.0100574 108.441 1.01194 108.807 1.57394 109.113C2.35794 109.543 2.87894 110.053 3.34194 110.293C4.87194 111.076 6.53294 110.994 7.56994 111.964C7.21894 112.805 5.81694 112.989 4.91694 113.535C3.53194 114.377 0.567943 116.094 1.47394 117.961C4.38494 118.185 6.03294 115.702 8.25794 115.404C8.05194 116.478 7.31594 117.018 6.68594 117.666C6.01294 119.09 4.98194 120.158 4.22694 121.499C4.59794 122.051 5.02994 122.865 5.70194 122.875C6.38294 122.887 8.36394 120.613 8.65094 120.221C9.51094 119.045 10.0769 117.295 10.8129 115.895C11.5949 114.413 13.2419 112.042 14.4519 111.768C15.6249 111.5 17.4169 111.976 18.8729 111.866C19.5269 111.815 20.1249 111.584 20.6429 111.572C21.4969 111.551 22.3929 111.702 23.2959 111.668C24.2009 111.637 25.1219 111.497 26.0489 111.472C28.4349 111.409 31.4499 111.668 34.0119 111.376C35.0679 111.252 35.4869 110.313 36.6649 110.49C36.5919 110.869 36.4089 111.263 36.3729 111.668C36.1779 113.742 37.2919 116.742 38.2379 118.551C39.4989 120.952 42.7929 122.676 46.1999 122.482C47.2609 122.423 48.4459 121.634 49.6409 122.186C47.5599 123.253 45.4179 124.061 43.3489 125.039C41.3859 125.964 39.5649 127.339 37.9449 128.774C35.5219 130.916 33.0659 133.175 30.8659 135.46C28.7729 137.632 27.3059 139.785 25.8549 142.635C24.9819 144.343 23.7519 145.781 22.9059 147.352C22.4809 148.139 22.3679 149.07 22.0199 149.907C21.5759 150.974 20.8029 151.92 20.3469 152.956C19.8889 154.003 19.6749 155.244 19.2689 156.394C18.8729 157.509 18.3819 158.693 18.0879 159.836C17.6509 161.532 17.8419 163.357 17.4959 165.144C17.4069 165.623 16.9299 166.114 16.8099 166.621C16.0329 169.862 16.8119 173.8 16.3199 177.233C16.2299 177.84 15.8539 178.307 15.7269 178.907C15.4769 180.106 15.6579 181.169 15.8269 182.053C15.9319 182.607 15.8369 183.215 16.0229 183.625C16.5109 184.686 18.3369 185.534 19.7589 185.492C21.1109 185.453 23.0869 184.711 24.0819 184.015C24.7369 183.564 24.9489 182.707 25.6569 182.739C26.6969 184.261 28.9049 186.257 31.1609 186.278C33.6839 186.303 34.9529 184.375 36.5669 183.132C37.5569 184.255 38.8399 185.743 40.6959 186.179C42.8839 186.692 44.6319 186.087 46.2979 185.196C46.6609 185.82 47.4419 186.822 47.2819 187.653C47.1839 188.151 45.6799 189.106 45.1169 189.52C44.2469 190.165 43.4539 190.686 42.7609 191.192C39.4659 193.598 36.9189 196.139 34.1109 198.665C32.6239 200.001 30.6149 200.743 29.7849 202.497C31.4409 202.671 33.0129 201.841 34.5999 201.415C36.2049 200.987 37.8329 200.44 39.4159 199.942C42.6179 198.94 45.6019 197.483 48.4609 196.303C48.9729 197.145 49.7429 198.729 51.0159 197.385C51.1199 194.719 50.9959 191.623 51.1159 188.832C51.1429 188.182 50.8749 187.292 51.5099 186.867C56.0409 188.53 58.0649 184.526 60.2579 182.639C61.2749 184.392 62.6419 186.15 64.6809 186.964C66.4909 187.689 69.5199 186.336 70.6789 184.999C71.5759 183.96 71.6119 182.709 72.7389 181.855C73.7509 183.883 75.7669 186.168 78.3429 186.277C81.2569 186.398 83.9939 184.226 85.0309 181.855C85.2479 181.354 85.0539 180.645 85.7189 180.378C86.7599 180.975 87.1409 182.23 88.1729 182.836C87.9919 183.881 88.6489 185.022 88.8609 185.884C89.1739 187.114 89.2299 188.704 89.4539 190.112C89.6749 191.489 89.5579 193.262 91.1239 193.352C92.1989 192.332 91.8339 189.872 92.8949 188.831C96.2429 189.206 99.5359 190.237 102.527 190.895C103.606 191.133 104.476 191.61 105.478 191.877C106.335 192.109 107.707 192.424 108.427 191.682C107.392 190.256 105.698 189.496 104.59 188.143C103.278 187.768 102.917 187.172 101.841 186.374C101.238 185.929 100.576 185.548 100.07 185.096C98.7079 183.893 97.6609 181.668 95.6439 181.95C96.9279 180.611 97.4469 178.51 98.3009 176.741C99.5039 177.406 99.8189 178.748 100.955 179.296C102.981 180.279 105.474 179.353 106.655 178.314C107.959 177.168 108.316 175.308 109.408 174.187C110.626 175.092 111.792 175.928 113.83 175.561C114.584 175.426 116.571 174.296 117.174 173.892C118.531 172.971 118.967 171.322 119.827 170.156C120.781 170.768 121.614 171.64 122.776 171.827C126.546 172.431 128.27 168.777 130.246 167.306C130.41 164.768 129.994 162.435 129.658 160.129C129.731 159.68 130.654 160.082 130.638 159.538C130.819 159.064 130.457 158.37 130.048 158.164C129.943 157.308 129.379 156.734 129.165 156.1C128.359 153.714 128.083 151.26 127.295 149.022C126.972 148.097 126.397 147.132 126.022 146.172C125.057 143.724 124.227 140.81 122.972 138.898C122.391 138.014 121.428 137.229 120.71 136.343C118.929 134.14 117.309 132.1 115.208 130.346C114.293 129.588 113.056 129.136 112.647 127.986C110.974 127.776 110.408 126.706 109.306 125.923C107.822 124.866 105.861 123.806 103.704 122.877C101.767 122.041 99.5689 121.01 97.3159 120.615C96.8109 120.527 96.2739 120.636 95.7419 120.517C94.3849 120.212 92.8849 119.336 91.2209 118.944C90.3239 118.732 89.4199 118.668 88.5669 118.451C87.6809 118.231 86.8829 117.85 86.1059 117.668C84.8569 117.371 79.8349 117.295 82.2729 115.603C87.8019 117.775 92.6689 114.183 94.7569 110.884C96.3949 108.306 95.7589 104.556 95.9399 101.056C98.4489 99.858 100.959 98.04 103.802 97.025C105.129 96.55 106.456 96.24 107.735 95.649C108.959 95.082 110.132 94.32 111.471 94.176C111.432 96.992 110.252 100.039 109.798 103.118C109.484 105.256 109.456 107.342 108.817 109.215C108.553 109.977 107.865 110.623 108.224 111.473C108.811 111.56 109.339 110.965 109.798 110.592C110.242 110.229 110.886 109.761 111.074 109.312C111.302 108.776 111.121 107.996 111.369 107.446C111.53 107.091 111.97 106.824 112.156 106.463C112.382 106.024 112.562 105.161 112.745 104.398C112.916 103.703 113.254 102.894 113.336 102.335C113.392 101.962 113.27 101.588 113.336 101.252C113.427 100.798 113.808 100.419 113.926 99.976C114.085 99.379 114.071 98.586 114.22 97.911C114.762 95.486 115.222 92.93 114.713 90.245C114.109 87.078 113.705 83.966 112.942 81.299C112.528 81.152 111.794 81.254 111.471 81.495C111.271 81.986 111.911 82.347 111.96 82.871C111.995 83.226 111.744 83.694 111.764 84.051C111.819 85.003 112.345 85.973 112.453 86.998C112.601 88.436 112.018 89.784 111.96 91.226C105.694 92.985 100.61 95.931 94.5609 97.91C93.5289 96.569 91.8259 95.587 89.6479 95.061C88.7669 94.847 87.5549 94.584 86.7969 94.568C85.4079 94.54 83.9639 95.143 82.7679 94.568C86.5579 90.038 89.3889 84.544 90.3349 77.171C91.3879 75.447 90.1069 72.268 90.4339 70.683C91.3959 70.736 91.7219 71.857 92.6919 72.059C93.2569 72.177 93.9209 71.989 94.5609 71.959C96.5049 71.873 96.5089 71.588 97.7069 70.781C98.2569 70.409 98.9399 69.848 99.1839 69.406C99.4029 69.004 99.3529 68.491 99.5759 68.128C99.9549 67.507 100.581 67.346 100.954 66.85C101.749 64.47 102.821 61.709 101.737 59.18C101.572 58.797 101.093 58.257 100.758 57.805C100.423 57.353 100.084 56.798 99.7729 56.429C98.9049 55.394 97.5529 54.887 96.6269 54.169C98.0629 49.914 94.9899 46.619 92.2029 45.419C91.1819 44.979 89.9999 45.056 89.1599 44.438C89.4979 43.493 88.9599 42.488 89.0569 41.488C89.1089 41.013 89.4359 40.603 89.4529 40.112C89.4649 39.682 89.1789 39.185 89.2529 38.737C89.3849 37.998 90.5219 37.602 90.4359 36.671C90.3689 35.95 89.4649 35.903 89.3559 35.198C89.3029 34.87 89.6189 34.287 89.6499 34.018C89.9229 31.605 88.5329 28.827 86.7989 27.921C86.3539 27.691 85.6989 27.618 85.0309 27.432C83.8919 27.116 83.0119 26.735 81.8839 27.236C80.3309 24.656 77.8229 21.043 73.8229 21.436C72.6489 21.55 70.7659 22.724 69.8919 23.303C69.5309 23.543 69.0669 23.704 68.8119 23.892C67.3699 24.958 67.0639 26.845 65.6649 27.825C64.9849 26.963 65.0759 25.769 64.7819 24.777C64.4469 23.672 64.2669 22.619 63.9959 21.533C63.7139 20.416 63.0419 19.293 62.6179 18.093C62.1459 16.754 62.1979 15.216 61.7329 14.064C61.4869 13.447 60.7869 12.96 60.9469 12.197C60.2889 11.486 59.6229 11.185 58.1959 11.407C57.7669 12.417 57.0179 13.066 56.5169 13.866ZM122.276 81.787C121.695 82.265 121.059 82.702 120.803 83.063C119.59 84.787 119.915 87.644 117.461 87.684C116.762 87.696 116.357 87.156 115.594 87.391C115.321 89.343 116.118 92.108 115.989 94.271C117.77 95.814 120.521 96.18 122.575 97.417C123.27 97.833 123.792 98.461 124.638 98.595C124.85 97.924 124.931 97.118 125.522 96.826C124.916 96.192 123.918 96.541 123.164 96.137C122.725 95.903 122.74 95.397 122.377 95.057C121.22 93.977 118.82 94.289 118.149 92.699C119.61 92.383 121.891 92.733 123.262 92.895C125.104 93.113 127.294 92.891 128.96 93.091C130.103 93.227 131.651 94.142 132.207 92.795C130.897 91.46 128.735 91.91 127.094 91.124C126.757 90.961 126.54 90.584 126.211 90.435C124.993 89.893 123.505 90.189 122.474 89.355C123.552 88.707 124.954 88.24 126.309 87.684C127.562 87.169 129.52 87.146 129.847 85.62C128.335 85.208 126.58 85.683 124.935 86.013C123.317 86.339 121.747 87.113 120.312 87.095C121.302 85.306 123.462 84.605 124.638 82.966C125.005 82.454 125.266 81.727 125.425 81.001C125.85 80.575 126.627 80.5 126.505 79.526C124.817 79.091 123.35 80.908 122.276 81.787ZM57.4059 117.271C58.1159 117.903 58.1989 119.164 58.5819 120.122C57.8949 120.557 56.4589 120.741 55.5369 120.613C55.4319 120.038 56.0789 119.927 56.3249 119.533C56.7479 118.838 56.5649 117.833 57.2079 117.271C57.2709 117.271 57.3389 117.271 57.4059 117.271Z" fill="black"/>
<path fill-rule="evenodd" clip-rule="evenodd" d="M35.778 15.438C35.893 15.422 35.953 15.458 35.974 15.534C38.557 17.572 42.089 20.938 44.921 23.4C46.006 24.342 46.771 25.408 47.674 26.249C48.649 27.158 50.132 28.051 52.293 27.527C53.638 27.199 54.795 24.696 55.632 23.596C56.778 22.094 57.508 20.566 58.483 19.172C59.34 19.461 59.171 20.558 59.367 21.234C59.971 23.303 60.86 25.585 61.531 27.626C61.972 30.495 62.891 33.157 63.695 35.883C64.057 37.11 64.042 38.463 64.383 39.716C64.57 40.407 65.273 41.061 65.267 41.878C64.71 42.39 63.611 42.121 62.809 42.174C61.276 42.274 59.778 42.677 58.2879 42.862C51.4869 43.695 46.464 47.527 42.363 51.216C40.703 50.356 38.192 50.356 36.074 50.429C35.302 50.133 35.512 49.343 35.287 48.76C34.9 47.751 34.102 46.79 33.517 45.809C32.942 44.851 31.958 44.167 31.552 43.156C30.039 41.982 29.016 40.323 27.62 38.93C26.98 38.294 26.033 37.771 25.851 36.768C28.296 36.635 30.458 37.548 32.437 38.143C33.195 38.373 34.243 38.485 35.188 38.143C35.558 38.012 35.884 37.46 36.368 37.257C36.818 37.069 37.274 37.224 37.546 37.063C37.809 36.902 38.545 35.846 38.627 35.392C38.768 34.628 38.286 33.609 38.137 32.541C38.062 32.003 38.195 31.416 38.137 30.968C38.042 30.275 37.623 29.676 37.644 29.003C37.657 28.644 37.905 28.308 37.94 27.919C38.024 26.981 37.589 25.916 37.545 24.874C37.534 24.621 37.666 24.344 37.643 24.088C37.551 23.057 36.953 22.207 36.757 21.235C36.346 19.189 36.41 17.194 35.676 15.731C35.653 15.574 35.773 15.562 35.778 15.438Z" fill="#E98952"/>
<path fill-rule="evenodd" clip-rule="evenodd" d="M82.0779 47.776C81.7519 46.918 81.7629 45.123 82.1769 44.235C81.0499 41.427 77.7509 44.526 77.4579 46.499C76.2689 46.118 75.6299 44.993 74.6049 44.335C73.1929 43.43 71.4789 43.208 69.7859 42.467C69.5429 40.4 68.5809 38.516 68.3129 36.569C68.2039 35.764 68.3959 34.751 68.3129 33.818C68.2699 33.282 67.8619 32.485 67.9199 32.047C68.0109 31.371 68.8389 31.053 69.1009 30.574C69.3319 30.154 69.3029 29.513 69.5929 29.001C69.9879 28.304 71.3329 27.322 72.1479 26.739C73.1359 26.034 73.9639 25.584 75.7869 25.951C76.5879 26.114 78.0529 26.966 78.5359 27.624C78.9069 28.126 79.6399 29.951 79.5169 31.162C79.3999 32.391 77.4089 35.61 75.8829 35.586C74.8439 35.568 74.0149 34.382 73.8189 33.324C73.6309 32.307 74.0269 30.816 72.8379 30.767C72.1499 30.74 71.7639 31.682 71.3609 32.045C70.7149 32.63 69.8879 32.879 69.7859 33.618C69.6809 34.458 70.3359 34.979 70.7719 35.585C71.8759 37.125 73.3089 39.408 75.8829 39.418C77.2509 39.424 78.0149 38.253 79.0289 38.238C79.6079 38.228 79.9619 38.774 80.5039 38.827C81.0689 38.882 81.6229 38.318 82.1769 38.238C83.2669 38.077 84.9769 38.476 85.4159 39.124C85.5649 39.342 85.4719 39.707 85.6149 40.204C85.7239 40.583 85.9679 40.844 86.0079 41.089C86.3079 42.852 85.4679 46.004 84.1409 46.985C83.6979 47.319 82.8159 47.633 82.0779 47.776ZM87.4819 35.981C85.8909 35.211 84.0259 34.722 82.1759 34.211C82.1249 33.608 82.0789 32.415 82.4659 31.949C83.6599 31.947 84.6809 31.419 85.6139 31.556C87.3929 31.826 87.4149 34.216 87.4819 35.981ZM32.8289 55.147C34.2249 55.43 35.1039 54.201 36.1719 53.771C37.3629 53.296 39.3759 52.921 40.6939 53.479C42.0249 54.039 43.7789 56.762 43.3469 59.081C43.2949 59.358 42.6249 60.306 42.1709 60.948C41.0689 62.495 40.0629 64.426 37.8429 64.685C36.4809 64.842 34.7939 64.265 34.5979 63.307C34.5289 62.959 34.7889 61.489 34.8939 61.244C35.3959 60.077 37.7999 60.018 37.9429 58.689C38.2159 56.134 34.1429 57.642 32.9289 58.294C32.1119 58.733 31.6189 59.496 31.0609 59.869C30.9109 61.648 29.0059 62.649 29.5859 64.88C29.7239 65.408 30.4919 66.021 30.4709 66.551C30.4509 67.052 29.5059 67.873 29.2929 68.421C28.7109 69.9 28.6299 71.893 28.3079 73.729C28.2359 74.135 27.9679 74.528 27.9179 74.909C27.4659 78.102 27.9199 81.342 28.6039 83.951C28.8059 84.724 29.4999 85.233 29.2919 86.113C28.5139 86.492 28.1509 86.257 27.7189 86.508C26.9389 86.958 26.8069 88.02 27.2259 88.67C27.6919 89.389 28.8549 89.041 29.4879 89.458C29.9009 89.729 30.4259 91.05 30.4699 91.814C30.6559 95.065 27.6969 96.721 24.6709 95.256C23.3079 94.596 21.5289 93.383 21.3279 92.209C21.2379 91.683 21.5729 90.899 21.4239 90.438C21.2229 89.81 20.6969 90.073 20.2479 89.554C20.2479 88.847 20.9529 88.806 21.3279 88.276C21.6529 87.818 21.9039 86.933 22.2109 86.213C22.8059 84.837 23.1009 83.786 22.3109 82.576C21.6679 81.588 19.8059 79.676 17.9869 80.709C17.6319 80.911 17.4659 81.441 17.2009 81.889C16.9419 82.327 16.6059 82.606 16.6099 83.165C16.6149 84.072 17.4369 84.243 17.7879 85.033C18.0659 85.658 18.0079 86.225 18.1829 87.098C17.5249 88.011 16.1749 87.995 15.1359 87.884C11.3849 87.481 9.24289 84.169 9.53189 79.922C12.1539 80.126 14.2319 79.612 16.0199 78.447C17.5619 77.446 18.5219 73.536 17.6909 71.37C17.5529 71.011 17.0899 70.726 16.8069 70.192C16.6019 69.807 16.6109 69.23 16.4149 69.01C16.0689 68.627 12.6159 67.643 11.0069 68.029C10.0349 68.26 9.38889 69.582 9.73089 70.782C10.1999 72.441 14.5609 70.825 14.8409 72.944C14.9219 73.557 14.1019 74.922 13.6619 75.304C11.2389 77.415 8.58189 74.1 7.96089 72.651C8.09689 70.911 7.02589 69.898 7.66789 68.227C7.85589 67.599 8.61889 67.539 9.04289 67.145C9.49289 65.498 9.85889 63.77 10.6179 62.426C12.5349 62.954 12.4879 65.707 14.5469 65.866C15.0539 65.905 15.5509 65.505 16.1219 65.473C16.6699 65.441 17.2619 65.793 17.7899 65.767C18.6349 65.724 21.2579 64.483 21.9199 63.802C22.6739 63.02 23.5239 61.251 23.4919 60.36C23.4749 59.877 23.1019 58.397 22.8039 57.805C22.5409 57.281 22.0739 57.273 21.5259 56.723C21.2049 56.401 21.0629 55.744 20.6409 55.543C20.2179 55.346 17.6999 55.011 16.9069 55.15C16.3469 55.25 16.0079 55.517 15.7259 55.938C16.0039 57.002 17.0419 57.311 17.6929 58.001C17.6999 59.071 18.8009 61.147 17.7899 61.738C16.0359 62.759 15.3579 59.488 14.2539 58.887C14.0099 57.522 14.4469 57.096 14.7439 56.33C14.8659 56.014 14.8159 55.607 14.9399 55.346C15.2759 54.663 16.1659 54.08 16.7089 53.481C17.4569 52.66 17.9889 51.286 19.0689 50.924C20.7999 50.345 22.0879 51.529 23.6899 51.808C24.0099 51.865 25.2789 52.087 25.8549 51.908C26.5219 51.698 26.5929 50.463 27.3269 50.335C27.0189 49.587 26.9019 49.341 27.3269 48.662C26.1379 47.617 25.8799 45.188 27.4259 44.338C29.1729 45.046 30.9089 48.447 32.0459 50.431C32.4109 51.067 33.3979 52.053 33.4219 52.593C33.4569 53.4 32.2949 54.182 32.8289 55.147ZM89.3509 46.694C89.5099 47.25 88.6629 47.152 88.5639 46.892C88.4519 46.386 89.2349 46.419 89.3509 46.694ZM89.5469 52.395C89.1679 51.955 88.6379 51.668 88.1679 51.315C86.7199 51.633 85.6019 52.285 85.0259 53.479C84.3879 52.965 83.6189 52.065 83.4519 51.414C83.7169 50.807 84.3689 51.125 84.8279 50.923C85.1129 50.799 85.2979 50.44 85.6139 50.236C85.9119 50.04 86.2869 49.998 86.4989 49.839C87.1829 49.337 87.5519 48.457 87.9719 47.777C88.5499 47.6 88.9349 48.233 89.6449 48.466C90.4899 48.741 91.5439 48.704 92.1979 49.053C93.7949 49.911 94.5939 51.423 93.8709 53.871C93.6359 54.668 92.4769 56.231 91.9039 56.72C91.6719 56.921 90.9019 57.484 90.4309 57.508C89.3509 57.561 87.5909 56.114 87.6779 55.148C87.7799 54.056 89.9829 53.942 89.5469 52.395ZM91.8049 64.977C92.1349 64.716 92.7839 64.775 93.1839 64.584C92.8149 63.673 93.7849 63.404 94.1669 62.719C93.5449 61.708 91.5669 61.772 90.6269 62.422C90.0949 62.791 90.1359 63.249 89.6449 63.502C88.9139 62.954 88.8749 61.715 88.5639 60.751C89.9729 60.425 91.0279 60.627 92.1039 60.064C93.2659 59.449 94.6569 58.183 95.2499 57.507C95.5329 57.183 97.3669 58.77 97.6059 59.08C98.0489 59.653 98.7209 61.077 98.8859 61.538C99.1529 62.286 99.3889 63.345 99.2789 64.091C99.1729 64.82 97.7579 66.814 96.5259 67.238C94.5069 67.935 90.3639 67.389 91.8049 64.977Z" fill="#E7C582"/>
<path fill-rule="evenodd" clip-rule="evenodd" d="M84.4359 113.831C82.8789 112.945 81.2319 112.055 80.305 110.293C79.9109 109.543 79.666 108.486 79.3209 107.443C79.0149 106.501 78.4219 105.327 78.4369 104.494C78.4539 103.884 78.8579 103.466 79.0289 102.823C79.2229 102.106 79.188 101.398 79.424 100.954C79.966 99.927 81.5499 99.246 82.7659 98.596C84.437 97.703 88.079 96.933 90.137 98.203C91.3549 98.951 92.625 100.795 92.8899 102.627C93.173 104.575 93.232 107.305 92.69 109.015C92.338 110.136 90.911 111.713 89.939 112.455C88.572 113.502 86.7319 113.974 84.4359 113.831ZM48.1639 105.964C50.7699 105.684 53.0969 106.445 54.7499 107.637C55.0129 108.645 54.7529 109.385 54.9459 110.194C55.1189 110.909 55.6709 111.32 55.733 111.964C55.898 113.633 54.8779 114.476 54.0619 115.5C52.6789 117.246 50.5609 119.428 47.3779 118.942C44.7919 118.549 42.8999 117.114 41.4779 115.109C41.0499 112.822 40.6629 109.148 42.6599 107.934C44.3569 107.207 46.3389 106.766 47.9679 105.964C48.0349 105.964 48.0999 105.964 48.1639 105.964Z" fill="#E98952"/>
<path fill-rule="evenodd" clip-rule="evenodd" d="M107.926 129.165C103.257 129.43 97.602 130.351 93.87 128.772C92.166 128.051 90.516 126.871 89.052 125.824C87.515 124.72 85.957 123.684 84.828 122.383C84.799 122.226 84.921 122.214 84.927 122.088C85.007 122.07 85.023 121.988 85.121 121.99C88.188 122.309 90.996 123.09 93.674 123.759C95.426 124.197 97.519 124.765 98.984 124.054C100.874 125.057 102.986 126.076 105.076 127.101C106.116 127.611 107.419 128.065 107.926 129.165ZM113.727 133.488C113.71 134.162 114.687 134.364 114.417 134.965C110.239 136.917 105.699 138.598 99.571 138.111C95.606 137.796 91.565 136.586 88.465 135.262C85.376 133.939 82.808 131.686 80.797 129.165C80.082 128.264 79.557 127.195 78.932 126.216C78.285 125.21 77.578 124.205 77.259 123.07C78.32 122.735 79.553 122.982 80.305 122.383C81.343 121.556 81.891 123.341 82.466 124.054C83.064 124.79 84.037 125.632 84.532 126.02C84.882 126.292 85.358 126.361 85.714 126.611C86.621 127.247 87.375 128.078 88.269 128.674C89.178 129.284 90.175 129.943 91.119 130.444C93.783 131.863 97.172 132.453 100.95 132.704C103.644 132.885 105.805 132.276 107.927 131.624C108.381 131.484 109.655 130.643 110.091 130.641C111.382 130.629 112.435 133.313 113.727 133.488ZM67.825 123.366C68.015 126.952 67.637 130.58 66.349 133.294C65.865 134.315 65.105 135.452 64.482 136.538C63.818 137.688 63.16 138.986 62.516 139.684C60.839 141.495 58.2 143.15 55.832 144.599C53.392 146.089 50.931 147.599 48.361 148.726C45.426 150.014 42.399 150.663 38.924 151.675C34.784 152.881 30.329 152.518 25.162 152.461C24.835 151.655 25.633 151.177 26.046 150.789C35.291 150.464 42.342 148.816 48.556 145.285C49.409 144.801 50.088 144.741 51.21 144.302C51.718 144.106 52.198 143.603 52.783 143.122C53.349 142.658 54.024 142.376 54.456 142.044C55.267 141.405 55.916 140.323 56.814 139.487C58.461 137.947 60.376 136.693 61.728 134.669C63.256 132.385 64.491 129.532 65.956 126.708C66.315 126.012 66.962 125.265 67.036 124.839C67.131 124.315 66.604 124.034 66.939 123.563C67.048 123.311 67.467 123.37 67.825 123.366ZM64.481 123.562C64.732 124.879 63.831 126.006 63.399 127.1C62.923 128.314 62.583 129.524 62.024 130.639C59.964 134.744 56.573 138.467 52.489 140.765C48.685 142.901 45.15 144.684 40.497 146.17C36.784 147.355 32.338 148.429 27.324 147.743C27.559 146.404 28.249 145.522 28.897 144.597C31.045 144.279 33.163 144.434 35.189 143.909C36.549 143.554 37.883 142.721 39.314 142.236C40.86 141.712 42.46 141.426 43.74 140.861C44.239 140.639 44.643 140.192 45.114 139.976C47.037 139.1 49.36 138.729 50.228 136.732C51.759 135.74 53.576 135.036 54.551 133.486C56.415 133.017 57.096 131.222 58.191 129.849C59.839 127.784 62.103 125.969 63.792 123.756C63.888 123.558 64.171 123.546 64.481 123.562ZM58.289 124.053C58.866 124.611 57.819 125.745 57.406 126.315C56.883 127.03 56.326 127.776 55.831 128.479C54.838 129.883 53.778 131.572 52.588 132.604C51.507 133.542 49.653 134.401 48.064 135.261C45.5 136.645 43.356 137.983 40.397 139.092C37.618 140.136 34.274 141.161 30.864 141.253C30.876 140.301 31.755 139.669 32.439 138.896C33.057 138.193 33.553 137.241 34.305 136.93C35.201 136.561 36.406 136.561 37.352 136.341C42.41 135.164 46.185 133.403 49.638 130.443C50.759 129.48 52.526 128.228 53.374 126.904C53.765 126.292 53.784 125.53 54.551 125.037C55.667 124.678 57.087 124.099 58.191 124.054C58.223 124.053 58.256 124.053 58.289 124.053ZM116.084 136.635C116.42 136.924 116.695 137.272 116.676 137.913C116.476 138.138 115.796 137.884 115.594 138.109C111.767 140.362 106.485 142.861 100.456 143.419C99.447 143.51 98.34 143.494 97.213 143.615C96.115 143.731 94.95 144.007 93.87 143.91C92.523 143.786 90.772 143.256 89.154 142.927C87.602 142.611 85.949 142.218 84.828 141.647C84.006 141.23 83.452 140.325 82.765 139.683C81.312 138.323 79.932 137.621 78.437 136.046C77.424 134.976 76.587 134.016 77.063 132.508C76.076 130.917 74.043 128.061 75.787 126.116C76.881 126.672 77.93 128.908 78.833 130.246C81.556 134.263 84.592 136.586 89.841 138.304C92.878 139.302 96.311 140.337 99.476 140.569C104.774 140.954 109.954 139.699 114.218 137.519C114.765 137.243 115.266 136.693 116.084 136.635ZM49.344 126.904C48.902 128.141 47.473 128.917 46.296 129.758C44.821 130.803 43.612 131.543 41.776 132.212C40.499 132.678 39.351 133.762 37.843 133.589C37.903 132.781 38.833 132.361 39.514 131.916C40.814 131.071 42.188 130.323 43.543 129.265C44.178 128.764 44.847 128.077 45.411 127.887C45.756 127.773 46.168 127.887 46.592 127.788C47.634 127.55 48.294 126.592 49.344 126.904Z" fill="#E98952"/>
<path fill-rule="evenodd" clip-rule="evenodd" d="M71.262 133.686C71.329 133.686 71.396 133.686 71.458 133.686C72.935 136.862 74.733 139.716 77.062 142.043C79.411 142.954 80.73 144.564 82.96 145.187C84.05 145.492 85.116 145.593 86.204 145.875C87.123 146.116 88.452 146.697 89.936 146.76C93.225 146.902 97.513 146.402 101.144 146.073C101.828 146.008 102.544 145.633 103.206 145.58C103.548 145.555 103.903 145.722 104.19 145.679C104.555 145.625 104.897 145.343 105.27 145.285C106.467 145.104 107.104 145.172 108.123 144.795C110.654 143.853 113.114 142.275 115.69 140.96C116.582 140.504 117.809 139.81 118.345 139.88C119.647 140.051 120.142 143.263 121.294 143.713C121.036 144.879 121.898 145.496 122.176 146.27C122.337 146.711 122.315 147.257 122.472 147.745C122.604 148.147 122.938 148.522 123.065 148.925C123.476 150.269 123.242 151.886 123.949 152.954C123.504 155.489 125.577 157.05 125.62 159.736C123.517 161.238 121.159 162.481 119.133 164.06C116.007 165.123 113.184 167.058 109.893 168.583C107.418 169.729 104.516 170.473 101.732 171.433C100.346 171.912 98.858 172.218 97.409 172.613C96.034 172.986 94.715 173.563 93.38 173.988C88.702 175.476 82.984 175.459 77.554 176.545C73.175 177.42 68.45 177.507 63.203 177.627C61.938 177.656 60.637 177.966 59.368 178.022C57.771 178.086 56.027 178.094 54.456 178.022C53.995 177.999 53.533 177.76 53.078 177.725C50.349 177.515 47.432 177.711 44.625 177.627C42.96 177.575 41.324 177.071 39.611 177.037C35.891 176.959 31.541 176.652 27.521 176.349C24.897 176.148 22.142 175.459 20.345 174.481C20.026 172.673 20.022 170.797 20.345 168.877C20.699 166.792 21.41 164.677 21.721 162.784C22.13 160.327 22.51 158.05 23.688 156.198C30.329 156.4 36.541 155.656 42.17 154.331C42.736 154.195 43.277 153.769 43.839 153.642C45.086 153.359 46.094 153.397 46.887 152.56C48.701 152.937 48.787 151.581 50.425 151.775C51.383 151.217 52.303 150.465 53.274 149.906C53.601 149.719 54.024 149.699 54.356 149.514C54.853 149.234 55.206 148.674 55.732 148.435C56.593 148.036 57.385 147.857 58.191 147.451C58.944 147.068 59.744 146.813 60.449 146.369C61.784 145.529 62.652 144.292 63.991 143.223C65.152 142.294 66.543 141.637 67.527 140.47C69.076 138.638 69.821 136.25 70.967 133.886C71.039 133.792 71.147 133.734 71.262 133.686Z" fill="#FFFBDE"/>
<path fill-rule="evenodd" clip-rule="evenodd" d="M121.887 166.222C123.863 165.021 125.912 163.892 127.684 162.488C128.74 162.272 128.909 164.893 128.866 165.241C128.79 165.803 128.132 166.329 127.59 167.009C126.803 167.992 126.278 168.843 125.228 169.566C124.26 170.231 122.719 170.328 121.589 169.566C120.546 168.856 119.535 166.201 121.887 166.222ZM118.149 167.795C118.435 168.533 117.817 169.501 117.461 170.253C116.53 172.227 114.943 173.971 111.957 173.89C111.24 173.289 109.515 172.462 110.286 171.236C110.793 170.426 112.477 170.218 113.824 169.663C114.855 169.237 115.685 168.544 116.481 168.188C117.008 167.949 117.586 168.029 117.952 167.695C118.068 167.681 118.129 167.717 118.149 167.795ZM107.732 172.32C107.336 173.704 105.849 176.703 104.585 177.527C103.639 178.141 102.621 177.993 101.439 177.626C100.897 176.562 99.835 176.02 99.475 174.774C101.222 173.859 103.823 173.787 105.766 173.004C106.418 172.742 106.829 171.984 107.732 172.32ZM96.231 175.658C96.581 176.292 95.914 176.657 95.638 177.23C94.7 179.217 94.072 182.065 91.118 181.949C89.131 181.873 87.626 179.656 86.99 178.02C89.142 177.37 91.345 177.358 93.38 176.74C94.401 176.429 95.1 175.759 96.231 175.658ZM24.869 179.1C24.292 181.572 22.498 183.672 18.971 183.522C17.755 182.819 17.568 179.328 18.381 178.116C19.663 178.25 21.356 179.155 22.804 179.1C23.585 179.068 24.173 178.461 24.869 179.1ZM84.042 178.508C84.326 179.178 83.677 179.655 83.354 180.179C82.592 181.41 82.07 182.789 80.994 183.718C79.789 184.375 77.711 184.536 76.572 183.718C75.701 182.581 74.369 181.412 74.31 179.786C77.424 179.229 81.042 179.178 84.042 178.508ZM35.386 180.179C35.314 180.928 34.531 182.084 33.811 182.834C33.14 183.537 32.009 184.419 30.47 184.11C28.71 183.762 27.281 181.524 27.719 179.393C30.193 179.406 33.232 179.798 35.386 180.179ZM71.561 179.885C71.808 180.509 71.035 180.894 70.675 181.457C69.658 183.05 68.635 185.738 65.66 185.29C63.621 184.986 62.462 182.688 61.924 180.967C62.481 180.417 63.234 180.729 63.892 180.672C65.743 180.511 67.645 179.904 69.495 179.786C70.17 179.744 70.913 179.862 71.561 179.885ZM47.181 180.672C46.383 184.686 38.817 185.96 38.629 180.476C38.804 180.386 38.792 180.115 39.023 180.081C42.068 180.55 44.644 179.777 47.181 180.672ZM58.386 180.869C58.141 181.621 57.382 182.831 56.617 183.622C55.941 184.323 54.173 185.652 52.784 185.291C51.118 184.859 49.711 183.169 49.541 180.968C50.181 180.267 51.2 180.687 52.098 180.673C54.096 180.641 56.439 180.425 58.386 180.869Z" fill="#E98952"/>
<path fill-rule="evenodd" clip-rule="evenodd" d="M118.149 70.581C118.895 68.894 119.225 65.861 118.443 64.388C118.004 63.552 116.127 62.829 115.301 63.404C114.881 63.695 114.072 65.167 113.923 65.862C113.85 66.212 113.989 66.565 113.923 66.942C113.879 67.207 113.605 67.513 113.53 67.827C113.127 69.545 112.34 71.171 112.642 72.546C113.792 72.654 114.167 73.683 115.399 73.431C115.724 73.266 115.615 72.665 115.887 72.448C116.151 72.197 116.408 72.507 116.773 72.448C117.081 71.771 117.823 71.319 118.149 70.581Z" fill="#E98952"/>
<path fill-rule="evenodd" clip-rule="evenodd" d="M111.17 68.321C111.138 67.962 111.382 67.596 111.366 67.239C111.327 66.157 110.333 64.335 109.402 63.799C108.203 63.108 106.406 63.573 105.271 64.78C104.868 67.288 105.893 68.817 106.453 70.482C106.929 71.9 107.306 73.273 108.421 73.922C109.607 73.505 110.547 72.838 111.857 72.546C112.433 71.1 111.29 69.645 111.17 68.321Z" fill="#E98952"/>
<path fill-rule="evenodd" clip-rule="evenodd" d="M123.556 70.287C121.333 70.607 117.873 72.323 116.574 74.022C116.142 74.591 115.898 75.283 116.085 75.889C116.883 76.009 117.215 76.6 117.658 77.069C121.705 77.361 124.252 75.529 126.604 73.825C127.134 72.57 126.602 72.209 126.802 71.074C126.085 70.348 125.072 70.067 123.556 70.287Z" fill="#E98952"/>
<path fill-rule="evenodd" clip-rule="evenodd" d="M105.272 72.647C102.623 72.333 98.191 72.144 98.587 75.791C99.355 77.175 101.76 78.444 104.289 78.444C106.981 78.444 107.722 77.129 108.024 74.807C107.324 73.872 105.988 73.566 105.272 72.647Z" fill="#E98952"/>
<path fill-rule="evenodd" clip-rule="evenodd" d="M33.5179 68.614C34.3749 68.832 34.8299 68.025 35.5809 67.926C36.0789 67.862 36.5789 68.17 37.1559 68.125C37.8569 68.068 38.4469 67.495 39.1209 67.239C40.2719 66.801 41.2949 66.74 42.0699 66.057C43.0859 65.163 43.5809 63.689 44.1329 62.521C45.7439 62.381 45.5849 60.928 45.7079 59.373C45.8579 57.494 46.0069 56.3 45.4119 54.853C45.1519 54.213 44.5309 53.53 44.5289 53.184C44.5239 52.34 46.1289 51.517 46.7909 50.922C47.4609 50.319 48.5479 49.247 49.2469 48.957C49.7119 48.763 50.3839 48.829 50.9169 48.661C53.4789 47.854 55.9529 45.967 58.6839 46.204C59.1449 46.243 59.5799 46.548 60.0599 46.599C61.4199 46.739 63.6109 46.368 64.7789 46.008C65.6779 45.731 66.6959 46.428 67.7249 46.695C70.5769 47.437 72.7009 47.865 74.8019 49.35C76.0859 50.257 77.2459 51.194 78.4379 52.395C78.7129 52.672 78.8589 53.025 79.1289 53.283C79.8989 54.01 80.5239 54.096 81.0929 55.148C81.5439 55.981 81.8739 56.888 82.3729 57.803C83.5859 60.028 85.5849 62.771 86.4999 65.275C87.2319 67.277 87.8129 69.752 88.0709 71.76C88.3399 73.802 88.0999 76.015 87.7799 78.053C86.9399 83.343 83.8809 89.01 80.7979 92.699C80.0709 93.567 79.0669 94.515 77.9469 95.45C76.6749 96.511 75.5319 97.704 73.8189 97.907C72.7389 98.712 71.3729 99.15 69.9859 99.578C68.6159 100 67.3819 100.782 66.1509 101.153C65.0819 101.473 64.0039 101.56 63.0069 101.841C59.0289 102.964 53.3849 103.158 49.7389 101.547C49.3259 101.364 49.0139 100.924 48.5569 100.759C48.1829 100.625 47.7479 100.698 47.3779 100.563C46.5509 100.261 45.4949 99.485 44.6249 98.892C42.2209 97.252 40.5169 95.513 38.5289 93.29C37.4199 92.043 36.2329 90.388 35.4849 88.964C34.3879 86.886 33.2689 84.412 32.9289 81.985C32.5739 79.44 32.6769 76.648 32.5349 74.023C32.6419 73.705 32.8519 73.489 32.9289 73.137C32.5699 71.726 33.1149 69.88 33.5179 68.614ZM61.5319 52.198C60.8989 55.991 63.2389 59.08 66.9389 57.9C68.8939 54.782 65.2639 50.227 61.5319 52.198ZM48.7539 56.819C49.9499 57.732 50.6709 56.055 51.2099 55.344C51.8819 54.465 52.7739 53.589 52.7829 52.395C50.6329 51.58 49.2989 55.291 48.7539 56.819ZM58.3859 58.59C58.0299 57.818 57.2509 57.475 56.5169 57.115C55.7449 56.732 55.5479 56.253 54.9459 56.327C54.3219 56.406 53.0729 58.051 52.9799 58.687C52.8719 59.425 53.5719 61.552 54.4569 62.321C54.7249 62.557 55.2839 62.63 55.7329 62.816C56.9679 63.322 57.4749 63.381 58.4839 62.618C59.0049 61.158 58.9559 59.817 58.3859 58.59ZM64.1859 66.749C65.2059 65.954 66.2499 65.025 67.2319 64.489C68.6699 63.701 71.9929 62.219 74.3099 63.113C76.9349 64.122 75.0829 68.338 74.0149 69.304C73.3639 69.893 70.9989 70.977 70.1829 71.272C69.8369 71.396 69.1519 71.386 68.7089 71.564C68.3319 71.717 66.4169 73.011 66.4469 73.333C66.5119 74.056 68.3559 74.017 69.4949 73.924C73.0409 73.635 73.8899 71.43 75.8829 69.991C76.9829 67.884 79.6349 65.188 78.0459 62.323C77.1809 60.768 74.5889 60.43 72.0499 60.652C70.5749 60.782 68.7529 61.453 67.2319 62.129C64.8739 63.178 63.5399 64.666 62.1229 66.453C61.6309 67.07 60.9849 67.745 60.9429 68.421C62.2479 68.653 63.2929 67.443 64.1859 66.749ZM78.5359 73.04C75.2099 77.79 73.7249 83.625 67.2319 84.54C65.5229 84.78 63.8929 84.774 62.2179 84.54C60.2819 84.265 57.2689 83.415 55.9289 82.475C54.8549 81.721 53.8329 80.499 52.8819 79.526C52.4899 79.121 52.2579 78.534 51.7999 78.15C51.4259 77.836 50.6719 77.628 50.1289 77.168C49.7149 76.814 49.0149 75.951 48.7539 75.495C48.4069 74.896 48.4619 74.425 47.9669 74.221C47.5279 74.034 46.4249 74.192 46.0989 74.415C45.7469 74.659 45.6549 75.43 45.4109 75.791C44.9929 76.416 44.2909 76.596 43.6429 77.364C42.5449 78.662 40.8729 81.384 41.4779 82.573C42.0489 83.69 44.1469 82.773 44.5279 81.984C44.9189 80.016 45.5859 78.324 46.8879 77.263C48.0399 78.535 49.1139 79.885 49.9319 81.491C51.3619 81.536 51.7939 82.449 52.6859 83.162C53.2849 83.641 54.0399 84.056 54.6509 84.442C56.4639 85.575 58.4889 87.125 60.5499 87.782C63.8269 88.834 67.2819 87.815 69.8879 86.7C71.3139 86.091 72.7999 85.489 73.5249 84.835C73.7719 84.609 73.8459 84.24 74.1139 83.949C74.5899 83.425 75.2019 82.812 75.6839 82.376C75.9749 82.121 76.4349 82.024 76.6699 81.787C77.8829 80.546 78.1659 78.769 79.1279 77.263C79.1279 77.002 79.1279 76.742 79.1279 76.478C79.7169 75.765 80.3069 73.904 79.6189 72.839C78.7889 72.604 78.7479 72.737 78.5359 73.04Z" fill="#FFFBDE"/>
<path fill-rule="evenodd" clip-rule="evenodd" d="M109.698 75.005C109.831 76.482 108.966 76.959 109.106 78.443C110.086 79.853 113.906 80.279 114.71 78.345C115.032 77.572 114.739 76.755 115.003 75.69C114.182 74.51 110.962 73.666 109.698 75.005Z" fill="#E7C582"/>
<path fill-rule="evenodd" clip-rule="evenodd" d="M114.318 82.769C115.721 83.561 115.545 86.885 117.756 86.013C118.331 85.787 119.167 84.446 119.233 83.655C119.35 82.123 116.882 79.47 115.791 79.427C114.477 79.979 113.44 81.061 114.318 82.769Z" fill="#E98952"/>
<path fill-rule="evenodd" clip-rule="evenodd" d="M103.996 82.475C103.216 83.221 100.893 85.6761 101.049 86.8991C101.147 87.6751 102.392 88.2401 103.406 88.3721C105.759 88.6761 107.128 87.6421 107.927 86.6051C108.489 85.8841 109.683 84.349 109.796 83.756C110.058 82.417 109.351 82.1241 109.895 80.8071C107.81 79.5471 105.455 81.081 103.996 82.475Z" fill="#E98952"/>
<path fill-rule="evenodd" clip-rule="evenodd" d="M78.046 117.369C73.187 117.723 68.965 118.709 64.283 119.239C63.818 119.245 64.063 118.54 63.595 118.55C62.804 118.529 62.216 118.954 61.532 118.748C60.838 117.479 60.858 115.9 60.45 114.42C60.233 113.635 59.552 112.537 59.467 111.471C59.42 110.872 59.654 110.375 59.565 109.8C59.307 108.135 58.172 107.118 57.797 105.477C63.433 104.741 68.46 103.093 73.132 101.546C73.945 101.275 73.995 102.686 74.31 103.71C74.456 104.176 74.805 104.582 74.899 104.986C74.974 105.299 74.856 105.685 74.899 105.965C75.017 106.713 75.571 107.232 75.684 107.835C75.763 108.231 75.623 108.622 75.684 109.015C75.767 109.526 75.971 109.864 76.081 110.686C76.407 113.149 77.434 115.272 78.046 117.369ZM68.019 107.443C69.201 106.937 69.197 104.6 67.528 104.886C65.331 105.264 66.376 108.146 68.019 107.443ZM69.297 111.276C70.712 110.974 70.571 108.398 68.709 108.719C66.584 109.086 67.823 111.59 69.297 111.276ZM68.509 113.242C67.312 115.74 72.154 116.158 71.164 112.847C70.367 112.28 68.822 112.593 68.509 113.242Z" fill="#EBD7B5"/>
</g>
<defs>
<clipPath id="clip0">
<path d="M0 0H132.208V202.517H0V0Z" fill="white"/>
</clipPath>
</defs>
</svg>
