<svg width="143" height="190" viewBox="0 0 143 190" fill="none" xmlns="http://www.w3.org/2000/svg">
<g clip-path="url(#clip0)">
<path fill-rule="evenodd" clip-rule="evenodd" d="M136.881 93.511C136.213 93.563 135.443 93.959 135.031 93.437C135.218 92.265 136.486 91.782 137.028 90.851C137.249 90.466 137.348 89.824 137.544 89.519C138.192 88.52 139.054 87.481 139.466 86.784C139.972 85.922 140.619 84.061 138.875 84.346C138.271 84.444 137.411 85.685 136.955 86.268C136.701 86.589 136.411 87.011 136.141 87.374C135.829 87.795 135.446 88.14 135.252 88.412C134.779 89.087 134.621 90.255 133.555 89.963C133.186 89.495 133.409 88.94 133.409 88.412C133.399 87.232 133.199 86.076 133.111 85.012C133.063 84.44 133.201 83.89 133.111 83.384C132.76 81.439 131.358 81.119 130.673 82.794C130.386 83.496 130.636 84.792 130.378 85.825C130.284 86.19 129.934 86.741 129.934 86.935C129.928 87.245 130.254 87.703 130.228 88.19C130.218 88.413 129.945 88.808 129.934 89.152C129.914 89.7 130.433 90.957 129.565 90.999C129.18 91.017 128.516 89.696 128.381 89.298C128.35 89.21 128.273 88.585 128.233 88.486C127.925 87.713 127.354 87.33 127.05 86.712C127.161 86.061 126.869 85.813 126.609 85.528C125.283 85.58 123.588 84.658 124.021 86.86C124.121 87.366 124.717 87.664 124.908 88.19C124.987 88.407 124.931 88.878 125.058 89.225C125.162 89.523 125.495 89.787 125.648 90.112C125.761 90.362 125.76 90.675 125.867 90.926C126.089 91.428 126.491 91.792 126.683 92.254C126.929 92.855 126.837 93.527 127.049 94.25C127.189 94.721 127.667 95.122 127.639 95.58C127.606 96.267 126.711 97.002 126.387 97.576C125.067 99.885 123.464 102.06 122.026 104.376C121.301 105.541 120.546 106.672 119.882 107.85C119.22 109.022 118.685 110.394 117.59 111.177C115.608 109.218 113.739 107.142 111.824 105.115C111.566 103.841 110.527 103.237 109.755 102.307C109.48 101.974 109.288 101.495 109.016 101.123C108.746 100.754 108.418 100.432 108.127 100.087C107.454 99.293 106.932 98.46 106.432 97.945C106.024 97.53 105.383 97.193 104.804 96.613C104.436 96.25 103.434 95.314 103.472 94.988C103.532 94.509 104.535 94.42 105.1 94.102C106.872 93.103 108.479 91.287 110.051 90.038C110.61 89.593 111.304 89.151 111.75 88.706C112.199 88.258 112.601 87.536 113.153 86.934C113.64 86.403 114.254 85.797 114.633 85.233C114.89 84.85 114.971 84.361 115.224 83.976C115.462 83.611 115.865 83.374 116.111 83.016C116.752 82.075 117.329 81.024 117.883 80.06C118.48 79.024 119.142 77.968 119.584 76.956C119.823 76.412 119.819 75.798 120.027 75.255C120.165 74.901 120.437 74.642 120.544 74.295C120.764 73.591 120.9 72.846 121.137 72.078C121.376 71.302 121.349 70.456 121.58 69.638C121.721 69.151 122.153 68.685 122.171 68.16C122.19 67.604 121.824 67.163 121.73 66.534C121.921 66.124 122.25 66.053 122.319 65.501C122.425 64.645 121.582 62.757 122.69 62.543C123.007 62.483 123.533 63.078 123.942 63.207C125.378 63.674 126.209 63.37 127.493 63.134C128.068 63.028 128.719 62.89 129.117 62.692C131.078 61.724 132.534 57.483 131.259 55.599C130.996 55.206 129.575 54.148 129.117 54.048C127.82 53.754 126.756 54.285 126.25 55.06C125.965 54.798 125.721 54.495 125.538 54.221C125.854 53.698 126.102 53.12 126.385 52.418C126.583 51.923 126.91 51.34 126.901 50.795C126.897 50.563 126.714 50.232 126.682 49.906C126.641 49.557 126.742 49.196 126.682 48.872C126.641 48.67 126.361 48.37 126.235 47.983C126.137 47.687 126.189 47.392 126.09 47.171C125.944 46.861 125.538 46.576 125.35 46.213C124.718 44.983 124.877 44.664 123.647 44.142C123.264 43.978 122.569 43.898 122.465 43.549C122.357 43.168 123.181 41.869 123.35 41.186C123.481 40.672 123.514 40.134 123.647 39.633C124.003 38.325 124.557 37.033 124.905 35.642C125.138 34.713 125.178 33.687 125.496 32.76C125.592 32.481 125.838 32.233 125.94 31.946C126.244 31.072 126.371 30.312 126.681 29.583C126.983 28.864 127.354 28.261 127.712 27.514C128.022 26.864 127.93 26.131 128.156 25.37C128.337 24.766 129.196 23.334 129.709 23.153C130.475 22.88 131.158 23.065 131.851 22.635C134.226 21.163 134.049 16.693 132.293 15.095C131.862 14.701 131.096 14.081 130.596 13.987C128.818 13.65 126.957 15.036 126.161 16.058C125.541 16.852 125.303 17.771 125.127 19.235C124.253 20.072 123.058 20.791 121.873 21.305C121.813 21.33 121.78 21.359 121.728 21.379C119.967 21.981 118.33 22.788 116.702 23.523C115.947 22.703 116.777 21.749 116.921 20.859C116.96 20.62 116.833 20.307 116.848 20.049C116.879 19.531 117.214 19.038 117.292 18.496C117.419 17.584 117.535 16.248 117.511 15.246C117.488 14.175 117.417 13.334 117.069 12.733C117.741 11.623 117.1 9.40202 117.881 8.14802C120.002 7.83802 122.011 5.22902 120.985 2.68102C120.429 1.29402 118.437 0.199022 116.848 0.020022C115.357 -0.142978 113.69 0.676022 112.709 1.42502C112.251 1.77702 110.752 3.19102 110.715 4.08602C110.705 4.32402 110.946 4.56902 111.007 4.90002C111.074 5.24002 111.007 5.52702 111.08 5.71002C111.199 5.99702 111.563 6.21402 111.821 6.52402C112.082 6.83602 112.275 7.17902 112.487 7.41102C112.839 7.79802 113.928 8.67602 113.965 9.03702C114.011 9.49702 113.057 10.534 112.562 10.959C111.896 11.525 111.146 12.023 110.786 12.51C110.549 12.832 110.455 13.285 110.124 13.544C109.795 13.8 109.366 13.788 109.014 13.988C108.673 14.184 108.521 14.677 108.125 15.021C107.88 15.239 107.49 15.285 107.315 15.468C106.992 15.797 106.915 16.391 106.724 16.724C106.289 17.026 105.852 17.209 105.468 17.535C104.797 18.106 104.441 19.049 103.546 19.384C103.119 19.127 103.317 18.676 103.174 18.276C102.927 17.58 102.352 17.033 101.994 16.354C101.881 16.141 101.896 15.86 101.773 15.615C101.45 14.982 99.997 13.135 99.481 12.881C99.258 12.773 98.861 12.789 98.594 12.66C97.798 12.281 97.289 11.39 96.525 11.257C96.127 11.186 95.571 11.559 95.269 11.108C95.831 9.60802 96.697 9.10102 96.599 7.33802C96.516 5.82902 95.325 4.41502 93.937 4.01302C91 3.16602 86.696 5.29602 86.919 8.44802C86.958 8.96002 87.148 9.75102 87.365 10.222C87.687 10.926 89.303 12.708 89.95 12.954C91.021 13.366 91.931 12.71 93.202 12.735C94.062 13.091 93.5191 13.736 93.498 14.434C93.458 15.714 93.716 17.061 93.573 18.498C93.54 18.816 93.327 19.145 93.275 19.46C93.071 20.697 92.948 22.09 92.613 23.449C92.393 24.334 91.968 25.241 91.71 26.033C91.347 26.216 90.919 26.449 90.734 26.496C90.424 26.574 90.2691 26.574 89.495 26.188C89.3951 26.138 89.332 26.081 89.251 26.026C89.214 25.713 89.139 25.401 88.989 25.073C88.835 24.746 88.469 24.502 88.25 24.186C88.015 23.855 87.89 23.43 87.659 23.152C86.304 21.536 83.345 20.458 80.71 20.712C79.026 20.876 77.908 21.568 76.794 22.263C75.466 23.092 74.173 23.367 73.69 24.924C73.6301 25.118 73.734 25.432 73.69 25.663C73.6021 26.113 73.282 26.502 73.248 26.846C73.184 27.491 73.503 28.376 73.024 28.915C72.446 28.819 72.2411 28.314 71.842 28.102C71.332 27.827 70.634 27.671 70.07 27.436C69.446 27.178 68.884 26.79 68.369 26.623C64.7121 25.451 60.968 28.444 58.907 30.097C58.253 30.893 57.837 31.701 57.358 32.756C57.117 33.279 56.761 33.849 56.694 34.307C56.53 35.362 56.885 36.107 56.989 37.044C57.066 37.742 57 38.506 57.135 39.039C57.221 39.382 57.377 39.649 57.551 39.901C57.438 39.961 57.297 40.012 57.105 40.051C56.936 40.086 56.758 40.088 56.587 40.076C55.647 39.289 54.476 38.831 52.775 39.039C50.734 39.288 48.039 41.104 47.16 42.289C46.075 43.76 45.516 46.611 45.903 48.944C45.934 49.136 46.121 49.392 46.199 49.681C46.314 50.11 46.27 50.532 46.42 50.791C46.622 51.14 47.436 51.634 47.971 51.971C49.553 52.977 52.764 53.674 55.467 53.53C55.305 54.055 54.991 54.762 54.453 55.274C53.932 55.105 53.204 55.124 52.775 55.297C52.238 55.516 50.975 57.043 50.927 57.516C50.902 57.777 51.235 58.143 51.223 58.549C51.206 59.051 50.821 59.436 50.855 59.806C50.899 60.312 51.355 60.609 51.446 60.992C52.705 61.992 54.206 63.13 56.468 62.541C57.217 62.349 58.031 61.706 58.541 61.213C58.947 60.811 59.161 60.033 59.797 60.103C59.889 61.589 59.383 62.97 59.277 64.242C59.11 66.301 58.935 68.487 59.277 70.523C59.323 70.798 59.481 70.999 59.496 71.264C59.517 71.535 59.398 71.811 59.425 72.076C59.49 72.686 59.956 73.592 60.162 74.441C60.257 74.824 60.225 75.253 60.312 75.549C60.385 75.801 60.601 76.011 60.682 76.288C60.803 76.7 60.759 77.19 60.903 77.618C61.201 78.516 61.827 79.465 62.235 80.427C62.761 81.666 63.188 82.627 63.933 83.604C64.953 84.936 65.174 85.746 66.521 86.266C66.6311 87.288 67.456 87.482 68.001 88.04C68.322 88.369 68.501 88.873 68.809 89.222C70.585 91.208 73.3661 92.805 75.981 93.804C76.97 94.183 77.807 94.826 78.641 95.134C79.151 95.325 79.93 95.18 79.973 95.8C80.029 96.645 78.037 96.924 77.311 97.279C76.48 97.684 75.416 98.488 74.505 99.125C74.021 99.46 72.1171 100.926 71.47 100.826C71.072 100.763 70.487 99.82 70.07 99.568C69.388 99.164 68.426 99.019 67.555 98.608C66.739 98.221 65.825 97.906 65.117 97.5C64.008 96.869 63.781 95.91 62.53 95.801C62.384 95.505 62.276 95.168 62.088 94.916C60.308 94.044 58.58 92.801 56.617 91.885C56.2 91.687 55.714 91.677 55.287 91.513C54.115 91.069 53.183 90.138 51.961 89.814C51.644 89.728 51.313 89.756 50.999 89.668C49.723 89.298 48.715 88.206 47.379 87.967C45.753 86.661 42.953 86.531 41.317 85.233C39.711 84.895 38.269 84.388 37.107 83.607C36.31 83.59 35.654 83.436 34.961 83.311C34.633 82.293 34.05 81.408 33.632 80.578C33.49 80.296 33.428 79.911 33.261 79.616C33.053 79.25 32.829 79.149 32.745 78.802C32.643 78.392 32.845 77.802 32.67 77.399C32.455 76.902 31.639 76.908 31.488 76.439C31.55 75.563 31.044 75.338 30.822 74.811C30.572 74.221 30.586 73.485 30.379 72.966C30.23 72.589 29.806 72.36 29.64 72.004C29.465 71.63 29.681 71.308 29.344 71.044C27.927 70.944 27.824 71.808 27.052 72.522C26.649 72.897 26.203 73.007 26.018 73.335C25.366 74.502 25.519 76.57 24.983 77.99C24.762 78.579 24.169 79.262 24.096 79.691C24.059 79.918 24.19 80.199 24.171 80.43C24.142 80.763 23.877 81.071 23.802 81.39C23.719 81.742 24.004 82.306 23.505 82.35C22.799 81.996 22.747 81.101 21.952 80.651C21.578 80.439 20.947 80.482 20.62 80.208C20.139 79.798 19.823 78.511 19.219 78.064C18.898 77.829 18.373 77.798 18.036 77.546C17.286 76.978 17.016 76.146 16.114 75.993C14.578 75.733 13.468 76.438 13.16 77.619C14.325 78.687 12.111 80.838 14.194 81.167C14.027 81.812 13.692 81.946 13.601 82.497C13.412 83.654 14.109 84.229 14.12 84.862C14.124 85.205 13.818 85.565 13.824 85.897C13.843 86.713 14.863 87.716 13.897 88.335C12.96 87.989 12.064 88.335 11.163 88.262C10.176 88.181 9.37604 87.764 8.50404 87.89C8.10904 87.95 7.50704 88.26 7.17204 88.558C6.61604 89.049 5.76304 91.01 5.69404 91.733C5.65504 92.168 5.76704 92.357 5.84404 92.771C4.26704 93.241 2.23604 93.668 1.40604 94.986C1.14804 95.401 0.840044 96.148 0.817044 96.687C0.776044 97.568 1.45404 98.831 1.48104 100.085C1.50604 101.113 1.51604 102.772 2.36804 103.116C3.51404 103.58 4.52504 102.739 4.51204 101.784C4.50804 101.472 4.22104 100.914 4.06804 100.454C3.78604 99.6 3.49004 98.916 3.63204 97.725C4.16704 97.273 4.77504 96.401 5.62404 96.247C6.43704 96.097 6.95204 96.301 7.54804 95.95C8.85304 95.182 9.58804 93.148 9.17304 91.145C10.249 90.375 11.242 91.58 12.277 91.588C13.031 91.595 13.368 91.07 14.124 91.145C13.859 92.102 12.952 92.54 12.277 93.069C11.544 93.638 11.029 94.385 10.427 95.061C9.84204 95.721 9.26204 96.393 8.80104 97.207C8.32204 98.054 7.69304 98.641 7.17604 99.422C6.46004 100.509 5.96404 101.777 5.25804 102.898C4.95204 103.377 4.38004 103.666 4.22204 104.23C4.21804 104.551 4.42404 104.663 4.44104 104.967C3.99704 105.531 3.58504 105.712 3.33504 106.518C3.04804 107.44 2.98904 109.68 2.29804 110.067C1.92304 110.281 1.41904 110.142 1.04204 110.29C0.441044 110.523 -0.0799563 111.237 0.0100437 111.915C0.156044 113.06 1.80004 112.965 2.59404 113.54C2.09004 115.451 2.27304 117.79 2.59404 119.971C2.68004 120.564 2.98504 121.103 3.11204 121.668C3.31404 122.575 3.28904 123.714 3.63204 124.332C3.92804 124.873 4.85604 125.077 4.51704 126.104C5.07204 126.902 5.96004 127.374 6.21604 128.471C7.75204 129.924 9.79504 131.302 12.424 131.797C14.162 132.122 15.364 131.39 17.006 131.425C18.724 130.753 20.416 130.126 21.811 129.06C22.687 128.393 24.596 126.414 24.767 128.542C26.158 130.353 27.409 132.164 28.904 133.716C29.422 134.249 30.049 134.6 30.605 135.121C30.847 135.348 31.021 135.716 31.269 135.934C31.949 136.53 32.847 136.848 33.265 137.706C34.462 138.456 35.766 139.101 36.813 140C36.956 140.15 37.31 140.094 37.479 140.221C37.783 140.41 37.898 140.784 38.218 140.96C39.565 140.968 40.44 141.445 41.32 141.92C43.204 142.035 45.092 142.6 47.086 142.288C48.427 142.082 50.042 141.782 51.002 141.402C51.423 141.237 51.724 140.89 52.112 140.738C52.479 140.592 52.932 140.594 53.295 140.442C54.019 140.138 54.825 139.536 55.584 139.037C56.342 138.543 57.2 137.99 57.802 137.484C58.662 136.768 60.234 135.048 60.831 134.161C61.947 132.502 62.003 130.133 63.05 128.173C62.963 127.616 62.811 127.207 63.196 126.989C63.821 126.643 64.258 127.319 64.452 127.507C64.8081 127.861 65.301 128.264 65.342 128.543C65.3941 128.916 64.914 129.382 64.822 129.948C64.766 130.315 64.885 130.818 64.822 131.131C64.755 131.489 64.437 131.957 64.231 132.388C63.592 133.716 62.998 134.749 62.532 136.083C61.632 138.662 60.698 141.412 60.315 144.508C60.065 146.513 59.759 148.183 59.944 150.198C60.15 152.388 60.632 155.031 61.423 156.627C61.502 156.789 61.802 157.006 62.014 157.293C62.216 157.566 62.31 157.928 62.459 158.107C62.713 158.42 63.209 158.682 63.492 158.992C63.85 159.383 64.066 159.858 64.306 160.1C65.062 160.868 66.633 161.407 66.744 162.244C66.785 162.56 66.358 163.404 66.155 163.797C65.437 165.171 65.153 165.721 64.528 167.197C64.312 167.707 63.929 169.035 63.492 169.12C63.124 169.189 62.178 168.575 61.646 168.377C60.309 167.892 58.815 167.315 57.284 167.64C56.149 169.333 57.821 171.872 57.432 173.846C56.553 173.965 56.282 173.053 55.807 172.664C55.147 172.129 54.312 171.844 53.661 171.261C52.597 171.398 51.923 171.007 51 170.891C49.39 170.689 47.625 170.541 45.827 170.816C45.531 170.86 45.181 171.095 44.792 171.188C43.562 171.479 40.002 171.268 40.283 172.739C40.354 173.102 42.046 173.842 42.504 174.141C43.722 174.946 44.448 175.434 45.681 175.692C49.674 178.377 54.723 180.006 59.648 181.754C60.147 182.219 60.73 183.072 61.496 182.939C62.231 182.805 62.135 181.601 62.531 180.87C62.845 180.294 63.311 180.244 63.491 179.834C63.512 178.572 64.174 177.868 64.748 177.1C65.194 176.501 65.8 176.009 66.299 175.622C66.632 175.659 66.853 175.584 67.115 175.549C67.434 175.27 67.428 174.925 67.775 174.587C68.137 174.243 68.814 174.149 68.81 173.625C68.81 173.138 67.692 172.543 67.334 172.224C66.847 171.784 66.018 171.135 65.929 170.671C65.733 169.621 66.745 168.978 67.115 168.233C67.442 167.564 67.983 166.36 68.37 165.72C68.6991 165.169 69.474 163.628 69.995 163.501C70.416 163.401 71.011 163.818 71.694 163.872C72.22 163.911 72.641 163.732 73.024 163.797C73.336 163.85 73.67 164.176 73.986 164.167C74.355 164.159 74.678 163.813 75.021 163.724C75.841 163.512 76.581 163.62 77.236 163.426C77.807 163.26 78.415 162.929 78.937 162.613C79.924 162.021 80.932 161.249 81.822 160.397C82.949 159.312 83.069 157.576 84.775 156.999C84.993 157.831 85.332 158.219 85.662 158.919C86.164 159.989 86.661 160.576 87.288 161.432C87.6291 161.901 87.896 162.546 88.175 162.837C88.5041 163.181 89.168 163.416 89.578 163.797C89.83 164.03 89.943 164.361 90.173 164.535C90.819 165.041 91.974 165.363 92.979 165.719C94.553 166.273 96.067 166.447 97.562 166.901C98.168 169.543 98.847 172.116 99.408 174.808C98.872 175.39 97.887 174.789 97.045 174.883C95.923 175.004 94.284 176.228 95.492 177.175C95.765 177.292 96.22 177.235 96.601 177.248C97.198 177.692 97.349 178.487 97.709 179.168C97.992 179.709 98.651 180.234 98.448 180.94C97.553 181.335 96.835 180.644 96.081 180.5C93.9491 180.088 91.265 180.56 89.211 181.164C88.584 181.347 87.845 181.582 87.363 181.831C86.626 182.207 86.318 182.749 85.737 183.013C85.479 183.127 85.146 183.086 84.848 183.235C84.404 183.451 83.245 184.472 83.223 185.083C83.202 185.666 83.86 186.406 84.259 186.486C84.7131 186.578 85.273 186.258 85.737 186.264C86.678 186.276 87.685 186.784 88.693 187.003C90.694 187.441 93.1001 187.975 95.049 188.261C96.121 188.415 97.344 188.834 98.299 188.924C99.538 189.038 100.799 188.631 101.845 188.85C102.322 188.953 102.819 189.709 103.398 189.665C103.766 189.635 104.252 189.06 104.36 188.85C104.889 187.798 104.641 185.834 104.728 184.788C104.745 184.574 104.911 184.272 104.951 183.974C105.03 183.366 104.843 182.612 105.024 181.977C105.111 181.678 105.359 181.409 105.54 181.092C106.101 180.122 106.435 179.458 107.166 178.652C107.457 178.333 108.399 177.786 108.276 177.027C108.158 176.305 107.404 176.482 106.575 176.214C105.78 175.956 104.77 175.157 103.987 175.033C103.498 174.952 102.642 175.138 102.07 174.958C101.749 174.248 101.583 173.301 101.479 172.521C101.204 170.518 100.473 168.734 99.997 166.902C100.69 166.319 101.708 166.467 102.439 166.163C103.861 165.572 104.533 164.141 105.837 163.502C106.193 163.161 106.087 162.542 106.649 162.542C107.034 162.542 107.395 163.292 107.682 163.427C107.909 163.536 108.307 163.524 108.571 163.652C109.225 163.972 109.818 164.885 110.489 165.424C110.805 165.672 111.257 165.793 111.6 166.09C112.027 166.455 112.439 166.954 112.857 167.344C113.328 167.789 113.875 168.093 114.261 168.452C114.619 168.785 114.819 169.252 115.148 169.56C115.487 169.879 115.968 170.058 116.33 170.374C117.079 171.02 117.662 171.872 118.401 172.52C118.669 172.753 119.025 172.874 119.288 173.109C120.113 173.85 120.885 174.641 121.653 175.401C123.154 176.891 124.572 178.634 126.456 179.613C126.962 180.708 128.225 181.045 128.673 182.198C130.49 183.263 131.631 185.308 133.551 186.263C134.04 186.505 134.604 186.499 134.952 187.002C135.579 185.907 138.044 185.931 137.395 184.046C137.087 183.7 136.587 184.01 136.137 183.824C135.789 182.397 134.532 181.884 133.845 180.793C132.636 180.303 131.615 179.621 131.256 178.28C130.742 177.885 130.188 177.144 129.559 176.802C129.153 176.583 128.491 176.456 128.079 176.138C127.75 175.88 127.531 175.462 127.194 175.176C126.482 174.575 125.633 174.011 124.902 173.326C124.415 172.872 124.044 172.291 123.574 171.775C123.093 171.252 122.438 170.859 122.021 170.372C121.244 169.468 120.588 168.461 119.802 167.564C119.375 167.073 118.699 166.706 118.251 166.306C117.193 165.368 116.284 164.187 115.295 163.203C114.789 162.699 114.163 162.287 113.669 161.799C113.13 161.27 112.776 160.581 112.265 160.098C111.587 159.467 110.968 159.095 110.194 158.399C109.769 158.014 109.107 157.378 109.012 157.143C108.639 156.225 109.187 155.163 109.383 154.481C110.05 152.158 110.315 150.23 110.713 147.83C111.013 146.006 110.971 144.325 110.934 142.656C110.895 140.978 111.369 139.395 110.934 137.705C111.209 136.912 112.406 137.496 112.781 136.82C112.825 136.01 111.963 136.11 111.746 135.564C111.946 134.869 112.243 134.14 112.191 133.42C112.146 132.839 111.645 132.232 111.598 131.721C111.488 130.49 111.248 129.874 111.078 128.989C110.943 128.254 111.051 127.439 110.858 126.695C110.787 126.422 110.567 126.168 110.486 125.882C110.188 124.791 110.15 123.573 109.824 122.482C109.726 122.158 109.48 121.86 109.381 121.522C109.058 120.428 108.854 119.274 108.568 118.196C108.418 117.634 108.175 117.157 108.048 116.645C107.894 116.014 107.894 115.408 107.829 114.721C107.785 114.28 107.313 113.893 107.236 113.466C107.171 113.11 107.311 112.712 107.236 112.358C107.142 111.919 106.626 111.549 106.57 111.101C106.537 110.822 106.745 110.485 106.72 110.214C106.678 109.8 106.289 109.423 106.2 109.032C106.021 108.226 106.14 107.318 105.906 106.516C105.469 105.029 104.624 103.572 104.946 102.083C105.377 102.545 106.014 102.843 106.426 103.338C106.598 103.553 106.612 103.869 106.793 104.079C107.447 104.835 108.673 105.079 109.01 106.149C111.508 108.503 113.667 111.198 116.18 113.538C116.211 114.196 116.79 114.358 117.14 114.72C117.388 114.977 117.401 115.264 117.583 115.386C118.271 115.857 119.649 115.682 119.799 114.944C119.886 114.525 119.532 114.074 119.578 113.687C119.622 113.335 120.015 112.623 120.391 112.061C121.316 110.678 122.088 108.589 123.052 107.552C123.356 107.225 123.873 107.052 124.087 106.813C124.792 106.026 125.222 104.617 125.784 103.487C126.108 102.848 126.767 102.2 127.264 101.419C127.941 100.353 128.628 98.732 129.556 98.019C129.796 97.834 130.237 97.767 130.516 97.501C130.962 97.074 131.097 96.462 131.624 96.247C133.086 95.643 136.81 95.752 138.423 96.097C138.946 96.211 139.374 96.547 139.901 96.542C140.982 96.528 142.154 95.837 142.043 94.175C140.891 93.596 138.684 93.372 136.881 93.511ZM60.019 125.734C58.76 129.311 56.986 134.193 54.255 136.524C53.666 137.026 52.947 137.268 52.184 137.705C50.899 138.448 49.238 139.327 46.865 139.037C46.013 138.933 45.118 138.447 44.425 138.223C43.449 137.913 42.776 137.771 41.837 137.338C40.877 136.892 39.959 136.126 39.104 135.489C37.609 134.377 35.615 133.588 34.374 132.239C33.941 132.176 33.758 132.505 33.412 132.314C33.108 132.126 33.076 131.662 33.118 131.13C32.658 130.457 31.929 130.051 31.638 129.21C30.27 128.517 29.574 127.092 28.684 125.956C28.261 125.417 27 124.832 27.057 123.888C27.099 123.182 27.659 123.191 28.167 122.558C28.386 122.283 28.584 121.894 28.904 121.523C29.685 120.622 29.976 119.669 30.53 118.346C30.803 117.697 31.284 116.11 31.862 116.35C32.543 116.631 32.982 117.372 33.561 117.751C33.902 117.978 34.331 118.057 34.521 118.197C35.466 118.891 35.666 120.008 36.813 120.489C39.292 124.364 42.461 127.551 44.794 131.573C45 131.691 45.333 131.677 45.532 131.797C45.621 132.499 46.056 132.853 46.496 133.201C46.431 134.163 46.9 134.731 47.527 135.341C47.872 135.674 48.559 136.343 48.785 136.376C49.155 136.43 49.501 136.018 49.967 135.787C50.802 135.369 51.512 135.002 52.111 134.305C52.509 133.841 52.617 133.335 52.923 132.756C53.175 132.277 53.681 131.815 54.031 131.278C54.384 130.743 54.58 130.113 54.916 129.577C55.301 128.975 55.924 128.336 56.398 127.73C56.921 127.056 57.352 126.318 57.8 125.81C58.172 125.389 58.668 125.098 59.057 124.701C59.448 124.299 59.773 123.628 60.389 123.666C60.831 124.527 60.267 125.031 60.019 125.734ZM77.461 104.375C77.313 104.776 77.324 105.199 77.165 105.557C76.971 106.003 76.592 106.334 76.353 106.814C76.099 107.316 76.0201 107.939 75.76 108.439C75.549 108.853 75.098 109.151 74.873 109.55C74.627 109.991 74.404 110.545 74.136 111.026C73.753 111.719 73.472 112.267 73.322 113.17C71.913 115.649 70.7511 118.088 69.258 120.783C68.9751 121.291 68.245 123.123 67.851 123.221C67.132 123.405 65.378 121.21 65.267 120.635C65.169 120.119 65.464 119.583 65.489 119.009C65.501 118.776 65.364 118.322 65.414 118.047C65.543 117.357 66.7001 116.339 67.261 115.463C67.8521 114.546 68.6431 113.63 69.037 112.802C69.189 112.476 69.1411 112.147 69.259 111.915C69.488 111.458 70.038 111.176 70.292 110.731C70.442 110.469 70.432 110.134 70.592 109.846C70.9351 109.209 71.566 108.693 71.768 108.222C71.966 107.771 71.914 107.258 72.068 106.89C72.243 106.465 72.663 106.213 72.881 105.78C72.996 105.557 72.977 105.238 73.1 104.968C73.323 104.481 73.7811 103.769 73.62 102.824C75.3811 102.096 76.7281 100.958 78.498 100.238C78.689 101.764 77.928 103.113 77.461 104.375Z" fill="black"/>
<path fill-rule="evenodd" clip-rule="evenodd" d="M30.681 80.281C30.573 80.013 30.594 79.652 30.458 79.394C30.209 78.929 29.68 78.605 29.424 78.141C29.111 77.581 29.191 76.944 28.61 76.588C28.285 76.472 27.498 77.804 27.502 78.212C27.504 78.735 28.043 79.08 28.018 79.544C27.987 80.147 27.087 80.741 27.058 81.688C27.044 82.222 27.269 82.691 27.207 83.091C27.157 83.389 26.707 83.82 26.911 84.199C28.327 83.865 30.577 83.732 32.159 83.312C31.952 82.146 31.084 81.301 30.681 80.281Z" fill="#E98952"/>
<path fill-rule="evenodd" clip-rule="evenodd" d="M18.5591 82.575C18.2341 82.069 18.2191 81.439 17.8201 81.097C17.5391 80.853 16.4961 80.31 16.1941 81.097C16.8781 81.557 17.3411 82.429 17.0071 83.681C16.8641 83.977 16.2991 84.179 16.4911 84.57C16.7401 84.862 17.3861 84.755 17.5261 85.161C17.1031 86.124 17.1781 87.954 16.9311 88.855C18.0511 89.024 18.8231 87.983 19.6661 87.525C20.5901 87.025 21.6751 86.78 22.3301 85.974C21.7941 85.445 21.2731 84.908 21.0731 84.052C20.1011 83.657 19.1691 83.518 18.5591 82.575Z" fill="#E98952"/>
<path fill-rule="evenodd" clip-rule="evenodd" d="M67.7761 131.278C67.0261 131.402 66.9991 132.373 66.5981 133.126C65.5291 135.125 64.1801 137.588 63.4931 140.146C62.8211 142.647 62.3521 146.111 62.3091 148.572C62.2691 151.172 63.8511 153.983 64.9711 155.517C65.2771 155.934 65.5101 156.551 66.0061 156.552C66.4811 155.821 66.4791 154.134 66.4491 153.006C66.4081 151.368 66.1951 149.657 66.3011 148.2C66.4611 145.997 66.5421 143.49 66.9671 141.401C67.3351 139.602 67.8311 137.882 68.2231 136.081C68.5521 134.576 69.3271 133.247 69.4041 131.796C68.9941 131.536 68.3301 131.186 67.7761 131.278ZM77.8331 132.238C77.8331 133.252 79.2331 133.49 79.6791 134.304C81.0931 134.327 81.2951 136.12 82.4151 136.673C82.5521 136.74 82.9881 136.708 83.2271 136.819C83.3721 136.886 83.8161 137.306 83.9661 137.558C84.2121 137.977 84.1751 138.574 84.6301 138.518C85.2481 138.443 85.1071 136.638 85.2221 135.638C85.3081 134.856 85.5111 133.823 85.2951 133.049C82.6471 133.035 80.1631 132.08 77.8331 132.238ZM70.5161 150.196C70.9301 148.237 71.1851 146.145 71.4721 144.284C71.8531 141.832 72.0591 139.575 72.5081 137.263C72.6751 136.409 73.0411 135.41 72.9541 134.97C72.8671 134.543 71.7251 133.523 71.3271 133.567C70.7451 133.632 70.5531 134.98 70.2911 135.857C70.0521 136.673 69.9661 137.582 69.7751 138.295C69.4161 139.636 68.5301 141.445 68.2961 143.397C68.1821 144.338 68.0651 145.439 68.0041 146.501C67.9411 147.562 67.6401 148.765 67.7081 149.605C67.7451 150.053 68.0561 150.378 68.0771 150.788C68.1001 151.228 67.8751 151.814 67.8521 152.341C67.8311 152.931 67.9691 153.601 68.0041 154.335C68.1131 156.84 67.4571 159.234 69.7761 158.99C69.3551 156.19 69.8741 153.208 70.5161 150.196ZM89.0631 133.716C88.5491 133.945 88.6781 134.938 88.6211 135.712C88.4861 137.45 87.6841 140.021 87.4361 142.288C87.3281 143.29 87.0891 144.039 87.0701 144.801C87.0381 145.923 87.1881 146.7 86.9201 147.613C87.0381 147.963 87.7801 147.69 87.8071 148.129C87.4721 149.08 86.9391 149.772 86.8501 150.863C86.7691 151.818 87.1601 152.762 87.3661 153.376C87.6681 154.284 87.9091 154.617 88.2521 155.296C88.4291 155.652 88.4481 156.077 88.6211 156.405C88.7881 156.722 89.1941 157.151 89.5061 157.588C90.4331 158.873 91.4881 160.526 93.0561 160.692C93.1351 159.659 92.3481 158.798 92.0211 157.736C91.9361 157.472 91.9591 157.126 91.8711 156.849C91.7381 156.425 91.3151 156.058 91.2071 155.592C91.0631 154.974 91.1551 154.291 91.0611 153.596C90.9431 152.73 90.6821 151.88 90.6161 150.935C90.4471 148.578 90.3951 146.047 90.3951 143.692C90.3951 140.334 90.7851 137.074 91.2821 134.161C90.7411 134.076 89.7941 133.393 89.0631 133.716ZM93.1291 134.455C92.7231 134.634 92.5381 135.7 92.3881 136.229C92.1991 136.918 91.9921 137.79 91.9451 138.371C91.6971 141.489 91.7951 145.664 92.1671 149.015C92.3051 150.246 92.4731 151.284 92.3171 152.117C92.7941 152.589 92.5581 153.393 92.6841 154.188C92.7321 154.475 92.9501 154.752 92.9811 155.075C93.0191 155.47 92.8331 155.869 92.9071 156.259C92.9441 156.453 93.3461 156.981 93.4251 157.219C93.5061 157.465 93.4671 157.862 93.5731 158.179C93.6411 158.387 93.8771 158.658 94.0161 158.991C94.4301 159.999 95.2341 162.386 96.0821 160.915C95.9881 160.461 95.3431 160.52 95.1971 159.953C95.1201 159.651 95.3471 159.159 95.2721 158.621C95.2101 158.179 94.8931 157.884 94.9011 157.588C94.9141 157.101 95.3451 156.801 95.3451 156.48C94.9261 155.583 95.3701 154.706 95.4181 153.597C95.5641 150.274 95.6451 147.349 95.7881 144.212C95.8341 143.202 95.7631 142.239 95.7881 141.256C95.8511 138.974 96.5071 136.781 96.3071 134.751C95.2801 134.956 94.0411 134.057 93.1291 134.455ZM97.7111 135.194C97.2091 136.241 97.2991 137.715 97.1931 139.112C97.0851 140.536 97.1451 142.003 96.8971 143.249C97.3471 144.671 96.7351 146.113 96.6751 147.758C96.6251 149.163 96.5551 150.606 96.5291 151.972C96.5041 153.061 96.7991 154.121 96.7491 155.074C96.7341 155.401 96.5291 155.719 96.5291 156.034C96.5291 156.336 96.7241 156.74 96.7491 157.142C96.8181 158.264 96.5611 159.884 96.6031 160.764C96.6721 162.213 97.8341 162.979 98.9681 162.096C98.9261 160.391 98.8181 158.527 99.0431 156.625C99.1471 155.719 99.4801 154.793 99.4851 153.893C99.4911 152.153 99.1291 150.502 99.7041 148.942C99.3751 148.061 99.6251 147.104 99.7041 146.057C99.7641 145.328 99.6921 144.562 99.7771 143.915C99.8141 143.672 99.9851 143.417 100 143.174C100.016 142.939 99.8521 142.681 99.8521 142.437C99.8611 141.374 100.173 140.222 100.295 139.112C100.424 137.953 100.575 136.764 100.445 135.564C99.8091 135.227 98.4551 134.945 97.7111 135.194ZM101.848 136.081C101.752 136.081 101.785 136.21 101.702 136.229C101.79 138.28 102.077 140.371 101.777 142.214C101.721 142.548 101.5 142.782 101.483 143.103C101.462 143.394 101.629 143.688 101.628 143.991C101.624 144.41 101.378 144.803 101.332 145.247C101.246 146.103 101.316 147.027 101.259 147.907C101.236 148.253 101.057 148.588 101.039 148.942C100.987 149.837 101.232 150.735 100.814 151.601C101.368 152.375 100.559 153.248 100.522 153.893C100.506 154.147 100.743 154.445 100.743 154.706C100.743 155.116 100.406 155.564 100.371 155.964C100.317 156.626 100.471 157.296 100.371 157.956C100.146 159.432 99.7321 160.981 99.7781 162.316C100.571 162.431 100.867 161.546 101.11 161.059C102.01 159.285 102.932 157.497 103.55 155.592C103.819 154.572 103.801 153.529 103.99 152.488C104.063 152.105 104.377 151.782 104.436 151.38C104.492 151.014 104.373 150.571 104.436 150.197C104.503 149.791 104.762 149.473 104.806 149.088C105.118 146.346 105.562 143.335 105.543 140.59C105.538 139.383 105.01 138.03 105.619 137.19C105.444 136.924 105.435 136.488 105.249 136.23C104.158 136.136 103.197 135.917 102.074 135.858C101.963 135.9 101.892 135.973 101.848 136.081ZM105.914 137.116C106.77 137.484 106.857 138.347 106.949 139.481C107.041 140.674 106.817 142.048 106.728 143.322C106.617 144.9 106.661 146.468 106.434 147.758C106.37 148.099 106.176 148.339 106.137 148.645C105.989 149.786 106.058 151.229 105.841 152.267C105.462 153.539 104.9 154.628 104.731 156.108C104.419 156.445 104.503 156.891 104.363 157.292C103.931 158.514 103.023 159.57 102.885 160.766C103.942 160.449 104.392 159.211 104.954 158.18C105.535 157.112 105.918 155.84 106.653 155.001C107.357 153.244 107.858 151.406 108.425 149.386C108.742 148.267 108.935 147.159 109.018 145.986C109.235 142.942 108.415 139.817 109.091 136.822C108.021 136.983 106.38 135.808 105.914 137.116ZM73.9881 156.849C74.0801 155.885 74.4781 154.445 74.6521 153.597C75.2791 150.516 75.5551 146.866 76.0591 143.693C76.1551 143.077 76.1751 142.427 76.2791 141.848C76.4831 140.712 77.0351 139.169 76.8711 138.448C76.6831 137.618 75.5031 137.033 74.8731 136.526C74.7891 136.562 74.7081 136.605 74.6521 136.675C74.1651 137.891 74.0441 139.808 73.6921 141.33C73.4431 142.396 73.4841 143.347 73.3221 144.507C73.2601 144.942 72.9991 145.352 72.9541 145.763C72.8441 146.723 73.0041 147.739 72.7311 148.646C72.6371 148.962 72.3331 149.226 72.2871 149.533C72.2331 149.886 72.3911 150.292 72.3621 150.64C72.2621 151.848 71.6661 153.039 71.4731 154.261C71.4111 154.662 71.4771 155.1 71.4021 155.518C71.3501 155.805 71.1961 156.055 71.1771 156.332C71.1631 156.615 71.2811 156.948 71.2521 157.219C71.1691 158.133 70.3351 159.013 70.9581 160.027C71.4211 160.431 72.4371 160.575 73.2501 160.397C73.9821 159.264 73.8351 158.419 73.9881 156.849ZM77.3131 156.775C77.6441 155.546 78.3741 154.036 78.8681 152.341C79.6361 149.675 80.0981 147.686 80.4901 144.799C80.6151 143.885 81.0191 142.652 80.8621 141.992C80.7461 141.528 79.1731 140.273 78.7181 140.145C78.6241 140.177 78.5661 140.239 78.5681 140.366C78.2531 141.853 78.0621 143.558 77.9061 144.875C77.8021 145.735 77.5851 146.432 77.5351 147.019C77.5061 147.365 77.6441 147.708 77.6101 148.055C77.5681 148.468 77.3041 148.878 77.2381 149.309C77.0971 150.26 77.0921 151.147 76.8701 152.045C76.6661 152.859 76.3701 153.66 76.2021 154.482C76.0551 155.225 76.1291 155.979 75.9831 156.701C75.9121 157.041 75.6111 157.338 75.5391 157.661C75.3791 158.392 75.4081 159.11 75.3181 159.805C76.8331 159.762 76.9361 158.182 77.3131 156.775ZM80.9341 153.964C81.3041 153.35 81.9021 152.831 82.2641 152.192C83.0931 150.728 83.6961 148.856 83.8901 147.241C83.9311 146.916 83.8441 146.525 83.8901 146.133C83.9501 145.612 84.1981 145.21 84.1111 144.801C83.9921 144.23 82.2351 142.839 81.8961 143.473C81.7021 144.647 81.6441 145.863 81.5241 146.799C81.3911 147.847 81.3591 148.431 81.1531 149.237C80.6761 151.134 80.2581 152.562 79.6771 154.115C79.4671 154.68 79.3441 155.242 79.0861 155.74C78.8341 156.223 78.3261 156.691 78.4951 157.291C79.7351 157.052 80.1391 155.29 80.9341 153.964Z" fill="#E7C582"/>
<path fill-rule="evenodd" clip-rule="evenodd" d="M5.91806 113.539C5.62406 114.515 5.39306 115.606 5.55206 116.718C5.59406 117.015 5.81406 117.245 5.84906 117.53C5.88506 117.871 5.74506 118.244 5.77306 118.566C5.80006 118.916 5.98006 119.33 6.07006 119.747C6.16006 120.186 6.18106 120.727 6.28906 121.006C6.40806 121.308 6.82406 121.701 7.03006 122.037C7.45106 122.733 7.96906 123.912 8.50806 124.479C8.88906 124.88 9.55106 125.126 10.0611 125.513C10.5421 125.879 11.0771 126.571 11.4641 126.695C12.7751 127.12 15.2991 126.483 16.1191 125.956C16.8171 125.51 17.8561 124.161 18.2631 123.445C18.6371 122.785 18.4901 122.369 18.5591 121.668C18.5961 121.312 18.8761 120.987 18.9311 120.635C19.2981 118.12 17.0301 117.575 15.6751 116.719C15.3291 116.498 15.0581 116.078 14.7171 115.905C13.9261 115.503 13.0191 115.218 12.0561 114.869C11.0861 114.519 10.0791 113.92 9.39406 113.761C8.27806 113.507 7.25406 113.626 6.14406 113.392C6.09806 113.395 6.05606 113.403 6.07106 113.467C6.01206 113.484 5.92206 113.468 5.91806 113.539ZM19.6661 126.028C19.0581 126.698 17.9091 126.823 17.9671 127.656C18.8141 127.695 19.5221 127.031 20.1111 126.548C20.7271 126.042 21.5411 125.536 21.8121 124.774C20.6971 123.648 20.2331 125.407 19.6661 126.028ZM34.3751 93.142C34.3661 92.395 34.7491 91.67 35.0391 90.927C35.2581 90.359 35.7261 89.497 35.7051 89.005C35.6711 88.208 34.6291 87.348 33.6361 87.377C32.9361 87.4 31.9291 87.891 30.9021 87.97C29.2681 88.093 27.9751 88.253 26.6901 88.266C26.4431 89.03 26.4421 90.04 25.5781 90.186C25.0321 89.922 24.8141 89.326 24.4741 88.856C23.9351 88.944 23.5701 89.379 23.0671 89.595C22.2881 89.932 21.4471 90.074 20.8521 90.63C20.5551 91.619 20.1401 92.258 19.4471 92.847C18.5461 93.613 17.1241 93.572 16.3431 94.25C16.0411 94.514 15.9981 94.97 15.7501 95.285C15.5541 95.537 15.1361 95.659 14.8651 95.951C14.2801 96.575 14.0181 97.399 13.4621 97.799C12.6271 98.394 11.8441 98.686 11.7591 99.795C10.6991 100.209 10.3551 100.983 9.83906 101.939C9.66406 102.263 9.32906 102.543 9.25106 102.824C9.17306 103.082 9.26806 103.434 9.17506 103.711C8.93506 104.423 8.14006 104.668 7.69706 105.264C7.30506 105.787 7.29306 106.468 7.03106 107.111C6.66906 107.987 5.90506 108.843 6.14406 109.919C6.65006 110.425 7.68006 110.404 8.50906 110.587C10.0931 111.639 12.7541 111.61 14.0511 112.949C15.8251 113.269 17.1281 114.062 18.1171 115.166C19.0061 115.434 19.5411 116.055 20.3321 116.424C20.6811 116.836 20.8841 117.4 21.5891 117.458C22.2991 116.642 22.4261 115.2 22.9211 113.909C23.0451 113.586 23.3311 113.295 23.4371 112.949C23.5541 112.566 23.5041 112.054 23.5871 111.545C23.6701 111.027 23.9101 110.59 23.8831 110.215C23.8411 109.705 23.4981 109.404 23.5871 108.958C23.7561 108.086 25.3401 107.317 25.9501 108.221C26.0961 108.434 26.1731 109.054 26.1731 109.401C26.1671 110.844 26.0151 112.697 25.8011 114.279C25.5411 116.225 24.6771 117.675 24.1021 119.009C24.6701 119.309 24.8011 120.527 25.4341 120.562C25.7881 120.58 26.3751 119.687 26.7641 119.157C27.7241 117.855 28.0521 117.043 28.9791 115.905C29.7761 114.933 30.2561 113.892 31.2001 113.392C32.4971 112.703 32.5871 113.63 33.4881 114.205C34.2301 114.677 35.1121 114.825 35.8551 115.314C36.5511 115.772 37.3511 116.214 37.9991 116.718C38.3651 117.003 38.5481 117.451 38.8861 117.75C39.4131 118.225 40.0721 118.352 40.5831 118.936C40.7351 119.132 40.5961 119.615 40.7331 119.823C41.8741 120.169 42.4451 120.706 43.0981 121.668C43.6041 122.422 43.8601 123.162 44.2781 123.887C44.5361 124.327 44.9901 124.572 45.2381 124.997C45.6151 125.628 46.0791 126.348 46.2731 126.917C46.3741 127.204 46.3121 127.515 46.4231 127.729C46.5521 127.979 46.9751 128.106 47.1621 128.395C47.2771 128.572 47.1141 128.693 47.2331 128.988C47.4261 129.447 48.4031 130.194 48.5651 130.169C48.8691 130.117 49.0431 129.392 49.3061 129.059C49.6041 128.682 50.0781 128.472 50.4141 128.099C50.9101 127.545 51.2571 126.722 51.7441 126.029C52.2131 125.361 52.6951 124.694 53.1471 124.035C54.0641 122.698 55.2651 121.599 56.3251 120.34C56.8391 119.728 57.2931 118.954 57.8031 118.267C58.3151 117.582 58.8641 116.853 59.2811 116.201C59.6931 115.56 60.1051 115.085 60.4611 114.502C60.7941 113.961 60.9611 113.361 61.2771 112.949C61.5811 112.557 62.0811 112.308 62.3851 111.914C62.5831 111.658 62.6411 111.288 62.8301 111.027C63.1591 110.567 63.6881 110.284 64.0111 109.845C64.3711 109.352 64.6401 108.492 65.0461 107.701C65.4291 106.956 65.9871 106.298 66.2301 105.705C66.3781 105.337 66.3481 104.976 66.4501 104.671C66.6351 104.13 67.0131 103.724 66.9681 103.338C66.8871 102.626 66.3181 102.545 65.2681 102.676C64.6541 102.412 64.2981 101.548 63.4211 101.786C62.9971 102.56 64.1421 102.949 64.2331 103.636C64.2831 104.015 64.2181 104.721 63.5691 104.746C63.1831 104.636 63.2671 104.059 63.1271 103.709C62.4611 102.673 61.5261 101.91 61.2781 100.457C59.9651 99.995 59.6381 98.16 58.0261 98.242C57.8391 99.753 57.1371 100.749 57.3621 102.676C58.3031 104.013 60.2581 104.386 60.7581 105.999C61.0601 106.967 61.0701 108.183 60.7581 109.105C60.6391 109.468 60.2851 109.746 60.0961 110.138C59.8131 110.718 59.4481 111.529 59.2821 112.136C59.1451 112.646 59.4381 113.296 58.6921 113.466C57.2021 111.312 59.6521 108.88 59.4311 106.888C59.3411 106.063 58.5881 105.61 57.8781 105.187C57.1891 104.777 56.3311 104.325 56.0301 103.636C55.9451 103.438 56.0211 103.158 55.9551 102.897C55.8711 102.547 55.6281 102.22 55.5861 101.937C55.4781 101.198 55.6671 100.357 55.5861 99.349C56.0301 98.691 56.3771 97.506 55.9551 96.765C55.4991 95.961 53.9021 95.743 53.0741 95.21C52.4331 94.8 51.9891 94.228 51.3751 94.174C50.9831 94.628 51.2811 95.04 51.2271 95.579C51.1691 96.161 50.7941 96.591 50.6361 97.132C50.4051 97.923 50.3091 99.012 50.8591 99.793C51.4521 100.639 52.8551 100.832 53.3711 101.641C53.6901 102.142 54.1291 103.474 54.1831 103.931C54.5931 107.489 51.2491 109.625 51.3751 112.873C51.3951 113.347 51.8301 113.564 51.3751 114.057C50.9111 114.124 51.1881 113.453 50.9311 113.318C50.2261 112.452 50.1421 110.601 50.4151 109.329C50.8591 107.243 53.0611 105.579 52.2621 102.823C51.2831 102.342 50.4821 102.032 49.8241 101.199C49.6621 100.995 49.6181 100.702 49.4521 100.458C49.2621 100.177 49.0191 100.079 48.9341 99.869C48.8511 99.658 48.9291 99.375 48.8611 99.054C48.7801 98.679 48.5681 98.355 48.5641 98.02C48.5641 97.745 48.7181 97.395 48.7871 96.987C48.8681 96.488 48.8141 95.775 48.9331 95.434C49.0871 95.002 49.4451 94.805 49.5261 94.4C49.6531 93.761 49.0741 92.816 48.6371 92.405C48.1441 91.935 47.3301 91.617 46.6431 91.146C45.9541 90.678 45.1621 90.226 44.3511 90.334C44.3301 91.306 43.9661 91.877 43.7611 92.478C43.6761 92.721 43.7051 93.055 43.6131 93.365C43.4711 93.844 43.2171 94.146 43.2411 94.471C43.3051 95.191 44.3751 95.968 45.0181 96.542C45.7801 97.223 46.6931 97.65 47.0861 98.389C47.5001 99.167 47.3191 99.84 47.2321 100.903C47.2021 101.322 47.3091 101.747 47.2321 102.085C46.9651 103.314 45.6681 104.084 45.0921 105.264C44.8381 105.781 44.9501 106.341 44.4971 106.889C44.5531 107.73 44.2811 108.246 43.4651 108.221C43.1361 107.951 43.3321 107.491 43.3161 107.035C43.2951 106.392 43.0561 105.644 43.0961 105.187C43.1601 104.429 43.7421 103.594 44.1321 102.897C44.7401 101.794 45.7211 101.188 45.5321 99.497C44.9451 98.997 44.5201 98.506 43.9811 98.092C43.4651 97.692 42.7441 97.405 42.2821 96.837C41.8701 96.331 41.8891 95.721 41.6911 94.917C41.5911 94.509 41.2331 94.099 41.2471 93.658C41.2591 93.325 41.6361 92.996 41.6911 92.552C41.7221 92.288 41.5681 92.035 41.6161 91.812C41.7041 91.398 42.1721 91.127 42.2091 90.704C42.2431 90.271 41.7971 89.382 41.6161 89.226C41.2211 88.889 40.5461 88.897 40.0651 88.708C39.5551 88.51 39.1991 88.112 38.6601 88.191C38.3541 88.837 38.5931 89.472 38.4391 89.892C38.2851 90.312 37.5311 90.523 37.1801 91.147C37.0531 91.38 37.0461 91.867 36.8841 92.33C36.7281 92.79 36.4561 93.033 36.4431 93.366C36.4201 94.063 37.6151 94.619 37.9961 94.919C38.2371 95.106 38.4481 95.389 38.7331 95.581C39.0721 95.808 39.4801 95.902 39.6931 96.099C40.7011 97.025 40.3851 98.912 39.9891 100.389C39.7471 101.289 39.2861 101.64 39.2481 102.604C39.2151 103.578 38.4801 104.276 37.7721 103.564C37.4381 102.896 37.8991 102.32 37.9201 101.718C37.9301 101.408 37.7431 101.072 37.7721 100.758C37.8661 99.784 38.7511 98.903 38.3651 97.727C36.5651 96.463 34.4061 95.851 34.3751 93.142ZM21.2931 102.602C22.0721 103.148 23.7181 102.644 24.1761 102.084C24.3591 101.861 24.8131 100.514 24.8421 100.312C25.0251 98.909 23.9611 97.453 22.7721 97.799C21.4301 98.189 19.6541 101.458 21.2931 102.602ZM17.3781 98.61C17.0101 98.46 15.9461 98.494 15.3801 98.758C15.0101 98.931 14.4851 99.769 14.2721 100.457C14.1681 100.796 14.2161 101.144 14.1261 101.491C14.0551 101.761 13.7311 102.126 13.7551 102.453C13.7831 102.807 14.1531 103.248 14.4971 103.339C16.1871 103.802 17.5531 102.19 18.3381 101.642C18.3161 100.364 18.2721 98.978 17.3781 98.61Z" fill="#E7C582"/>
<path fill-rule="evenodd" clip-rule="evenodd" d="M101.923 106.444C101.871 106.076 101.558 105.755 101.483 105.409C101.213 104.202 101.531 102.93 101.408 101.716C101.181 99.53 99.994 97.969 99.559 96.247C98.37 95.279 97.2 95.987 96.011 96.541C95.464 96.796 94.966 97.258 94.386 97.428C93.351 97.732 91.675 97.807 90.32 97.724C89.183 97.651 87.936 97.659 87.07 97.501C86.593 97.414 86.26 97.083 85.816 97.058C85.465 97.041 84.477 97.247 84.263 97.574C83.961 98.038 84.198 98.967 84.038 99.57C83.914 100.051 83.356 100.474 83.079 101.049C82.579 102.076 82.337 103.432 81.898 104.228C81.632 104.705 81.03 104.944 80.863 105.408C80.757 105.704 80.836 106.337 80.713 106.738C80.458 107.591 79.501 108.327 79.016 109.253C77.865 111.451 76.721 113.954 75.689 116.127C75.388 116.756 75.302 117.451 75.025 118.045C74.846 118.426 74.444 118.717 74.213 119.155C73.839 119.863 73.366 120.822 73.027 121.666C72.833 122.151 72.8 122.69 72.584 123.146C72.199 123.964 71.127 125.19 71.178 125.88C71.22 126.423 72.138 127.137 72.659 127.58C73.279 128.107 73.748 128.842 74.358 129.058C75.792 129.564 77.753 129.156 79.455 129.281C81.624 129.439 84.457 130.255 86.701 130.463C88.219 130.604 88.918 130.769 90.099 131.054C92.389 131.606 94.996 131.723 97.636 132.016C99.436 132.214 101.264 132.632 102.959 133.049C104.67 133.47 106.389 134.216 108.13 133.937C108.24 132.507 107.472 131.289 107.17 129.873C106.843 128.306 106.706 126.669 106.435 124.997C106.289 124.116 105.984 123.261 105.842 122.335C105.54 120.405 105.357 118.399 104.955 116.569C104.752 115.65 104.61 114.658 104.364 113.833C104.256 113.479 104.011 113.221 103.921 112.873C103.815 112.49 103.879 112.036 103.769 111.618C103.567 110.82 103.066 109.786 103.105 108.81C102.911 108.412 102.033 108.699 101.849 108.293C101.677 107.713 102.018 107.089 101.923 106.444ZM89.359 100.458C89.345 100.651 89.505 100.976 89.58 101.272C89.855 102.365 90.394 103.544 91.281 103.637C93.842 103.903 95.155 97.751 90.984 98.759C90.246 98.939 89.397 99.842 89.359 100.458ZM88.917 107.186C87.903 108.234 88.986 110.772 90.025 111.102C90.482 111.245 91.048 111.235 91.426 111.102C91.951 110.917 93.318 109.373 93.35 108.812C93.425 107.527 91.901 106.351 90.54 106.596C89.996 106.69 89.197 106.891 88.917 107.186ZM90.175 115.166C88.649 114.747 86.72 115.695 86.775 117.31C86.796 117.995 87.821 119.4 88.399 119.6C89.819 120.1 92.269 119.454 92.242 118.198C92.224 117.467 91.344 117.278 91.578 116.129C91.061 115.875 90.77 115.329 90.175 115.166ZM88.47 127.805C90.171 127.991 91.537 124.202 90.246 123.296C89.767 122.961 87.464 123.078 86.85 123.296C86.198 123.523 85.626 124.439 85.59 124.921C85.528 125.799 86.119 126.207 86.55 127.063C87.862 126.937 87.639 127.71 88.47 127.805Z" fill="#E98952"/>
<path fill-rule="evenodd" clip-rule="evenodd" d="M114.414 12.364C113.483 13.428 112.63 14.572 111.752 15.689C112.181 16.247 113.01 16.403 113.6 16.799C113.63 17.147 113.348 17.186 113.378 17.536C113.646 17.828 113.72 18.265 114.191 18.203C115.235 18.064 114.322 15.38 114.485 13.989C114.583 13.198 115.034 12.798 114.635 12.363C114.56 12.364 114.485 12.364 114.414 12.364ZM104.363 23.892C103.67 24.065 102.405 23.338 102.146 23.007C101.844 22.624 101.929 22.078 101.701 21.529C101.617 21.325 101.384 21.123 101.257 20.861C101.086 20.509 101.039 20.074 100.888 19.828C100.726 19.56 100.414 19.36 100.224 19.089C99.831 18.54 99.464 17.906 99.042 17.317C98.126 16.036 97.449 15.062 96.307 14.288C96.232 14.288 96.158 14.288 96.082 14.288C95.487 15.101 96.015 16.199 95.861 17.461C95.829 17.763 95.652 18.008 95.642 18.277C95.626 18.641 95.819 19.005 95.788 19.311C95.749 19.69 95.472 20.06 95.418 20.421C95.387 20.633 95.508 20.859 95.493 21.085C95.466 21.447 95.168 21.977 95.051 22.49C94.755 23.777 94.574 24.626 94.31 25.667C94.165 26.242 93.965 26.961 93.794 27.218C93.403 27.795 92.539 27.863 92.612 28.698C93.972 28.553 94.686 28.094 95.86 28.032C97.834 27.93 99.274 28.896 99.926 30.103C100.25 30.697 100.015 31.359 100.294 32.169C100.417 32.523 100.865 32.636 100.887 33.129C100.906 33.506 100.455 33.76 100.592 34.164C100.86 34.959 103.242 34.58 104.139 34.684C105.174 34.801 105.927 35.207 106.652 35.423C108.297 35.912 110.293 36.318 111.9 37.049C112.745 37.433 113.393 38.111 114.118 38.379C115.069 38.735 115.977 38.772 116.705 39.266C117.145 39.568 117.23 39.915 117.59 40.079C117.824 40.188 118.079 40.109 118.404 40.229C119.01 40.45 119.318 41.031 120.324 40.893C120.524 40.966 120.415 41.341 120.696 41.335C121.136 40.594 121.804 40.081 121.731 38.824C120.977 38.766 120.958 39.813 120.324 39.636C120.409 38.615 120.953 38.049 121.95 37.937C122.11 37.556 122.466 37.367 122.394 36.754C122.35 36.45 121.688 36.769 121.655 36.459C121.912 35.512 122.992 35.384 122.909 34.094C123.795 33.072 123.883 31.433 124.46 29.955C124.658 29.453 125.103 29.068 125.199 28.625C125.261 28.346 125.143 28.03 125.199 27.738C125.323 27.097 125.965 26.59 126.161 25.964C126.263 25.645 126.184 25.231 126.309 24.854C126.569 24.062 127.589 22.693 126.749 21.825C125.646 21.644 124.783 22.36 123.869 22.712C123.232 22.96 122.497 23.114 121.798 23.378C120.924 23.711 120.243 24.356 119.214 24.338C117.925 25.067 116.824 25.987 115.15 26.334C113.861 25.326 115.383 22.731 114.632 21.309C114.309 20.7 113.554 20.755 113.747 19.903C112.947 19.999 112.446 19.345 111.601 19.463C110.96 19.051 111.278 18.287 111.378 17.539C110.037 16.877 109.398 18.091 108.645 18.943C108.171 19.48 107.364 20.217 107.017 20.717C106.426 21.573 106.28 22.595 105.099 22.713C104.823 23.194 104.889 23.762 104.363 23.892Z" fill="#E98952"/>
<path fill-rule="evenodd" clip-rule="evenodd" d="M124.378 55.607C124.763 56.354 126.222 57.025 126.222 57.025C126.222 57.025 126.232 57.02 126.245 57.012C126.412 57.255 126.649 57.48 126.976 57.666C127.454 57.653 127.882 57.404 128.233 57.666C128.652 59.586 127.302 61.882 125.058 60.92C124.809 60.723 124.852 60.234 124.686 59.959C124.453 59.609 123.585 59.474 123.504 58.849C123.462 58.545 123.838 58.175 123.798 57.815C123.733 57.261 123.125 57.159 123.207 56.631C123.264 56.275 124.049 55.894 124.378 55.607ZM57.95 56.929C57.557 57.745 57.23 58.494 56.695 58.85C56.285 59.123 54.829 59.641 54.401 59.146C53.813 58.457 54.848 57.643 54.913 56.827C55.606 56.319 57.359 54.878 57.509 53.221C57.854 53.123 58.183 53.009 58.467 52.865C58.966 52.613 59.293 52.007 59.87 52.053C59.832 53.666 58.597 55.59 57.95 56.929ZM59.871 49.021C59.205 49.592 58.705 50.262 58.023 50.574C56.824 51.119 54.525 51.39 53.22 50.649C52.889 50.459 52.673 50.025 52.333 49.76C51.987 49.496 51.583 49.408 51.298 49.021C51.354 47.576 50.07 46.641 50.634 44.957C50.884 44.207 52.795 42.96 53.442 42.815C54.729 42.524 55.303 43.504 54.774 44.512C53.134 43.888 52.449 45.495 53.296 46.508C53.772 47.081 55.811 47.295 56.768 46.806C57.675 46.342 57.513 45.388 57.73 44.366C57.839 43.85 58.08 43.533 58.098 43.11C58.109 42.848 58.086 42.613 58.048 42.39C58.094 42.365 58.142 42.342 58.196 42.306C58.387 42.167 58.639 42.009 58.885 41.848C59.359 42.204 60.019 42.381 60.614 42.742C61.002 42.976 61.401 43.498 61.795 43.629C62.794 43.96 63.81 43.621 64.897 43.851C63.664 45.514 61.541 47.59 59.871 49.021ZM71.992 37.788C71.415 38.277 70.689 38.65 70.144 39.117C69.363 39.79 68.899 40.989 67.556 41.112C66.117 41.249 64.554 41.537 63.196 40.967C62.441 40.648 62.018 39.959 61.202 39.561C60.792 38.393 60.148 37.382 60.094 36.161C60.062 35.499 60.654 33.421 61.13 32.763C61.407 32.378 63.406 30.631 64.01 30.767C64.364 30.848 64.713 31.161 65.192 31.283C65.937 31.476 66.772 31.377 67.26 31.729C67.762 32.085 68.434 33.369 67.632 34.02C66.803 34.131 66.731 33.529 66.081 33.577C65.66 33.608 65.072 34.158 65.045 34.685C65.018 35.176 65.384 35.289 65.709 35.72C65.928 36.009 65.977 36.421 66.229 36.68C67.417 37.908 70.118 37.821 71.548 36.828C71.99 36.52 73.164 35.523 73.173 34.979C73.179 34.602 72.723 34.43 72.657 33.943C72.582 33.402 72.771 32.398 73.321 32.319C73.85 32.75 73.719 33.42 73.987 33.943C74.289 34.544 75.047 34.927 74.947 35.793C73.791 36.3 73.031 36.903 71.992 37.788ZM91.87 28.996C91.726 29.606 90.544 30.051 90.175 30.547C89.921 30.878 89.79 31.466 89.505 31.948C88.872 33.037 88.225 34.122 88.251 35.644C86.994 35.935 86.042 35.956 84.777 36.089C83.777 36.193 82.865 36.647 82.043 36.68C80.573 36.732 80.405 35.943 79.603 35.348C79.149 35.011 78.603 34.955 78.201 34.684C77.254 34.045 76.742 32.321 76.575 31.062C76.54 30.812 76.354 30.556 76.354 30.323C76.358 29.853 76.809 28.17 76.945 27.737C77.197 26.956 78.883 25.278 79.456 24.927C80.062 24.56 81.329 23.886 82.341 24.042C83.105 24.158 84.256 25.422 84.263 26.405C84.265 26.636 84.063 26.983 84.038 27.218C83.941 28.251 84.536 29.512 83.52 29.658C82.818 29.762 81.783 28.844 81.602 28.253C81.436 27.732 81.663 27.189 81.454 26.777C79.976 25.64 79.176 26.929 78.792 28.178C78.371 29.554 78.659 29.873 79.234 30.62C79.531 30.999 79.689 31.434 79.901 31.653C80.728 32.502 82.603 33.085 84.113 32.54C84.555 32.38 84.8 31.977 85.223 31.727C86.451 30.992 88.227 30.448 88.621 29.435C88.752 28.86 88.934 28.315 89.075 27.78C89.254 27.913 89.437 28.044 89.572 28.125C89.961 28.358 90.426 28.125 91.511 28.046C91.6 28.04 91.665 28.024 91.733 28.012C91.847 28.343 91.949 28.672 91.87 28.996ZM95.272 32.541C94.693 32.516 94.085 32.16 93.646 32.245C92.759 32.418 92.68 33.571 92.02 34.019C92.082 35.06 91.728 35.868 91.797 36.68C91.843 37.184 92.057 38.202 92.388 38.6C92.679 38.943 93.277 39.054 93.72 39.339C94.189 39.643 94.463 40.08 94.83 40.228C95.427 40.463 96.26 40.501 96.824 40.52C99.056 40.603 101.18 39.395 102.443 38.303C103.024 38.047 103.726 37.912 103.845 37.195C103.431 36.785 102.7 36.793 101.998 36.679C101.371 36.575 100.447 36.321 99.777 36.457C99.235 36.569 98.847 37.281 98.376 37.342C98.068 37.383 97.71 37.1 97.266 37.119C96.779 37.146 96.415 37.464 96.01 37.418C95.131 37.319 94.045 36.652 94.016 35.864C93.987 35.073 94.716 34.194 95.272 33.942C95.88 33.667 97.11 33.844 96.823 32.688C96.404 32.275 95.861 32.567 95.272 32.541ZM118.551 49.021C117.202 49.269 116.117 48.368 116.113 47.47C116.111 46.754 117.71 44.67 118.108 44.291C118.472 43.944 119.178 43.785 119.144 43.331C119.096 42.764 117.098 42.043 116.706 41.855C115.426 41.237 114.191 40.174 112.566 39.93C112.1 39.584 111.744 39.126 110.94 39.117C110.696 39.561 110.263 40.72 110.274 41.335C110.28 41.737 110.611 42.201 110.644 42.667C110.667 42.965 110.534 43.318 110.569 43.552C110.68 44.264 111.444 44.69 111.752 45.4C112.06 46.11 112.166 46.487 112.491 47.101C113.107 48.271 113.857 49.294 114.484 50.278C115.242 50.365 115.452 51.223 115.964 51.831C116.241 52.158 116.799 52.346 117.221 52.645C117.968 53.166 118.405 53.905 119.069 54.049C120.229 54.294 121.357 53.859 122.026 53.236C123.175 50.813 122.894 46.703 120.179 46.437C120.031 47.819 119.663 48.818 118.551 49.021Z" fill="#E7C582"/>
<path fill-rule="evenodd" clip-rule="evenodd" d="M106.434 37.713C105.96 38.296 105.727 38.96 105.248 39.487C104.287 40.548 103.428 41.591 102.073 42.224C99.729 43.307 96.429 44.144 93.795 42.888C93.019 42.517 92.706 41.751 91.797 41.335C91.266 41.093 90.544 41.195 90.098 40.744C89.9 40.54 89.848 40.041 89.655 39.709C89.34 39.165 88.63 38.169 88.102 38.156C87.571 38.144 87.013 38.856 86.624 39.045C84.981 39.836 82.814 39.734 81.153 40.375C79.852 40.877 78.609 42.019 77.237 42.592C76.74 42.801 76.198 42.834 75.759 43.036C74.845 43.453 74.155 44.333 73.321 44.884C73.055 45.059 72.746 45.09 72.507 45.251C71.239 46.13 70.394 47.554 69.181 48.503C69.112 48.901 68.918 49.177 68.81 49.539C67.628 50.299 66.922 51.321 66.299 52.645C66.093 53.083 65.714 53.507 65.562 53.9C65.412 54.284 65.433 54.752 65.265 55.156C65.152 55.441 64.94 55.674 64.821 55.969C64.144 57.686 63.419 59.674 63.343 61.585C63.33 61.954 63.435 62.33 63.419 62.693C63.394 63.191 63.212 63.713 63.196 64.246C63.147 65.826 63.396 67.767 63.492 69.492C63.513 69.887 63.421 70.308 63.492 70.676C63.575 71.097 63.944 71.467 64.01 71.933C64.17 73.041 64.094 74.181 64.452 75.11C64.695 75.737 65.424 76.362 65.488 76.959C65.523 77.313 65.286 77.537 65.342 77.993C65.459 79.013 66.554 79.866 66.891 80.581C67.018 80.839 66.976 81.189 67.116 81.466C67.253 81.743 67.62 82.007 67.851 82.354C68.376 83.123 68.758 83.753 69.258 84.424C70.318 85.85 71.294 86.989 72.658 87.97C72.989 88.209 73.272 88.616 73.543 88.784C73.86 88.978 74.33 88.982 74.651 89.153C75.683 89.688 76.512 90.565 77.461 91.071C77.861 91.287 78.479 91.263 79.014 91.443C79.276 91.531 79.586 91.756 79.9 91.887C81.572 92.576 83.627 93.784 85.072 93.956C85.616 94.019 85.919 93.885 86.255 93.956C86.775 94.064 87.066 94.433 87.51 94.547C88.335 94.756 89.727 94.801 90.616 94.843C91.297 94.873 92.017 94.86 92.684 94.843C94.868 94.781 96.589 93.55 98.082 92.847C98.784 92.514 99.519 92.267 100.295 92.035C101.896 91.55 103.337 91.086 104.509 90.259C105.328 89.503 106.171 88.791 107.168 88.191C107.504 87.991 107.945 87.906 108.278 87.673C108.934 87.217 109.4 86.195 110.127 85.605C110.435 85.351 110.845 85.222 111.159 84.941C111.547 84.595 111.957 83.989 112.415 83.462C112.852 82.963 113.436 82.545 113.824 82.061C114.053 81.761 114.172 81.347 114.413 81.024C114.657 80.689 115.033 80.432 115.225 80.137C115.454 79.788 115.529 79.312 115.743 78.954C116.032 78.473 116.42 78.117 116.63 77.699C116.842 77.274 117.057 76.741 117.296 76.294C117.539 75.836 117.947 75.428 118.108 75.035C118.256 74.681 118.241 74.131 118.405 73.635C118.809 72.396 119.404 70.677 119.436 69.347C119.446 68.945 119.309 68.577 119.363 68.163C119.419 67.759 119.796 67.332 119.807 66.833C119.817 66.45 119.507 66.061 119.511 65.649C119.516 65.209 119.894 64.762 119.882 64.321C119.857 63.544 118.858 62.618 119.586 61.585C119.144 61.005 118.705 60.192 119.069 59.218C118.887 58.872 118.508 58.748 118.256 58.408C118.06 58.148 118.048 57.81 117.812 57.596C117.535 57.34 117.062 57.298 116.778 57.076C116.574 56.918 116.513 56.682 116.334 56.486C115.223 55.27 113.738 54.529 112.491 53.532C112.447 53.255 112.283 53.099 112.197 52.866C111.281 52.618 111.115 51.883 110.719 51.165C110.565 50.888 110.261 50.689 110.128 50.426C109.553 49.303 109.433 48.159 109.018 46.807C108.884 46.368 108.56 45.951 108.425 45.473C108.321 45.094 108.323 44.675 108.204 44.292C107.979 43.574 107.505 42.985 107.39 42.372C107.084 40.725 107.509 39.139 107.169 37.642C106.809 37.676 106.522 37.6 106.434 37.713ZM80.565 47.985C78.956 48.928 76.591 50.429 77.017 53.306C77.277 55.051 79.187 56.981 80.862 55.599C81.72 54.889 83.627 52.397 83.743 51.163C83.907 49.429 82.115 47.688 80.787 47.984C80.732 47.999 80.615 47.958 80.565 47.985ZM95.642 57.004C96.131 56.691 97.49 55.482 97.711 55.08C97.795 54.926 97.753 54.605 97.861 54.341C98.04 53.885 98.432 53.656 98.377 53.306C98.289 52.761 97.657 52.842 97.49 52.419C97.344 52.059 97.507 51.633 97.414 51.313C97.197 50.549 96.415 49.667 95.713 49.539C94.509 49.319 92.625 50.774 92.388 51.831C92.311 52.183 92.442 52.645 92.388 53.085C92.301 53.834 91.924 54.47 92.167 55.302C92.873 55.61 92.882 56.609 93.056 57.448C93.937 57.624 94.947 57.445 95.642 57.004ZM73.618 62.177C74.743 61.658 76.666 61.742 78.126 61.217C78.479 61.086 78.765 60.773 79.086 60.697C79.428 60.617 79.836 60.696 80.192 60.624C81.156 60.43 82.253 60.093 83.592 60.182C84.872 60.265 87.598 61.036 87.508 59.443C87.473 58.754 86.571 58.644 85.588 58.407C85.14 58.299 84.761 58.064 84.405 58.037C81.478 57.802 78.83 58.638 76.201 59.145C75.763 59.23 75.306 59.168 74.947 59.291C73.908 59.651 72.834 60.817 72.066 61.51C71.631 61.903 71.129 62.195 70.885 62.47C70.008 63.449 70.225 64.307 69.699 65.574C70.099 66.473 70.95 66.998 71.031 68.012C71.958 68.264 72.403 69.158 73.098 69.49C73.425 69.648 73.881 69.594 74.21 69.714C74.656 69.878 74.96 70.145 75.316 70.232C78.433 70.977 82.695 69.608 84.703 68.604C85.14 68.387 85.627 68.209 86.033 68.014C86.689 67.698 87.153 67.006 87.73 66.684C88.698 66.151 90.318 65.807 90.097 64.542C89.472 64.051 88.629 64.768 87.88 65.058C87.437 65.231 86.923 65.296 86.548 65.502C86.09 65.754 85.705 66.256 85.145 66.535C83.125 67.543 79.886 68.471 77.015 68.382C75.452 68.334 74.727 67.732 73.838 67.125C72.791 66.417 72.34 65.763 72.137 64.245C72.544 63.472 72.831 62.541 73.618 62.177ZM105.542 63.728C105.956 63.741 106.345 63.453 106.801 63.507C107.319 63.569 107.613 63.975 108.055 63.952C108.646 63.915 109.144 63.353 109.165 62.843C109.228 61.338 107.301 61.858 105.913 61.364C105.159 61.094 104.996 60.614 104.362 60.476C104.071 60.415 103.042 60.357 102.884 60.401C102.415 60.543 102.422 61.269 101.997 61.585C101.497 61.956 100.931 61.587 100.741 62.177C100.929 62.749 101.609 62.497 101.701 63.062C101.763 63.451 101.206 64.034 101.109 64.246C100.678 65.199 100.397 66.511 100.149 67.719C99.739 69.726 99.021 70.386 98.007 71.783C97.455 72.545 96.868 73.386 96.233 74.075C94.922 75.499 92.246 76.658 90.469 77.254C89.09 77.712 86.948 77.493 85.739 77.327C85.235 77.258 84.65 77.337 84.186 77.254C83.888 77.2 83.59 77.007 83.299 76.957C82.764 76.859 82.227 76.936 81.823 76.809C81.532 76.716 81.24 76.472 80.933 76.365C80.552 76.232 80.108 76.277 79.75 76.144C78.863 75.815 77.952 74.55 76.942 74.445C74.906 74.229 75.137 76.793 76.942 76.662C77.261 77.106 77.344 77.545 77.755 77.77C78.067 77.939 78.457 77.853 78.79 77.991C79.108 78.124 79.246 78.443 79.529 78.584C80.859 79.238 82.698 78.878 84.261 79.026C84.536 79.053 84.867 79.217 85.146 79.247C85.567 79.293 85.979 79.197 86.33 79.247C86.663 79.295 86.966 79.497 87.29 79.543C89.28 79.824 90.308 79.151 91.722 78.508C92.507 78.154 93.34 78.011 93.941 77.769C94.534 77.532 95.057 77.001 95.642 76.661C96.65 76.07 97.58 75.661 98.302 74.962C98.892 74.388 99.231 73.601 99.778 72.893C100.153 72.409 100.736 72.094 101.038 71.634C101.179 71.419 101.215 71.05 101.408 70.749C101.656 70.351 102.091 70.032 102.293 69.639C102.686 68.881 102.561 68.097 102.811 67.276C102.949 66.818 103.469 66.468 103.624 66.019C103.926 65.134 103.705 63.993 104.584 63.431C105 63.397 105.075 63.713 105.542 63.728ZM101.257 77.548C100.019 78.052 99.267 79.695 97.564 80.134C96.35 80.446 94.071 80.311 94.166 81.687C94.231 82.729 95.834 82.388 96.749 82.13C98.664 81.592 99.756 80.85 100.889 79.616C101.283 79.187 102.95 77.427 101.408 77.547C101.365 77.552 101.296 77.533 101.257 77.548Z" fill="#FFFBDE"/>
</g>
<defs>
<clipPath id="clip0">
<path d="M0 0H142.059V189.665H0V0Z" fill="white"/>
</clipPath>
</defs>
</svg>
