<svg width="472" height="323" viewBox="0 0 472 323" fill="none" xmlns="http://www.w3.org/2000/svg">
<path fill-rule="evenodd" clip-rule="evenodd" d="M319.972 23.9722C319.596 25.6037 320.744 28.7429 319.364 29.3825C321.863 33.3237 323.806 37.8143 326.659 41.4056C328.108 42.3777 329.93 42.98 330.914 44.4114C331.455 45.8806 332.331 47.018 332.13 49.2206C334.305 52.1633 337.451 55.8958 336.385 60.6426C335.582 64.2224 332.381 64.8843 329.698 66.6541C330.934 72.5376 328.048 81.9222 329.698 87.0934C330.471 89.5142 332.325 89.4673 333.346 91.3014C337.62 94.3523 335.664 103.491 330.306 103.926C329.985 106.212 329.036 107.88 328.483 109.937C324.469 113.784 319.736 116.918 315.717 120.758C333.504 120.914 349.352 119.153 367.389 119.556C370.068 121.872 375.926 122.979 377.723 127.371C379.887 132.657 378.438 139.454 374.684 143.001C375.983 144.923 377.545 146.583 378.939 148.411C385.107 148.19 391.692 148.702 398.392 148.411C405.073 148.121 410.98 146.166 415.414 148.411C417.259 149.345 418.543 151.738 419.669 154.423C421.901 159.744 424.76 165.405 427.572 170.654C428.548 172.475 429.373 174.173 430.611 176.064C430.864 176.449 431.695 176.998 431.827 177.266C432.541 178.724 432.556 180.926 433.043 182.076C433.664 183.544 434.96 183.935 434.867 185.683C437.697 184.613 438.099 181.9 439.122 180.272C440.081 178.747 440.906 176.118 442.77 174.862C444.024 174.017 447.461 172.939 450.065 173.058C451.488 173.123 455.949 174.404 457.967 176.665C458.86 177.665 459.501 179.568 460.399 181.475C460.631 181.968 460.163 182.787 460.399 183.278C460.633 183.766 461.99 185.068 462.831 186.284C463.685 187.519 464.831 188.935 465.87 189.891C468.095 191.936 470.72 192.819 471.341 194.099C472.191 195.849 471.992 199.114 471.949 199.509C471.714 201.685 470.694 202.928 469.518 204.318C468.45 205.581 466.098 205.886 465.87 207.925C466.123 212.025 466.805 213.862 465.87 216.943C465.078 219.553 463.8 220.083 462.223 221.752C461.586 222.425 460.378 222.679 459.791 223.555C459.44 224.08 458.676 225.563 458.575 225.96C457.673 229.525 459.992 233.42 460.399 236.781C461.488 245.773 460.265 258.238 461.007 267.44C461.308 271.178 462.164 274.518 464.047 277.058C463.732 281.177 464.571 284.154 465.87 286.677C465.721 288.532 465.254 290.075 464.654 291.486C465.668 294.162 465.613 296.332 466.478 298.7C467.537 301.601 469.632 303.3 470.126 305.914C471.037 310.733 469.497 315.995 466.478 318.538C466.051 318.898 465.637 318.784 465.262 319.139C464.745 319.628 463.948 319.858 463.439 320.341C462.808 320.938 456.657 322.55 454.928 322.746C450.077 323.296 440.333 322.977 436.083 321.544C432.99 320.501 431.338 317.684 428.788 317.335C427.762 315.544 426.723 313.766 425.748 311.925C419.949 313.003 412.403 312.355 405.687 312.526C403.436 311.086 400.78 309.83 398.392 308.318C397.728 307.897 397.675 308.189 397.176 307.717C397.093 307.638 396.606 307.142 396.569 307.116C395.427 306.344 394.646 306.188 393.529 304.711C392.161 302.904 391.508 299.265 391.097 293.89C391.092 293.832 391.917 293.237 391.705 292.688C391.35 291.768 390.618 287.115 390.489 284.873C389.883 274.319 391.44 262.124 390.489 252.411C389.846 245.843 386.89 241.118 386.842 235.578C385.114 237.141 386.886 239.943 386.842 242.191C386.661 251.341 386.234 267.039 386.234 276.457C386.234 280.271 387.531 284.388 386.234 287.278C386.109 287.557 385.121 287.654 385.018 287.879C384.252 289.56 383.074 290.175 380.155 290.885C375.886 291.922 367.377 291.486 361.918 291.486C351.937 291.486 344.959 291.628 336.993 292.087C338.537 300.349 338.382 309.692 330.306 311.324C328.38 311.713 325.819 310.824 323.011 311.324C320.771 311.723 318.707 313.294 316.324 313.729C312.297 314.463 307.368 313.685 302.343 313.729C295.212 313.791 288.267 313.787 280.458 313.729C274.96 313.688 268.591 314.509 263.436 314.33C261.43 314.26 258.943 313.518 257.357 313.729C254.986 314.043 253.394 316.172 250.062 316.734C246.093 317.404 240.542 317.262 236.08 316.734C234.59 316.558 232.789 315.672 231.217 315.532C222.022 314.71 208.985 315.739 198.998 314.931C191.493 314.324 182.63 315.276 174.682 314.931C163.317 314.437 156.001 312.814 149.757 316.734C143.735 315.488 135.135 318.643 129.696 316.133C128.969 315.797 128.695 315.134 127.872 314.931C123.586 313.872 118.522 314.931 113.283 314.931C110.117 314.931 107.185 314.361 104.164 314.33C96.0204 314.245 87.2945 314.331 79.8476 313.729C75.4676 313.374 70.4749 313.124 65.8657 313.127C57.9872 313.133 50.1044 315.525 45.1968 310.723C39.8855 317.769 26.8938 319.696 15.4092 317.335C13.4377 316.93 10.7836 316.772 9.33009 316.133C8.97812 315.979 6.58477 313.927 5.68264 313.127C3.04309 310.786 0.782277 306.218 2.03518 300.503C2.50813 298.345 4.76591 296.907 5.68264 294.492C6.67231 291.885 6.13553 289.718 7.50637 287.278C7.23585 285.341 6.34161 284.021 6.29055 281.867C7.58965 279.344 8.42857 276.367 8.11427 272.249C9.10456 271.024 9.39149 269.104 10.5459 268.041C12.2657 255.273 10.5107 243.235 11.7617 232.573C12.3076 227.92 15.1599 223.688 12.3696 219.347C12.1587 219.02 12.0316 218.453 11.7617 218.145C11.1587 217.457 9.72888 216.8 8.72219 215.74C7.31609 214.262 6.11547 213.457 5.68264 211.532C4.82488 207.719 7.45348 204.595 5.68264 201.914C5.38902 200.201 3.37501 200.189 2.03518 199.509C2.07348 197.959 0.523916 197.379 0.21145 195.902C-0.82078 191.023 2.04126 186.426 6.29055 185.683C6.43584 183.62 9.37386 182.223 10.5459 180.272C12.5204 176.985 12.5034 172.736 15.4092 170.654C15.9782 170.246 16.1715 170.482 16.625 170.053C18.687 168.1 27.2184 168.232 30.6069 171.255C32.3139 172.777 32.6228 174.719 33.6465 177.868C35.7225 179.823 37.3128 182.258 39.1177 184.48C40.4186 187.201 44.984 186.695 44.5889 191.093C48.2047 188.657 50.4211 184.837 53.7075 182.076C52.6813 180.096 53.347 178.232 53.7075 176.064C54.8552 175.087 55.5416 174.129 56.747 173.058C57.6844 172.226 59.1045 171.794 59.7866 170.654C60.0608 170.195 60.3027 169.046 60.3945 168.85C60.9702 167.621 60.952 165.849 61.6103 163.44C62.6881 161.5 64.9344 160.716 66.4736 159.232C66.1702 149.885 65.8347 136.251 66.4736 124.365C66.6055 121.906 67.6438 118.926 67.0815 117.151C66.2651 114.573 62.3295 114.08 61.0024 111.741C60.451 110.768 59.693 106.357 59.7866 104.527C59.8456 103.374 59.9282 102.074 60.3945 100.92C61.1088 99.1513 61.8486 98.6409 63.4341 97.9141C64.3447 97.4969 66.9095 96.4161 68.2973 96.1107C69.9284 95.3189 70.3138 93.2955 71.9448 92.5037C73.1618 91.3026 73.7205 89.4505 75.5922 88.8968C75.0907 81.989 79.3716 79.8092 83.4951 77.4749C83.1024 75.6516 84.8975 74.3116 85.3188 72.6656C85.8209 70.7041 85.1565 68.8285 85.9267 67.2553C87.4343 64.1761 90.6708 63.5948 92.6137 61.2437C93.7627 57.8388 92.5158 56.0846 93.8295 52.8276C94.6381 50.8233 96.3086 50.2877 97.477 48.6195C98.2971 47.449 99.6934 45.434 99.9086 43.8102C100.17 41.8379 98.7402 39.3677 98.6928 37.1975C98.6642 35.893 99.5846 34.642 99.9086 32.3883C100.467 28.5037 100.214 27.1781 101.124 23.9722C101.386 23.0524 101.457 21.7112 101.732 20.9664C102.385 19.202 103.695 17.9215 104.164 16.1571C105.033 12.8911 104.079 10.3849 105.38 7.74099C105.512 7.47107 106.495 7.36106 106.596 7.13983C106.993 6.26936 107.395 5.23297 108.419 4.73521C110.917 3.52088 116.196 4.23265 118.146 5.93752C120.82 8.27541 120.962 12.2226 120.578 16.1571C121.662 18.8738 123.544 21.9919 124.833 25.7756C126.401 30.378 128.042 35.6195 126.657 40.8045C126.424 41.6761 125.296 42.7546 126.049 43.8102C126.464 45.782 127.424 47.5308 128.48 49.2206C129.257 50.462 130.776 51.3595 131.52 53.4287C132.28 55.5412 131.588 58.1135 132.128 60.0414C132.621 61.8022 133.767 63.8942 135.167 65.4518C135.94 66.3114 136.98 66.5657 137.599 67.8564C138.863 70.4943 138.074 74.0543 140.031 76.8737C140.251 77.1917 140.336 78.3778 140.639 78.6772C141.017 79.0517 142.046 78.9567 142.462 79.2784C143.122 79.7881 143.856 80.4157 144.894 81.0818C145.651 82.5372 146.399 84.0022 146.718 85.891C148.063 84.6298 149.467 83.9637 149.757 81.683C150.002 79.7611 148.851 78.15 148.541 76.2726C148.189 74.3206 148.955 73.476 149.149 72.0645C147.438 68.5568 142.815 63.9952 146.11 58.8391C147.018 58.1339 146.826 56.3413 148.541 56.4345C145.513 50.6105 148.279 42.3278 154.013 41.4056C154.298 39.9845 154.993 38.4978 155.836 37.1975C157.137 35.1933 159.453 32.5398 164.347 33.5906C164.776 33.6826 165.822 34.6174 166.171 34.7929C168.139 35.783 168.798 37.1086 169.818 40.2033C170.325 41.7387 170.861 43.1971 171.034 45.0126C174.238 44.1902 176.785 46.2972 179.545 46.2149C181.716 46.1499 183.588 45.4027 185.624 44.4114C187.527 45.1346 189.678 45.6119 191.703 46.2149C194.328 46.2058 195.71 44.9675 197.782 44.4114C202.037 46.703 206.287 44.6759 211.156 44.4114C212.36 40.3927 213.749 36.5561 216.019 33.5906C220.781 31.1313 227.328 32.9089 228.178 37.7987C231.054 38.1606 232.324 40.1107 234.257 41.4056C244.968 41.8288 254.744 41.9322 266.476 41.4056C273.751 41.0792 281.363 42.644 285.929 41.4056C288.855 40.6121 290.843 37.4122 292.616 35.3941C294.668 33.0592 296.256 30.6636 298.087 28.7814C296.666 24.9683 299.907 21.7515 300.519 17.9606C301.518 11.7741 299.323 5.05142 303.558 1.12829C306.176 0.362418 307.927 -0.626481 311.461 0.527135C317.639 2.54401 315.381 8.63851 316.932 16.1571C317.617 19.4779 319.165 21.936 319.972 23.9722ZM34.2544 217.544C33.7906 218.003 32.4732 220.376 32.4307 220.55C31.4714 224.474 33.4386 227.894 33.6465 230.168C34.658 241.235 33.6653 255.07 34.2544 266.237C36.7772 268.622 39.3207 272.583 37.9018 277.058C38.6137 278.745 39.4192 280.875 39.7256 282.469C39.8927 283.34 39.1286 284.028 39.1177 284.272C39.0927 284.844 39.5499 285.709 39.7256 286.677C40.1912 289.241 41.4192 291.463 42.1572 293.89C42.525 290.246 45.8247 289.501 47.0205 286.677C48.1044 279.393 44.4788 276.766 43.9809 271.047C42.7141 269.333 40.3718 268.86 39.1177 266.839C38.6952 266.157 38.148 265.392 37.9018 264.434C37.5347 263.003 38.0216 262.03 37.9018 260.226C37.5268 254.59 37.8903 251.157 42.7651 250.006C42.8891 246.322 45.8752 245.467 47.0205 242.792C45.4004 239.024 47.8387 234.502 47.0205 229.567C44.6265 227.588 41.5493 225.188 41.5493 221.151C41.5493 218.445 42.9408 216.497 44.5889 214.538C42.2964 213.598 40.4727 212.196 38.5098 210.931C38.2356 214.659 35.7991 216.016 34.2544 217.544ZM436.083 272.85C438.827 271.134 437.777 267.521 437.906 264.434C438.325 254.432 437.702 243.036 438.514 234.376C438.634 233.099 439.564 231.814 439.73 230.769C440.154 228.116 439.565 224.87 439.122 224.157C437.835 222.087 436.311 220.282 434.867 219.347C434.85 237.598 434.663 256.019 436.083 272.85Z" fill="#EAC27B"/>
</svg>
