<svg width="307" height="366" viewBox="0 0 307 366" fill="none" xmlns="http://www.w3.org/2000/svg">
<path fill-rule="evenodd" clip-rule="evenodd" d="M174.459 39.2962C175.773 39.8428 175.033 40.7947 175.636 41.6422C176.623 43.027 180.044 43.427 180.344 46.3343C182.466 48.3237 185.475 49.4311 186.228 52.7859C188.834 53.8328 191.342 55.2792 193.289 58.0645C193.595 58.5014 193.512 59.3384 193.878 59.824C194.087 60.1032 194.874 60.1454 195.055 60.4105C195.446 60.9877 195.196 61.6921 195.643 62.1701C197.551 64.2129 199.033 68.2774 197.997 72.7272C197.679 74.0903 195.811 76.1718 194.466 77.4193C193.728 78.1038 191.333 78.1835 192.112 80.3519C192.644 82.7155 196.665 82.2486 197.997 84.4574C198.58 90.7178 202.961 93.1953 202.704 100.293C204.165 102.942 208.413 102.814 208.588 106.745C210.208 107.086 211.046 108.205 212.707 108.504C213.256 110.108 214.513 111.006 215.061 112.61C219.513 113.545 220.815 118.347 223.888 122.581C225.417 124.687 227.722 125.302 228.007 129.032C228.561 136.298 222.877 139.181 212.707 138.416C211.931 139.42 213.219 143.354 212.707 146.041C217.872 146.497 221.259 145.181 226.241 145.454C226.643 139.593 234.165 136.266 239.187 139.589C241.229 140.94 241.861 143.738 242.129 146.627C243.512 148.355 245.815 149.636 246.248 152.493C246.682 155.36 245.065 157.993 244.483 160.704C244.687 163.433 246.782 164.277 247.425 166.569C247.642 168.894 246.885 172.189 248.013 173.607C253.06 177.491 267.367 174.958 276.846 175.953C279.28 176.209 281.607 176.845 283.319 177.712C284.631 178.378 286.547 179.938 286.85 182.405C287.14 184.77 286.008 186.625 285.084 188.856C285.672 195.678 285.296 203.229 287.438 208.211C287.916 209.324 288.313 210.657 288.615 211.144C289.665 212.837 291.775 213.676 292.734 215.249C295.568 215.263 297.899 214.643 299.795 215.249C304.148 216.641 306.879 224.811 303.914 230.498C303.781 230.755 302.833 230.873 302.737 231.085C302.059 232.584 300.009 234.941 297.441 235.19C298.053 238.766 296.295 240.294 295.088 242.229C294.91 242.513 294.769 243.715 294.499 243.988C292.136 246.372 286.767 246.677 284.496 249.853C284.069 250.451 282.982 253.064 282.731 253.959C282.41 255.1 282.687 257.022 282.142 258.651C283.546 260.771 287.865 259.985 289.203 262.17C290.275 261.274 294.016 261.274 295.088 262.17C299.832 263.653 303.423 268.904 302.149 274.487C302.352 276.044 303.693 276.466 305.091 276.833C304.98 278.179 306.55 278.943 306.856 280.352C307.406 282.885 306.285 285.779 305.091 289.736C303.167 296.109 302.368 299.589 297.441 303.226C292.788 306.66 290.824 307.559 285.673 304.985C284.345 304.322 282.931 302.972 281.554 302.053C279.793 307.072 281.369 315.401 282.142 321.407C282.859 324.016 286.075 324.135 287.438 326.099C288.317 331.117 291.466 332.518 292.146 336.657C292.653 339.748 291.362 342.983 291.557 345.454C291.937 350.271 294.982 352.456 293.322 357.771C292.327 360.96 288.981 364.029 284.496 364.809C282.915 365.084 281.143 364.245 279.2 364.223C276 364.186 272.799 365.046 269.785 364.809C265.596 364.48 260.955 364.958 255.074 364.809C253.205 364.762 251.449 364.165 249.779 364.223C244.927 364.39 239.763 367.193 235.656 364.223C233.108 365.453 230.116 365.47 227.418 365.396C225.306 365.337 223.014 364.328 220.945 364.223C217.899 364.067 214.644 365.031 211.531 364.809C204.029 364.275 193.944 365.574 185.051 364.223C183.319 363.96 182.029 363.124 180.344 363.05C178.723 362.978 177.293 363.51 175.636 363.636C170.276 364.044 164.743 363.058 159.16 363.05C148.487 363.034 138.27 364.983 126.797 364.223C125.114 364.111 123.19 363.536 121.501 363.636C119.617 363.747 116.334 365.18 113.851 365.396C112.029 365.554 109.995 364.793 107.967 364.809C105.957 364.825 103.6 365.883 101.494 365.982C97.6375 366.164 93.282 364.896 88.5486 364.809C81.4186 364.678 73.4884 365.385 66.1883 365.396C58.6282 365.407 51.687 364.892 44.4164 364.809C39.1476 364.749 35.88 365.969 32.0593 364.809C27.0871 363.301 23.9408 355.04 27.3519 348.387C23.8107 341.877 23.7848 324.955 32.0593 323.167C31.7834 316.43 35.221 308.502 32.6478 303.226C30.55 302.464 30.0757 304.875 29.1172 305.572C26.7335 307.304 24.641 308.799 20.2907 307.331C17.7299 306.467 16.0152 304.823 14.4064 302.053C13.8474 301.09 12.0921 299.395 11.4643 297.947C10.9988 296.875 11.2636 295.443 10.8759 294.428C7.41471 285.367 2.74492 280.011 10.8759 275.073C10.5934 266.19 15.1284 262.108 23.8213 262.17C26.6158 261.045 28.5058 259.019 32.6478 259.237C31.4374 254.579 29.1307 251.013 26.7635 247.507C17.3162 246.953 9.86787 244.406 7.9337 236.363C-0.336687 234.216 -5.42484 213.59 9.69899 215.249C9.54365 213.334 11.9821 214.006 12.0527 212.317C11.6002 210.106 12.7706 209.513 12.6411 207.624C15.6021 205.493 16.523 201.328 18.5254 198.24C18.7249 188.39 16.8278 174.451 25.5866 172.434C27.9592 171.887 30.9384 172.859 34.4131 173.02C38.2208 173.197 42.8553 173.627 46.1817 173.607C50.6114 173.58 54.3456 173.105 56.185 170.088C56.7469 169.167 56.8864 167.107 57.3618 165.396C57.8755 163.548 58.5246 161.992 58.5387 160.704C58.564 158.382 57.1788 156.155 57.3618 153.666C57.4525 152.433 57.872 151.686 58.5387 150.147C59.4943 147.941 61.0166 142.067 62.6577 140.762C63.1285 140.388 63.4386 140.554 63.8346 140.176C67.1098 137.049 75.153 140.84 75.6032 145.454C77.9569 145.454 80.3106 145.454 82.6643 145.454C82.6643 143.695 82.6643 141.935 82.6643 140.176C75.4178 138.851 69.4976 138.11 69.1305 131.965C68.8568 127.382 72.2132 125.33 74.4263 122.581C74.9241 121.962 74.9812 120.942 75.6032 120.235C77.0013 118.644 79.0126 116.415 80.8991 114.956C81.5293 113.629 82.2348 112.377 83.2528 111.437C85.227 109.69 87.1441 107.886 88.5486 105.572C91.286 104.195 93.3955 102.192 95.6098 100.293C93.412 97.909 96.6443 94.3835 97.3751 90.909C97.8729 88.5419 97.1074 86.1554 97.9635 84.4574C98.0947 84.1976 99.0433 84.085 99.1404 83.8709C99.2557 83.6158 98.9562 82.8961 99.1404 82.6979C100.278 81.4744 103.156 80.4334 104.436 80.3519C109.135 80.0522 112.568 83.4246 113.851 89.1495C115.028 89.1495 116.205 89.1495 117.382 89.1495C119.357 86.7302 117.372 83.4076 117.97 79.1788C116.92 76.5818 114.352 76.5114 113.263 74.4868C112.279 72.6586 111.8 69.9736 112.086 67.4486C112.715 61.8891 118.878 59.0387 119.735 54.5454C121.092 53.9425 121.633 52.5267 123.854 52.7859C124.774 50.9654 125.6 49.0522 126.797 47.5073C129.354 46.7325 130.747 44.7976 132.681 43.4017C133.79 41.3789 137.075 41.5255 137.977 39.2962C138.141 36.556 137.141 34.3695 137.388 31.6715C137.618 29.1695 141.05 27.1842 143.273 25.2199C145.36 23.3754 147.282 21.9232 148.569 19.9413C148.544 17.7718 148.663 14.7836 148.569 14.0762C148.263 11.7953 149.044 4.77713 150.334 2.93256C151.482 1.2915 154.642 0.00293956 156.807 7.00788e-06C160.758 -0.00527158 164.581 2.97185 165.045 7.62464C165.321 10.4 164.266 13.6598 164.456 16.4223C164.529 17.4739 164.778 18.6064 165.045 19.3548C167.712 26.841 174.776 27.3185 175.636 32.258C176.19 35.4393 174.637 37.7425 174.459 39.2962Z" fill="#EAC27B"/>
</svg>
