<svg width="313" height="292" viewBox="0 0 313 292" fill="none" xmlns="http://www.w3.org/2000/svg">
<path fill-rule="evenodd" clip-rule="evenodd" d="M272.642 29.1965C273.967 36.1736 275.866 42.0557 278.593 48.5101C280.083 52.0348 281.341 58.2037 283.354 62.9953C284.427 65.5471 286.175 67.6728 287.52 70.2379C288.862 72.7964 289.673 75.6349 291.091 78.0841C292.553 80.6093 294.611 83.3591 296.447 85.9302C299.891 90.7508 303.205 95.4699 307.16 100.415C308.091 101.58 308.625 102.265 309.54 103.433C310.382 104.508 311.925 105.841 312.516 107.658C313.182 109.706 313.14 110.524 312.516 113.09C311.748 116.246 311.151 117.059 308.945 119.125C308.845 119.22 307.811 119.649 307.755 119.729C307.607 119.941 307.948 120.782 307.755 120.936C307.237 121.351 306.428 121.098 305.97 121.54C303.831 123.601 302.612 126.056 300.613 127.575C298.439 127.985 296.286 128.417 293.472 128.179C292.881 133.212 292.747 138.709 292.877 144.474C296.551 146.157 300.336 145.626 302.994 147.492C306.096 149.67 309.19 158.017 305.374 162.581C303.569 164.74 300.576 165.741 301.208 171.031C301.376 172.433 301.244 172.684 301.804 173.445C302.762 174.748 304.72 175.666 305.374 178.273C306.486 182.703 304.958 185.481 304.779 190.344C303.037 192.199 300.866 193.618 298.828 195.173C298.426 198.105 295.784 199.594 295.257 202.415C294.709 205.35 295.724 209.349 296.447 214.486C296.937 217.964 297.013 222.181 297.638 225.954C297.878 227.407 298.442 228.683 298.828 231.386C299.534 236.326 299.896 243.872 300.613 248.889C301.226 253.176 303.289 257.148 301.804 260.96C298.423 269.633 279.522 265.242 267.286 266.995C266.017 268.525 266.067 271.392 264.31 272.427C262.758 274.072 259.645 274.134 257.168 274.841C255.108 276.822 254.611 280.536 251.812 282.084C250.122 283.019 247.846 284.067 245.266 282.687C243.877 285.391 242.135 289.272 238.719 290.534C234.493 292.095 226.829 291.137 220.27 291.137C214.019 291.137 207.15 291.375 201.821 291.137C198.587 290.993 195.344 290.353 191.704 290.534C188.901 290.672 185.896 291.578 182.777 291.741C171.564 292.324 159.17 291.741 147.068 291.741C126.418 291.741 112.231 291.7 93.5062 291.137C89.939 291.03 87.0615 291.55 83.984 289.93C83.724 289.793 83.6043 288.821 83.3889 288.723C81.9594 288.069 81.7017 287.814 81.0084 285.705C80.6864 284.727 80.1002 283.751 80.4132 282.084C76.0259 281.302 73.1996 278.938 70.8911 276.048C65.9907 275.154 60.6387 277.411 57.2029 276.048C56.9185 275.935 56.8328 274.944 56.6078 274.841C54.2052 273.743 51.7866 270.94 52.4419 265.788C39.7042 264.939 23.2933 269.105 13.7581 263.977C10.8193 260.084 11.8661 253.396 12.5678 246.474C12.935 242.855 13.9729 239.165 14.3532 235.61C15.1858 227.831 15.2751 218.912 16.1386 211.468C16.5605 207.831 17.3985 204.522 17.924 201.208C16.626 197.202 13.0671 197.108 11.3775 193.362C10.583 191.6 9.58497 185.719 10.1872 181.895C10.4997 179.911 11.3603 178.69 11.9726 177.066C12.2595 176.305 12.9386 176.726 13.1629 174.652C13.2665 173.696 13.4212 170.356 12.5678 169.824C12.1375 169.556 11.2091 170.097 10.7824 169.824C10.1224 169.4 9.73554 168.593 8.99697 168.013C8.47028 167.599 7.67696 167.849 7.21157 167.409C6.88305 167.099 6.91757 166.548 6.61643 166.202C4.17459 163.398 2.90159 156.344 6.61643 152.321C9.78493 148.888 14.2806 146.629 20.3045 145.078C20.6706 138.609 19.5523 130.634 20.8997 125.161C16.8962 125.67 14.7662 126.962 11.3775 125.764C9.78255 125.201 7.63292 123.075 6.61643 121.54C6.17841 120.877 5.95404 119.028 5.42616 117.918C5.2006 117.443 4.35075 117.003 4.23589 116.711C4.03473 116.2 4.46621 115.397 4.23589 114.901C4.04723 114.494 3.32771 114.266 3.04562 113.693C1.84582 111.261 -0.426998 106.166 0.0699398 101.622C0.587708 96.8918 6.94733 90.3917 10.1872 85.9302C11.4918 84.1341 12.9778 82.5069 13.7581 81.1018C15.0358 78.8005 15.5661 75.7429 16.7337 73.2557C17.9061 70.7588 19.1708 68.3247 20.3045 66.0131C23.6653 59.1622 26.6784 55.5149 28.6364 48.5101C28.8549 47.7297 29.5309 46.9825 29.8267 46.0959C31.6996 40.4805 33.3172 34.2398 35.7781 28.593C33.5921 25.2523 28.8471 26.3798 26.2559 22.5575C26.0869 22.3082 24.5532 18.3037 24.4705 17.7291C24.2188 15.9752 24.6508 12.6297 25.0656 10.4865C25.8155 6.6123 26.4071 5.85665 28.6364 4.45099C33.3838 1.45859 44.3183 1.24492 53.6321 0.829681C58.7896 0.599728 64.6457 0.829681 69.7008 0.829681C75.789 0.829681 81.8356 1.61973 85.1743 0.829681C87.8262 0.201989 89.3087 1.31675 91.5 0.829681C93.2277 -0.0339991 100.11 0.829681 105 0.829681C112.5 0.829681 115.885 1.18711 117.5 0.611923C119.522 0.0470008 121.315 1.01208 123.5 0.611923C125.451 -0.2252 123.444 1.34343 125.5 0.611923C127.957 -0.364016 141.18 1.31614 143.5 0.829681C141.752 1.11154 145.293 0.453669 143.5 0.829681C145.411 0.52187 143.077 0.928183 145 0.611923C147.251 0.241344 166.5 0.611923 166.5 0.611923C169.483 0.693403 176.5 0.611921 176.5 0.611921C176.5 0.611921 180.128 -0.305028 182.5 0.10599C183.386 1.82249 184 0.105996 184 0.105996C184 0.105996 195.5 1.11781 197 1.62368C198.5 2.12954 206.5 2.12954 206.5 2.12954C206.5 2.12954 228.563 1.17906 230.5 2.63543C240.529 2.75131 255.131 3.31027 266.095 2.64033C269.403 2.43814 272.926 1.58231 275.023 2.03678C276.716 2.40374 279.759 4.73284 280.379 5.65808C280.783 6.26224 281.252 7.9896 281.569 9.27938C281.905 10.6452 282.176 17.3368 280.974 20.1433C280.461 21.3407 279.388 21.8272 278.593 22.5575C276.752 24.2498 273.841 26.6049 272.642 29.1965Z" fill="#EAC27B"/>
</svg>
