<svg width="236" height="202" viewBox="0 0 236 202" fill="none" xmlns="http://www.w3.org/2000/svg">
<path d="M203.891 123.406C203.891 120.437 201.79 117.93 198.957 117.321C199.568 116.005 199.89 114.576 199.89 113.129C199.89 107.626 195.397 103.146 189.88 103.146C188.401 103.146 186.937 103.48 185.594 104.12C184.788 99.2632 180.793 95.4902 175.917 94.9127C176.353 94.3415 176.77 93.7553 177.147 93.1491L195.658 101.463C195.748 101.501 195.836 101.523 195.928 101.523C196.177 101.523 196.418 101.379 196.527 101.133C196.678 100.806 196.527 100.417 196.2 100.271L177.807 92.0116C178.373 90.9664 178.853 89.8825 179.253 88.7662L192.273 92.6215C192.623 92.7263 192.985 92.5267 193.089 92.18C193.192 91.8345 192.997 91.4703 192.647 91.3668L179.653 87.5177C179.992 86.364 180.238 85.1791 180.388 83.9768L187.137 84.7301C187.49 84.7688 187.824 84.5106 187.864 84.1551C187.903 83.7947 187.643 83.4679 187.282 83.4292L180.515 82.6721C180.548 82.162 180.568 81.6444 180.568 81.128C180.568 80.3697 180.531 79.6176 180.458 78.8792L188.36 77.9051C188.715 77.8614 188.971 77.5334 188.928 77.1767C188.882 76.815 188.566 76.5481 188.196 76.6067L180.289 77.5783C180.088 76.2649 179.767 74.9915 179.345 73.7629L196.106 68.941C196.457 68.8375 196.656 68.477 196.557 68.1316C196.457 67.7836 196.096 67.5803 195.746 67.6838L178.883 72.5331C178.476 71.5378 178.002 70.5787 177.464 69.6595L182.214 66.6224C182.515 66.4278 182.608 66.0237 182.409 65.7194C182.214 65.4125 181.809 65.3252 181.502 65.5185L176.771 68.5469C176.043 67.4518 175.228 66.4278 174.328 65.4761L181.405 58.5751C181.665 58.3244 181.669 57.9078 181.416 57.6496C181.162 57.3926 180.751 57.3864 180.489 57.6384L173.4 64.5507C172.663 63.851 171.873 63.2011 171.045 62.6037L178.141 51.7638C178.336 51.4632 178.253 51.0553 177.95 50.8583C177.646 50.6599 177.241 50.7472 177.041 51.0466L169.961 61.8678C169.057 61.2928 168.109 60.7765 167.128 60.3337L169.865 50.9992C169.964 50.6512 169.765 50.2895 169.421 50.1872C169.066 50.0837 168.707 50.2858 168.602 50.6313L165.911 59.8223C164.947 59.4519 163.952 59.1438 162.929 58.9018L164.857 42.2946C164.896 41.9354 164.639 41.6111 164.278 41.5674C163.925 41.5225 163.592 41.7857 163.549 42.1424L161.64 58.6412C160.564 58.4528 159.455 58.3381 158.334 58.3056V52.1142C158.334 51.755 158.04 51.4607 157.677 51.4607C157.313 51.4607 157.019 51.755 157.019 52.1142V58.3056C155.89 58.3368 154.769 58.4541 153.665 58.6461L151.493 47.331C151.424 46.9755 151.072 46.7423 150.725 46.8121C150.371 46.8782 150.136 47.2212 150.205 47.5767L152.378 58.9143C150.452 59.3683 148.594 60.0855 146.846 61.0259C146.669 59.5467 146.506 58.1273 146.358 56.7827C147.774 56.8925 148.625 56.9798 148.66 56.9835C149.332 57.0509 149.972 56.7116 150.286 56.1229C150.601 55.528 150.521 54.8046 150.085 54.2957C142.282 45.1683 134.575 30.054 134.498 29.9005C134.196 29.3081 133.561 28.9501 132.899 29.0112C132.234 29.0649 131.67 29.5151 131.469 30.1512C128.723 38.8696 124.134 45.9528 121.743 49.2842C119.749 44.9649 117.932 40.4174 116.533 35.8051C116.328 35.1291 115.71 34.6576 114.998 34.6426C114.291 34.5852 113.65 35.0679 113.414 35.734C113.343 35.931 107.807 51.4008 98.9169 66.3118C99.1182 61.6845 99.1495 58.5264 99.1445 56.769C99.3258 56.8339 99.5146 56.87 99.7047 56.87C100.151 56.87 100.595 56.6917 100.919 56.3387C101.529 55.6702 101.481 54.6362 100.814 54.0263C99.1882 52.5433 96.5311 48.4448 95.6471 46.9893C95.337 46.4829 94.7943 46.1823 94.1816 46.2035C93.5877 46.2272 93.0512 46.5689 92.7812 47.1003C91.0506 50.504 87.6495 54.0625 87.6157 54.0986C86.9893 54.751 87.0105 55.7887 87.667 56.4123C88.0059 56.7391 88.4473 56.8775 88.8849 56.8563C88.496 62.7409 87.5345 70.8107 86.9443 75.4879C85.1637 72.1752 83.5082 68.8063 82.1027 65.4774C81.8439 64.8637 81.2324 64.5058 80.5672 64.4783C79.8983 64.4883 79.3018 64.9024 79.0617 65.5223C79.028 65.6084 78.1177 67.9457 76.5809 71.584C75.4268 70.9167 74.1251 70.5463 72.781 70.5463C70.2989 70.5463 67.9932 71.7436 66.5227 73.7767C65.4248 73.5197 64.3282 73.3913 63.2579 73.3913C55.0565 73.3913 48.3856 80.24 48.3856 88.6602C48.3856 89.7378 48.4981 90.8142 48.7219 91.8757C47.8779 91.6674 47.0201 91.5638 46.1636 91.5638C39.9916 91.5638 34.9725 96.7175 34.9725 103.056C34.9725 105.366 35.6302 107.56 36.8806 109.463C34.0297 110.693 32.1066 113.607 32.1066 116.827C32.1066 119.102 33.0731 121.285 34.7224 122.793C33.0294 124.692 32.1066 127.122 32.1066 129.714C32.1066 135.388 36.6043 140.001 42.1323 140.001C43.0764 140.001 44.0154 139.863 44.9332 139.585C46.3137 143.409 49.8435 146.055 53.8198 146.269C51.963 153.548 49.7973 161.379 47.3477 169.195C45.5922 169.706 44.0017 170.196 42.5975 170.654C41.7359 170.937 41.2658 171.857 41.5471 172.717C41.8297 173.576 42.7513 174.043 43.6153 173.767C55.3741 169.94 80.0646 163.589 113.28 164.134C151.814 164.748 177.271 173.703 189.014 178.987C189.23 179.087 189.459 179.133 189.682 179.133C190.31 179.133 190.908 178.775 191.183 178.166C191.553 177.345 191.185 176.375 190.36 176.006C188.515 175.175 186.334 174.255 183.829 173.292C181.198 165.998 178.795 157.121 176.827 148.909C177.266 148.955 177.727 148.988 178.25 148.988C182.143 148.988 185.724 147.104 187.938 143.923C189.111 144.354 190.341 144.571 191.599 144.571C197.46 144.571 202.225 139.815 202.225 133.972C202.225 132.13 201.749 130.342 200.844 128.751C202.719 127.631 203.891 125.604 203.891 123.406ZM94.3042 50.9643C94.8443 51.775 95.4895 52.7079 96.161 53.6022L92.0959 53.9502C92.7924 53.0921 93.5727 52.0668 94.3042 50.9643Z" fill="#231F20"/>
<path d="M157.68 59.604C168.64 59.604 177.715 67.7986 179.081 78.3703C179.081 78.3753 179.081 78.3816 179.084 78.3865C179.084 78.3965 179.084 78.4028 179.084 78.4115C179.197 79.3008 179.257 80.2088 179.257 81.128C179.257 84.9446 178.237 88.6852 176.336 91.9493C176.32 91.9742 176.307 91.9954 176.296 92.0191C175.728 92.982 175.088 93.9062 174.372 94.7755C174.354 94.798 174.35 94.8217 174.337 94.8429C169.63 94.9651 165.545 98.1082 164.052 102.446C156.698 93.6992 150.71 85.9275 150.011 85.0182C148.935 77.3476 147.852 69.3215 147.018 62.4266C150.252 60.5831 153.925 59.604 157.68 59.604Z" fill="white"/>
<path d="M110.342 134.069C110.602 134.667 110.975 135.538 111.265 136.274C110.776 136.413 110.301 136.569 109.838 136.742C109.29 135.784 108.473 134.408 108.473 134.408L107.342 135.071C107.342 135.071 108.083 136.323 108.618 137.251C107.962 137.553 107.324 137.88 106.725 138.253C106.502 137.895 106.273 137.517 106.048 137.151C104.935 135.331 104.751 135.056 104.529 134.91C104.229 134.708 103.78 134.759 103.576 135.056C103.377 135.358 103.417 135.731 103.717 135.93C103.867 136.099 104.48 137.1 104.928 137.832C105.168 138.229 105.408 138.614 105.637 138.982C105.24 139.272 104.858 139.57 104.489 139.884C103.672 138.98 102.643 138.233 102.489 138.125C102.196 137.913 101.785 137.982 101.573 138.276C101.363 138.571 101.434 138.978 101.728 139.189C102.089 139.445 102.91 140.096 103.521 140.768C103.073 141.2 102.642 141.65 102.238 142.115C101.124 141.075 99.6335 139.823 99.2284 139.487C98.9483 139.255 98.5344 139.295 98.3044 139.57C98.0705 139.85 98.1105 140.262 98.3881 140.495C99.2672 141.221 100.535 142.315 101.41 143.133C101.008 143.662 100.633 144.204 100.275 144.756C99.2234 144.002 98.0893 143.23 98.018 143.184C97.7167 142.98 97.3103 143.062 97.1065 143.358C96.9027 143.662 96.9814 144.066 97.2828 144.268C97.3015 144.281 98.5207 145.104 99.5873 145.876C99.3172 146.341 99.0634 146.811 98.8208 147.286C97.0777 146.312 94.7345 145.13 94.6207 145.07C94.2943 144.909 93.9017 145.039 93.7391 145.359C93.5753 145.686 93.7054 146.078 94.028 146.239C94.0542 146.256 96.51 147.496 98.2468 148.463C97.8517 149.321 97.4991 150.18 97.1828 151.031C96.3425 150.555 95.3159 150.083 95.1571 150.01C94.827 149.862 94.4369 150.005 94.2881 150.332C94.1393 150.664 94.2843 151.053 94.6144 151.199C95.2034 151.467 96.1337 151.927 96.7414 152.288C96.4775 153.085 96.2437 153.864 96.0399 154.619C94.4481 153.893 92.6538 153.357 92.5713 153.333C92.2236 153.231 91.8598 153.43 91.756 153.776C91.6535 154.124 91.8523 154.484 92.1986 154.587C92.2199 154.597 94.158 155.174 95.711 155.91C95.516 156.726 95.3534 157.5 95.2209 158.212C94.4706 158.103 93.3253 157.676 92.66 157.372C92.3299 157.218 91.9398 157.367 91.7885 157.691C91.6385 158.018 91.781 158.407 92.1086 158.56C92.3087 158.65 93.7954 159.32 94.9945 159.501C94.8858 160.193 94.8082 160.789 94.752 161.277C89.8604 161.571 85.2214 162 80.845 162.524C84.1435 151.708 85.574 141.094 86.1492 135.499C92.3975 134.926 100.78 134.327 110.342 134.069ZM111.755 134.034C111.996 134.594 112.301 135.315 112.548 135.949C113.087 135.842 113.643 135.747 114.216 135.678C114.107 134.937 114.033 134.395 113.987 133.992C113.238 134.006 112.493 134.018 111.755 134.034ZM96.9877 91.9954C96.6526 91.4965 96.3137 90.9876 95.9711 90.47C96.0049 90.2605 96.0449 90.0073 96.0886 89.7042C97.079 89.5021 99.1284 89.123 100.505 89.123C100.869 89.123 101.163 88.8323 101.163 88.4694C101.163 88.1089 100.869 87.8146 100.505 87.8146C99.1859 87.8146 97.3953 88.1164 96.27 88.3334C96.34 87.7672 96.415 87.1261 96.4913 86.4039C97.1165 86.3004 97.8767 86.1869 98.4519 86.1869C98.8145 86.1869 99.1071 85.8963 99.1071 85.5346C99.1071 85.1704 98.8145 84.8798 98.4519 84.8798C97.8905 84.8798 97.2178 84.9671 96.6201 85.0581C96.6826 84.3834 96.7439 83.655 96.8014 82.8754C97.7955 82.6809 100.191 82.2518 102.133 82.1832C102.494 82.1707 102.778 81.8676 102.766 81.5047C102.753 81.1455 102.461 80.8486 102.089 80.8736C100.23 80.9372 98.0555 81.3064 96.8914 81.5246C96.9264 80.9746 96.9602 80.4059 96.9889 79.8159C100.731 78.9965 106.637 78.061 114.106 78.061C120.4 78.061 126.769 78.7308 133.097 80.0329C133.138 83.4467 133.449 92.6939 135.331 107.301C127.566 107.546 117.721 107.807 108.565 107.868C108.561 107.861 108.561 107.856 108.555 107.848C108.475 107.751 104.801 103.21 100.015 96.3982C100.556 96.3845 101.118 96.3995 101.52 96.4968C101.569 96.5042 101.619 96.5092 101.668 96.5092C101.966 96.5092 102.237 96.3072 102.308 96.0053C102.388 95.6524 102.169 95.3019 101.814 95.2208C101.015 95.0362 99.8774 95.0774 99.1309 95.1335C98.7032 94.5174 98.2706 93.885 97.828 93.2377C99.1309 93.1329 100.938 93.0493 101.978 93.2639C102.332 93.335 102.681 93.1104 102.753 92.7537C102.827 92.3995 102.6 92.054 102.243 91.9804C100.816 91.6861 98.3131 91.8669 96.9877 91.9954ZM103.425 99.5949C103.422 100.049 103.607 100.484 103.935 100.794C104.263 101.105 104.706 101.26 105.159 101.238C106.99 101.133 109.122 101.083 111.497 101.083C117.554 101.083 123.255 101.423 123.311 101.431C123.345 101.431 123.379 101.433 123.411 101.433C123.851 101.433 124.272 101.255 124.584 100.942C124.917 100.605 125.086 100.139 125.049 99.6698C124.584 93.7291 123.72 82.6746 114.587 82.6746C103.649 82.6759 103.427 98.9077 103.425 99.5949ZM101.217 85.819C101.244 85.819 101.274 85.8165 101.3 85.814C101.922 85.7354 103.709 85.5558 104.515 85.6705C104.879 85.7167 105.207 85.471 105.259 85.118C105.309 84.76 105.062 84.4283 104.703 84.3771C103.559 84.2125 101.233 84.5044 101.134 84.5156C100.775 84.5617 100.52 84.891 100.566 85.249C100.609 85.5795 100.891 85.819 101.217 85.819ZM128.707 134.079C126.617 134.023 124.505 133.984 122.366 133.969C122.115 134.567 121.823 135.35 121.719 135.963C122.372 136.087 123 136.243 123.605 136.415C123.91 135.454 124.253 134.417 124.253 134.417L125.497 134.831C125.497 134.834 125.154 135.869 124.85 136.827C125.366 137.019 125.858 137.221 126.336 137.443C127.222 135.889 128.472 134.307 128.542 134.218C128.585 134.159 128.645 134.118 128.707 134.079ZM115.305 133.974C115.355 134.376 115.429 134.912 115.527 135.58C115.705 135.572 115.871 135.548 116.053 135.538C116.495 135.529 116.919 135.533 117.346 135.538C117.374 135.086 117.359 134.498 117.324 133.953C116.648 133.959 115.975 133.962 115.305 133.974ZM149.982 135.437C143.466 134.758 136.598 134.312 129.438 134.1C129.447 134.103 129.457 134.103 129.463 134.11C129.748 134.335 129.796 134.749 129.569 135.033C129.552 135.053 128.329 136.6 127.496 138.047C127.95 138.305 128.384 138.581 128.8 138.87C129.521 137.784 130.338 136.624 130.391 136.551C130.597 136.254 131.007 136.183 131.304 136.393C131.601 136.602 131.671 137.012 131.461 137.303C131.449 137.321 130.576 138.561 129.851 139.662C130.162 139.915 130.462 140.178 130.754 140.451C131.993 139.173 133.696 137.616 134.162 137.2C134.43 136.959 134.845 136.978 135.089 137.246C135.33 137.514 135.311 137.928 135.045 138.169C133.835 139.26 132.552 140.481 131.673 141.379C132.094 141.837 132.495 142.31 132.869 142.8C133.482 142.315 134.412 141.653 135.849 140.717C136.149 140.525 136.558 140.607 136.756 140.912C136.952 141.211 136.867 141.618 136.563 141.816C135.519 142.493 134.359 143.301 133.625 143.874C133.86 144.227 134.082 144.587 134.293 144.95C135.286 144.278 135.977 144.217 136.077 144.214C136.444 144.204 136.743 144.483 136.759 144.846C136.772 145.199 136.495 145.5 136.139 145.523C136.108 145.528 135.643 145.594 134.925 146.11C135.148 146.544 135.354 146.992 135.554 147.437C136.485 147.099 137.925 146.607 139.184 146.348C139.533 146.277 139.884 146.499 139.959 146.855C140.034 147.21 139.804 147.555 139.451 147.627C138.296 147.865 136.952 148.322 136.059 148.647C136.295 149.253 136.517 149.866 136.714 150.482C137.652 150.178 138.805 149.876 139.544 149.968C139.903 150.012 140.157 150.341 140.113 150.704C140.065 151.062 139.729 151.305 139.379 151.266C138.911 151.203 137.978 151.44 137.094 151.729C137.308 152.475 137.495 153.22 137.663 153.963C138.237 153.82 138.869 153.7 139.428 153.671C139.824 153.649 140.097 153.932 140.115 154.292C140.134 154.653 139.857 154.957 139.495 154.977C139.015 155.002 138.452 155.113 137.937 155.24C138.037 155.733 138.126 156.217 138.21 156.7C139.433 156.492 141.173 156.232 141.906 156.29C142.269 156.322 142.537 156.638 142.505 156.996C142.476 157.362 142.124 157.612 141.797 157.595C141.27 157.544 139.739 157.763 138.416 157.987C138.506 158.585 138.586 159.173 138.657 159.748C139.344 159.677 140.213 159.668 140.893 159.952C141.227 160.093 141.385 160.476 141.246 160.808C141.141 161.061 140.896 161.212 140.639 161.212C140.557 161.212 140.468 161.197 140.388 161.161C139.978 160.99 139.351 160.993 138.811 161.046C138.871 161.58 138.922 162.091 138.974 162.588C145.233 163.347 151.008 164.305 156.288 165.387C155.018 159.961 151.944 146.529 149.982 135.437ZM118.638 133.949C118.668 134.448 118.686 135.056 118.653 135.591C119.262 135.625 119.853 135.678 120.424 135.757C120.523 135.162 120.74 134.507 120.954 133.954C120.545 133.952 120.145 133.942 119.734 133.942C119.366 133.942 119.004 133.942 118.638 133.949Z" fill="#FFFBDE"/>
<path d="M98.057 161.097C102.926 160.875 108.024 160.783 113.339 160.863C114.245 160.878 115.136 160.904 116.025 160.926L116.383 138.813C116.308 138.813 116.239 138.813 116.162 138.813C101.831 139.291 98.7059 155.596 98.057 161.097ZM114.795 153.104C114.526 154.443 113.093 155.616 111.724 155.616C111.596 155.616 111.47 155.606 111.342 155.587C110.682 155.475 110.075 155.063 109.629 154.413C109.127 153.687 108.91 152.772 109.062 152.021C109.238 151.139 109.861 150.224 110.765 149.78C110.782 149.19 110.927 148.52 111.373 147.787C111.56 147.477 111.966 147.385 112.274 147.565C112.584 147.752 112.684 148.16 112.495 148.469C112.265 148.844 112.147 149.2 112.095 149.512C112.369 149.531 112.643 149.575 112.921 149.677C114.262 150.149 115.087 151.654 114.795 153.104ZM113.508 152.848C113.353 153.622 112.33 154.42 111.558 154.292C111.257 154.241 110.949 154.017 110.71 153.674C110.408 153.237 110.266 152.687 110.347 152.275C110.418 151.922 110.647 151.483 110.999 151.177C111.181 151.644 111.401 151.927 111.425 151.956C111.555 152.115 111.741 152.197 111.931 152.197C112.074 152.197 112.218 152.148 112.339 152.056C112.622 151.834 112.669 151.42 112.449 151.14C112.438 151.125 112.37 151.031 112.294 150.875C112.359 150.892 112.418 150.885 112.482 150.906C113.212 151.168 113.672 152.035 113.508 152.848ZM124.048 152.48C124.385 153.15 124.153 153.705 123.984 153.978C123.679 154.472 123.141 154.789 122.616 154.789C121.57 154.789 120.248 154.206 119.978 152.557C119.899 152.072 120.044 151.566 120.378 151.177C120.704 150.794 121.152 150.582 121.638 150.582C121.723 150.582 121.802 150.592 121.882 150.597C121.798 150.867 121.687 151.147 121.516 151.455C121.338 151.769 121.45 152.168 121.765 152.347C121.87 152.4 121.98 152.429 122.086 152.429C122.319 152.429 122.54 152.307 122.66 152.095C122.855 151.747 123 151.412 123.113 151.096C123.43 151.391 123.72 151.83 124.048 152.48ZM117.696 138.81L117.339 160.961C123.818 161.163 129.907 161.6 135.622 162.211C134.24 149.983 130.731 139.148 117.696 138.81ZM125.098 154.668C124.552 155.552 123.6 156.1 122.616 156.1C120.931 156.1 119.061 155.072 118.682 152.769C118.54 151.905 118.795 151.013 119.378 150.328C119.949 149.656 120.772 149.276 121.638 149.276C121.775 149.276 121.897 149.293 122.025 149.302C121.942 148.566 121.601 148.137 121.593 148.131C121.356 147.858 121.384 147.446 121.66 147.21C121.931 146.972 122.345 147.001 122.584 147.274C122.63 147.328 123.38 148.217 123.364 149.669C124.167 150.098 124.707 150.875 125.219 151.888C125.673 152.797 125.631 153.806 125.098 154.668ZM94.7384 113.655C93.1904 113.655 91.8987 112.893 91.1147 112.293C91.3735 111.757 91.5886 111.304 91.7587 110.936C93.9981 111.026 96.5765 111.087 99.4662 111.126C97.9807 112.777 96.4127 113.633 94.7997 113.654C94.7771 113.655 94.7584 113.655 94.7384 113.655ZM106.153 114.067C103.708 114.067 101.574 111.867 100.932 111.138C102.132 111.148 103.377 111.153 104.675 111.153C106.625 111.153 108.628 111.138 110.652 111.122C110.592 111.163 110.533 111.212 110.49 111.276C109.213 113.085 107.789 114.028 106.255 114.064C106.222 114.067 106.187 114.067 106.153 114.067ZM138.214 112.6C136.707 112.413 135.662 111.231 135.188 110.573C138.089 110.484 140.703 110.391 142.895 110.308C141.231 112 139.649 112.773 138.214 112.6ZM128.961 113.431C126.121 113.635 123.713 111.177 123.456 110.908C126.93 110.825 130.286 110.727 133.376 110.634C132.04 112.376 130.56 113.319 128.961 113.431ZM111.46 111.158C111.439 111.138 111.41 111.13 111.388 111.117C115.039 111.078 118.754 111.012 122.365 110.93C121.086 112.504 119.586 113.381 117.905 113.529C114.554 113.82 111.493 111.182 111.46 111.158ZM144.348 110.254C146.255 110.18 147.748 110.121 148.686 110.078C149.071 110.962 149.459 111.819 149.846 112.66C147.042 113.25 144.908 110.939 144.348 110.254ZM150.415 113.881C151.389 115.944 152.366 117.881 153.319 119.688C149.54 119.708 147.846 116.662 147.769 116.521C147.655 116.309 147.433 116.179 147.189 116.179C146.95 116.179 146.724 116.306 146.611 116.521C145.499 118.587 144.231 119.696 142.841 119.813C140.537 120.013 138.449 117.408 138.429 117.385C138.301 117.221 138.091 117.141 137.904 117.134C137.697 117.134 137.507 117.231 137.382 117.397C135.845 119.47 134.231 120.523 132.591 120.523C132.577 120.523 132.564 120.523 132.552 120.523C129.93 120.494 127.978 117.794 127.958 117.763C127.832 117.587 127.625 117.489 127.406 117.484C127.186 117.492 126.985 117.607 126.865 117.794C125.546 119.869 124.1 120.938 122.571 120.961C122.555 120.961 122.539 120.961 122.524 120.961C119.681 120.961 117.288 117.452 117.264 117.426C117.146 117.245 116.953 117.14 116.74 117.134C116.539 117.141 116.332 117.219 116.2 117.385C114.591 119.455 112.835 120.534 110.986 120.593C107.991 120.69 105.651 118.067 105.628 118.037C105.503 117.898 105.296 117.776 105.137 117.815C104.95 117.815 104.773 117.893 104.645 118.034C102.937 119.928 101.258 120.802 99.6787 120.626C97.2454 120.366 95.6987 117.715 95.6849 117.69C95.5712 117.491 95.3586 117.363 95.1323 117.361C94.8909 117.371 94.6859 117.468 94.5621 117.66C93.6805 119.043 92.5589 119.889 91.2297 120.181C89.6692 120.526 88.1125 120.045 87.1522 119.628C88.5839 117.188 89.7018 115.095 90.5195 113.479C91.4773 114.174 92.9416 114.959 94.7371 114.959C94.7571 114.959 94.7784 114.959 94.7997 114.959C96.704 114.941 98.5171 114.041 100.193 112.277C101.168 113.322 103.437 115.375 106.152 115.375C106.196 115.375 106.24 115.375 106.283 115.373C108.083 115.332 109.718 114.389 111.151 112.576C112.279 113.41 114.975 115.1 118.011 114.83C119.877 114.669 121.538 113.8 122.962 112.251C123.964 113.16 126.294 114.927 129.038 114.733C130.986 114.606 132.756 113.549 134.301 111.589C134.97 112.439 136.228 113.667 138.039 113.901C139.853 114.133 141.73 113.297 143.628 111.435C144.967 112.917 147.494 114.644 150.415 113.881ZM153.996 120.948C155.681 124.044 157.29 126.719 158.718 128.955C155.686 129.406 153.355 126.546 153.245 126.41C153.128 126.266 152.958 126.178 152.775 126.167C152.591 126.155 152.411 126.218 152.276 126.347C152.258 126.36 150.4 128.082 148.221 127.892C146.896 127.769 145.682 126.966 144.612 125.492C144.498 125.328 144.314 125.231 144.118 125.221C143.916 125.209 143.727 125.287 143.595 125.433C143.575 125.456 141.502 127.696 138.956 127.591C137.477 127.535 136.093 126.694 134.84 125.094C134.723 124.941 134.541 124.851 134.35 124.843C134.15 124.823 133.971 124.909 133.842 125.05C133.816 125.076 131.435 127.591 128.538 127.591C128.493 127.591 128.446 127.591 128.399 127.588C126.78 127.545 125.273 126.697 123.917 125.076C123.688 124.798 123.269 124.762 122.995 124.992C122.735 125.204 116.639 130.152 111.91 125.232C111.671 124.987 111.275 124.962 111.009 125.191C110.769 125.398 105.042 130.214 100.339 125.308C100.211 125.177 100.039 125.091 99.8488 125.106C99.6662 125.106 99.4924 125.189 99.3699 125.328C99.3399 125.362 96.3839 128.671 93.3017 128.42C91.7474 128.291 90.3645 127.255 89.1941 125.348C89.0766 125.156 88.8665 125.037 88.6402 125.034C88.4126 125.005 88.2038 125.141 88.0812 125.331C88.055 125.372 85.5992 129.099 81.0265 129.075C83.1571 126.087 84.9727 123.273 86.4795 120.766C87.5936 121.275 89.4942 121.906 91.5011 121.466C92.9078 121.156 94.1194 120.384 95.1047 119.156C95.8712 120.145 97.3942 121.696 99.5324 121.931C101.401 122.13 103.291 121.287 105.148 119.414C106.096 120.291 108.254 122.001 111.019 121.901C113.064 121.842 114.972 120.815 116.698 118.839C117.66 120.023 119.849 122.269 122.524 122.269C122.545 122.269 122.565 122.269 122.584 122.269C124.379 122.244 126.02 121.224 127.473 119.228C128.359 120.197 130.179 121.802 132.529 121.827C132.552 121.832 132.571 121.832 132.593 121.832C134.482 121.832 136.279 120.815 137.944 118.804C138.838 119.719 140.717 121.301 142.946 121.118C144.567 120.984 146.007 119.948 147.237 118.036C148.233 119.265 150.453 121.239 153.996 120.948ZM159.479 130.13C160.398 131.526 161.232 132.73 161.941 133.711C149.287 131.694 135.111 130.67 119.735 130.67C101.015 130.67 85.2016 132.217 78.0893 133.043C78.7957 132.125 79.4672 131.22 80.1199 130.331C80.4513 130.36 80.7814 130.395 81.0952 130.395C85.0052 130.395 87.5248 128.069 88.5977 126.809C89.8981 128.6 91.4436 129.579 93.1991 129.725C96.1789 129.963 98.8235 127.724 99.88 126.692C104.483 130.894 109.782 127.703 111.384 126.551C116.024 130.84 121.618 127.565 123.32 126.377C124.829 128 126.526 128.849 128.373 128.898C131.07 128.944 133.286 127.317 134.27 126.452C135.654 128.011 137.215 128.837 138.908 128.903C141.221 128.979 143.112 127.631 144.013 126.848C145.207 128.268 146.584 129.056 148.102 129.194C150.119 129.375 151.832 128.343 152.657 127.724C154.006 129.139 156.598 130.849 159.479 130.13ZM173.234 121.801C174.21 121.801 175.251 121.543 176.332 121.06C177.265 122.011 178.183 122.916 179.077 123.774C173.886 123.126 165.646 122.182 158.159 121.669C157.74 120.931 157.312 120.161 156.878 119.364C157.289 119.469 157.712 119.535 158.159 119.512C159.127 119.456 160.003 119.057 160.777 118.324C161.421 119.086 162.645 120.228 164.295 120.376C165.62 120.49 166.914 119.971 168.17 118.816C168.692 119.64 169.698 120.866 171.297 121.454C171.913 121.684 172.561 121.801 173.234 121.801ZM152.186 100.175C151.794 97.5058 151.373 94.5897 150.934 91.5351C152.751 93.8426 155.154 96.846 157.884 100.171C156.107 101.758 153.605 100.888 152.186 100.175ZM162.939 111.716C164.107 111.716 165.302 111.263 166.508 110.381C169.436 113.738 172.447 117.063 175.336 120.048C174.027 120.541 172.821 120.622 171.763 120.23C169.81 119.519 168.935 117.492 168.924 117.472C168.84 117.267 168.65 117.121 168.428 117.082C168.2 117.048 167.98 117.123 167.829 117.289C166.679 118.572 165.531 119.174 164.423 119.077C162.625 118.919 161.395 116.974 161.385 116.958C161.27 116.776 161.079 116.661 160.864 116.649C160.651 116.639 160.445 116.727 160.313 116.892C159.657 117.715 158.912 118.157 158.095 118.205C157.289 118.259 156.507 117.92 155.929 117.572C155.39 116.549 154.853 115.496 154.311 114.395C154.225 113.83 153.995 112.327 153.666 110.119C154.868 110.278 156.552 110.16 158.343 108.964C158.948 109.834 160.232 111.313 162.151 111.643C162.41 111.693 162.674 111.716 162.939 111.716ZM155.448 102.356C156.598 102.356 157.741 102.03 158.713 101.18C160.879 103.806 163.227 106.597 165.65 109.391C164.502 110.204 163.409 110.536 162.383 110.358C160.323 110.005 159.119 107.738 159.109 107.717C159.018 107.541 158.854 107.415 158.662 107.377C158.47 107.338 158.268 107.384 158.116 107.506C156.257 108.992 154.504 108.976 153.46 108.759C153.164 106.788 152.811 104.401 152.415 101.717C153.344 102.086 154.395 102.356 155.448 102.356ZM123.99 53.9153C123.778 53.4925 123.564 53.0634 123.351 52.6356C123.601 52.3076 123.917 51.886 124.289 51.3771C124.424 51.3908 124.553 51.412 124.706 51.412C125.89 51.412 127.514 50.9468 129.243 49.0684C130.092 49.722 131.892 50.8445 133.945 50.6973C135.295 50.6013 136.513 49.9864 137.581 48.8651C138.751 50.1673 140.887 51.6041 143.428 51.0491C143.998 51.8511 144.581 52.6393 145.168 53.4101C140.292 53.0871 131.619 52.7828 123.99 53.9153ZM125.229 50.0475C126.37 48.3937 127.782 46.191 129.231 43.553C130.56 43.8412 132.314 43.7351 133.735 42.302C134.497 43.0516 135.74 43.7888 137.336 43.7888C137.711 43.7888 138.11 43.7414 138.525 43.6503C139.78 45.6746 141.147 47.7862 142.584 49.853C139.982 50.05 138.226 47.5917 138.137 47.4682C138.019 47.2948 137.825 47.1913 137.618 47.1851C137.41 47.1826 137.212 47.2711 137.081 47.4358C136.133 48.6456 135.05 49.3029 133.859 49.389C131.608 49.5499 129.642 47.6989 129.621 47.6815C129.49 47.5567 129.302 47.4819 129.128 47.4994C128.946 47.5118 128.776 47.5954 128.657 47.7351C127.353 49.3303 126.151 49.8954 125.229 50.0475ZM129.886 42.3395C131.083 40.062 132.283 37.5063 133.348 34.7262C134.437 36.728 135.977 39.4608 137.791 42.4505C135.554 42.7037 134.34 41.0136 134.279 40.9263C134.16 40.748 133.962 40.6419 133.748 40.6394C133.476 40.6557 133.335 40.7342 133.207 40.9051C132.174 42.3045 130.859 42.4717 129.886 42.3395ZM103.668 64.6929C105.261 61.8691 106.725 59.0789 108.05 56.4073C108.672 56.8725 109.562 57.3403 110.64 57.3403C110.686 57.3403 110.73 57.3403 110.776 57.3378C112.157 57.2866 113.459 56.4809 114.657 54.938C115.171 55.4519 116.012 56.0793 117.177 56.2564C118.389 56.441 119.656 56.093 120.961 55.2411C122.44 58.1697 123.96 60.9336 125.452 63.4992C124.534 63.7624 123.689 63.7961 122.935 63.5429C121.352 63.0115 120.642 61.4749 120.635 61.4625C120.54 61.2454 120.333 61.0945 120.095 61.0721C119.854 61.0484 119.628 61.1569 119.494 61.3552C118.132 63.3333 116.599 64.396 114.94 64.507C112.16 64.7003 109.825 62.1709 109.802 62.1435C109.666 61.9975 109.471 61.9189 109.267 61.9314C109.067 61.9489 108.883 62.0512 108.772 62.2183C106.954 64.9199 104.92 64.9984 103.668 64.6929ZM114.105 74.7882C106.215 74.7882 100.024 75.7773 96.1038 76.6466C96.579 75.9868 97.0391 75.317 97.5005 74.6447C97.7106 74.6697 97.9319 74.6859 98.1695 74.6859C99.6912 74.6859 101.718 74.0797 103.412 71.4705C104.248 72.3897 105.857 73.7941 107.933 73.8515C109.696 73.9039 111.316 73.0071 112.854 71.206C113.926 72.2088 116.457 74.2057 119.333 73.9962C121.117 73.8627 122.701 72.9061 124.057 71.1549C125.174 72.5281 127.895 75.0638 131.87 73.7243C132.674 74.9129 133.415 75.9806 134.057 76.8786C127.416 75.4879 120.721 74.7882 114.105 74.7882ZM110.736 56.0306C109.855 56.0606 109.112 55.5916 108.643 55.2024C111.406 49.5386 113.521 44.5234 114.857 41.1708C116.455 45.6434 118.365 49.9802 120.373 54.0487C119.305 54.7809 118.301 55.1002 117.386 54.9655C115.969 54.7584 115.184 53.5349 115.176 53.5261C115.06 53.3353 114.851 53.2168 114.629 53.2143C114.412 53.2168 114.195 53.3203 114.071 53.5062C112.989 55.1351 111.865 55.9832 110.736 56.0306ZM98.3508 73.3838C99.9963 70.9104 101.551 68.376 103.002 65.8528C103.481 66.0012 104.066 66.1222 104.722 66.1222C106.127 66.1222 107.834 65.5759 109.402 63.5815C110.378 64.4447 112.504 65.995 115.021 65.8141C116.853 65.6956 118.52 64.7128 119.983 62.8931C120.465 63.5416 121.279 64.3648 122.497 64.7789C123.608 65.1556 124.826 65.1144 126.136 64.6729C127.899 67.6539 129.601 70.323 131.104 72.5818C127.043 73.6781 124.724 69.8852 124.618 69.6994C124.502 69.5048 124.295 69.3826 124.069 69.3776C123.83 69.3726 123.628 69.4823 123.505 69.6744C122.272 71.5503 120.838 72.5681 119.241 72.6903C116.168 72.9335 113.322 69.8203 113.294 69.7867C113.163 69.642 112.982 69.5746 112.778 69.5696C112.584 69.5821 112.402 69.6757 112.282 69.8278C110.887 71.6675 109.459 72.5656 107.979 72.5419C105.628 72.4807 103.891 69.9812 103.874 69.9563C103.746 69.7692 103.529 69.6532 103.299 69.6707C103.069 69.6844 102.861 69.8141 102.755 70.0162C101.337 72.6466 99.6262 73.3201 98.3508 73.3838ZM91.5599 106.203C77.8729 106.203 66.4868 108.368 60.4561 109.801C61.145 108.815 61.8278 107.774 62.508 106.719C64.1573 106.439 66.7468 105.47 69.0151 102.262C70.0354 103.039 72.2874 104.452 75.0508 104.332C77.2077 104.252 79.2221 103.282 81.0452 101.451C82.1468 102.441 84.9515 104.605 88.1938 104.442C90.2419 104.347 92.0938 103.368 93.7143 101.529C94.8172 102.664 97.5555 104.863 101.598 104.175C102.328 105.156 102.995 106.041 103.571 106.797C99.6637 106.402 95.6399 106.203 91.5599 106.203ZM63.5358 105.102C65.3326 102.205 67.0782 99.1135 68.7437 95.9841C70.0704 96.2286 72.52 96.1138 75.0658 93.1429C75.8198 94.0895 77.3603 95.6237 79.6573 96.034C80.0424 96.1026 80.4288 96.135 80.8176 96.135C82.6832 96.135 84.6276 95.3605 86.6195 93.8164C87.7261 94.6446 90.7633 96.3982 95.0322 94.9489C97.1041 97.9935 99.0473 100.715 100.71 102.975C96.619 103.335 94.3395 100.286 94.2295 100.137C94.1082 99.9716 93.9156 99.8706 93.708 99.8668C93.4467 99.8481 93.3054 99.9566 93.1779 100.121C91.6924 102.03 89.9956 103.042 88.1387 103.136C84.6151 103.321 81.5316 100.103 81.5004 100.074C81.3753 99.9379 81.1915 99.8544 81.0152 99.8668C80.8314 99.8706 80.6563 99.9467 80.5338 100.08C78.8407 101.956 76.9839 102.945 75.012 103.026C71.8035 103.123 69.3502 100.843 69.3264 100.822C69.1864 100.689 68.9938 100.625 68.7937 100.648C68.6012 100.674 68.4261 100.78 68.3211 100.946C66.7293 103.433 64.945 104.583 63.5358 105.102ZM80.6726 77.9126C79.4747 77.9113 78.4894 77.4211 77.8492 76.9908C78.9945 74.3641 79.9611 72.0642 80.6751 70.323C81.6729 72.462 82.7583 74.5986 83.8899 76.7152C82.8408 77.5072 81.7642 77.9126 80.6788 77.9126C80.6776 77.9126 80.6751 77.9126 80.6726 77.9126ZM69.3952 94.7456C70.9194 91.8332 72.3649 88.9184 73.6941 86.1183C74.4593 86.6658 75.4684 87.1785 76.6638 87.2071C78.0805 87.2383 79.4534 86.5885 80.7139 85.2677C81.5616 86.0447 83.3472 87.4042 85.4829 87.4042C85.5417 87.4042 85.5979 87.4042 85.6567 87.403C86.9209 87.3581 88.0912 86.8404 89.1516 85.8601C90.3945 87.8832 91.6424 89.8501 92.8715 91.7185C92.894 91.7572 92.914 91.7908 92.9403 91.8233C93.3867 92.503 93.8281 93.1653 94.267 93.8201C89.8718 95.1509 87.2097 92.6302 87.0872 92.508C86.8471 92.2735 86.4645 92.2548 86.2056 92.4681C83.9624 94.3203 81.8405 95.0911 79.8998 94.7493C77.189 94.2691 75.6797 91.7509 75.666 91.726C75.5534 91.5376 75.3559 91.4142 75.1358 91.4004C74.9182 91.3942 74.7069 91.4852 74.5744 91.6624C72.5037 94.4151 70.5531 94.8192 69.3952 94.7456ZM76.7013 85.8963C75.7297 85.8776 74.8782 85.3949 74.2618 84.9147C75.3709 82.5499 76.3987 80.2836 77.314 78.2082C78.1118 78.7058 79.2596 79.2159 80.6526 79.2222C80.6613 79.2222 80.6688 79.2222 80.6788 79.2222C82.0005 79.2222 83.2859 78.7669 84.5176 77.8751C85.7842 80.2 87.1047 82.4838 88.4464 84.7039C87.5698 85.5807 86.6233 86.0584 85.6167 86.0946C83.2659 86.2056 81.2003 83.9044 81.1802 83.8819C81.0515 83.736 80.8214 83.6599 80.6776 83.6599C80.485 83.6612 80.3025 83.7485 80.1799 83.8994C79.0596 85.2489 77.8642 85.9549 76.7013 85.8963Z" fill="#AC693E"/>
<path d="M70.463 130.442C71.4683 130.325 72.3474 130.23 72.9888 130.164C73.4415 128.41 74.0692 125.896 74.5231 123.375L71.4208 123.825C71.0019 126.488 70.6706 128.884 70.463 130.442Z" fill="white"/>
<path d="M144.752 70.6834C144.232 71.4655 143.47 73.4923 143.975 78.4065C144.501 78.4838 145.141 78.6098 145.837 78.8018C145.463 76.0654 145.097 73.3376 144.752 70.6834Z" fill="white"/>
<path d="M65.9066 131.041C67.0082 130.877 68.1011 130.732 69.1164 130.604C69.3102 129.135 69.6391 126.733 70.0592 124.022L67.0332 124.462C66.5056 126.739 66.1292 129.068 65.9066 131.041Z" fill="white"/>
<path d="M115.191 85.9948C115.135 87.9006 115.077 90.3864 115.027 92.7026C116.882 92.7263 118.876 92.7936 120.864 92.9383C120.02 89.1454 118.451 86.3041 115.191 85.9948Z" fill="white"/>
<path d="M73.2253 114.356C73.204 114.356 73.1815 114.359 73.159 114.359C72.6026 116.82 72.0812 119.721 71.6348 122.473L74.7483 122.018C75.2122 118.941 75.3085 116.065 74.3531 114.831C74.1681 114.597 73.8917 114.356 73.2253 114.356Z" fill="white"/>
<path d="M67.3745 123.087L70.2729 122.668C70.6956 120.044 71.187 117.257 71.7159 114.809C69.8053 115.974 68.3661 119.34 67.3745 123.087Z" fill="white"/>
<path d="M106.808 97.8887C108.242 97.8376 109.812 97.8064 111.497 97.8064C112.211 97.8064 112.915 97.8164 113.609 97.8238C113.628 96.8684 113.653 95.5189 113.687 94.0022C110.966 93.9972 108.689 94.0808 107.4 94.1432C107.078 95.5576 106.902 96.8921 106.808 97.8887Z" fill="white"/>
<path d="M136.882 90.3689C137.065 92.826 137.307 95.6436 137.638 98.8241C138.699 98.8466 139.574 98.8977 140.273 98.9538C139.443 93.4846 137.884 91.2582 136.882 90.3689Z" fill="white"/>
<path d="M114.998 94.0109C114.967 95.5351 114.94 96.8871 114.921 97.845C117.631 97.8924 120.045 97.9909 121.616 98.0645C121.493 96.7587 121.333 95.4827 121.124 94.2716C119.045 94.1107 116.945 94.0359 114.998 94.0109Z" fill="white"/>
<path d="M107.745 92.8161C109.1 92.7562 111.23 92.6889 113.712 92.6926C113.762 90.3927 113.821 87.9206 113.876 86.011C110.473 86.4102 108.683 89.6081 107.745 92.8161Z" fill="white"/>
<path d="M67.3668 74.8755C67.2118 75.1137 66.9204 75.2309 66.6428 75.1561C65.5025 74.8543 64.3671 74.7009 63.2618 74.7009C55.7843 74.7009 49.7011 80.9633 49.7011 88.6614C49.7011 90.0072 49.8937 91.3505 50.2726 92.6514C50.3426 92.8896 50.2726 93.1428 50.0913 93.31C49.9137 93.4796 49.6511 93.5332 49.421 93.4497C48.3557 93.0668 47.2591 92.8722 46.1662 92.8722C40.7195 92.8722 36.2868 97.4372 36.2868 103.057C36.2868 105.371 37.0308 107.561 38.4362 109.381C38.57 109.549 38.6088 109.778 38.5413 109.98C38.4738 110.182 38.3124 110.348 38.1049 110.409C35.3465 111.229 33.4221 113.87 33.4221 116.827C33.4221 118.944 34.4149 120.959 36.078 122.215C36.2305 122.33 36.3243 122.507 36.3368 122.698C36.3506 122.885 36.278 123.073 36.143 123.204C34.3874 124.924 33.4221 127.232 33.4221 129.714C33.4221 134.664 37.3296 138.693 42.1337 138.693C43.1415 138.693 44.1468 138.506 45.1209 138.138C45.2922 138.074 45.4835 138.082 45.6473 138.166C45.8099 138.249 45.9337 138.396 45.9837 138.568C47.054 142.292 50.3939 144.897 54.1463 144.985C55.1441 141.031 56.0507 137.251 56.8597 133.747C53.6061 132.268 51.0253 130.634 48.9809 128.968C48.9296 128.997 48.8746 129.019 48.8171 129.036C42.4438 130.618 39.0727 129.056 38.9314 128.988C38.6025 128.834 38.465 128.442 38.6238 128.116C38.7801 127.789 39.169 127.658 39.4953 127.809C39.5278 127.827 42.3838 129.105 47.7768 127.934C41.4947 122.211 41.1534 116.484 41.1409 116.159C41.1259 115.798 41.4047 115.494 41.7661 115.474C42.1162 115.494 42.435 115.742 42.45 116.102C42.455 116.19 42.994 124.465 54.0813 130.855C52.6396 125.091 52.9134 119.771 52.9259 119.527C52.9472 119.164 53.2485 118.889 53.6174 118.909C53.9813 118.929 54.2563 119.238 54.2376 119.596C54.2351 119.66 53.9262 125.725 55.6768 131.721C56.152 131.964 56.6471 132.208 57.1585 132.439C59.1954 123.511 60.5784 116.48 61.2374 112.989C58.4502 113.642 56.8509 114.134 56.8022 114.149C56.6421 114.198 56.4771 114.223 56.3145 114.223C55.7806 114.223 55.2679 113.965 54.9566 113.507C54.5502 112.908 54.584 112.119 55.0378 111.557C55.613 110.846 56.187 110.088 56.7622 109.306C51.0178 108.558 46.9565 106.466 44.712 103.031C44.6745 102.975 44.6432 102.924 44.6182 102.89C44.4194 102.708 44.3431 102.42 44.4482 102.157C44.5845 101.821 44.9683 101.663 45.3022 101.795C45.5298 101.886 45.6348 102.045 45.8124 102.315C47.9231 105.546 51.9131 107.478 57.6362 108.089C59.4518 105.509 61.2536 102.612 62.9992 99.5725C62.7691 98.7081 62.5565 97.8612 62.3802 97.0517C57.1748 93.87 55.4842 89.9174 55.4142 89.749C55.2767 89.4148 55.4355 89.0369 55.7681 88.8959C56.1044 88.7562 56.4871 88.9134 56.6271 89.2439C56.6409 89.2801 58.0126 92.4494 62.0251 95.2532C60.3333 85.7628 62.2564 80.2586 62.3552 79.9892C62.479 79.6487 62.8566 79.4729 63.1955 79.5951C63.5343 79.7198 63.7132 80.0915 63.5894 80.4308C63.5731 80.4744 62.614 83.2458 62.6666 88.18C66.349 85.6231 67.3856 81.7728 67.3981 81.7341C67.4869 81.3849 67.8457 81.1691 68.1971 81.2664C68.5472 81.3525 68.7585 81.7117 68.666 82.0634C68.616 82.258 67.3631 86.909 62.7128 89.7129C62.8316 92.059 63.1905 94.8154 63.9332 97.9223C68.8973 89.0369 73.31 79.2571 76.0696 72.7876C75.0793 72.1826 73.9465 71.8596 72.7811 71.8596C70.5991 71.8571 68.5722 72.9846 67.3668 74.8755Z" fill="#D0A140"/>
<path d="M199.652 127.9C201.429 127.101 202.576 125.335 202.576 123.405C202.576 120.801 200.523 118.646 197.901 118.496C197.674 118.481 197.471 118.35 197.364 118.15C197.255 117.951 197.257 117.708 197.375 117.509C198.163 116.177 198.575 114.659 198.575 113.126C198.575 108.342 194.674 104.457 189.88 104.457C188.307 104.457 186.759 104.888 185.398 105.709C185.203 105.819 184.958 105.834 184.756 105.729C184.552 105.624 184.422 105.42 184.403 105.195C184.023 100.114 179.723 96.1337 174.617 96.1337C170.081 96.1337 166.152 99.328 165.058 103.639C167.623 106.669 170.322 109.783 173.009 112.74C173.047 110.051 173.356 105.363 174.865 101.882C175.011 101.548 175.396 101.397 175.725 101.544C176.062 101.685 176.21 102.069 176.067 102.404C174.34 106.384 174.29 112.272 174.321 114.187C174.631 114.521 174.941 114.851 175.248 115.178C177.568 114.715 184.673 113.042 190.122 109.013C190.415 108.798 190.826 108.857 191.038 109.146C191.254 109.436 191.195 109.846 190.903 110.062C188.437 111.887 185.682 113.241 183.153 114.23C183.959 114.752 186.749 116.374 189.847 116.344C190.172 116.283 190.506 116.63 190.51 116.993C190.516 117.353 190.224 117.648 189.861 117.655C189.826 117.655 189.786 117.655 189.749 117.655C185.69 117.655 182.292 115.241 182.152 115.136C182.002 115.028 181.912 114.87 181.889 114.702C179.608 115.512 177.62 116.013 176.302 116.299C179.458 119.635 182.492 122.618 185.133 124.821C185.696 125.291 185.877 126.078 185.578 126.743C185.311 127.34 184.719 127.712 184.082 127.712C184.003 127.712 183.929 127.707 183.85 127.697C183.765 127.682 178.653 126.971 171.99 126.228C172.518 129.034 173.548 134.345 174.951 140.735C175.714 140.374 177.136 139.623 178.901 138.266C177.272 134.466 177.805 131.677 177.83 131.56C177.901 131.204 178.241 130.982 178.599 131.046C178.956 131.117 179.186 131.457 179.115 131.815C179.111 131.842 178.683 134.176 179.964 137.403C182.71 135.074 186.02 131.399 188.823 125.784C188.986 125.457 189.383 125.323 189.704 125.489C190.029 125.648 190.161 126.039 189.999 126.366C188.219 129.932 186.256 132.741 184.346 134.936C185.57 135.706 189.043 137.453 194.869 137.362C195.233 137.374 195.528 137.648 195.534 138.006C195.538 138.371 195.249 138.665 194.885 138.67C188.318 138.753 184.689 136.756 183.453 135.925C179.767 139.856 176.436 141.53 175.236 142.047C175.634 143.82 176.057 145.666 176.502 147.555C177.023 147.637 177.58 147.674 178.249 147.674C181.867 147.674 185.192 145.84 187.131 142.768C187.303 142.494 187.648 142.39 187.945 142.512C189.103 143.006 190.333 143.263 191.597 143.263C196.733 143.263 200.912 139.092 200.912 133.969C200.912 132.145 200.377 130.374 199.365 128.853C199.263 128.697 199.233 128.498 199.285 128.312C199.344 128.127 199.477 127.979 199.652 127.9Z" fill="#D0A140"/>
<path d="M92.1523 57.2293L95.8648 56.915C95.8698 59.3434 95.7985 64.3636 95.3409 71.9819C93.8429 74.2232 92.2699 76.4022 90.6306 78.4589C90.1754 79.0314 90.1554 79.8359 90.5806 80.4321C90.8957 80.8711 91.3971 81.1168 91.916 81.1168C92.1011 81.1168 92.2886 81.0806 92.4699 81.017C92.4887 81.012 92.9088 80.8686 93.6578 80.6491C93.534 82.8131 93.3715 84.6777 93.2102 86.1932C91.9848 84.2437 90.7581 82.2219 89.5577 80.1539C89.6253 80.0142 89.6878 79.8646 89.7103 79.6987C89.7266 79.5552 91.5534 66.0823 92.1523 57.2293ZM64.7197 112.222C70.4903 111.046 78.9943 109.728 88.7975 109.508C88.5924 109.951 88.3061 110.551 87.9385 111.294C84.2998 110.995 80.206 112.347 80.0297 112.408C79.6871 112.52 79.502 112.893 79.6183 113.234C79.7096 113.509 79.9646 113.682 80.2397 113.682C80.3085 113.682 80.3798 113.672 80.4485 113.65C80.4873 113.635 84.056 112.462 87.292 112.566C86.9131 113.302 86.4868 114.108 85.9928 115.007C85.2976 115.027 84.6524 115.105 84.4511 115.13C84.0922 115.178 83.8396 115.505 83.8872 115.865C83.9359 116.221 84.266 116.472 84.6249 116.423C84.8062 116.406 85.0175 116.379 85.2388 116.359C84.8725 117.008 84.4836 117.683 84.066 118.386C82.7631 118.281 81.0325 118.513 80.6049 118.573C80.246 118.627 79.9984 118.956 80.0484 119.314C80.0997 119.672 80.431 119.928 80.7924 119.869C81.6039 119.752 82.5355 119.677 83.2895 119.67C82.8806 120.342 82.4505 121.034 81.9978 121.743C80.5711 121.679 79.2307 121.801 79.1631 121.806C78.803 121.842 78.5367 122.162 78.5729 122.52C78.6055 122.878 78.9131 123.151 79.2869 123.11C79.2982 123.11 80.1422 123.033 81.1663 123.033C79.7858 125.148 78.2291 127.396 76.4835 129.723C78.2141 122.789 79.4407 116.041 76.9449 112.828C75.9346 111.528 74.4566 110.921 72.5485 111.118C64.0895 112 62.589 130.743 62.444 132.877C62.4115 133.376 62.609 133.866 62.9829 134.203C63.2868 134.476 63.6794 134.624 64.0808 134.624C64.1733 134.624 64.2671 134.617 64.3596 134.602C67.8532 134.003 71.917 133.562 73.6213 133.391C73.4188 133.634 73.2312 133.878 73.0262 134.129C72.5973 134.648 72.5322 135.384 72.8649 135.971C73.1975 136.559 73.8602 136.878 74.5279 136.785C74.6054 136.777 77.6514 136.345 82.8081 135.823C82.7731 136.161 82.7318 136.51 82.6893 136.878C80.1547 136.822 77.9628 137.372 77.8602 137.399C77.5089 137.489 77.2975 137.845 77.3901 138.199C77.4663 138.493 77.7314 138.689 78.024 138.689C78.0778 138.689 78.1341 138.679 78.1878 138.667C78.2116 138.662 80.226 138.153 82.5317 138.189C82.3392 139.746 82.0928 141.514 81.7865 143.431C77.5414 143.454 75.582 144.06 75.4982 144.083C75.1543 144.203 74.9693 144.569 75.0831 144.912C75.1731 145.187 75.4307 145.359 75.7058 145.359C75.7745 145.359 75.8421 145.352 75.9108 145.331C75.9296 145.323 77.7064 144.776 81.5777 144.741C81.2563 146.66 80.8762 148.712 80.431 150.846C79.2907 150.841 78.5179 150.892 78.4754 150.892C78.114 150.917 77.8415 151.227 77.8652 151.589C77.8915 151.955 78.2228 152.211 78.5654 152.198C78.5754 152.198 79.2006 152.157 80.1485 152.154C79.9571 153.029 79.7571 153.908 79.542 154.805C75.5282 154.876 72.8586 155.434 72.7398 155.457C72.3847 155.536 72.1609 155.881 72.2346 156.237C72.3009 156.541 72.5723 156.753 72.8749 156.753C72.9211 156.753 72.9674 156.751 73.0136 156.736C73.0412 156.731 75.5232 156.219 79.2144 156.122C79.0306 156.855 78.8368 157.589 78.6355 158.33C75.2331 158.603 72.0959 159.275 70.4816 159.618C70.0077 159.72 69.6851 159.794 69.5563 159.803C69.2024 159.815 68.9211 160.105 68.9211 160.458C68.9211 160.82 69.2137 161.115 69.5763 161.115C69.7401 161.115 69.9727 161.064 70.7542 160.898C72.2647 160.571 75.1306 159.962 78.2628 159.677C77.9502 160.773 77.6126 161.877 77.2625 162.977C66.7541 164.398 57.9413 166.325 51.1166 168.148C58.9216 142.716 63.7181 117.662 64.7197 112.222ZM74.2415 141.416C74.3116 141.72 74.5817 141.922 74.878 141.922C74.9293 141.922 74.9793 141.914 75.028 141.902C75.0543 141.9 77.8902 141.256 79.4145 141.332C79.7596 141.363 80.0859 141.074 80.1047 140.716C80.126 140.355 79.8471 140.044 79.487 140.021C77.7564 139.924 74.8542 140.599 74.7305 140.627C74.3778 140.712 74.1578 141.063 74.2415 141.416ZM72.416 149.087C72.4947 149.379 72.7598 149.57 73.0487 149.57C73.1062 149.57 73.1637 149.568 73.22 149.548C73.2537 149.54 76.401 148.712 79.4345 148.783C79.4382 148.783 79.4457 148.783 79.4507 148.783C79.8058 148.783 80.0984 148.498 80.1072 148.142C80.1159 147.782 79.8284 147.48 79.467 147.475C76.2322 147.401 73.0124 148.247 72.8786 148.281C72.5272 148.378 72.3222 148.738 72.416 149.087ZM69.7814 152.907C69.8776 153.177 70.1302 153.346 70.3991 153.346C70.4716 153.346 70.5479 153.328 70.6216 153.304C70.6491 153.297 73.5338 152.274 75.7245 152.201C76.0859 152.188 76.3697 151.886 76.3572 151.526C76.346 151.163 75.9996 150.861 75.6808 150.892C73.2862 150.968 70.3028 152.025 70.1777 152.073C69.8376 152.198 69.6588 152.569 69.7814 152.907ZM79.2332 116.524C79.3269 116.8 79.5833 116.974 79.8584 116.974C79.9271 116.974 79.9959 116.964 80.0634 116.941C80.7499 116.716 82.0691 116.383 82.6918 116.439C83.0619 116.473 83.372 116.205 83.4045 115.847C83.4358 115.484 83.1707 115.167 82.8106 115.133C81.7277 115.034 79.8609 115.63 79.6558 115.701C79.3082 115.811 79.1206 116.184 79.2332 116.524ZM179.848 171.833C174.388 169.908 167.713 167.906 159.837 166.146C159.719 165.642 159.553 164.945 159.355 164.093C161.037 164.272 163.488 164.61 165.28 165.177C165.348 165.197 165.415 165.208 165.477 165.208C165.756 165.208 166.016 165.027 166.105 164.748C166.211 164.403 166.024 164.035 165.677 163.927C163.589 163.268 160.761 162.913 159.039 162.741C158.665 161.126 158.212 159.138 157.71 156.899C159.47 157.145 162.861 157.637 163.992 157.891C164.037 157.903 164.088 157.908 164.134 157.908C164.432 157.908 164.703 157.701 164.775 157.397C164.853 157.049 164.632 156.693 164.279 156.615C162.975 156.32 158.951 155.748 157.407 155.536C157.198 154.605 156.988 153.639 156.774 152.645C158.055 152.895 160.019 153.263 160.744 153.339C160.763 153.344 160.788 153.347 160.815 153.347C161.147 153.347 161.426 153.096 161.466 152.762C161.506 152.401 161.246 152.077 160.881 152.036C160.102 151.956 157.632 151.483 156.472 151.254C156.283 150.375 156.092 149.485 155.903 148.575C160.346 149.278 163.904 150.353 163.944 150.368C164.007 150.386 164.074 150.393 164.137 150.393C164.418 150.393 164.68 150.218 164.763 149.933C164.87 149.588 164.672 149.22 164.327 149.12C164.286 149.102 160.384 147.921 155.613 147.208C155.429 146.326 155.246 145.434 155.064 144.545C158.221 145.059 161.812 146.265 161.854 146.282C161.925 146.305 161.995 146.316 162.066 146.316C162.336 146.316 162.594 146.143 162.686 145.873C162.804 145.533 162.623 145.16 162.276 145.043C162.097 144.982 158.16 143.654 154.789 143.179C154.636 142.412 154.484 141.645 154.334 140.884C155.998 141.17 158.109 141.605 158.137 141.613C158.182 141.623 158.229 141.628 158.271 141.628C158.576 141.628 158.849 141.421 158.914 141.109C158.989 140.753 158.761 140.407 158.407 140.334C158.272 140.308 155.803 139.79 154.069 139.514C153.947 138.88 153.831 138.256 153.711 137.635C154.906 137.774 158.107 138.176 159.417 138.65C159.492 138.679 159.568 138.692 159.643 138.692C159.908 138.692 160.163 138.523 160.258 138.26C160.384 137.922 160.208 137.544 159.867 137.419C158.197 136.816 154.079 136.354 153.467 136.289C153.438 136.141 153.411 135.993 153.385 135.839C157.565 136.34 161.612 136.933 165.489 137.639C165.584 137.656 165.684 137.661 165.78 137.661C166.36 137.661 166.901 137.362 167.202 136.848C167.547 136.251 167.482 135.499 167.034 134.97C167.003 134.934 165.752 133.439 163.817 130.66C164.437 130.79 165.153 130.931 165.67 131.018C165.709 131.028 165.746 131.028 165.784 131.028C166.096 131.028 166.376 130.801 166.429 130.485C166.49 130.127 166.246 129.79 165.891 129.728C164.8 129.543 162.791 129.106 162.789 129.106L162.776 129.14C162.33 128.468 161.847 127.727 161.345 126.94C162.235 127.121 163.52 127.413 164.773 127.802C164.84 127.824 164.907 127.83 164.971 127.83C165.25 127.83 165.509 127.652 165.599 127.373C165.704 127.027 165.511 126.659 165.166 126.552C162.879 125.839 160.526 125.453 160.423 125.436C160.417 125.433 160.411 125.436 160.398 125.436C160.331 125.328 160.264 125.214 160.196 125.101C163.006 125.321 165.871 125.589 168.59 125.868C169.611 131.396 174.104 154.841 179.848 171.833ZM165.211 143.386C165.297 143.427 165.391 143.447 165.477 143.447C165.727 143.447 165.967 143.301 166.077 143.057C166.226 142.73 166.081 142.344 165.749 142.195C164.226 141.51 161.117 140.67 160.983 140.634C160.639 140.544 160.272 140.748 160.179 141.094C160.083 141.442 160.292 141.805 160.641 141.9C160.674 141.906 163.785 142.749 165.211 143.386ZM166.114 154.568C166.194 154.599 166.278 154.619 166.358 154.619C166.619 154.619 166.864 154.461 166.968 154.207C167.103 153.871 166.94 153.492 166.604 153.354C165.697 152.989 163.835 152.463 163.758 152.441C163.415 152.344 163.045 152.546 162.95 152.894C162.85 153.24 163.051 153.605 163.403 153.7C163.419 153.706 165.276 154.23 166.114 154.568ZM169.336 161.358C165.907 160.096 161.712 159.723 161.535 159.709C161.187 159.675 160.858 159.944 160.827 160.307C160.796 160.665 161.061 160.981 161.422 161.015C161.465 161.018 165.619 161.385 168.886 162.589C168.962 162.614 169.036 162.625 169.115 162.625C169.381 162.625 169.631 162.462 169.727 162.199C169.852 161.857 169.68 161.484 169.336 161.358ZM170.628 158.554C170.699 158.204 170.464 157.857 170.111 157.787C169.47 157.667 167.882 157.141 167.322 156.951C166.98 156.832 166.606 157.015 166.489 157.356C166.37 157.694 166.554 158.069 166.895 158.186C166.979 158.215 169 158.91 169.857 159.076C169.901 159.081 169.944 159.083 169.987 159.083C170.291 159.082 170.566 158.869 170.628 158.554ZM146.337 82.4352C147.614 91.6225 148.922 100.569 149.846 106.778C149.788 106.775 149.728 106.76 149.667 106.763C149.565 106.765 145.152 106.963 138.622 107.185C138.515 106.356 138.409 105.526 138.311 104.734C139.79 104.673 142.545 104.606 145.067 104.785C145.083 104.785 145.098 104.785 145.116 104.785C145.457 104.785 145.743 104.522 145.768 104.176C145.795 103.818 145.522 103.504 145.162 103.479C142.482 103.289 139.63 103.364 138.155 103.428C138.103 102.989 138.046 102.536 137.998 102.107C140.605 102.189 141.766 102.45 141.768 102.452C141.9 102.481 142.032 102.501 142.166 102.501C142.557 102.501 142.936 102.363 143.239 102.102C143.431 101.934 143.578 101.725 143.675 101.493C144.017 101.493 144.465 101.493 145.084 101.518C145.096 101.522 145.103 101.522 145.114 101.522C145.462 101.522 145.756 101.246 145.767 100.891C145.783 100.533 145.5 100.229 145.138 100.212C144.549 100.187 144.087 100.181 143.73 100.185C143.644 99.4179 143.544 98.6757 143.428 97.9698C143.975 97.9623 144.558 97.9748 144.997 98.0571C145.034 98.0646 145.074 98.0671 145.114 98.0671C145.425 98.0671 145.703 97.8451 145.758 97.5283C145.822 97.174 145.583 96.8323 145.227 96.7687C144.633 96.6651 143.867 96.6489 143.189 96.6689C142.936 95.4316 142.635 94.3078 142.282 93.2876C142.811 93.2676 143.561 93.2776 144.582 93.3898C144.608 93.3923 144.631 93.3986 144.654 93.3986C144.984 93.3986 145.271 93.1479 145.306 92.8124C145.346 92.4532 145.084 92.1301 144.726 92.089C143.335 91.9368 142.39 91.9543 141.793 92.0004C141.456 91.2096 141.089 90.4862 140.681 89.8551C141.408 89.8289 142.077 89.8501 142.384 89.9611C142.459 89.9911 142.537 90.0035 142.614 90.0035C142.88 90.0035 143.13 89.8426 143.228 89.577C143.355 89.239 143.181 88.8635 142.842 88.7388C142.12 88.4632 140.732 88.5131 139.735 88.5954C139.433 88.2561 139.119 87.9543 138.786 87.6886C138.564 87.5078 138.344 87.3519 138.128 87.2197C139.661 87.1311 141.766 87.0962 143.48 87.3943C143.52 87.403 143.558 87.4042 143.595 87.4042C143.91 87.4042 144.187 87.1822 144.24 86.8617C144.307 86.5087 144.065 86.1682 143.706 86.1058C141.184 85.6643 138.007 85.8863 136.6 86.0235C136.563 85.3338 136.532 84.6977 136.504 84.1015C137.496 84.0217 139.016 83.9631 140.348 84.2175C140.389 84.2237 140.43 84.2312 140.473 84.2312C140.782 84.2312 141.057 84.0117 141.118 83.6999C141.187 83.3407 140.951 83.0002 140.598 82.9328C139.136 82.6522 137.524 82.7058 136.453 82.7931C136.427 82.0123 136.407 81.3401 136.394 80.7738C136.797 80.8723 137.202 80.9584 137.605 81.0644C138.29 81.2403 139.001 80.9584 139.386 80.3747C139.77 79.7872 139.738 79.0252 139.309 78.4726C139.241 78.3878 136.442 74.7745 132.717 69.0184C133.178 69.0184 133.648 69.0234 133.995 69.0433C134.007 69.0433 134.021 69.0433 134.032 69.0433C134.378 69.0433 134.667 68.7739 134.686 68.4272C134.706 68.0692 134.432 67.7574 134.07 67.7374C133.463 67.7013 132.54 67.7063 131.883 67.715C131.619 67.3034 131.355 66.8818 131.085 66.4503C131.861 66.333 132.842 66.2644 133.73 66.4216C134.077 66.4802 134.426 66.247 134.49 65.8915C134.555 65.5373 134.316 65.1968 133.958 65.1332C132.67 64.9037 131.267 65.0721 130.338 65.2504C129.983 64.6667 129.622 64.068 129.258 63.4593C129.672 63.4544 130.175 63.4593 130.702 63.4955C131.066 63.5155 131.379 63.2448 131.401 62.8844C131.428 62.5239 131.151 62.2108 130.79 62.1871C129.823 62.1235 128.949 62.146 128.497 62.1697C128.148 61.5722 127.795 60.9611 127.445 60.3387C128.818 60.1229 130.425 59.9296 131.004 60.0157C131.37 60.0718 131.698 59.8273 131.753 59.4694C131.808 59.1114 131.561 58.7759 131.202 58.7223C130.266 58.5801 127.986 58.9181 126.762 59.1214C126.375 58.4242 125.987 57.717 125.597 56.996C131.685 56.2202 138.422 56.3375 143.035 56.5707C143.374 59.6914 143.799 63.2348 144.277 67.0066C143.74 67.2111 143.18 67.5429 142.671 68.0605C140.673 70.0835 140.068 74.1446 140.873 80.1252C140.981 80.931 141.665 81.5346 142.48 81.5434C142.504 81.5434 144.358 81.597 146.337 82.4352ZM136.61 62.9081C136.648 62.5513 136.388 62.2283 136.029 62.1896C134.303 62.005 132.998 62.1846 132.942 62.1934C132.584 62.242 132.335 62.575 132.387 62.933C132.437 63.2872 132.752 63.5417 133.127 63.4893C133.138 63.4855 134.336 63.3221 135.885 63.4905C135.911 63.4955 135.935 63.4955 135.959 63.4955C136.29 63.4943 136.575 63.2448 136.61 62.9081Z" fill="#E7D0B0"/>
<path d="M137.855 184.512C138.168 184.254 139.155 183.766 139.709 184.512C139.83 185.116 140.333 185.184 140.594 185.184C141.128 185.184 141.527 184.909 141.718 184.218C142.236 183.543 143.536 184.198 143.536 184.198C143.676 185.89 142.357 187.138 140.593 187.138C138.08 187.139 137.578 185.08 137.855 184.512ZM69.8038 190.695C69.8038 194.12 64.6072 195.918 62.1476 196.174C62.1651 197.592 62.2527 198.888 62.2689 200.357C61.7125 200.738 61.1586 200.876 60.7797 200.876C60.4158 200.876 60.0707 200.771 59.7744 200.426C59.6531 198.838 59.6181 196.554 59.6181 194.689C59.6181 193.115 59.6356 191.943 59.6531 191.232C59.2017 190.872 59.0479 190.387 59.3217 189.645C60.8472 187.743 63.2717 187.623 65.0911 187.623C67.1342 187.62 69.8038 188.676 69.8038 190.695ZM67.083 190.887C67.083 190.144 65.7675 189.918 64.6934 189.918C63.9495 189.918 62.8053 190.212 62.2852 190.454C62.2164 191.302 62.1801 192.77 62.1476 193.789C63.4981 193.618 67.083 192.737 67.083 190.887ZM57.2073 193.91C57.2073 198.575 53.5523 200.665 50.3125 200.665C47.0565 200.665 44.5469 198.145 44.5469 194.24C44.5469 190.004 47.698 187.569 51.0415 187.569C54.6615 187.569 57.2073 190.094 57.2073 193.91ZM54.5414 193.91C54.5414 191.355 52.8959 190.074 51.1128 190.074C49.1047 190.074 47.1453 191.37 47.1453 194.273C47.1453 196.814 48.5307 198.091 50.4351 198.091C51.9443 198.091 54.5414 197.314 54.5414 193.91ZM191.034 187.504C190.77 187.105 190.288 186.878 189.836 186.878C189.249 186.878 188.676 187.173 188.47 187.78C188.47 189.885 188.486 190.939 188.521 192.028C186.392 192.253 184.865 192.374 183.861 192.427C183.809 189.955 183.776 187.743 183.409 187.088C182.37 186.773 181.195 187.275 180.969 188.036C180.915 189.196 181.105 192.148 181.105 192.979C180.638 193.495 180.603 194.586 181.105 195.071L181.21 199.478C181.4 199.91 181.921 200.099 182.439 200.099C183.117 200.099 183.809 199.754 183.809 199.079C183.809 198.146 183.686 195.398 183.759 194.984C184.293 194.843 187.119 194.553 188.606 194.397C188.606 195.829 188.59 197.712 188.575 199.096C188.832 199.666 189.424 199.91 189.941 199.91C190.599 199.91 191.187 199.564 191.292 198.974C191.258 197.817 191.258 196.314 191.258 194.811C191.258 192.167 191.242 189.33 191.034 187.504ZM193.358 187.862C193.12 188.486 193.307 189.297 193.743 189.989C194.988 189.955 195.957 189.762 197.134 189.592C197.067 192.148 197.117 198.418 197.36 199.7C198.159 200.221 199.077 199.961 199.821 199.268L199.72 189.283C201.276 189.107 202.264 189.022 203.008 188.747C203.445 188.069 203.46 187.139 202.958 186.638C201.19 186.636 194.798 187.257 193.358 187.862ZM207.985 195.553C208.001 196.971 208.089 198.267 208.105 199.734C207.55 200.117 206.996 200.253 206.618 200.253C206.253 200.253 205.907 200.15 205.61 199.805C205.489 198.217 205.455 195.933 205.455 194.065C205.455 192.493 205.471 191.32 205.489 190.61C205.039 190.25 204.882 189.762 205.161 189.022C206.684 187.12 209.109 187 210.929 187C212.97 187 215.641 188.056 215.641 190.075C215.642 193.494 210.444 195.292 207.985 195.553ZM212.921 190.266C212.921 189.522 211.605 189.297 210.531 189.297C209.787 189.297 208.642 189.591 208.125 189.833C208.055 190.681 208.017 192.147 207.986 193.168C209.336 192.995 212.921 192.115 212.921 190.266ZM42.7664 194.999C42.7664 198.922 38.1749 200.599 34.3124 200.665C33.7059 200.665 33.3571 200.149 33.0657 199.389C32.9444 198.145 32.8757 196.987 32.8044 195.362C32.4755 195.206 32.3555 194.807 32.3555 194.409C32.3555 194.031 32.4593 193.652 32.7194 193.428C32.6844 192.216 32.6844 191.8 32.6844 191.023C32.2342 190.609 32.0079 190.056 32.0079 189.42C33.5146 188.173 35.3014 187.569 37.9498 187.569C40.133 187.569 42.0736 188.139 42.0736 189.557C42.0736 190.919 41.3121 191.871 40.168 192.651C41.6723 192.926 42.7664 193.443 42.7664 194.999ZM35.3702 192.581C37.8273 192.115 39.3553 191.336 39.3553 190.178C39.3553 189.954 38.695 189.833 38.0198 189.833C37.0845 189.833 35.9592 190.057 35.3365 190.298C35.2814 190.664 35.3502 192.011 35.3702 192.581ZM40.1505 195.292C40.1505 194.847 39.7341 194.482 38.7288 194.482C37.7435 194.482 36.0942 194.847 35.4552 195.222C35.4552 196.347 35.5403 197.42 35.6291 198.092C37.4121 197.867 40.1505 196.934 40.1505 195.292ZM20.4667 188.486C20.2253 189.107 20.4154 189.918 20.848 190.61C22.0947 190.576 23.065 190.386 24.2429 190.213C24.1741 192.772 24.2254 199.044 24.4692 200.322C25.267 200.841 26.1835 200.581 26.93 199.888L26.825 189.903C28.3855 189.727 29.372 189.642 30.1173 189.367C30.5499 188.692 30.5687 187.759 30.0673 187.257C28.2954 187.257 21.9046 187.884 20.4667 188.486ZM132.079 187.983C131.716 187.536 130.83 187.275 130.382 187.153C129.03 187.398 125.688 193.53 124.161 195.917C124.145 194.225 124.266 188.916 124.058 187.067C123.209 186.947 122.049 187.052 121.477 187.724C121.477 190.937 121.392 197.848 121.582 199.819C122.326 200.508 122.656 200.442 123.575 200.629C124.478 200.233 127.819 194.843 129.447 192.164C129.343 194.271 129.238 195.674 129.238 196.846C129.238 198.488 129.428 199.887 130.021 200.286C130.623 200.598 131.94 200.233 132.165 199.441C132.098 198.851 132.08 198.074 132.08 197.141C132.061 195.757 132.305 188.831 132.079 187.983ZM166.448 196.778C166.011 196.729 165.51 196.778 165.008 196.778C165.008 189.989 164.992 187.811 164.836 187.017C164.504 186.618 164.038 186.549 163.607 186.549C163.065 186.549 162.513 186.656 162.221 187.224L162.272 197.056C160.921 197.35 159.275 197.47 157.994 197.506C157.819 195.743 157.994 188.366 157.975 187.257C157.577 186.931 157.161 186.81 156.799 186.81C156.017 186.81 155.153 187.295 155.118 187.916C155.134 194.464 155.151 197.314 155.324 198.993C155.584 199.752 155.947 199.941 156.503 200.201C158.355 200.13 162.166 199.685 164.314 199.444C164.314 200.253 164.314 201.359 164.731 202C165.442 202 166.378 201.895 166.914 201.289L167.05 197.678C166.876 197.214 166.774 197.09 166.448 196.778ZM145.718 187.983C145.353 187.536 144.473 187.275 144.022 187.153C142.671 187.398 139.328 193.53 137.801 195.917C137.785 194.225 137.906 188.916 137.7 187.067C136.849 186.947 135.69 187.052 135.117 187.724C135.117 190.937 135.031 197.848 135.221 199.819C135.969 200.508 136.293 200.442 137.214 200.629C138.113 200.233 141.458 194.843 143.084 192.164C142.982 194.271 142.877 195.674 142.877 196.846C142.877 198.488 143.068 199.887 143.656 200.286C144.263 200.598 145.58 200.233 145.805 199.441C145.735 198.851 145.72 198.074 145.72 197.141C145.702 195.757 145.943 188.831 145.718 187.983ZM177.447 196.639C175.544 197.176 173.255 197.49 171.663 197.575C171.663 196.33 171.694 195.363 171.748 194.617C172.196 194.586 172.562 194.586 173.255 194.533C174.469 194.464 175.941 194.362 177.05 194.226C177.551 193.996 177.829 193.39 177.829 192.843C177.829 192.444 177.656 191.978 177.189 191.685C175.453 191.892 173.028 192.077 171.868 192.133C171.834 191.456 171.852 190.65 171.868 189.973C173.496 189.763 175.974 189.763 177.582 189.454C178.069 189.283 178.345 188.73 178.345 188.192C178.345 187.885 178.244 187.504 177.999 187.154C177.17 186.964 172.024 187.343 170.101 187.448C169.427 187.78 169.097 187.95 168.561 188.401C168.561 189.073 168.767 189.643 169.218 190.024C169.218 190.474 169.202 191.113 169.132 192.669C168.906 192.907 168.751 193.324 168.751 193.704C168.751 194.065 168.856 194.41 169.113 194.657L168.977 198.974C169.495 199.7 169.755 199.927 170.464 200.201C172.978 200.117 176.079 199.961 178.33 198.908C178.485 198.523 178.54 198.216 178.54 198.006C178.541 197.297 178.175 196.693 177.447 196.639ZM92.9538 197.265C91.0507 197.802 88.7612 198.111 87.1682 198.196C87.1682 196.954 87.202 195.987 87.2545 195.241C87.7059 195.207 88.0685 195.207 88.7612 195.156C89.9754 195.088 91.4471 194.983 92.5562 194.847C93.0576 194.62 93.3339 194.016 93.3339 193.464C93.3339 193.065 93.1626 192.599 92.6925 192.306C90.9619 192.513 88.5349 192.703 87.3745 192.754C87.342 192.082 87.3583 191.271 87.3745 190.594C89.0025 190.387 91.4808 190.387 93.0901 190.075C93.5753 189.904 93.8529 189.352 93.8529 188.815C93.8529 188.501 93.7491 188.125 93.509 187.78C92.6762 187.59 87.5308 187.97 85.6077 188.069C84.9337 188.401 84.6036 188.571 84.0672 189.022C84.0672 189.695 84.2773 190.265 84.7262 190.65C84.7262 191.095 84.7062 191.736 84.6411 193.29C84.4148 193.531 84.2585 193.945 84.2585 194.326C84.2585 194.689 84.3623 195.032 84.6211 195.279L84.4836 199.595C85.005 200.324 85.2638 200.548 85.9728 200.823C88.4849 200.738 91.5846 200.582 93.8366 199.529C93.9942 199.149 94.0442 198.837 94.0442 198.632C94.0454 197.92 93.6816 197.314 92.9538 197.265ZM118.997 188.9C118.562 188.069 117.646 187.655 116.987 187.845L112.156 192.185C112.139 191.23 112.45 188.883 112 187.845C111.566 187.689 111.186 187.62 110.891 187.62C110.301 187.62 109.782 187.81 109.59 188.38C109.505 189.367 109.47 190.767 109.47 192.304C109.47 195.154 109.608 198.63 109.782 200.355C110.77 200.925 111.775 200.408 112.414 199.834C112.414 198.781 112.186 196.432 112.186 195.412C112.449 195.171 112.708 194.944 112.952 194.773L117.731 200.769C118.285 200.598 119.602 200.214 119.602 199.128C118.407 197.174 115.929 194.272 114.822 193.113C115.775 192.251 118.129 190.505 118.997 188.9ZM80.4273 187.139C79.7871 187.139 78.8493 187.622 78.713 188.157C78.9018 190.003 79.0043 191.977 79.0043 193.652C78.3479 194.24 77.2725 194.585 76.2522 194.585C75.1943 194.585 73.8427 194.015 73.8427 192.374C73.8427 191.08 74.1215 189.762 75.0543 188.381C74.7467 187.78 73.8789 187.295 73.2562 187.295C72.9611 187.295 72.6498 187.363 72.3722 187.604C71.5069 189.209 71.178 190.649 71.178 192.043C71.178 195.622 73.6713 197.162 75.9771 197.162C77.1012 197.162 78.2116 196.816 79.0943 196.4V200.324C79.4395 200.564 79.8533 200.72 80.2197 200.72C80.7211 200.72 81.2763 200.496 81.5701 200.061C81.6739 196.019 81.6739 192.083 81.4301 187.726C81.2238 187.309 80.8224 187.139 80.4273 187.139ZM105.47 195.62C103.825 197.625 102.906 198.161 101.382 198.161C99.9773 198.161 98.3856 196.919 98.3856 194.879C98.3856 191.284 100.414 190.092 102.213 190.092C103.669 190.092 104.396 190.734 105.003 191.454C105.885 191.318 106.718 190.695 106.751 189.937C106.387 188.692 104.395 187.725 102.387 187.725C98.5769 187.725 95.716 190.317 95.716 194.723C95.716 197.608 97.9342 200.631 101.278 200.631C103.376 200.631 105.763 199.473 107.097 197.469C107.187 196.488 106.338 195.691 105.47 195.62Z" fill="#231F20"/>
<path d="M35.4977 51.3933L38.5737 56.2153L29.312 70.3006L26.4448 67.5678L28.0403 64.5769L21.1143 58.262L18.2534 62.6873L15.1987 60.8588L25.6683 46.1312L31.1101 48.456L30.1085 50.9481L27 49.9515L23.2238 55.3272L26.0559 57.3203L28.7881 53.0385L31.5527 55.548L28.4967 59.3147L31.075 61.6246L34.83 55.8249L33.1094 53.3328L35.4977 51.3933ZM52.482 37.3243L47.4703 29.6075L49.9749 27.9187L47.0627 24.4064L38.5737 31.5644L41.6447 34.2685L43.6779 32.5797L45.6047 34.7761L39.0414 40.5085L37.3346 39.1989L39.8104 36.9688L36.3655 33.9454L29.322 41.9017L32.0303 44.1306L34.0623 41.9017L41.3784 47.1714L38.575 50.1436L41.8248 52.2839L49.1721 44.6731L46.1837 42.3083L44.1205 44.4087L41.9561 42.7486L47.7642 37.2482L49.7748 39.5394L47.7442 41.0249L50.4663 43.4882L56.8959 38.1574L54.7177 35.2837L52.482 37.3243ZM231.787 120.271L229.474 120.246L229.137 110.288L231.51 110.015L231.434 113.802L236 113.335L233.575 95.2395L230.096 95.7085L231.125 104.113L222.699 105.733L222.277 102.848L218.014 104.029L219.077 113.358L223.295 113.269L223.091 110.959L225.738 110.489L226.537 120.206L223.635 120.038L223.565 116.181L219.042 115.976L218.816 125.443L223.565 126.072L223.707 123.733L231.399 125.063L230.887 131.438L235.451 131.696L235.911 116.519L231.836 116.933L231.787 120.271ZM16.4191 139.36L16.7854 141.786L11.9176 142.295L16.8905 135.294L10.0382 130.502L14.8248 129.469L15.3337 132.056L18.9636 131.32L17.1643 121.476H14.2058V125.294L5.09165 127.47L4.47645 120.381L0.298847 119.384L1.20789 132.434L5.15417 132.892L5.04288 131.111L11.4887 136.621L7.1198 142.689L6.02445 140.407L2.59209 142.346L7.42865 154.906L11.2249 153.074L9.38928 147.946L17.4031 145.976L18.4585 150.348L22.476 149.452L19.8614 138.62L16.4191 139.36ZM3.46362 112.503L0 111.708L0.585189 100.444L16.0652 95.5601L16.234 92.4706L20.6042 92.0727L18.4772 101.942L15.7276 102.073L16.0077 99.8257L14.4559 100.362L13.0317 109.743L14.9961 111.506L15.1074 109.148L17.9771 109.932L17.163 118.637L13.5856 117.74L14.037 114.537L4.43768 107.355L3.46362 112.503ZM5.8769 103.314L10.4396 107.414C10.7335 105.702 11.2249 103.163 11.5812 101.351L5.8769 103.314ZM23.8865 73.0146L11.8088 66.2931L6.05571 80.4944C6.05571 80.4944 15.0886 80.6491 18.3309 83.0638C20.0415 84.3372 19.8489 85.9237 19.0049 86.3453C17.6695 87.0101 15.9827 84.8648 15.9827 84.8648L13.3418 87.0675C13.3418 87.0675 16.384 91.3294 20.6042 89.668C24.8243 88.0067 24.2016 82.0248 20.6042 79.6999C17.0067 77.3738 11.6913 77.1143 11.6913 77.1143L13.8157 71.9806L22.2259 76.709L21.8383 78.9765L24.3329 80.8898L28.2029 72.4009L24.9731 70.6248L23.8865 73.0146ZM73.1149 28.0671C70.444 31.1341 59.7255 36.3452 59.7255 36.3452L57.4848 33.096L60.1707 31.2838L55.6105 23.4635L52.7358 25.4503L50.7927 22.3097L60.1719 16.5424L62.2301 19.3612L58.889 21.0937L60.6871 24.8092C61.7812 22.7575 64.5421 18.8511 69.2986 18.8511C74.0502 18.8486 76.2997 24.4064 73.1149 28.0671ZM67.2392 23.2065C64.6046 24.4064 62.2289 27.3063 62.2289 27.3063L63.6406 29.9979C63.6406 29.9979 69.1211 26.7138 70.0014 25.3206C71.0942 23.5907 69.4037 22.2224 67.2392 23.2065ZM126.772 14.6653L126.867 18.8536L116.658 18.452L116.52 14.9122L118.87 14.9048L117.964 13.4592L108.631 13.0389L107.936 14.7638L110.966 14.9709L110.578 18.3597L101.424 18.9022L100.968 14.8199L104.244 14.7414L109.883 3.71933L105.302 3.6208L104.743 0.473959L116.01 0L123.878 14.8898L126.772 14.6653ZM116.345 10.8611L112.801 4.85808L109.845 10.5007L116.345 10.8611ZM169.092 21.6213C172.988 17.7024 179.364 25.7148 179.364 25.7148L177.692 26.7562L180.061 29.5351L188.442 24.6084L185.775 21.0625L183.044 23.2851C183.044 23.2851 181.302 19.4672 175.821 16.6522C167.951 12.6086 157.481 20.036 166.079 30.3408C171.758 37.1471 180.665 38.8621 180.665 38.8621L181.849 34.5778C173.702 33.6922 165.192 25.5389 169.092 21.6213ZM199.518 41.9117L202.767 44.7118L201.734 48.6132L206.397 50.3282L208.021 43.5144L191.767 28.5909L184.863 31.1204L185.839 35.1603L190.895 33.1584L194.863 37.8943L190.279 42.9519L187.997 40.8552L185.27 43.7901L194.879 52.6057L197.465 50.3693L194.792 47.4083L199.518 41.9117ZM213.46 84.1651L208.589 72.7701L212.305 71.0776L214.702 76.8449L226.398 80.8125L225.13 75.9357L229.475 74.5787L231.84 87.489L221.465 97.4621L221.927 100.162L217.468 101.665L215.328 90.9701L217.655 89.8863L218.369 92.7038L220.618 91.0151L218.688 81.4735L215.215 80.5069L215.959 83.746L213.46 84.1651ZM221.27 82.1183L222.736 89.0706L227.41 84.3709L221.27 82.1183ZM153.756 5.66505L152.703 8.66846L150.851 8.02612L147.193 18.6016L149.223 19.3487L148.285 22.8323L139.85 20.021L140.793 16.747L143.091 17.4492L144.055 14.4358C143.769 14.3896 143.203 14.3547 142.936 14.3023L142.964 14.3285C137.681 13.983 135.476 19.3375 135.476 19.3375L129.173 18.533L129.609 14.6902L133.986 15.1816C135.094 13.6812 136.542 12.7058 137.691 12.1072C133.923 9.13368 135.055 4.50386 139.066 2.71154C144.514 0.275645 153.756 5.66505 153.756 5.66505ZM139.905 6.6479C139.011 9.26839 141.741 11.254 144.993 11.254L147.011 6.40094C147.012 6.40219 140.782 4.06981 139.905 6.6479ZM94.7093 16.1158C90.9556 12.6572 88.1372 12.409 86.9218 12.515L89.9778 8.79193L94.4668 7.43991L93.3277 3.01837L87.4783 5.3258L80.9074 14.3909L79.6732 11.7342L82.0828 10.8374L80.6048 8.08224L71.6732 11.5421L72.6185 14.6441L75.5282 13.5278L78.868 21.3469L76.1696 22.3733L77.5025 25.7771L87.1282 22.3621L85.8077 18.3996L83.3019 19.552L82.5217 17.8695L84.401 15.582C90.1254 15.6244 92.5149 20.7981 92.5149 20.7981L99.3509 19.2664L98.3343 15.0669L94.7093 16.1158ZM231.095 137.129L235.108 136.592L232.309 148.802L217.39 152.314L215.836 156.595L211.971 155.394L215.416 144.672L219.176 145.196L218.852 146.76L220.616 146.363L223.282 138.655L221.184 136.867L220.266 139.895L216.881 139.177L218.417 128.197L223.065 129.074L222.458 132.153L230.605 141.398L231.095 137.129ZM228.425 144.193L225.368 140.802L223.54 145.618L228.425 144.193ZM209.294 67.5341L206.742 69.4998L198.927 58.1248L201.679 56.1018L203.226 58.1261L211.219 52.693L209.64 50.5265L212.577 48.6145C212.577 48.6145 221.905 58.8108 223.183 63.972C224.307 68.5195 220.071 73.062 215.707 71.1724C211.347 69.2828 208.432 63.3957 208.2 61.1931L206.382 62.7609L209.294 67.5341ZM211.365 59.0216C211.365 59.0216 212.965 65.117 215.517 66.5837C217.559 67.7537 219.411 66.3193 219.136 64.3798C218.678 61.1457 214.413 56.8464 214.413 56.8464L211.365 59.0216Z" fill="#231F20"/>
</svg>
