<svg width="1145" height="972" viewBox="0 0 1145 972" fill="none" xmlns="http://www.w3.org/2000/svg">
<path fill-rule="evenodd" clip-rule="evenodd" d="M601.931 3.00316C601.737 5.77276 602.397 7.68919 603.121 9.53928C605.073 13.3311 608.746 15.4071 612.044 17.856C614.824 18.0503 614.617 21.2259 617.398 21.4203C618.766 22.8248 621.045 23.3225 622.75 24.3905C624.939 27.7494 626.49 31.745 629.294 34.4909C631.605 35.352 633.305 36.8213 636.432 36.8671C636.483 38.3996 638.977 37.4928 638.217 39.8374C640.078 39.959 642.584 39.4361 643.571 40.4314C646.854 41.55 648.936 44.3528 652.492 45.7779C654.822 46.7116 658.586 47.5379 661.414 48.154C664.399 48.805 667.95 48.7497 670.932 49.9362C671.977 52.6552 671.277 57.1185 672.718 59.4426C672.071 63.0716 670.701 67.0499 672.718 70.137C670.378 71.5637 669.108 74.0584 666.769 75.485C652.841 70.7311 645.143 81.8979 629.892 80.8315C625.446 80.5218 622.415 77.9892 616.808 79.6434C614.139 79.9309 614.15 77.5437 612.048 77.2672C612.191 85.8382 614.231 92.515 617.997 97.4664C618.706 101.964 619.664 105.447 621.566 109.943C621.713 110.291 622.674 111.449 622.755 111.725C623.238 113.387 622.923 115.381 623.35 117.072C624.96 123.45 627.986 129.774 627.515 137.865C629.645 143.066 631.826 148.213 632.867 154.5C640.194 164.213 641.271 180.169 648.332 190.148C649.499 201.457 652.139 211.296 658.444 217.475C660.34 223.605 660.989 230.951 663.798 235.892C664.825 237.703 665.568 238.368 666.772 239.457C667.893 240.473 669.358 240.953 670.34 242.427C670.957 243.991 671.052 246.073 670.935 248.369C671.707 252.55 676.832 252.382 675.694 258.47C676.786 255.204 678.179 252.238 680.452 250.151C681.001 246.342 681.912 242.895 684.617 241.239C684.475 238.721 685.164 237.032 685.806 235.298C686.436 233.064 688.268 231.447 689.375 229.358C689.883 228.401 690.008 226.806 690.564 225.794C691.059 224.895 691.622 224.105 692.35 223.417C692.374 220.866 693.125 219.043 694.134 217.477C693.337 208.761 696.698 204.195 700.676 200.248C701.747 191.018 704.827 183.796 706.625 175.295C706.367 168.468 706.019 161.865 706.031 156.284C708.044 150.574 708.062 142.867 709.599 136.678C710.947 136.043 712.215 135.331 713.169 134.302C718.155 134.669 721.935 136.239 726.848 136.678C729.598 137.298 730.257 140.007 731.013 142.62C737.216 144.147 741.824 147.267 745.881 150.937C755.457 154.84 763.751 160.022 776.81 160.444C777.506 163.06 777.786 166.861 776.216 168.762C774.73 172.034 770.363 172.919 767.293 175.296C758.35 178.244 741.575 173.372 736.958 180.644C735.606 180.215 733.92 180.115 732.795 179.456C733.066 192.058 736.802 201.198 741.123 209.756C741.123 211.933 741.123 214.112 741.123 216.29C741.451 218.934 743.689 219.668 743.502 222.825C744.253 225.046 744.767 227.502 746.476 228.767C746.501 234.287 749.459 236.877 750.046 241.836C752.192 245.236 753.779 249.197 754.804 253.719C756.741 256.348 757.377 259.343 758.372 262.631C759.898 267.671 761.831 273.25 763.131 278.672C765.498 283.834 767.366 289.494 768.486 295.901C769.314 298.042 770.488 299.841 771.459 301.841C771.246 306.322 774.316 310.327 772.649 314.318C773.821 315.326 774.245 317.081 774.433 319.07C774.702 320.783 776.538 320.928 776.217 323.229C777.963 325.445 777.422 329.947 779.787 331.547C779.787 333.527 779.787 335.508 779.787 337.488C780.054 339.2 781.891 339.346 781.571 341.646C780.037 343.679 778.046 345.253 777.407 348.182C774.444 350.173 770.925 351.609 769.08 354.717C768.033 358.162 768.318 364.288 769.08 367.787C770.395 371.424 774.428 372.347 776.812 374.916C781.652 379.193 783.511 386.444 792.277 386.798C795.559 385.887 792.289 382.089 794.656 380.262C793.948 372.625 795.861 367.602 797.036 361.845C801.001 361.845 804.967 361.845 808.932 361.845C809.543 364.008 810.805 365.52 811.311 367.787C816.985 370.833 821.615 374.924 828.56 376.7C833.528 380.452 840.126 382.575 846.404 385.016C848.636 387.143 849.717 390.421 851.756 392.74C854.146 394.117 857.602 394.426 860.679 395.117C860.513 401.33 858.722 405.198 854.732 407.593C852.036 409.211 848.609 409.075 845.214 409.969C841.983 410.821 839.18 412.328 836.292 412.94C832.698 413.112 828.282 412.464 825.585 413.534C824.225 414.739 828.174 415.667 828.559 417.098C830.156 417.88 831.72 418.694 833.316 419.474C836.519 421.027 839.074 423.23 841.644 425.415C841.617 426.431 842.087 426.954 842.834 427.195C845.341 434.992 845.648 444.98 847.593 453.338C848.446 456.447 850.927 457.926 851.756 461.061C851.793 464.985 851.103 469.635 854.137 470.567C857.949 471.01 856.951 466.646 858.895 465.221C860.01 460.709 861.476 456.511 862.463 452.15C863.504 447.557 864.075 442.852 865.438 438.487C868.023 430.203 872.906 422.563 873.766 413.534C877.221 403.519 881.428 394.254 883.878 383.234C885.984 381.378 886.529 377.962 888.636 376.104C889.482 372.189 890.963 366.49 892.206 361.251C893.135 357.334 894.637 353.116 895.18 348.776C895.987 342.317 895.256 334.775 895.775 327.981C896.863 313.738 892.124 298.549 898.748 288.771C902.964 288.426 906.61 287.513 911.239 287.583C913.995 289.78 915.296 293.432 918.376 295.307C923.907 295.724 929.57 296.007 935.03 296.495C937.536 297.756 939.616 299.44 941.574 301.247C945.172 301.81 947.991 303.154 951.091 304.218C957.118 305.275 964.266 303.938 965.365 308.97C966.41 313.759 961.724 314.636 959.418 318.476C956.49 319.461 953.709 320.47 951.09 322.041C948.725 323.459 946.961 325.725 944.546 326.793C943.385 327.308 941.164 327.629 939.786 327.981C935.495 329.079 930.96 330.122 926.108 331.545C924.349 332.362 923.888 334.476 921.945 335.11C922.109 337.323 921.721 339.854 921.945 341.644C922.278 344.341 923.238 346.016 924.323 348.774C925.44 351.618 927.111 356.236 929.081 359.469C929.414 375.88 938.539 388.871 942.762 402.839C943.565 405.498 943.742 408.086 944.546 410.563C945.299 412.883 946.564 414.807 947.52 417.098C951.23 426.006 955.454 434.158 960.605 442.05C963.169 445.977 965.786 449.745 967.742 453.932C969.702 458.127 970.679 462.688 973.691 466.409C975.49 475.154 982.029 487.531 975.475 495.52C973.153 497.359 970.379 498.747 966.553 499.085C967.601 508.084 968.845 516.375 969.528 524.632C969.604 525.548 968.992 525.442 968.933 525.82C968.83 526.465 969.294 528.647 969.528 530.572C970.147 535.642 971.53 542.327 971.312 549.584C972.805 550.468 973.563 552.089 974.286 553.744C975.498 555.306 979.109 554.47 980.83 555.526C981.771 558.915 982.095 561.811 983.208 564.438C985.375 569.549 990.089 572.478 991.536 578.101C994.055 581.725 997.424 584.5 999.864 588.202C1002.72 591.287 1004.92 595.033 1008.79 597.114C1012.89 596.264 1014.23 592.655 1013.54 587.013C1016.19 581.34 1018.18 575.011 1019.49 568.002C1022.08 564.574 1023.08 560.204 1024.25 555.527C1025.36 551.092 1027.07 546.411 1027.82 541.864C1027.17 534.788 1022.49 531.738 1021.87 524.635C1021.8 520.6 1025.3 520.132 1026.04 516.911C1026.84 515.116 1026.84 512.17 1026.04 510.375C1028.03 509.239 1029.19 507.106 1030.8 505.622C1034.3 502.376 1038.21 500.107 1040.31 494.928C1043 495.215 1044.36 496.825 1046.86 497.304C1048 505.267 1051.7 510.689 1056.97 514.533C1061.64 515.547 1065.9 517.81 1070.65 519.286C1075.23 520.709 1080.34 521.508 1084.33 524.039C1083.05 528.642 1082.71 531.798 1083.14 537.109C1076.56 538.066 1071.65 540.687 1067.08 543.645C1063.77 544.297 1060.01 544.506 1058.16 546.615C1058 548.644 1056.65 549.47 1056.97 551.963C1056.68 555.902 1060.77 558.475 1062.32 561.469C1063.21 563.185 1063.41 565.451 1064.1 567.41C1064.42 568.293 1065.02 568.878 1065.29 569.788C1067.76 578.005 1070.03 586.65 1071.84 596.521C1072.6 600.684 1072.55 605.222 1073.62 609.592C1074.95 614.986 1078.32 620.383 1080.16 626.225C1082.07 632.269 1083.29 638.609 1085.52 644.048C1090.27 655.691 1095.15 666.911 1098.01 677.914C1098.17 679.854 1095.7 679.173 1095.63 680.884C1092.79 683.395 1089.99 685.943 1087.9 689.202C1089.33 700.843 1089.23 714.01 1092.66 723.662C1092.36 731.68 1092.85 738.913 1095.03 744.455C1094.49 749.05 1095.61 752.835 1095.63 756.93C1095.65 761.251 1094.25 765.399 1094.44 769.405C1094.69 774.618 1097.51 779.959 1099.2 784.852C1099.52 785.78 1099.44 786.909 1099.79 787.823C1102.19 793.997 1103.75 803.389 1106.34 810.994C1109.88 820.95 1113.66 830.883 1116.45 841.293C1117.41 844.91 1118.07 848.624 1118.23 852.582C1122.37 861.12 1123.23 872.936 1126.56 882.287C1129.35 889.171 1130.12 896.973 1132.51 904.864C1133.21 907.19 1134.34 909.113 1134.89 911.399C1136.51 918.202 1136.76 925.764 1137.86 932.788C1139.49 943.132 1142.77 954.551 1145 964.87C1144.92 967.955 1140.56 966.772 1139.65 969.028C1136.65 969.205 1136.31 972.027 1133.1 972C1124.98 970.011 1121.27 963.623 1116.45 958.335C1115.12 954.712 1113.53 951.347 1111.1 948.829C1109.11 948.243 1107.83 946.944 1105.74 946.453C1103.87 945.016 1102.17 947.726 1099.79 947.641C1095.24 944.227 1086.84 937.319 1079.57 942.294C1076.97 941.526 1075.83 939.296 1074.22 937.54C1072.49 935.896 1070.49 934.534 1068.86 932.788C1065.89 932.785 1064.69 931.02 1062.32 930.41C1051.57 929.824 1041.85 931.575 1033.18 928.628C1029.03 924.258 1023.29 921.472 1018.31 917.933C1012.93 916.967 1008.85 914.707 1005.22 911.991C1001.35 907.939 1000.37 900.995 993.92 899.516C987.36 900.885 984.368 905.819 976.671 906.053C971.861 906.076 968.984 903.83 965.964 901.299C965.234 900.686 965.166 899.638 964.18 898.922C963.403 898.358 962.198 898.06 961.207 897.734C957.763 896.459 954.043 900.071 949.905 900.11C946.063 900.147 943.453 898.202 940.388 896.546C937.37 892.235 935.925 886.348 930.275 884.664C920.927 886.812 913.294 890.674 905.888 894.764C902.035 896.658 899.137 899.508 894.587 900.704C894.302 902.246 891.945 901.94 890.422 903.081C890.215 903.237 890.017 904.18 889.827 904.27C883.981 907.034 876.98 905.812 872.578 901.299C871.161 898.557 870.4 895.157 869.605 891.792C868.131 888.711 864.817 887.468 861.872 885.852C857.465 887.323 853.673 889.572 849.975 891.792C846.329 893.98 842.595 895.796 839.269 898.328C836.668 898.764 834.825 900.129 832.13 900.11C827.119 900.077 823.171 896.763 820.829 893.574C819.918 889.732 819.551 885.345 817.855 882.286C816.808 879.767 813.7 879.306 811.311 878.127C804.636 878.589 799.124 880.211 795.252 883.474C789.697 884.485 786.421 889.914 780.383 890.01C771.929 890.146 768.059 883.199 767.298 873.375C765.06 868.61 761.349 866.529 756.591 866.841C752.972 867.076 749.824 870.53 745.884 871.593C744.179 872.054 742.35 872.266 740.531 872.187C738.153 872.185 736.96 871 734.583 870.999C734.045 869.566 732.601 869.684 731.609 868.623C730.888 867.852 730.627 866.504 729.825 865.652C729.458 865.262 729.611 864.251 729.228 863.869C728.866 863.507 727.851 863.576 727.444 863.275C726.544 862.606 726.07 861.74 724.471 861.492C723.099 860.113 722.552 862.592 720.307 862.087C716.231 863.363 713.093 865.577 709.004 866.841C702.907 869.46 698.797 874.07 691.161 875.159C688.393 875.348 687.192 873.974 684.618 873.969C680.405 871.048 678.105 866.218 675.101 862.087C672.744 860.679 669.638 860.017 666.773 859.116C660.696 859.895 655.636 867.06 648.335 867.435C641.461 867.785 636.741 863.847 633.465 857.928C632.109 855.52 629.074 854.791 626.923 853.174C624.751 854.372 622.186 855.176 619.19 855.55C614.813 857.887 609.536 858.886 604.32 856.146C603.953 855.952 603.616 855.255 603.13 854.956C601.77 854.121 600.644 852.684 599.562 850.798C597.702 847.553 595.916 843.412 591.234 842.48C586.351 842.396 582.008 846.975 576.961 847.234C572.287 847.471 568.785 845.516 565.064 843.074C562.328 838.282 561.227 831.855 554.952 830.599C551.77 831.662 548.325 832.244 545.435 833.569C544.665 833.923 544.279 835.01 543.651 835.351C541.903 836.304 539.307 836.659 537.109 837.729C534.651 838.922 532.33 840.644 529.97 841.887C527.403 843.24 525.011 844.401 522.239 845.452C520.486 847.681 517.517 848.602 515.1 849.612C512.155 850.841 509.51 852.158 506.178 851.988C499.261 851.634 495.412 844.69 489.523 843.669C486.43 844.82 483.155 845.665 480.006 847.235C476.895 848.785 474.676 851.201 471.678 851.988C468.336 852.866 465.247 852.825 461.566 851.394C456.522 849.43 456.237 845.518 450.265 843.669C438.995 845.679 433.704 853.664 422.311 855.552C418.934 855.955 417.432 854.484 414.577 854.364C412.798 852.978 411.446 851.147 409.82 849.612C409.396 849.21 409.633 848.237 409.225 847.829C408.867 847.471 407.844 847.523 407.441 847.235C406.609 846.641 405.656 845.913 404.467 845.452C399.181 845.393 395.105 848.491 391.381 850.206C388.997 851.302 384.548 852.022 382.459 854.364C380.614 855.407 378.681 855.919 377.106 856.742C373.802 858.465 371.238 860.821 366.994 862.088C361.243 863.805 355.348 862.932 351.529 859.118C349.119 856.712 348.401 853.425 343.796 852.582C340.642 852.004 337.237 854.4 334.279 854.958C332.278 857.118 328.493 857.495 325.951 859.118C323.801 860.361 322.099 861.502 319.409 862.682C318.564 863.052 318.77 862.75 318.219 863.276C317.829 863.649 314.191 865.188 312.867 865.654C311.544 866.119 309.474 866.728 308.109 866.842C303.076 867.264 297.782 864.918 292.049 866.248C289.911 866.743 287.84 867.664 285.507 868.624C284.614 868.991 283.484 869.37 282.534 869.812C282.05 870.038 281.643 870.882 281.344 871C280.835 871.204 280.063 870.784 279.56 871C274.782 873.048 270.849 876.235 265.285 876.943C261.337 877.443 257.436 876.772 252.794 875.754C250.416 875.557 249.493 876.813 246.846 876.348C238.256 879.254 229.574 882.068 221.866 885.855C220.517 885.597 219.335 886.569 218.298 887.043C217.195 887.544 216.393 887.79 215.324 888.231C214.789 888.452 214.465 889.286 214.134 889.419C212.781 889.961 210.982 889.914 209.377 890.607C205.323 892.355 201.92 894.98 197.48 895.361C194.165 895.646 191.109 894.841 187.368 894.173C177.232 894.742 169.523 897.736 161.198 900.114C157.938 902.205 153.288 902.907 149.897 904.868C146.118 906.127 142.32 908.792 138.001 909.026C134.103 909.236 130.448 907.185 126.699 907.244C122.107 907.315 117.403 909.35 113.613 910.808C109.748 912.295 106.481 914.753 102.312 915.562C100.433 916.456 98.6753 917.474 96.9591 918.532C91.1541 919.744 85.6228 924.438 79.1155 924.474C75.8856 924.492 73.7376 922.827 70.1929 922.691C63.4958 924.914 56.1866 926.525 50.5651 929.821C45.6253 933.801 38.8428 935.935 34.5057 940.515C27.6947 941.831 23.5569 945.817 17.8515 948.239C14.4286 948.189 10.982 948.111 8.33419 948.834C5.92836 948.029 4.80849 945.301 3.57632 943.487C3.25364 943.011 2.73799 942.904 2.38685 942.299C1.67032 941.063 0.933227 939.289 0 937.536C1.68297 923.77 5.37476 912.012 9.51733 900.701C9.51417 898.131 8.13647 896.932 8.32786 894.167C11.6258 887.953 15.6292 882.448 19.6294 876.938C20.6243 867.435 24.7416 861.052 28.552 854.361C28.4777 851.91 29.5865 850.642 29.1467 847.826C32.2122 841.483 33.1264 834.2 35.0957 827.031C37.0096 820.059 39.2525 813.122 41.6377 806.832C46.0018 801.884 48.8489 795.42 49.9656 787.227C56.8921 774.344 63.0324 760.672 65.4303 743.264C66.8333 741.1 67.5973 738.298 68.9987 736.134C68.9987 734.549 68.9987 732.965 68.9987 731.38C72.303 724.779 72.5608 715.137 76.7302 709.399C78.2313 701.709 82.657 694.037 81.4881 685.635C77.3218 683.652 72.0388 685.264 66.0234 684.447C64.6869 682.613 63.1004 681.028 61.2656 679.693C64.5034 673.62 66.1943 666.001 71.3776 661.87C72.0894 658.618 74.2358 656.803 74.946 653.552C77.0244 651.386 79.5552 648.807 80.8934 645.827C81.7064 644.02 81.3758 641.769 82.0829 639.887C82.7108 638.217 84.2846 636.707 85.0565 635.133C86.0293 633.153 86.4295 631.504 87.4355 629.787C87.7044 627.284 90.2478 627.052 91.0039 625.033C92.2788 623.731 92.8545 621.732 94.5723 620.874C95.3252 619.25 95.515 617.062 96.3565 615.526C97.3688 612.182 101.012 611.463 101.114 607.208C103.36 605.096 105.138 602.514 107.063 600.079C107.593 597.811 106.092 596.288 107.063 595.325C109.765 592.726 110.81 588.712 112.416 585.225C112.685 584.64 113.754 584.086 114.2 582.849C115.103 580.345 115.606 577.67 117.769 575.719C117.769 574.134 117.769 572.549 117.769 570.966C120.423 568.666 122.044 565.334 124.311 562.648C124.269 557.259 126.951 554.59 127.879 550.171C130.062 547.203 132.998 544.988 134.421 541.261C134.113 535.826 132.575 531.618 133.232 525.22C134.513 521.747 136.96 519.437 138.584 516.307C138.602 508.436 138.56 501.698 138.584 493.732C138.586 493.241 139.215 493.149 139.179 492.542C139.173 492.417 138.396 489.471 138.584 487.79C138.885 485.09 140.281 482.677 140.368 480.066C142.875 476.841 146.468 473.566 151.67 473.529C153.968 473.515 155.639 475.027 158.212 474.719C161.345 477.528 163.777 481.044 168.324 482.442C169.412 484.327 171.44 485.271 171.893 487.79C173.805 488.256 175.836 488.605 177.245 489.572C178.634 492.939 181.427 494.901 183.789 497.296C184.523 499.334 185.151 501.48 186.762 502.643C187.519 504.66 188.874 506.079 189.736 507.991C191.533 508.907 193.384 509.833 195.089 510.961C195.895 511.495 196.269 510.936 196.873 511.555C197.694 512.394 197.925 513.059 199.252 514.527C199.567 517.612 198.467 519.289 198.062 521.655C195.753 523.112 191.509 522.636 189.14 524.033C185.69 524.945 184.124 527.736 181.407 529.38C175.809 529.334 169.865 528.94 167.131 531.757C166.466 534.26 166.095 537.058 165.347 539.48C167.106 547.228 171.687 552.159 175.459 557.897C176.228 561.09 177.13 564.152 177.838 567.403C180.366 571.612 181.404 577.31 184.977 580.474C185.669 583.149 186.043 586.141 187.95 587.603C188.343 590.38 188.899 592.992 190.329 594.733C192.3 599.365 192.17 605.584 194.492 609.586C196.137 612.419 197.991 612.951 200.44 614.932C201.408 617.334 202.602 619.508 202.819 622.656C203.826 625.017 205.805 626.406 206.387 629.192C208.458 628.685 207.271 624.927 208.766 623.844C211.833 608.887 216.982 596.008 221.852 582.852C219.811 581.994 216.583 584.117 213.524 582.852C211.986 582.01 209.797 581.822 208.171 581.07C205.868 577.032 203.47 573.09 201.628 568.593C203.633 560.299 209.054 555.415 214.119 550.176C214.891 548.372 215.24 546.147 215.903 544.236C219.753 541.346 224.658 539.513 227.204 535.323C227.877 533.421 228.414 531.383 228.394 528.787C231.461 524.722 235.834 521.962 238.506 517.499C236.548 511.732 240.402 508.89 241.48 504.43C241.355 500.592 238.383 499.6 237.911 496.111C237.66 494.078 239.692 494.326 240.29 493.139C242.397 493.462 241.752 491.037 243.859 491.357C244.982 488.915 247.671 488.035 249.807 486.605C252.689 487.278 255.231 487.768 258.134 488.387C260.658 488.924 263.507 489.923 266.462 490.169C271.966 490.631 277.431 488.324 283.116 488.387C286.562 488.425 290.665 489.89 295.012 490.169C305.86 490.866 316.139 489.401 324.752 487.199C328.751 484.262 328.547 477.127 329.51 471.158C333.07 462.375 334.478 453.667 337.243 443.829C338.502 439.348 340.914 433.06 340.811 426.6C341.667 423.214 343.586 421.718 343.19 418.875C342.589 414.546 337.148 413.911 335.457 410.559C335.187 403.503 334.35 397.009 334.268 389.764C336.321 383.496 341.387 380.24 342.596 373.129C348.421 366.471 352.776 358.344 355.087 348.177C361.026 342.624 362.899 333.007 365.199 323.82C367.381 321.611 368.851 318.821 370.551 316.095C372.084 313.639 374.086 311.133 375.309 308.371C376.63 305.388 377.41 301.524 378.283 298.271C380.896 288.545 384.028 278.585 388.99 270.347C389.439 267.826 390.378 265.794 390.179 262.625C393.036 259.141 395.862 255.627 397.912 251.336C398.062 246.235 396.535 242.811 395.533 238.861C397.398 227.742 392.938 218.73 394.344 206.185C400.133 204.441 406.109 202.885 413.972 203.215C415.849 203.518 415.618 205.928 416.351 207.373C417.47 208.434 419.104 208.98 419.919 210.344C422.904 211.323 426.64 211.552 429.436 212.72C431.638 212.303 430.461 215.26 431.815 215.69C433.5 215.79 434.294 216.779 435.978 216.878C437.286 219.466 438.623 221.506 441.331 222.819C441.625 222.961 442.516 223.411 442.52 223.413C448.768 225.236 457.583 224.064 460.959 229.355C461.849 230.642 463.934 230.739 463.932 232.919C464.556 236.907 460.619 236.343 460.364 239.455C458.68 240.94 457.59 243.021 455.606 244.208C453.737 245.312 450.757 245.304 449.063 246.584C445.347 248.815 442.881 252.292 438.356 253.714C432.848 254.289 427.828 252.125 422.891 254.308C422.295 258.469 425.659 258.672 424.675 263.22C429.531 271.243 431.322 282.326 435.977 290.548C440.089 299.314 442.076 310.199 447.278 317.878C447.429 321.688 448.987 324.093 449.063 327.978C449.072 330.147 450.753 330.646 451.441 332.136C451.563 333.996 451.04 336.499 452.036 337.483C454.774 337.843 453.713 334.405 455.605 333.919C459.701 331.476 461.305 326.543 463.931 322.63C466.59 322.117 468.831 321.188 472.259 321.442C478.641 317.816 486.751 317.486 493.672 314.907C497.962 313.308 501.353 310.285 505.569 309.559C509.351 307.594 515.246 307.739 518.06 304.807C519.178 296.615 519.436 287.565 521.628 280.448C521.516 279.967 521.032 279.855 521.033 279.26C519.38 273.386 509.178 276.051 507.353 270.347C507.43 264.675 509.692 260.353 511.516 256.089C513.351 251.802 514.747 247.356 516.869 243.02C520.059 236.381 522.783 229.827 525.791 222.819C526.818 220.428 528.078 217.979 529.36 215.096C529.969 213.726 530.619 212.767 531.144 211.532C535.641 200.94 538.551 189.389 543.04 178.262C545.296 174.574 544.922 168.259 547.798 165.191C547.333 162.548 548.59 161.625 548.393 159.251C551.888 154.424 552.782 147 555.531 141.428C557.897 135.67 559.466 129.119 561.478 123.011C562.948 120.121 564.7 117.514 566.236 114.694C567.051 112.038 566.341 109.392 566.831 106.97C567.078 105.75 568.024 105.229 568.615 103.405C568.62 103.393 568.389 102.832 568.615 102.217C569.438 99.9896 570.558 96.1346 571.589 93.3049C571.983 92.2243 572.959 91.4011 573.373 90.3347C573.64 89.6443 573.156 88.6694 573.373 87.9585C573.482 87.5998 574.453 87.0453 574.563 86.7704C575.548 84.3199 576.761 81.9279 576.943 79.6402C577.29 75.2654 575.247 71.3046 573.968 66.5711C574.825 62.7651 575.268 58.7411 576.347 55.2826C577.384 51.9585 579.064 49.1115 580.512 46.3703C581.018 44.1047 582.28 42.5912 582.89 40.4298C581.856 30.312 580.157 19.9478 581.701 8.94207C583.634 7.10937 584.36 4.07118 587.055 3C591.185 -0.11242 596.376 -1.14989 601.931 3.00316ZM663.79 291.145C664.983 288.573 665.614 285.442 666.169 282.233C665.177 282.233 664.186 282.233 663.195 282.233C663.58 285.018 662.417 289.349 663.79 291.145ZM859.477 497.301C857.826 499.413 855.322 500.676 852.933 502.053C853.719 503.899 852.71 505.787 852.933 507.995C853.4 512.623 856.037 517.298 858.287 519.878C860.706 514.336 863.129 505.752 861.261 497.897C860.5 497.863 860.437 497.134 859.477 497.301Z" fill="#EAC27B"/>
</svg>
