<svg width="21" height="18" viewBox="0 0 21 18" fill="none" xmlns="http://www.w3.org/2000/svg">
<path fill-rule="evenodd" clip-rule="evenodd" d="M6.31858 7.979C6.93799 7.979 7.55758 7.979 8.17699 7.979C8.68118 7.8209 10.3169 7.21932 11.1504 7.42232C12.178 7.67264 13.0514 8.01722 14.4956 7.979C15.7344 7.85523 16.9736 7.73165 18.2124 7.60788C18.8643 7.80494 19.562 8.55497 20.0708 8.90679C20.5761 9.25619 20.5099 8.74906 20.8142 9.46346C21.0052 9.69764 20.9907 9.92309 21 10.3913C20.5343 10.6538 19.6603 11.1513 19.1416 11.319C18.3276 11.5823 16.7047 11.2682 16.1681 11.1335C15.4868 11.1335 14.8052 11.1335 14.1239 11.1335C13.1488 10.893 11.8877 11.044 10.7788 10.7624C9.23015 10.7624 7.68135 10.7624 6.13274 10.7624C5.649 10.5401 5.82425 10.1595 5.0177 10.0201C5.0177 10.0819 5.0177 10.1439 5.0177 10.2057C6.15096 10.8924 6.77018 12.2264 7.80531 12.9891C9.20934 14.0234 10.9124 15.0796 11.1504 17.2569C10.552 17.7972 10.5576 18.0156 9.29204 17.9991C8.85382 17.3256 8.484 17.5132 7.80531 17.0713C7.61947 16.824 7.43363 16.5765 7.24779 16.3291C6.93799 16.2673 6.62838 16.2053 6.31858 16.1436C5.87498 15.85 5.71386 15.2844 5.38938 14.8446C4.52225 14.0406 3.65474 13.2364 2.78761 12.4324C2.6276 12.2711 2.36687 12.0418 2.23009 11.8757C2.23009 11.7519 2.23009 11.6284 2.23009 11.5046C2.04425 11.4428 1.85841 11.3808 1.67257 11.319C1.6577 11.3051 1.30088 10.5768 1.30088 10.5768C0.454009 9.97004 0.159451 11.1669 0 9.46346C0.383018 9.07435 0.240478 8.46739 0.557522 7.979C1.54861 7.17497 2.53988 6.37077 3.53097 5.56674C4.5137 4.58681 7.30596 0.718295 8.36283 0.371116C8.7964 0.432907 9.23015 0.494883 9.66372 0.556674C10.2489 0.399878 10.2675 0.0367405 11.3363 0C11.5619 0.41899 11.6585 0.415465 11.708 1.11335C11.4554 1.34994 11.5483 1.55164 11.3363 1.85558C10.7788 2.35028 10.2212 2.84535 9.66372 3.34005C9.0562 4.16504 8.59922 4.92193 7.99115 5.7523C7.43604 6.51031 6.5113 6.82074 6.31858 7.979Z" fill="white"/>
</svg>
