<svg width="293" height="318" viewBox="0 0 293 318" fill="none" xmlns="http://www.w3.org/2000/svg">
<path fill-rule="evenodd" clip-rule="evenodd" d="M293 148.031C293 148.201 293 148.37 293 148.54C292.831 148.54 292.662 148.54 292.492 148.54C293.045 153.875 287.686 154.147 286.909 158.708C286.702 159.922 287.24 161.35 287.416 162.776C287.618 164.404 287.688 165.952 287.924 167.351C288.122 168.529 288.811 169.574 288.939 170.91C289.094 172.542 288.826 174.151 288.939 175.995C288.003 177.091 287.378 178.499 286.401 179.554C283.879 179.232 284.722 182.279 282.34 182.096C282.181 186.004 279.25 187.137 277.263 189.214C275.598 189.579 273.426 189.438 272.694 190.739C270.58 190.655 268.457 190.563 267.618 191.756C265.624 193.996 265.634 198.243 265.588 202.432C263.441 202.826 264.447 206.374 262.542 207.009C262.755 209.764 258.723 208.269 259.496 211.585C259.207 213.23 259.65 214.142 260.512 214.635C260.446 218.767 261.21 222.07 262.034 225.311C263.894 238.657 262.699 252.677 264.572 266.494C265.489 268.152 266.435 266.627 268.633 267.002C269.675 267.823 271.588 267.771 272.187 269.036C273.625 270.674 274.008 273.63 273.203 276.154C275.965 278.033 276.286 280.625 277.263 283.78C278.063 286.36 278.833 289.13 279.801 291.406C279.143 296.642 282.082 298.274 281.324 303.609C279.589 305.937 278.124 308.538 275.233 309.71C268.847 310.93 262.152 310.593 255.435 310.727C248.662 310.861 241.839 311.627 235.129 311.744C233.627 311.77 232.065 311.258 230.56 311.236C225.671 311.162 220.567 312.603 215.839 311.236C215.62 312.372 213.336 311.441 212.285 311.744C212.766 313.581 210.286 312.453 209.239 312.761C206.53 313.44 206.872 311.065 204.163 311.744C195.177 311.258 188.235 311.81 178.781 311.744C176.401 311.394 176.502 313.529 173.705 312.761C170.239 313.487 170.544 311.458 168.121 311.744C166.277 311.931 165.699 313.385 163.044 312.761C161.747 313.625 161.363 312.003 160.506 311.744C159.631 311.479 158.327 312.097 157.461 311.236C157.425 312.152 156.157 311.485 155.43 311.744C154.795 311.969 154.494 313.462 153.399 312.761C151.959 312.847 152.408 311.041 150.353 311.744C146.697 311.248 143.409 311.867 139.693 311.744C137.907 311.685 135.927 310.814 134.109 310.727C133.108 310.679 132.141 311.183 131.064 311.235C126.612 311.452 123.993 310.735 120.404 310.218C118.524 309.861 119.528 312.392 118.373 312.76C116.685 315.306 112.088 314.939 109.236 316.319C89.6917 317.525 67.707 316.27 48.8269 316.827C46.8324 316.356 47.5459 318.595 45.2734 317.845C42.2276 317.845 39.1818 317.845 36.1359 317.845C34.8082 317.649 34.7179 316.214 32.5825 316.827C28.2766 316.803 25.2747 313.856 21.9221 313.268C17.5287 312.498 12.6791 314.111 7.70822 312.76C7.77365 311.848 7.20396 311.571 6.1853 311.743C5.17623 311.736 5.53948 310.356 4.15475 310.726C2.39212 309.102 2.36505 305.74 0.601291 304.117C0.569705 301.339 -0.276922 297.89 0.0936535 294.966C0.36947 292.789 0.977506 291.124 2.1242 289.882C0.750197 284.766 2.80105 279.166 3.64712 274.629C4.94498 273.725 5.86549 272.444 7.70822 272.087C8.50465 270.512 11.6351 271.274 11.7693 269.036C13.3046 261.69 13.6888 253.859 15.8304 246.157C15.3967 244.537 16.2726 244.228 16.8457 243.615C16.4774 242.06 17.7217 242.12 17.3533 240.565C17.9292 234.024 20.3315 229.312 20.3992 222.262C21.151 222.168 20.8645 221.033 20.9068 220.228C22.6621 218.936 22.2836 215.506 22.9373 213.11C20.512 212.987 24.2081 205.428 24.8246 201.726C24.9984 200.684 26.2195 197.064 26.211 195.247C26.206 194.194 27.7368 192.431 26.827 191.7C26.6273 191.539 27.5281 189.956 27.2889 189.848C26.8428 189.647 28.6753 187.072 28.6753 187.072C28.6753 187.072 29.8237 185.986 28.9833 184.912C28.1767 183.88 29.5349 184.181 29.1373 182.907C28.0617 181.586 31.0291 179.759 30.2152 177.971C29.795 177.046 28.1846 172.378 27.9049 171.801C25.4383 166.705 23.8951 165.959 24.3621 159C25.9668 155.693 17.9856 158.05 14.9048 156.662C11.8246 155.273 10.0383 151.65 10.0383 150.821C10.0383 148.97 7.87856 145.49 11.7688 144.982C13.3108 143.475 16.012 143.131 18.368 142.44C21.9802 142.551 24.2685 143.987 28.5208 143.457C29.7019 141.25 29.9619 138.121 31.5666 136.339C33.1476 134.363 34.0033 131.661 36.643 130.746C39.5337 130.485 41.029 130.485 43.7499 131.255C44.2813 120.094 45.0974 109.217 45.7805 98.2073C43.0731 98.2073 40.3657 98.2073 37.6583 98.2073C35.5442 98.4626 34.7715 100.061 32.0743 99.7325C30.5694 101.206 27.8947 99.5376 25.9826 99.7325C24.4997 97.3034 22.679 95.9877 22.4291 93.1231C22.1889 90.3652 24.1083 86.8813 24.9673 85.4967C25.2894 84.9781 25.1726 84.5833 25.475 83.9715C26.0999 82.7055 26.4993 81.8028 26.9979 80.921C28.91 77.2434 30.0217 72.7647 32.0743 69.2273C33.2813 64.8435 35.5414 61.5151 36.1354 56.5167C37.6752 56.7037 37.189 54.8604 37.6583 53.9746C38.2212 53.0131 38.3058 51.5726 38.6735 50.4157C39.4728 48.3351 40.3431 46.3257 40.1965 43.2978C39.1197 40.4783 34.8431 40.8636 34.6124 37.1967C33.7619 34.5705 33.7782 29.5416 35.1201 27.5367C35.5206 24.8879 39.061 25.3827 40.1965 23.4694C41.6838 21.9079 43.5006 20.6776 45.7805 19.9104C49.929 19.9392 53.6782 19.8714 57.4561 19.9104C59.1319 19.9279 65.5208 20.6177 66.086 19.9104C66.333 19.6003 66.7442 20.4098 66.5936 20.4188C69.459 20.2437 71.811 19.0128 74.7158 18.8936C76.9111 18.8038 79.0172 19.4009 81.3151 19.402C102.818 19.4093 126.204 17.8332 146.293 18.8936C147.046 18.2919 147.082 16.9729 147.815 16.3515C148.828 16.7367 149.029 15.3572 149.338 14.8262C149.957 13.763 150.339 12.2982 150.861 11.7757C151.745 10.8899 152.535 10.0058 153.907 9.74199C153.875 6.49036 155.181 4.57869 156.952 3.13252C158.122 3.28787 157.516 1.66375 158.475 1.60726C161.888 -0.597033 169.436 -0.110643 174.212 0.590413C176.423 3.61834 179.916 4.90521 179.795 9.74199C180.83 9.8917 180.791 11.1176 181.826 11.2673C182.873 11.4057 181.947 13.5184 183.349 13.3009C182.897 14.6002 183.941 14.4025 184.364 14.8262C184.531 14.9929 184.244 15.6323 184.364 15.843C184.84 16.6763 185.594 17.3999 185.887 18.3852C193.796 19.5941 202.475 18.7953 211.269 18.3852C218.034 18.0699 225.875 18.6439 230.559 18.3852C236.202 18.0733 241.482 17.7485 246.296 18.8936C248.554 19.6822 249.6 21.6842 250.864 23.4694C253.285 24.4913 255.28 25.1748 256.448 27.5367C257.972 30.6172 257.184 34.4354 256.448 38.2136C255.69 38.8101 255.85 40.3264 254.417 40.2473C253.937 41.2918 251.802 40.6783 251.879 42.2809C252.833 45.9015 254.416 48.8915 255.94 51.9409C257.334 57.8324 259.196 63.255 262.032 67.702C262.284 70.5 263.598 72.2343 264.063 74.8199C264.347 76.2305 265.81 76.4598 266.094 77.8704C266.578 79.9369 267.361 81.9954 268.125 83.9715C268.478 84.8895 268.79 86.1515 269.14 87.022C269.487 87.8891 269.848 89.0438 270.663 89.5641C271.688 91.965 268.609 93.3541 270.663 93.1231C271.444 95.8996 276.362 94.5336 278.784 95.6652C282.047 95.9567 284.773 96.7848 286.907 98.2073C288.749 101.334 289.072 108.271 287.414 111.935C286.752 113.136 284.191 112.435 284.368 114.477C281.204 114.867 278.488 115.705 274.723 115.494C275.183 118.362 274.088 121.102 274.723 123.12C274.769 123.266 275.595 123.271 275.739 123.628C275.913 124.067 275.598 124.701 275.739 125.154C275.502 129.458 276.641 132.384 276.246 136.847C276.923 137.695 276.061 140.083 277.769 139.898C278.812 138.191 278.818 139.54 280.307 139.898C280.738 138.804 282.175 138.719 283.86 138.881C284.912 140.286 286.873 140.037 288.43 140.915C289.806 141.691 291.587 142.762 291.983 144.474C292.601 145.381 292.078 147.43 293 148.031Z" fill="#EAC27B"/>
</svg>
