<svg width="32" height="32" viewBox="0 0 32 32" fill="none" xmlns="http://www.w3.org/2000/svg">
<circle cx="16" cy="16" r="16" fill="black" fill-opacity="0.53"/>
<path fill-rule="evenodd" clip-rule="evenodd" d="M21.2236 18.7943C23.1384 20.6557 27.211 21.3035 26.9915 24.6419C24.1134 26.1349 21.9646 22.5474 19.8766 21.4342C17.6299 24.1329 10.31 24.0235 8.14675 21.2465C6.99481 19.7659 5.78844 16.4248 6.03153 14.0785C6.8651 6.04033 18.7773 4.67542 21.6082 10.8718C22.5569 12.9485 22.5569 16.7247 21.2236 18.7943ZM9.87829 19.3593C11.4194 20.8728 15.5219 21.0917 17.3777 19.7366C20.8299 17.2167 19.424 10.9154 16.0326 9.55136C9.66333 7.93999 6.41611 15.9639 9.87829 19.3593Z" fill="#E7D0B0"/>
<path fill-rule="evenodd" clip-rule="evenodd" d="M14.4933 11.6263C15.0738 12.1886 15.3459 13.0535 15.2625 14.2671C15.9038 14.2671 16.5442 14.2671 17.1854 14.2671C17.4303 14.7183 17.8875 14.9612 17.7623 15.7762C17.2607 16.2264 16.2557 16.5432 15.4548 16.1535C15.2171 17.3662 15.0131 18.6119 13.3396 18.417C13.0493 17.8841 12.8752 17.2372 12.955 16.3412C12.0334 16.3021 10.8416 16.5289 10.4552 15.9639C10.3917 15.2735 10.6683 14.9158 10.8398 14.4549C11.7178 14.5617 12.0371 14.1212 12.955 14.2663C12.5668 13.017 12.555 11.1503 14.4933 11.6263Z" fill="#E7D0B0"/>
</svg>
