<svg width="114" height="99" viewBox="0 0 114 99" fill="none" xmlns="http://www.w3.org/2000/svg">
<path d="M15.1549 91.8801C15.3998 92.1217 15.3893 92.5721 15.1812 92.8978C14.8218 93.0317 14.3451 93.0724 13.5894 93.1565L13.6407 97.9784C13.2813 98.3146 12.8389 98.4406 12.4531 98.1885C12.3346 97.57 12.3122 94.5419 12.3425 93.3049C11.7737 93.3876 11.3063 93.4795 10.7045 93.4966C10.4965 93.163 10.403 92.7704 10.5189 92.4684C11.2128 92.1795 14.3004 91.8801 15.1549 91.8801ZM71.0199 92.2281C70.8422 92.0127 70.4182 91.8867 70.1996 91.8276C69.5466 91.9458 67.931 94.9082 67.1963 96.0572C67.1884 95.2418 67.245 92.6798 67.145 91.7869C66.7355 91.7278 66.1759 91.779 65.8981 92.1046C65.8981 93.6542 65.8572 96.9935 65.9494 97.9442C66.3089 98.2778 66.4669 98.245 66.9106 98.3369C67.3451 98.1452 68.9606 95.5412 69.7467 94.249C69.698 95.2667 69.6466 95.9417 69.6466 96.5116C69.6466 97.3021 69.7362 97.9784 70.0219 98.1714C70.3155 98.3224 70.9528 98.1451 71.0607 97.763C71.0278 97.4781 71.0199 97.1038 71.0199 96.6521C71.0107 95.9863 71.1279 92.6391 71.0199 92.2281ZM29.4474 93.7986C29.2288 93.624 29.1537 93.3876 29.2854 93.0317C30.0241 92.1112 31.1959 92.0547 32.0728 92.0547C33.0603 92.0547 34.3506 92.5656 34.3506 93.5399C34.3506 95.1919 31.8411 96.0585 30.6495 96.1872C30.6574 96.8714 30.7008 97.4951 30.7087 98.2056C30.4388 98.3907 30.1715 98.4564 29.9885 98.4564C29.8134 98.4564 29.6462 98.4052 29.5027 98.2384C29.446 97.4715 29.4276 96.3685 29.4276 95.469C29.4302 94.7086 29.4395 94.1387 29.4474 93.7986ZM30.6508 95.0343C31.3039 94.9502 33.0353 94.5235 33.0353 93.6345C33.0353 93.2734 32.4006 93.1657 31.8806 93.1657C31.5237 93.1657 30.9707 93.3062 30.7179 93.4244C30.6877 93.8314 30.6692 94.5419 30.6508 95.0343ZM64.4326 92.2281C64.2575 92.0127 63.8309 91.8867 63.6123 91.8276C62.9593 91.9458 61.3437 94.9082 60.609 96.0572C60.6011 95.2418 60.6577 92.6798 60.5577 91.7869C60.1482 91.7278 59.5886 91.779 59.3108 92.1046C59.3108 93.6542 59.2699 96.9935 59.3621 97.9442C59.7216 98.2778 59.8822 98.245 60.3259 98.3369C60.7604 98.1452 62.3733 95.5412 63.1594 94.249C63.1107 95.2667 63.0593 95.9417 63.0593 96.5116C63.0593 97.3021 63.1515 97.9784 63.4372 98.1714C63.7282 98.3224 64.3655 98.1451 64.4734 97.763C64.4431 97.4781 64.4326 97.1038 64.4326 96.6521C64.4247 95.9863 64.5432 92.6391 64.4326 92.2281ZM41.5186 94.794C41.408 94.9095 41.3329 95.1091 41.3329 95.2943C41.3329 95.4689 41.3843 95.6357 41.5081 95.7539L41.4409 97.8366C41.6924 98.1911 41.8162 98.2988 42.1611 98.4314C43.3751 98.3907 44.8722 98.3159 45.9597 97.8051C46.0348 97.6199 46.0598 97.4715 46.0598 97.3717C46.0598 97.0277 45.8847 96.7361 45.5331 96.7125C44.6128 96.9712 43.5068 97.1209 42.7378 97.1642C42.7378 96.5615 42.7536 96.0953 42.7813 95.7355C42.9998 95.7198 43.175 95.7198 43.5068 95.6948C44.0927 95.6594 44.805 95.6108 45.3409 95.5438C45.5858 95.4361 45.7161 95.1433 45.7161 94.8767C45.7161 94.685 45.6332 94.4591 45.408 94.3173C44.572 94.4171 43.4001 94.509 42.8392 94.5327C42.8234 94.2096 42.8313 93.817 42.8392 93.4913C43.6266 93.3889 44.8247 93.3889 45.6016 93.2405C45.836 93.1578 45.9716 92.8912 45.9716 92.6325C45.9716 92.4815 45.9202 92.299 45.8044 92.1296C45.4001 92.0377 42.9143 92.2215 41.986 92.2727C41.6621 92.429 41.5028 92.5143 41.2434 92.7323C41.2434 93.0554 41.3435 93.3325 41.562 93.5176C41.5594 93.7317 41.5502 94.0389 41.5186 94.794ZM68.6367 91.821C69.4873 91.821 70.1259 91.2209 70.0587 90.4028C70.0587 90.4028 69.4281 90.0876 69.1792 90.4107C69.087 90.7455 68.8935 90.8769 68.6367 90.8769C68.5103 90.8769 68.2668 90.8466 68.2075 90.5538C67.9402 90.1953 67.4649 90.4264 67.3122 90.5538C67.1779 90.8283 67.4201 91.821 68.6367 91.821ZM58.1113 92.6719C57.9032 92.2714 57.4608 92.0718 57.1422 92.1637L54.8104 94.2569C54.7998 93.7973 54.9513 92.664 54.7327 92.1637C54.5247 92.0863 54.339 92.0534 54.1981 92.0534C53.9124 92.0534 53.6636 92.1453 53.5674 92.4198C53.5293 92.8965 53.5108 93.5741 53.5108 94.3147C53.5108 95.6922 53.578 97.3691 53.6622 98.2029C54.1376 98.4774 54.6234 98.2292 54.9328 97.9521C54.9328 97.4439 54.8222 96.3107 54.8222 95.8156C54.9513 95.7001 55.0763 95.5924 55.1922 95.5083L57.5017 98.4038C57.7689 98.3211 58.4049 98.1373 58.4049 97.6107C57.8282 96.6692 56.6327 95.2667 56.0955 94.7073C56.555 94.2937 57.6939 93.4467 58.1113 92.6719ZM49.5556 98.3382C50.5668 98.3382 51.7215 97.7788 52.364 96.8123C52.4075 96.3383 51.9993 95.9535 51.5793 95.9194C50.784 96.8858 50.3403 97.1458 49.6043 97.1458C48.9249 97.1458 48.1559 96.5431 48.1559 95.5609C48.1559 93.8249 49.1355 93.2497 50.0045 93.2497C50.7063 93.2497 51.0592 93.557 51.3515 93.9089C51.7781 93.8393 52.1797 93.5399 52.1981 93.1749C52.0204 92.5721 51.0592 92.106 50.0888 92.106C48.2481 92.106 46.8669 93.3548 46.8669 95.4834C46.8682 96.878 47.9374 98.3382 49.5556 98.3382ZM81.0319 96.4788C80.8239 96.4525 80.5789 96.4788 80.338 96.4788C80.338 93.1985 80.3301 92.1467 80.255 91.7619C80.0957 91.5702 79.8693 91.5361 79.6586 91.5361C79.3992 91.5361 79.1319 91.5873 78.9897 91.8617L79.0161 96.6088C78.363 96.7519 77.5677 96.811 76.9489 96.8268C76.8646 95.9785 76.9489 92.4132 76.941 91.8788C76.7488 91.7199 76.5473 91.6608 76.3722 91.6608C75.9943 91.6608 75.5769 91.8945 75.5598 92.1939C75.5677 95.356 75.5782 96.7335 75.6599 97.5437C75.7863 97.9101 75.9614 98.0033 76.2313 98.1281C77.124 98.0953 78.9647 97.8773 80.0036 97.7617C80.0036 98.1543 80.0036 98.6875 80.2037 98.9974C80.546 98.9974 80.999 98.9436 81.2584 98.6533L81.3255 96.9095C81.2399 96.6862 81.1912 96.6271 81.0319 96.4788ZM39.3816 98.3789C39.6239 98.3789 39.8912 98.2712 40.0321 98.0611C40.0834 96.1124 40.0834 94.2083 39.9649 92.106C39.8675 91.9064 39.6713 91.821 39.4817 91.821C39.171 91.821 38.7207 92.0547 38.6535 92.3108C38.7431 93.2064 38.7944 94.1571 38.7944 94.9673C38.4758 95.2523 37.9557 95.4164 37.4646 95.4164C36.9524 95.4164 36.3019 95.142 36.3019 94.3488C36.3019 93.7225 36.4362 93.0895 36.8852 92.4198C36.7364 92.127 36.3164 91.8945 36.0162 91.8945C35.8727 91.8945 35.7226 91.9274 35.5896 92.0456C35.1709 92.8203 35.0116 93.515 35.0116 94.1899C35.0116 95.918 36.2177 96.66 37.3289 96.66C37.874 96.66 38.4086 96.4958 38.8378 96.2936V98.1885C39.0037 98.304 39.2039 98.3789 39.3816 98.3789ZM92.9083 91.9983C92.7819 91.8066 92.5514 91.6963 92.3316 91.6963C92.0458 91.6963 91.7707 91.8368 91.6706 92.1296C91.6706 93.1499 91.6785 93.6555 91.6969 94.1834C90.6686 94.2937 89.9299 94.3501 89.4441 94.3751C89.4204 93.1801 89.4033 92.1125 89.2255 91.7947C88.7239 91.6464 88.1577 91.8867 88.0471 92.2543C88.0208 92.8138 88.1143 94.2398 88.1143 94.6417C87.8878 94.8898 87.8693 95.4164 88.1143 95.6528L88.163 97.7814C88.2551 97.9863 88.5079 98.0821 88.7568 98.0821C89.086 98.0821 89.4204 97.9127 89.4204 97.5871C89.4204 97.138 89.3611 95.8117 89.3941 95.6095C89.6534 95.5425 91.0188 95.402 91.7338 95.3271C91.7338 96.0165 91.7285 96.9279 91.7206 97.5976C91.8444 97.872 92.1301 97.9876 92.379 97.9876C92.6976 97.9876 92.9807 97.8234 93.032 97.5385C93.0162 96.9764 93.0162 96.2529 93.0162 95.528C93.0175 94.249 93.0083 92.8794 92.9083 91.9983ZM86.3473 96.4118C85.4269 96.6705 84.3209 96.8202 83.552 96.8609C83.552 96.2608 83.5678 95.7933 83.5928 95.4348C83.8087 95.4164 83.9865 95.4164 84.3209 95.3915C84.9069 95.3586 85.6192 95.3087 86.155 95.2431C86.3973 95.1354 86.5303 94.8426 86.5303 94.576C86.5303 94.3843 86.4473 94.1584 86.2222 94.0166C85.3835 94.1164 84.2143 94.2083 83.6534 94.2346C83.6349 93.9089 83.6455 93.5163 83.6534 93.1906C84.4407 93.0882 85.6363 93.0882 86.4131 92.9398C86.6501 92.8558 86.7805 92.5905 86.7805 92.3292C86.7805 92.1808 86.7344 91.9983 86.6159 91.8289C86.2117 91.737 83.7284 91.9208 82.8002 91.972C82.4736 92.1283 82.317 92.2136 82.0549 92.429C82.0549 92.7573 82.155 93.0317 82.3736 93.2143C82.3736 93.4323 82.3657 93.7395 82.3327 94.4946C82.2248 94.6101 82.1471 94.8097 82.1471 94.9949C82.1471 95.1696 82.1985 95.3363 82.3222 95.4545L82.2577 97.5398C82.5066 97.8891 82.633 97.9994 82.9753 98.132C84.1893 98.0887 85.6889 98.0138 86.7739 97.503C86.8516 97.3205 86.8766 97.1721 86.8766 97.0723C86.874 96.7269 86.6975 96.4354 86.3473 96.4118ZM24.9364 98.3553C23.363 98.3553 22.149 97.1367 22.149 95.2523C22.149 93.2051 23.6711 92.0311 25.2893 92.0311C27.0352 92.0311 28.2676 93.2497 28.2676 95.0934C28.2676 97.3454 26.5006 98.3553 24.9364 98.3553ZM26.976 95.0934C26.976 93.8551 26.1833 93.2392 25.3196 93.2392C24.3532 93.2392 23.4038 93.8656 23.4038 95.268C23.4038 96.4972 24.0753 97.1117 24.9957 97.1117C25.7238 97.1117 26.976 96.7348 26.976 95.0934ZM104.796 93.2392C104.796 94.8912 102.287 95.7578 101.095 95.8839C101.106 96.5681 101.147 97.1971 101.155 97.9048C100.887 98.0874 100.62 98.1557 100.437 98.1557C100.259 98.1557 100.092 98.1044 99.9511 97.9403C99.8919 97.1708 99.8761 96.0677 99.8761 95.1682C99.8761 94.4092 99.8813 93.8393 99.8919 93.4992C99.6733 93.3246 99.5983 93.0882 99.7326 92.7323C100.469 91.8118 101.64 91.754 102.52 91.754C103.505 91.7527 104.796 92.2649 104.796 93.2392ZM103.482 93.3311C103.482 92.9726 102.848 92.865 102.325 92.865C101.968 92.865 101.415 93.0055 101.165 93.1237C101.132 93.5321 101.114 94.2398 101.095 94.7323C101.748 94.6495 103.482 94.2241 103.482 93.3311ZM21.2906 95.6187C21.2906 97.5109 19.0733 98.3224 17.2063 98.3553C16.9126 98.3553 16.7454 98.1044 16.6045 97.7368C16.5453 97.1367 16.5124 96.5772 16.4781 95.7933C16.3188 95.7184 16.2596 95.5267 16.2596 95.3337C16.2596 95.1512 16.3109 94.9673 16.4373 94.8596C16.4189 94.2727 16.4189 94.0718 16.4189 93.6975C16.203 93.4979 16.0924 93.2313 16.0924 92.9201C16.8205 92.32 17.6842 92.0298 18.9627 92.0298C20.0174 92.0298 20.9561 92.3043 20.9561 92.9884C20.9561 93.6476 20.5862 94.1072 20.0358 94.4815C20.7613 94.6167 21.2906 94.8675 21.2906 95.6187ZM17.7158 94.4499C18.9035 94.2241 19.6421 93.8498 19.6421 93.2904C19.6421 93.1801 19.3235 93.1237 18.9969 93.1237C18.544 93.1237 18.0015 93.2313 17.7013 93.3495C17.675 93.5242 17.7079 94.1755 17.7158 94.4499ZM20.0253 95.7578C20.0253 95.5425 19.8251 95.3678 19.3393 95.3678C18.864 95.3678 18.066 95.5425 17.7606 95.7263C17.7606 96.2673 17.8014 96.786 17.8448 97.1117C18.706 97.0014 20.0253 96.5523 20.0253 95.7578ZM94.0314 92.169C93.9155 92.471 94.0077 92.8636 94.217 93.1972C94.8214 93.1788 95.2888 93.0869 95.8576 93.0055C95.8247 94.2385 95.8471 97.2706 95.9656 97.8865C96.3514 98.1399 96.7938 98.0125 97.1532 97.679L97.1045 92.8545C97.855 92.7717 98.3343 92.731 98.6911 92.5958C98.9017 92.2727 98.9096 91.821 98.6674 91.5794C97.8142 91.5781 94.7279 91.8801 94.0314 92.169Z" fill="#BFAA8F"/>
<path d="M17.147 24.8186L18.6335 27.1481L14.1595 33.9516L12.7757 32.6319L13.5446 31.1861L10.2016 28.137L8.82038 30.2761L7.34439 29.3897L12.4004 22.279L15.0285 23.4004L14.5453 24.6046L13.0456 24.124L11.2194 26.7201L12.5874 27.68L13.9067 25.6157L15.2444 26.8264L13.7658 28.6451L15.0127 29.7626L16.8257 26.9604L15.9949 25.7575L17.147 24.8186ZM25.3512 18.027L22.9311 14.2989L24.1425 13.4861L22.7336 11.7882L18.6348 15.2457L20.1187 16.551L21.0983 15.7355L22.0292 16.7979L18.8587 19.5647L18.0358 18.9317L19.2313 17.8576L17.567 16.3974L14.1647 20.2383L15.4735 21.3151L16.4531 20.2383L19.9871 22.7832L18.6348 24.2198L20.2056 25.252L23.7541 21.5764L22.3084 20.4353L21.3103 21.4491L20.2662 20.6467L23.072 17.9902L24.0437 19.0972L23.0615 19.8155L24.3782 21.0039L27.4816 18.4301L26.4295 17.0421L25.3512 18.027ZM111.963 58.0861L110.847 58.0742L110.682 53.2642L111.829 53.1328L111.793 54.9621L114 54.7362L112.827 45.9958L111.148 46.2243L111.644 50.282L107.576 51.0646L107.371 49.6727L105.311 50.2439L105.826 54.7506L107.863 54.7047L107.766 53.5898L109.044 53.364L109.43 58.0572L108.029 57.9744L107.993 56.1111L105.808 56.0139L105.7 60.5863L107.993 60.8883L108.06 59.7577L111.776 60.4011L111.529 63.4792L113.735 63.6026L113.957 56.2752L111.989 56.4748L111.963 58.0861ZM7.93031 67.3057L8.11069 68.477L5.7578 68.7239L8.15941 65.3425L4.8493 63.0288L7.16137 62.5285L7.40627 63.7773L9.16008 63.4214L8.29371 58.6678H6.86381V60.5115L2.46086 61.5607L2.16197 58.1399L0.14615 57.6593L0.583285 63.9598L2.48851 64.1817L2.43716 63.3229L5.54845 65.9834L3.44046 68.9143L2.91116 67.8113L1.25215 68.7489L3.58661 74.813L5.42337 73.9279L4.53593 71.45L8.40826 70.498L8.91518 72.6109L10.8573 72.1775L9.59458 66.9459L7.93031 67.3057ZM1.67349 54.3357L0 53.9522L0.283084 48.5119L7.76178 46.1508L7.84473 44.6591L9.95403 44.4673L8.92835 49.2328L7.60114 49.2997L7.73544 48.2125L6.98494 48.4685L6.29632 53.0015L7.24564 53.8511L7.29962 52.7126L8.68608 53.0921L8.29503 57.2955L6.56624 56.8609L6.78217 55.3166L2.14617 51.8473L1.67349 54.3357ZM2.83874 49.8972L5.04548 51.8775C5.18373 51.0489 5.42337 49.8237 5.59585 48.9491L2.83874 49.8972ZM11.5393 35.2634L5.70382 32.0173L2.92696 38.8759C2.92696 38.8759 7.29041 38.9508 8.85461 40.1155C9.6828 40.7314 9.59063 41.4983 9.18378 41.7005C8.53466 42.0209 7.72227 40.9862 7.72227 40.9862L6.44379 42.0498C6.44379 42.0498 7.91451 44.1088 9.9514 43.3078C11.9909 42.5042 11.6894 39.6152 9.9514 38.4925C8.21603 37.3671 5.64588 37.2437 5.64588 37.2437L6.67157 34.7631L10.7348 37.048L10.5465 38.1419L11.7526 39.0663L13.6196 34.9667L12.0607 34.1118L11.5393 35.2634ZM35.3184 13.5557C34.028 15.0369 28.8509 17.5529 28.8509 17.5529L27.7686 15.9837L29.0668 15.1092L26.8627 11.3312L25.4736 12.2898L24.5348 10.7744L29.0655 7.98923L30.0596 9.34966L28.4467 10.1874L29.313 11.9812C29.8397 10.9898 31.1748 9.10278 33.4737 9.10278C35.7713 9.10278 36.8563 11.7882 35.3184 13.5557ZM32.4796 11.2078C31.2064 11.7869 30.0596 13.188 30.0596 13.188L30.7416 14.4893C30.7416 14.4893 33.3908 12.9031 33.8147 12.2281C34.3414 11.3929 33.5264 10.7324 32.4796 11.2078ZM61.2384 7.08184L61.2844 9.10672L56.3522 8.91106L56.285 7.20265L57.4213 7.20002L56.9842 6.50274L52.4733 6.29789L52.1402 7.13043L53.603 7.23023L53.4147 8.86642L48.9946 9.12773L48.7734 7.15538L50.3574 7.1173L53.0776 1.79377L50.8656 1.7465L50.5957 0.228489L56.0388 0L59.8401 7.19215L61.2384 7.08184ZM56.2008 5.24474L54.4904 2.34661L53.0605 5.07009L56.2008 5.24474ZM81.6797 10.4409C83.5599 8.54863 86.6409 12.4185 86.6409 12.4185L85.8338 12.9227L86.978 14.2635L91.0254 11.8854L89.7364 10.1717L88.4197 11.2459C88.4197 11.2459 87.5757 9.40218 84.9305 8.04176C81.1293 6.0891 76.0707 9.67663 80.2248 14.6548C82.9661 17.939 87.2716 18.7689 87.2716 18.7689L87.843 16.6994C83.9075 16.2739 79.7955 12.3345 81.6797 10.4409ZM96.3764 20.241L97.9445 21.5922L97.4455 23.4779L99.6957 24.3065L100.483 21.0157L92.6317 13.8091L89.2966 15.0304L89.7667 16.9804L92.2091 16.0152L94.1249 18.3027L91.9102 20.7439L90.8095 19.7328L89.4902 21.1457L94.1314 25.4056L95.381 24.3262L94.0906 22.8948L96.3764 20.241ZM103.112 40.6487L100.76 35.1453L102.554 34.3298L103.712 37.115L109.361 39.0283L108.746 36.6738L110.848 36.0198L111.989 42.2547L106.977 47.0713L107.198 48.3766L105.045 49.1015L104.012 43.9342L105.136 43.4116L105.481 44.7733L106.569 43.9578L105.638 39.3487L103.959 38.8825L104.316 40.4465L103.112 40.6487ZM106.885 39.6599L107.592 43.0189L109.85 40.7485L106.885 39.6599ZM74.2708 2.73661L73.7612 4.18634L72.8685 3.87906L71.1002 8.98329L72.0825 9.34309L71.6269 11.0252L67.5531 9.66875L68.0113 8.0864L69.1199 8.4252L69.5861 6.97154C69.4491 6.95052 69.1739 6.93345 69.0462 6.90719L69.062 6.92164C66.509 6.75355 65.4438 9.33915 65.4438 9.33915L62.3983 8.94915L62.609 7.09628L64.7223 7.33134C65.2568 6.60648 65.9573 6.13637 66.5116 5.84748C64.6907 4.4122 65.2358 2.1759 67.1752 1.31053C69.8073 0.133942 74.2708 2.73661 74.2708 2.73661ZM67.5821 3.21066C67.1502 4.47523 68.4669 5.43514 70.0403 5.43514L71.0146 3.09379C71.0146 3.09379 68.0034 1.96448 67.5821 3.21066ZM45.749 7.78438C43.936 6.11405 42.5759 5.99455 41.99 6.04445L43.4633 4.24674L45.6332 3.5941L45.0802 1.45891L42.2559 2.57378L39.0827 6.95184L38.4863 5.66757L39.6489 5.23423L38.934 3.90401L34.6219 5.57303L35.0774 7.07265L36.4836 6.53294L38.0992 10.3096L36.7957 10.8059L37.4409 12.4526L42.0874 10.8007L41.4528 8.88743L40.2388 9.4442L39.8635 8.63136L40.7707 7.527C43.5384 7.54932 44.6904 10.0443 44.6904 10.0443L47.9927 9.30501L47.5015 7.27619L45.749 7.78438ZM111.629 66.2289L113.568 65.9715L112.216 71.8676L105.01 73.5629L104.259 75.6298L102.392 75.0494L104.056 69.8716L105.872 70.1264L105.718 70.8788L106.569 70.6871L107.855 66.9656L106.841 66.1042L106.399 67.5657L104.764 67.2164L105.506 61.9139L107.751 62.3381L107.457 63.8259L111.389 68.2906L111.629 66.2289ZM110.341 69.6379L108.862 68.003L107.98 70.3286L110.341 69.6379ZM101.098 32.6161L99.8655 33.5655L96.0906 28.0713L97.4205 27.0943L98.1657 28.0739L102.029 25.4476L101.265 24.401L102.685 23.4779C102.685 23.4779 107.19 28.4022 107.808 30.8959C108.35 33.0902 106.305 35.2858 104.197 34.3718C102.091 33.4605 100.682 30.6175 100.571 29.5512L99.6917 30.3089L101.098 32.6161ZM102.099 28.5059C102.099 28.5059 102.873 31.4487 104.104 32.1565C105.089 32.7212 105.987 32.0291 105.85 31.0915C105.631 29.5302 103.569 27.4528 103.569 27.4528L102.099 28.5059Z" fill="#BFAA8F"/>
<path d="M38.4349 56.5037C38.4652 56.5037 38.5021 56.4998 38.5324 56.488C38.8642 56.3803 39.5041 56.2188 39.803 56.2437C39.986 56.2621 40.1348 56.1321 40.1506 55.9574C40.1637 55.7828 40.0373 55.6305 39.8622 55.6121C39.3382 55.5635 38.4349 55.8524 38.3349 55.8865C38.1676 55.9391 38.0781 56.119 38.1347 56.2844C38.1782 56.4197 38.3019 56.5037 38.4349 56.5037Z" fill="#BFAA8F"/>
<path d="M72.5683 55.008C73.041 56.0073 73.5124 56.9462 73.9719 57.8182C72.1431 57.826 71.3254 56.3566 71.2872 56.287C71.2306 56.1846 71.1253 56.1203 71.0068 56.1203C70.8883 56.1203 70.7829 56.1846 70.7263 56.287C70.1891 57.2863 69.5742 57.8221 68.9027 57.8799C67.7888 57.9758 66.7789 56.7151 66.7684 56.7046C66.7065 56.6245 66.6065 56.5864 66.5143 56.5812C66.4142 56.5825 66.322 56.6298 66.2628 56.7099C65.5202 57.7131 64.7381 58.22 63.9455 58.22C63.9376 58.22 63.9323 58.22 63.927 58.22C62.6564 58.2095 61.7124 56.8963 61.7032 56.8858C61.6439 56.8005 61.5412 56.7519 61.4359 56.7519C61.3305 56.7545 61.2357 56.8084 61.1765 56.8977C60.5392 57.9035 59.8388 58.4209 59.0988 58.4314C59.0909 58.4314 59.083 58.4314 59.0751 58.4314C57.6992 58.4314 56.5418 56.7361 56.5313 56.7178C56.472 56.6337 56.3799 56.5812 56.2798 56.5799C56.1797 56.5851 56.0797 56.6206 56.0178 56.7033C55.2383 57.7039 54.3904 58.2266 53.495 58.2528C52.0441 58.3014 50.913 57.0316 50.9025 57.0198C50.8406 56.9528 50.7406 56.8924 50.6629 56.9121C50.576 56.9121 50.4878 56.9489 50.4259 57.0172C49.5977 57.9311 48.7879 58.3553 48.0243 58.2738C46.8459 58.1438 46.1006 56.8635 46.0901 56.8504C46.0361 56.7558 45.9334 56.6941 45.8228 56.6915C45.7069 56.6967 45.6069 56.744 45.5476 56.8372C45.1236 57.507 44.5785 57.914 43.9347 58.0572C43.1816 58.2239 42.4271 57.9915 41.9623 57.7893C42.6562 56.6101 43.1974 55.5976 43.5924 54.8137C44.0558 55.1512 44.7629 55.5307 45.6319 55.5307C45.6424 55.5307 45.653 55.5307 45.6622 55.5307C46.5825 55.5215 47.4594 55.0855 48.2692 54.2346C48.7419 54.7375 49.84 55.7329 51.1514 55.7329C51.1724 55.7329 51.1948 55.7329 51.2159 55.7329C52.0875 55.7093 52.8775 55.2562 53.5688 54.379C54.1165 54.7822 55.42 55.6003 56.8881 55.4716C57.7913 55.3915 58.5958 54.9713 59.2844 54.2201C59.7677 54.66 60.8947 55.5149 62.2233 55.423C63.1647 55.3586 64.0179 54.8478 64.7697 53.8997C65.0936 54.3107 65.7006 54.9095 66.5775 55.0185C67.4544 55.1328 68.3616 54.7283 69.2806 53.8275C69.9297 54.5419 71.1569 55.3797 72.5683 55.008ZM72.2932 54.4184C72.1049 54.01 71.9179 53.5951 71.7296 53.1696C71.2767 53.1893 70.5565 53.2182 69.6335 53.2537C69.9047 53.5859 70.9357 54.7034 72.2932 54.4184ZM71.0331 57.0198C70.4366 57.9442 69.7375 58.4432 68.9554 58.5102C67.8757 58.5969 66.9672 57.8353 66.5353 57.3914C65.7309 58.3605 64.8619 58.8556 63.9455 58.8556C63.9349 58.8556 63.9244 58.8556 63.9178 58.8556C62.7789 58.8372 61.8993 58.0624 61.4701 57.5949C60.7683 58.5575 59.9731 59.0552 59.1041 59.0644C59.0962 59.0644 59.083 59.0644 59.0764 59.0644C57.7834 59.0644 56.7235 57.9758 56.2574 57.4058C55.4213 58.3605 54.4983 58.8569 53.5108 58.8858C52.1731 58.937 51.1264 58.1084 50.6721 57.6829C49.7715 58.5877 48.8564 58.9961 47.9545 58.9015C46.9209 58.7886 46.1822 58.0375 45.8123 57.5595C45.3369 58.153 44.7497 58.5286 44.069 58.677C43.0973 58.891 42.1783 58.5851 41.6411 58.3382C40.9103 59.5502 40.0308 60.9133 39.0024 62.3604C41.2144 62.3683 42.4021 60.5679 42.4153 60.5482C42.4771 60.4576 42.5746 60.3906 42.6852 60.4038C42.7958 60.4038 42.8958 60.4616 42.9525 60.5548C43.5186 61.4779 44.1875 61.9756 44.9406 62.0413C46.4298 62.1634 47.8623 60.5627 47.8755 60.5443C47.9347 60.4799 48.019 60.4405 48.1072 60.4392C48.1968 60.4314 48.285 60.4707 48.3442 60.5351C50.6221 62.9093 53.3923 60.5797 53.5082 60.4799C53.6372 60.3696 53.8268 60.3788 53.9453 60.501C56.2311 62.8791 59.1817 60.4878 59.3042 60.3828C59.4411 60.2738 59.6413 60.2908 59.7519 60.4235C60.4076 61.2087 61.1383 61.6171 61.9191 61.6395C61.9428 61.6395 61.9652 61.6395 61.9862 61.6395C63.3898 61.6395 64.5393 60.4222 64.5524 60.413C64.6143 60.3434 64.7012 60.3027 64.7973 60.3105C64.8922 60.3158 64.9804 60.3591 65.037 60.4314C65.644 61.2074 66.3128 61.6132 67.0278 61.6421C68.2602 61.692 69.2622 60.6086 69.2727 60.5968C69.3346 60.5259 69.4268 60.4878 69.5242 60.4931C69.619 60.5009 69.7072 60.5469 69.7638 60.6244C70.2813 61.3374 70.8672 61.7274 71.5097 61.7839C72.5644 61.8798 73.4637 61.0459 73.4716 61.0393C73.5361 60.9763 73.623 60.9435 73.7138 60.9527C73.8007 60.9592 73.8837 61.0026 73.9403 61.0722C73.9943 61.1391 75.12 62.5219 76.5895 62.3013C75.8982 61.2232 75.1187 59.9271 74.3063 58.4288C72.5868 58.568 71.5137 57.612 71.0331 57.0198ZM76.1813 48.3766C74.8594 46.7667 73.6967 45.317 72.8172 44.1981C73.0305 45.6781 73.2333 47.0858 73.4242 48.3792C74.1115 48.7246 75.3202 49.1435 76.1813 48.3766ZM66.0219 43.6348C66.1087 44.8206 66.2272 46.1849 66.3892 47.724C66.9014 47.7345 67.3254 47.7607 67.6624 47.7883C67.2608 45.1423 66.5051 44.0668 66.0219 43.6348ZM45.6648 54.899C46.4416 54.8885 47.2027 54.4762 47.9203 53.6726C46.5233 53.6568 45.2764 53.6292 44.1914 53.5833C44.1111 53.7605 44.0058 53.9811 43.8807 54.2398C44.2612 54.53 44.8867 54.899 45.6345 54.899C45.6437 54.899 45.6543 54.899 45.6648 54.899ZM54.2482 65.6813C54.5102 65.6301 54.7775 65.5868 55.0553 65.5513C55.0013 65.1942 54.9684 64.9315 54.9447 64.7359C54.5826 64.7424 54.2218 64.749 53.865 64.7582C53.9835 65.0287 54.1297 65.3754 54.2482 65.6813ZM57.1975 64.7135C57.2107 64.9578 57.2186 65.2467 57.2028 65.5067C57.499 65.5251 57.7834 65.5513 58.0586 65.5881C58.1073 65.3031 58.2127 64.9854 58.3154 64.7188C58.1152 64.7188 57.9217 64.7109 57.7242 64.7109C57.5478 64.7109 57.3726 64.7135 57.1975 64.7135ZM51.2067 55.0986C51.948 55.0776 52.6366 54.6246 53.2541 53.7474C53.2752 53.7172 53.3028 53.6949 53.3344 53.6726C52.3548 53.6831 51.3857 53.6909 50.4417 53.6909C49.8163 53.6909 49.2119 53.687 48.6313 53.6817C48.942 54.0363 49.9743 55.0986 51.1566 55.0986C51.1724 55.0986 51.1882 55.0986 51.2067 55.0986ZM76.9529 62.8673C75.5585 63.2139 74.3037 62.3893 73.6506 61.7038C73.2517 62.0045 72.4235 62.5022 71.4492 62.4142C70.7105 62.3459 70.0482 61.9651 69.4689 61.281C69.0344 61.6592 68.1193 62.3105 67.0001 62.2724C66.1825 62.2448 65.4267 61.8443 64.7552 61.0906C64.2799 61.5108 63.2094 62.2947 61.9033 62.2724C61.0106 62.2488 60.1877 61.8404 59.4582 61.0538C58.6353 61.6263 55.9296 63.2139 53.6846 61.1378C52.9104 61.6946 50.3469 63.2389 48.1191 61.2022C47.6069 61.7038 46.3297 62.7898 44.8866 62.6716C44.0374 62.5994 43.2922 62.1266 42.6628 61.2626C42.1427 61.8693 40.9248 62.9946 39.0314 62.9946C38.88 62.9946 38.7207 62.9789 38.5614 62.9644C38.2454 63.3965 37.9215 63.8324 37.5791 64.275C41.017 63.8744 48.6708 63.1286 57.7255 63.1286C65.1647 63.1286 72.0206 63.6236 78.1444 64.6006C77.7995 64.1239 77.3979 63.5422 76.9529 62.8673ZM60.9198 66.4062C61.349 65.6525 61.9533 64.8882 61.9876 64.8449C62.0113 64.8173 62.0389 64.7963 62.0679 64.7779C61.0567 64.749 60.0336 64.7319 59.0027 64.7227C58.8789 65.0116 58.7407 65.3938 58.6867 65.6866C59.0053 65.7483 59.3095 65.8232 59.6018 65.9085C59.7479 65.4424 59.9125 64.942 59.9125 64.942L60.5142 65.1416C60.5142 65.1416 60.3496 65.6433 60.2035 66.1055C60.4484 66.1974 60.688 66.2972 60.9198 66.4062ZM67.8389 77.9016C67.798 77.9016 67.7559 77.8937 67.7151 77.8753C67.5176 77.7926 67.2134 77.7952 66.9541 77.8214C66.9817 78.0775 67.008 78.327 67.0317 78.5647C70.0614 78.9337 72.854 79.3986 75.4097 79.9199C74.7948 77.2949 73.3057 70.7987 72.3577 65.4358C69.2042 65.1022 65.8849 64.8882 62.4208 64.7871C62.426 64.7871 62.4287 64.7871 62.4313 64.7923C62.5695 64.9013 62.5932 65.0996 62.4826 65.2375C62.4747 65.2467 61.8836 65.9965 61.4793 66.6977C61.6979 66.8198 61.9086 66.9512 62.1113 67.093C62.4589 66.5677 62.8539 66.0096 62.8776 65.9715C62.9803 65.8284 63.1792 65.7943 63.3227 65.8941C63.4636 65.9952 63.5004 66.1922 63.3977 66.3353C63.3951 66.3445 62.9711 66.9459 62.6183 67.4738C62.7697 67.5972 62.9145 67.7259 63.0554 67.8572C63.6545 67.2374 64.48 66.4889 64.7039 66.2867C64.8355 66.1685 65.0357 66.1764 65.1542 66.3077C65.2727 66.4364 65.2595 66.636 65.1305 66.7555C64.5445 67.2821 63.9244 67.8717 63.5004 68.3077C63.7032 68.5296 63.8994 68.7581 64.0784 68.9971C64.3747 68.7594 64.8237 68.4376 65.5215 67.9872C65.665 67.8927 65.8612 67.9321 65.9587 68.0805C66.0535 68.2275 66.0126 68.4232 65.8665 68.5178C65.3596 68.846 64.7987 69.2387 64.4445 69.5158C64.5577 69.6852 64.6657 69.8598 64.7684 70.0358C65.249 69.7075 65.5834 69.6786 65.6295 69.6786C65.8072 69.676 65.9534 69.8099 65.9587 69.9832C65.9639 70.1553 65.8322 70.301 65.6598 70.3102C65.644 70.3141 65.4201 70.3444 65.0712 70.5965C65.1792 70.8066 65.2793 71.0206 65.3767 71.2373C65.827 71.0732 66.5235 70.8368 67.1331 70.712C67.3003 70.6779 67.4702 70.7843 67.5084 70.9576C67.5439 71.1283 67.4333 71.2977 67.2608 71.3305C66.7026 71.4461 66.0521 71.6667 65.6203 71.8243C65.7335 72.1184 65.8415 72.4139 65.9363 72.7133C66.3892 72.5649 66.9501 72.4178 67.3069 72.4651C67.4794 72.4887 67.6032 72.6463 67.5795 72.817C67.5558 72.9917 67.3938 73.1125 67.224 73.0915C66.9975 73.0639 66.5472 73.1781 66.1206 73.3173C66.2233 73.6758 66.3128 74.0383 66.3958 74.3954C66.6736 74.3271 66.9791 74.2681 67.249 74.2562C67.4399 74.2457 67.5729 74.3823 67.5808 74.557C67.5913 74.7316 67.4544 74.88 67.2793 74.8892C67.0475 74.901 66.775 74.9548 66.5288 75.0166C66.5749 75.2529 66.6183 75.488 66.6604 75.7217C67.249 75.6219 68.093 75.4959 68.4472 75.5234C68.6223 75.5405 68.75 75.6928 68.7381 75.8662C68.725 76.0408 68.5525 76.1643 68.3958 76.1564C68.1391 76.1327 67.3978 76.2391 66.7579 76.3468C66.8039 76.637 66.8408 76.9206 66.8737 77.1977C67.2055 77.1649 67.6269 77.1609 67.956 77.2975C68.118 77.3645 68.1957 77.5483 68.1285 77.7098C68.0811 77.8293 67.9626 77.9016 67.8389 77.9016ZM66.6644 54.3882C67.3583 54.4709 68.1246 54.098 68.9304 53.2799C67.8705 53.3193 66.6051 53.3626 65.2016 53.4086C65.4293 53.7264 65.9363 54.2989 66.6644 54.3882ZM80.1576 79.6126C80.2116 79.4458 80.1194 79.2672 79.9522 79.2147C78.941 78.8969 77.573 78.7223 76.7409 78.6395C76.5579 77.8569 76.3393 76.8983 76.0983 75.8136C76.9489 75.9345 78.5934 76.1695 79.1359 76.2956C79.1622 76.3008 79.1846 76.3008 79.2083 76.3008C79.3545 76.3008 79.4835 76.205 79.5164 76.0553C79.5546 75.8846 79.4493 75.7152 79.2768 75.6758C78.6461 75.5339 76.7001 75.2582 75.9522 75.1544C75.8521 74.704 75.752 74.2379 75.6467 73.7572C76.2669 73.8781 77.2149 74.0553 77.5651 74.0947C77.5783 74.096 77.5914 74.096 77.6007 74.096C77.7626 74.096 77.8995 73.9765 77.9166 73.815C77.9351 73.6391 77.8087 73.4828 77.6336 73.4644C77.2557 73.4224 76.0601 73.1952 75.5019 73.0849C75.4097 72.6581 75.3162 72.2287 75.2241 71.7901C77.3742 72.1289 79.0938 72.6489 79.1148 72.6542C79.1451 72.6647 79.1767 72.67 79.207 72.67C79.3413 72.67 79.4664 72.5807 79.5098 72.4454C79.5612 72.2773 79.4664 72.1 79.3018 72.0515C79.2781 72.0436 77.3913 71.4724 75.0845 71.127C74.9976 70.7002 74.9067 70.2695 74.8172 69.8388C76.3472 70.0857 78.0826 70.6726 78.1036 70.6792C78.1365 70.691 78.1708 70.6976 78.2037 70.6976C78.3354 70.6976 78.4604 70.6149 78.5052 70.4809C78.5618 70.3168 78.4749 70.1369 78.3077 70.0778C78.2234 70.0502 76.3195 69.4081 74.6842 69.177C74.6092 68.8053 74.5381 68.4363 74.463 68.066C75.2675 68.2039 76.2919 68.418 76.3064 68.4206C76.3274 68.4258 76.3498 68.4271 76.3709 68.4271C76.517 68.4271 76.6487 68.326 76.679 68.175C76.7145 68.0043 76.6066 67.8362 76.4341 67.8008C76.3696 67.7876 75.174 67.5395 74.3353 67.4029C74.2761 67.1009 74.2194 66.7975 74.1655 66.4968C74.7395 66.5651 76.2893 66.7581 76.9226 66.9906C76.9581 67.0024 76.995 67.0076 77.0305 67.0076C77.1622 67.0076 77.282 66.9288 77.3321 66.8015C77.3887 66.636 77.3044 66.4548 77.1398 66.3957C76.3327 66.0989 74.3419 65.8796 74.0456 65.8468C74.0298 65.7746 74.018 65.7024 74.0048 65.6288C76.0285 65.8731 77.9851 66.1567 79.8601 66.4981C79.9061 66.506 79.9549 66.5139 80.0009 66.5139C80.2814 66.5139 80.5434 66.3655 80.6869 66.116C80.8541 65.8284 80.8239 65.4621 80.604 65.2086C80.5882 65.1915 79.9865 64.4693 79.0477 63.1246C79.3505 63.185 79.6955 63.2546 79.9456 63.2993C79.9641 63.3006 79.9812 63.3032 79.9996 63.3032C80.151 63.3032 80.2854 63.1929 80.313 63.038C80.3407 62.8673 80.2261 62.7018 80.0536 62.6755C79.5269 62.5862 78.5513 62.3709 78.5513 62.3709L78.546 62.3919C78.3275 62.0662 78.0957 61.7077 77.8548 61.3269C78.284 61.4136 78.9068 61.5528 79.5138 61.7419C79.5441 61.7524 79.5757 61.7603 79.6086 61.7603C79.7429 61.7603 79.868 61.6736 79.9114 61.537C79.9628 61.3703 79.868 61.193 79.7007 61.1391C78.5974 60.7912 77.4585 60.606 77.4097 60.5994C77.4045 60.5994 77.4018 60.5994 77.3966 60.5994C77.3637 60.5469 77.3294 60.4931 77.2991 60.4379C78.6566 60.5443 80.0431 60.6743 81.3597 60.8082C81.8535 63.4831 84.026 74.8222 86.8068 83.0399C84.1629 82.1115 80.9358 81.1437 77.124 80.2915C77.0674 80.0472 76.9871 79.7111 76.8896 79.2961C77.7047 79.3841 78.891 79.5483 79.7574 79.8201C79.7903 79.8332 79.8245 79.8358 79.8548 79.8358C79.9904 79.8332 80.1142 79.7465 80.1576 79.6126ZM80.3433 76.0342C80.2867 76.201 80.3736 76.3796 80.5408 76.4374C80.5816 76.4531 81.5586 76.7867 81.9733 76.8681C81.9944 76.8707 82.0141 76.872 82.0352 76.872C82.184 76.872 82.3183 76.7683 82.3459 76.6173C82.3789 76.4453 82.2656 76.2785 82.0971 76.2444C81.7863 76.1866 81.0201 75.9318 80.7475 75.8386C80.579 75.7834 80.3999 75.8688 80.3433 76.0342ZM79.7258 69.2794C79.7692 69.3004 79.8127 69.3083 79.8574 69.3083C79.9786 69.3083 80.0944 69.2374 80.1458 69.1192C80.2208 68.9629 80.1458 68.7738 79.9891 68.7016C79.2504 68.3707 77.7468 67.9649 77.6823 67.9478C77.5151 67.9032 77.3373 68.003 77.2939 68.1711C77.2478 68.3405 77.3479 68.5138 77.5177 68.5585C77.5322 68.5663 79.0385 68.9708 79.7258 69.2794ZM80.1629 74.687C80.2011 74.704 80.2406 74.7119 80.2814 74.7119C80.4078 74.7119 80.5263 74.6371 80.575 74.5136C80.6422 74.3521 80.5645 74.1683 80.3999 74.1026C79.9628 73.924 79.0622 73.6706 79.024 73.6601C78.8594 73.6115 78.679 73.71 78.6303 73.8807C78.5842 74.0474 78.6843 74.2221 78.8515 74.2681C78.8594 74.2733 79.756 74.5241 80.1629 74.687ZM81.502 78.566C81.5401 78.5791 81.5744 78.587 81.6126 78.587C81.7416 78.587 81.8614 78.5069 81.9114 78.3782C81.9707 78.2154 81.8851 78.0329 81.7232 77.9712C80.0615 77.3618 78.0325 77.1819 77.9456 77.1741C77.7784 77.1583 77.6217 77.2896 77.6033 77.463C77.5901 77.6376 77.7165 77.7926 77.8916 77.8057C77.9153 77.807 79.9233 77.9856 81.502 78.566ZM37.4712 73.2477C37.4843 73.4224 37.641 73.5471 37.8082 73.5445C37.8135 73.5406 38.1163 73.5209 38.5719 73.5209C38.4824 73.9437 38.3836 74.3692 38.2783 74.8012C36.3362 74.8353 35.0458 75.1059 34.9892 75.119C34.8194 75.1544 34.7088 75.3238 34.7443 75.4945C34.7746 75.6416 34.9089 75.744 35.0551 75.744C35.0761 75.744 35.0985 75.7414 35.1196 75.7362C35.1354 75.7322 36.3362 75.4854 38.1203 75.4381C38.0307 75.7926 37.9373 76.1485 37.8398 76.5057C36.194 76.6396 34.6772 76.964 33.8951 77.1294C33.666 77.178 33.5093 77.2121 33.4474 77.2187C33.2776 77.2253 33.1419 77.3645 33.1419 77.5352C33.1419 77.7111 33.2828 77.853 33.4579 77.853C33.5383 77.853 33.6502 77.828 34.0294 77.7479C34.7601 77.5917 36.1453 77.2988 37.6608 77.1596C37.5093 77.6901 37.3474 78.2246 37.1775 78.7551C32.0939 79.4406 27.8292 80.3742 24.5309 81.2553C28.3058 68.9577 30.6284 56.8386 31.1116 54.2044C33.9017 53.6358 38.0163 52.9963 42.7615 52.8912C42.6615 53.1066 42.5219 53.3968 42.3455 53.7553C40.5864 53.6121 38.6035 54.2661 38.5192 54.2937C38.3546 54.3501 38.2651 54.5274 38.3217 54.6942C38.3652 54.8281 38.4889 54.9109 38.6232 54.9109C38.6535 54.9109 38.6904 54.9056 38.7233 54.8938C38.7417 54.8872 40.4666 54.3199 42.0334 54.3711C41.8504 54.7257 41.645 55.1144 41.4054 55.5504C41.0683 55.5596 40.7576 55.5963 40.6601 55.6095C40.4876 55.6331 40.3639 55.792 40.3876 55.9653C40.4113 56.1373 40.5706 56.2581 40.7444 56.2358C40.8313 56.2266 40.9327 56.2135 41.0406 56.2043C40.8629 56.5168 40.6759 56.8425 40.4719 57.1839C39.8438 57.134 39.0064 57.2443 38.7984 57.2758C38.6259 57.3008 38.5047 57.461 38.5311 57.6343C38.5548 57.805 38.7167 57.9298 38.8905 57.9009C39.2842 57.8444 39.7319 57.809 40.0966 57.805C39.9017 58.1294 39.6924 58.4642 39.4712 58.8096C38.7826 58.7794 38.1308 58.8359 38.1032 58.8385C37.928 58.8556 37.7977 59.0092 37.8148 59.1839C37.8306 59.3585 37.9794 59.4885 38.1598 59.4688C38.1677 59.4688 38.5732 59.4334 39.0696 59.4334C38.4007 60.4537 37.6476 61.5436 36.801 62.6677C37.6423 59.3125 38.2335 56.0507 37.0274 54.4985C36.5363 53.8682 35.8214 53.5754 34.901 53.6699C30.8101 54.0954 30.082 63.1627 30.0122 64.1962C29.9964 64.4378 30.0925 64.6728 30.2716 64.8344C30.4204 64.9683 30.6087 65.0379 30.8035 65.0379C30.847 65.0379 30.8904 65.034 30.9378 65.0261C32.6298 64.7359 34.5916 64.5231 35.4198 64.4404C35.3197 64.5599 35.2289 64.6781 35.1314 64.7989C34.9208 65.051 34.8892 65.4056 35.0511 65.6905C35.2104 65.9755 35.5317 66.1291 35.8556 66.0858C35.8911 66.0805 37.3645 65.8717 39.8622 65.6196C39.8438 65.7811 39.824 65.9519 39.803 66.1304C38.5758 66.1029 37.5172 66.3694 37.4685 66.3786C37.2987 66.4246 37.1933 66.5966 37.2394 66.7673C37.2776 66.9091 37.404 67.0037 37.5449 67.0037C37.5725 67.0037 37.5989 67.0024 37.6278 66.9932C37.6357 66.9919 38.6127 66.7463 39.7266 66.7621C39.6344 67.5132 39.5159 68.372 39.3698 69.3004C37.3118 69.3109 36.3691 69.6024 36.3243 69.6156C36.1571 69.6694 36.0702 69.8493 36.1242 70.0161C36.1677 70.1487 36.2941 70.2314 36.4257 70.2314C36.4586 70.2314 36.4929 70.2275 36.5258 70.217C36.5363 70.213 37.3922 69.9491 39.2671 69.9333C39.113 70.8591 38.9274 71.8545 38.7115 72.8853C38.1611 72.8827 37.7858 72.9063 37.7648 72.9089C37.5897 72.9208 37.458 73.0731 37.4712 73.2477ZM35.7174 68.326C35.7503 68.4705 35.8819 68.5716 36.0255 68.5716C36.0492 68.5716 36.0742 68.569 36.0979 68.5624C36.111 68.5585 37.4843 68.2512 38.2217 68.2866C38.3862 68.3011 38.5456 68.1606 38.5535 67.9859C38.564 67.8113 38.4297 67.6629 38.2519 67.6537C37.4159 67.6064 36.0123 67.9321 35.953 67.9452C35.7845 67.9859 35.6765 68.1553 35.7174 68.326ZM36.7404 73.2162C36.7351 73.0389 36.5679 72.8945 36.4139 72.9089C35.2565 72.947 33.8134 73.4605 33.7529 73.4815C33.5857 73.5419 33.5014 73.7231 33.5606 73.8872C33.6094 74.0172 33.7305 74.0973 33.8595 74.0973C33.8951 74.0973 33.9346 74.0908 33.9675 74.0776C33.9807 74.0724 35.3763 73.5787 36.4363 73.5458C36.6101 73.5366 36.7483 73.3909 36.7404 73.2162ZM38.2296 71.8899C38.2322 71.8899 38.2348 71.8899 38.2375 71.8899C38.4099 71.8899 38.5508 71.7534 38.5535 71.58C38.5587 71.4054 38.4192 71.2596 38.2454 71.257C36.6812 71.2242 35.1235 71.6312 35.059 71.6496C34.8892 71.693 34.7891 71.8689 34.8352 72.037C34.8707 72.1775 35.0024 72.2721 35.1406 72.2721C35.1683 72.2721 35.1946 72.2681 35.2236 72.2629C35.2394 72.2563 36.7615 71.8558 38.2296 71.8899ZM72.3366 41.0334C72.3366 41.0334 77.4795 47.4679 78.7764 48.9662C80.3038 44.9874 84.658 45.271 84.658 45.271C84.8555 45.007 84.6857 45.3143 84.8581 45.032L93.3757 48.8664C93.4165 48.8848 93.456 48.894 93.4995 48.894C93.6153 48.894 93.7259 48.8296 93.7773 48.7193C93.8444 48.5657 93.7773 48.3845 93.6232 48.3162L85.1623 44.5054C85.4243 44.0261 85.6429 43.5258 85.8285 43.0071L91.8181 44.7864C91.9774 44.8324 92.1472 44.7431 92.1933 44.5842C92.242 44.4227 92.1525 44.2533 91.9905 44.2086L86.0116 42.4333C86.1682 41.8975 86.2815 41.3512 86.3512 40.7971L89.4573 41.1464C89.6192 41.1648 89.7733 41.0426 89.7917 40.8811C89.8101 40.7157 89.689 40.5633 89.5244 40.5449L86.4105 40.1983C86.4289 39.9593 86.4342 39.7216 86.4342 39.4839C86.4342 39.1333 86.4184 38.7879 86.3855 38.4465L90.0195 37.9961C90.1867 37.9738 90.3052 37.8267 90.2815 37.66C90.2605 37.4919 90.1143 37.3684 89.9444 37.3947L86.3078 37.8438C86.2156 37.2411 86.0682 36.6514 85.8759 36.0855L93.5877 33.861C93.7444 33.815 93.8365 33.6483 93.7904 33.4841C93.7444 33.3252 93.5798 33.2333 93.4178 33.2819L85.6587 35.5182C85.4704 35.0573 85.2545 34.6161 85.0056 34.1893L87.1913 32.7881C87.3322 32.7002 87.3717 32.515 87.2808 32.3745C87.1913 32.2314 87.003 32.1907 86.8648 32.2852L84.6896 33.6811C84.3525 33.1755 83.9773 32.7015 83.5652 32.2629L86.8213 29.0798C86.9398 28.9642 86.9424 28.7725 86.8239 28.6517C86.7081 28.5322 86.5185 28.5322 86.4 28.6491L83.1359 31.8361C82.7962 31.5144 82.4342 31.211 82.0536 30.9366L85.319 25.9361C85.4085 25.7969 85.3703 25.6091 85.2321 25.5185C85.0886 25.4266 84.9029 25.466 84.8134 25.6065L81.5546 30.5978C81.1385 30.3339 80.704 30.0988 80.2511 29.89L81.5112 25.5829C81.5573 25.4227 81.4677 25.2572 81.3058 25.2099C81.1438 25.1613 80.9766 25.2533 80.9331 25.4122L79.6942 29.6523C79.2491 29.4843 78.7909 29.3451 78.3235 29.2321L79.2057 21.5686C79.2241 21.4005 79.1082 21.2508 78.9437 21.2324C78.7791 21.2088 78.6277 21.3309 78.6066 21.4963L77.7271 29.1087C77.2333 29.022 76.7238 28.9695 76.2076 28.955V26.0989C76.2076 25.9309 76.0733 25.7956 75.9048 25.7956C75.7402 25.7956 75.6033 25.9322 75.6033 26.0989V28.955C75.0819 28.9695 74.567 29.022 74.0628 29.1113L73.0595 23.8915C73.0292 23.73 72.8685 23.621 72.7066 23.6499C72.542 23.6801 72.434 23.8416 72.4669 24.0045L73.4676 29.2334C72.5776 29.4435 71.7296 29.7758 70.9212 30.2117L72.3366 41.0334ZM45.8373 72.4835C45.9123 72.5176 46.4114 72.7461 46.8143 72.9772C46.9683 72.5649 47.1382 72.1512 47.3317 71.7337C46.4904 71.2675 45.3053 70.6661 45.2895 70.6608C45.1329 70.582 45.0683 70.3903 45.1513 70.2367C45.229 70.0778 45.4186 70.0161 45.5753 70.0988C45.6345 70.1264 46.7655 70.6976 47.6095 71.1664C47.728 70.9379 47.8492 70.7107 47.9795 70.4862C47.4621 70.1132 46.8735 69.714 46.8656 69.7062C46.7168 69.6103 46.68 69.4133 46.7787 69.2676C46.8788 69.1218 47.075 69.0824 47.2211 69.1835C47.254 69.2072 47.8044 69.5788 48.3139 69.9452C48.4864 69.6786 48.6694 69.4146 48.8617 69.1573C48.4377 68.7633 47.8255 68.2341 47.4015 67.8796C47.2646 67.7693 47.2474 67.5683 47.3607 67.4357C47.4713 67.2991 47.6714 67.2808 47.8083 67.3937C48.0032 67.5592 48.7234 68.1619 49.2633 68.6675C49.4581 68.4403 49.6675 68.2223 49.8834 68.0135C49.5872 67.6878 49.1922 67.3753 49.017 67.2493C48.8762 67.1495 48.8393 66.9512 48.942 66.8093C49.0447 66.6662 49.2435 66.6308 49.3844 66.7345C49.4621 66.787 49.9585 67.1481 50.3535 67.5854C50.5312 67.4357 50.7155 67.2873 50.9091 67.1508C50.7972 66.9709 50.6787 66.7831 50.5628 66.594C50.3469 66.2381 50.0506 65.7523 49.9769 65.6735C49.8334 65.575 49.8123 65.3951 49.9097 65.2519C50.0072 65.1049 50.2257 65.0812 50.3706 65.1784C50.4785 65.2519 50.5654 65.3819 51.104 66.2631C51.2146 66.4403 51.3252 66.6202 51.4331 66.7949C51.7215 66.6163 52.0322 66.4587 52.3482 66.3103C52.0888 65.8613 51.7307 65.2598 51.7307 65.2572L52.2758 64.9368C52.2758 64.9368 52.6748 65.6039 52.9368 66.0648C53.1606 65.9807 53.3923 65.9046 53.628 65.8389C53.4871 65.4831 53.3068 65.0589 53.1804 64.7713C48.5536 64.8961 44.5009 65.1876 41.4791 65.4621C41.2013 68.1698 40.5074 73.3042 38.9103 78.5319C41.0262 78.2797 43.2724 78.0736 45.6398 77.9304C45.6661 77.6954 45.7043 77.4078 45.7556 77.0716C45.1776 76.985 44.4574 76.6606 44.3587 76.6173C44.1993 76.5424 44.1296 76.356 44.2046 76.1971C44.2797 76.0382 44.4666 75.9712 44.6259 76.0421C44.9472 76.1905 45.5028 76.3967 45.8649 76.4492C45.9268 76.1038 46.0058 75.7309 46.1019 75.3356C45.3514 74.9798 44.4126 74.6988 44.4021 74.6988C44.2349 74.6489 44.1401 74.4716 44.1888 74.3048C44.2402 74.1367 44.4153 74.0396 44.5825 74.0921C44.6233 74.1013 45.4897 74.3587 46.2612 74.7119C46.3587 74.3468 46.4719 73.97 46.601 73.5852C46.3073 73.4106 45.8557 73.1873 45.57 73.06C45.4133 72.9877 45.3409 72.7986 45.4133 72.6424C45.487 72.4795 45.6767 72.4099 45.8373 72.4835ZM64.6551 37.1124C64.3444 36.6764 63.9863 36.1577 63.5952 35.5839C61.6742 36.2325 60.3549 35.0074 59.8177 34.3429C59.162 35.1912 58.3957 35.6521 57.532 35.7178C56.1402 35.8189 54.917 34.8511 54.397 34.3666C53.6544 35.2385 52.8696 35.6718 52.0151 35.6469C51.0118 35.6206 50.2323 34.9391 49.8294 34.4966C49.0091 35.7572 48.0295 36.0526 47.2935 36.0526C47.1777 36.0526 47.0697 36.0448 46.9696 36.0316C46.7458 36.3573 46.5246 36.6803 46.2929 37.0007C48.1902 36.5805 51.1843 36.0999 55 36.0999C58.2035 36.0986 61.4412 36.44 64.6551 37.1124ZM55.5267 41.5193C55.5003 42.4411 55.4727 43.644 55.449 44.7654C56.3443 44.7759 57.3108 44.8088 58.2732 44.8784C57.8638 43.0413 57.1054 41.669 55.5267 41.5193ZM48.7405 42.7156C48.7405 42.5409 48.5997 42.4004 48.4245 42.4004C47.7846 42.4004 46.9196 42.5436 46.3745 42.6486C46.4074 42.3768 46.4443 42.0669 46.4825 41.7176C46.784 41.6664 47.1513 41.6139 47.4318 41.6139C47.6069 41.6139 47.7478 41.4707 47.7478 41.2961C47.7478 41.1201 47.6069 40.9796 47.4318 40.9796C47.1592 40.9796 46.8353 41.0229 46.5443 41.065C46.5746 40.738 46.6036 40.3861 46.6312 40.0079C47.1118 39.9146 48.2692 39.7072 49.2106 39.673C49.3857 39.6678 49.5213 39.522 49.5161 39.3474C49.5108 39.1714 49.3673 39.0296 49.1869 39.0427C48.2863 39.0703 47.2382 39.2502 46.6747 39.3552C46.6905 39.0913 46.7076 38.8168 46.7208 38.5293C48.5312 38.1327 51.3884 37.681 55.0013 37.681C58.0468 37.681 61.1291 38.0066 64.1904 38.6356C64.2088 40.2889 64.3602 44.7602 65.27 51.8236C61.5123 51.9458 56.7499 52.0705 52.3219 52.0981C52.3193 52.0981 52.3193 52.0928 52.3166 52.0902C52.2758 52.0416 50.5009 49.846 48.1862 46.55C48.4456 46.5434 48.7182 46.5539 48.9117 46.5986C48.938 46.6012 48.9604 46.6052 48.9868 46.6052C49.1276 46.6052 49.2619 46.5067 49.2922 46.3596C49.333 46.1902 49.2277 46.0195 49.0552 45.9814C48.6694 45.8908 48.1191 45.9105 47.757 45.9394C47.549 45.64 47.3409 45.3353 47.1263 45.0215C47.757 44.9703 48.6313 44.9309 49.1342 45.0359C49.3041 45.0675 49.4739 44.9611 49.5095 44.7904C49.545 44.6184 49.4344 44.4503 49.2606 44.4148C48.5746 44.273 47.3633 44.3597 46.7195 44.424C46.5575 44.1798 46.3956 43.9342 46.2283 43.6847C46.2441 43.5823 46.2639 43.4601 46.285 43.3131C46.7629 43.2159 47.7557 43.0321 48.4219 43.0321C48.5983 43.0334 48.7405 42.8929 48.7405 42.7156ZM49.836 48.0982C49.836 48.3175 49.9229 48.525 50.0809 48.6773C50.2429 48.8257 50.4588 48.9045 50.6774 48.8914C51.5595 48.8441 52.5931 48.8165 53.7426 48.8165C56.6722 48.8165 59.428 48.982 59.4596 48.9859C59.4727 48.9859 59.4898 48.9872 59.5056 48.9872C59.7189 48.9872 59.9217 48.9019 60.0718 48.7495C60.2338 48.588 60.3167 48.3622 60.2983 48.1337C60.0718 45.2605 59.6557 39.9133 55.237 39.9133C49.944 39.9146 49.8386 47.766 49.836 48.0982ZM48.7682 41.434C48.7814 41.434 48.7945 41.434 48.8064 41.4326C49.1092 41.3959 49.9743 41.3053 50.3627 41.3617C50.5404 41.388 50.6971 41.2672 50.7221 41.0952C50.7485 40.9218 50.6273 40.7616 50.4522 40.7367C49.9018 40.6592 48.7735 40.7984 48.7287 40.805C48.5536 40.8273 48.4298 40.9862 48.4535 41.1608C48.4719 41.3184 48.6089 41.434 48.7682 41.434ZM54.763 47.2433C54.7735 46.7798 54.7841 46.1272 54.8012 45.3931C53.4845 45.3918 52.3838 45.4325 51.7584 45.4614C51.6017 46.1455 51.5161 46.7903 51.4726 47.2749C52.1665 47.2486 52.9262 47.2368 53.7413 47.2368C54.0862 47.2355 54.4259 47.2381 54.763 47.2433ZM54.8907 41.5272C53.2449 41.7202 52.3785 43.2684 51.9256 44.8193C52.5813 44.7917 53.6122 44.7575 54.813 44.7602C54.8341 43.6466 54.8657 42.4516 54.8907 41.5272ZM58.3996 45.5231C57.3937 45.4443 56.3759 45.4102 55.4345 45.397C55.4213 46.135 55.4068 46.789 55.3989 47.2512C56.7077 47.2736 57.8782 47.3221 58.6366 47.3576C58.5761 46.7246 58.5023 46.1075 58.3996 45.5231ZM70.0311 25.7575C69.7454 25.3859 69.4623 25.0038 69.1871 24.6164C67.9574 24.8843 66.9264 24.1909 66.3589 23.5593C65.8441 24.1029 65.2555 24.401 64.5998 24.4444C63.6071 24.5179 62.7381 23.9729 62.326 23.6578C61.4899 24.5665 60.7038 24.7924 60.1297 24.7924C60.0573 24.7924 59.9954 24.7792 59.9296 24.774C59.7492 25.0195 59.5978 25.2244 59.4767 25.3806C59.5767 25.5907 59.6794 25.7969 59.7848 26.0005C63.4754 25.4568 67.6716 25.6013 70.0311 25.7575ZM54.9868 25.8048C55.0461 25.7142 55.1514 25.6656 55.2567 25.663C55.3647 25.6656 55.4648 25.7221 55.5214 25.814C55.524 25.8192 55.9045 26.4115 56.5892 26.5113C57.0316 26.5756 57.5175 26.4207 58.0349 26.0661C57.0632 24.099 56.1402 22.0019 55.366 19.8365C54.7235 21.4596 53.6991 23.885 52.3627 26.6255C52.5892 26.8133 52.9486 27.0392 53.3765 27.026C53.919 27.0037 54.4615 26.594 54.9868 25.8048ZM52.4206 30.02C52.4799 29.9399 52.5642 29.8874 52.6629 29.8821C52.7617 29.8769 52.8551 29.9123 52.9197 29.9846C52.9328 29.9977 54.0612 31.2202 55.4068 31.127C56.2087 31.0745 56.9526 30.5597 57.611 29.6024C57.6755 29.5079 57.7861 29.4567 57.9046 29.4659C58.0178 29.4777 58.1179 29.5486 58.164 29.655C58.1666 29.6602 58.5089 30.4061 59.2752 30.6622C59.6399 30.7856 60.0494 30.7685 60.4945 30.6398C59.7716 29.3989 59.0369 28.0621 58.322 26.6439C57.69 27.0575 57.0777 27.2256 56.4905 27.1376C55.9269 27.0523 55.5214 26.749 55.2712 26.5008C54.6932 27.2466 54.0625 27.6353 53.3937 27.6616C53.3726 27.6616 53.3502 27.6616 53.3291 27.6616C52.8051 27.6616 52.3746 27.4344 52.0744 27.2112C51.4344 28.5007 50.7248 29.8519 49.9558 31.2176C50.5602 31.3647 51.5424 31.3253 52.4206 30.02ZM49.5121 33.7901C49.5635 33.6929 49.6635 33.6286 49.7741 33.622C49.8847 33.6141 49.9901 33.6706 50.0519 33.7612C50.0598 33.7743 50.9012 34.9837 52.0375 35.01C52.7551 35.0231 53.4437 34.5898 54.1205 33.6995C54.1797 33.6246 54.2666 33.5787 54.3601 33.5734C54.4575 33.576 54.5484 33.6076 54.6089 33.6785C54.6247 33.6955 56.0007 35.2004 57.4872 35.0822C58.2614 35.0218 58.9526 34.532 59.5491 33.6246C59.6083 33.5301 59.7084 33.4789 59.8216 33.4789C59.9322 33.4828 60.0323 33.5432 60.0889 33.6351C60.1403 33.7244 61.2621 35.5615 63.2266 35.031C62.4984 33.9385 61.6755 32.6463 60.8223 31.2058C60.1903 31.4185 59.6004 31.4408 59.0606 31.257C58.4721 31.0574 58.081 30.6556 57.8466 30.3457C57.1396 31.2255 56.3325 31.6995 55.445 31.7586C54.2284 31.8453 53.2001 31.0955 52.7287 30.6779C51.9677 31.6418 51.1422 31.9083 50.4627 31.9083C50.1467 31.9083 49.861 31.8492 49.6293 31.777C48.9301 32.9996 48.1757 34.2234 47.3791 35.4184C47.9993 35.3882 48.8248 35.0625 49.5121 33.7901ZM69.4544 37.8504C69.7085 37.8858 70.0179 37.9475 70.355 38.0421C70.172 36.7171 69.9982 35.3987 69.831 34.1144C69.5782 34.4913 69.2095 35.4735 69.4544 37.8504ZM64.2443 19.7104C64.3062 19.6277 64.3734 19.5883 64.5064 19.5818C64.6091 19.5844 64.7039 19.6356 64.7605 19.7196C64.7908 19.7617 65.378 20.5784 66.4603 20.4576C65.5834 19.0118 64.8382 17.6908 64.3102 16.7217C63.7927 18.0651 63.2147 19.3021 62.6341 20.4038C63.1081 20.4694 63.7453 20.3867 64.2443 19.7104ZM62.0455 23.0157C62.0995 22.9474 62.1824 22.908 62.272 22.9001C62.3549 22.8909 62.4471 22.9264 62.509 22.9868C62.5195 22.9946 63.4701 23.8915 64.559 23.8127C65.1357 23.772 65.6624 23.4529 66.118 22.8673C66.1825 22.7885 66.2799 22.7451 66.3773 22.7465C66.4774 22.7478 66.5722 22.799 66.6288 22.883C66.6723 22.9447 67.5215 24.1318 68.7816 24.036C68.0877 23.0367 67.4241 22.0137 66.8171 21.0354C66.617 21.0801 66.4234 21.1037 66.2404 21.1037C65.4688 21.1037 64.8671 20.7478 64.4998 20.3854C63.8138 21.0788 62.9645 21.1287 62.322 20.9881C61.6202 22.2658 60.9382 23.3295 60.3825 24.1305C60.8289 24.0596 61.4109 23.7852 62.0455 23.0157ZM36.9076 41.472C37.4712 41.5009 38.0465 41.1595 38.589 40.5056C38.6509 40.4333 38.7378 40.39 38.8313 40.39C38.9011 40.39 39.0117 40.4281 39.0762 40.4977C39.0841 40.5108 40.0821 41.6204 41.221 41.5666C41.7069 41.5495 42.1651 41.3184 42.5917 40.8942C41.9413 39.8214 41.3027 38.717 40.6917 37.5917C40.0953 38.0211 39.4725 38.2443 38.8326 38.2443C38.8273 38.2443 38.8247 38.2443 38.8194 38.2443C38.1453 38.2417 37.5897 37.9935 37.2039 37.7532C36.7615 38.7564 36.2625 39.8529 35.7279 40.9967C36.0255 41.2304 36.4376 41.4628 36.9076 41.472ZM68.7316 39.367C68.7421 39.367 69.6374 39.3933 70.596 39.7978C71.2135 44.2428 71.8455 48.5696 72.2932 51.5754C72.2655 51.5715 72.2365 51.5649 72.2063 51.5649C72.1575 51.5676 70.0206 51.6621 66.8645 51.7711C66.8132 51.3693 66.7592 50.9688 66.7131 50.5827C67.4281 50.5551 68.7605 50.5236 69.9784 50.609C69.9863 50.6116 69.9969 50.6116 70.0048 50.6116C70.1694 50.6116 70.3076 50.4829 70.3208 50.3161C70.3339 50.1402 70.2023 49.9905 70.0272 49.9786C68.7316 49.8854 67.3504 49.9222 66.6381 49.9524C66.6117 49.7383 66.5841 49.523 66.5604 49.3155C67.8231 49.3549 68.384 49.481 68.3866 49.481C68.4485 49.498 68.513 49.5059 68.5775 49.5059C68.7684 49.5059 68.9501 49.4376 69.0976 49.3129C69.1924 49.2315 69.2622 49.129 69.3083 49.0187C69.4755 49.0161 69.6914 49.0187 69.9903 49.0292C69.9956 49.0319 70.0008 49.0319 70.0061 49.0319C70.1733 49.0319 70.3142 48.8966 70.3221 48.7272C70.33 48.5539 70.1931 48.4068 70.0193 48.3989C69.7335 48.3858 69.5071 48.3832 69.3372 48.3832C69.2938 48.0129 69.2451 47.6544 69.1884 47.3143C69.4557 47.3103 69.7362 47.3195 69.9495 47.355C69.9679 47.3602 69.985 47.3602 70.0061 47.3602C70.1549 47.3602 70.2918 47.2538 70.3168 47.1015C70.3471 46.9269 70.2339 46.7627 70.0601 46.7352C69.7744 46.6826 69.4017 46.6761 69.0752 46.6866C68.9514 46.0865 68.8053 45.5441 68.6381 45.0478C68.8896 45.0399 69.2556 45.0451 69.7493 45.099C69.7625 45.1016 69.7704 45.1029 69.7823 45.1029C69.9442 45.1029 70.0811 44.9834 70.0983 44.8206C70.1167 44.6472 69.9903 44.4883 69.8178 44.47C69.1437 44.3951 68.6868 44.4043 68.3984 44.4266C68.2339 44.0445 68.0587 43.6939 67.8612 43.3892C68.2141 43.3774 68.538 43.3879 68.6868 43.4418C68.7197 43.4549 68.7592 43.4628 68.7948 43.4628C68.9238 43.4628 69.0436 43.3827 69.0936 43.2553C69.1555 43.0925 69.0699 42.9099 68.908 42.8482C68.5578 42.7182 67.8849 42.7419 67.403 42.7799C67.2595 42.6158 67.1041 42.47 66.9422 42.3413C66.8342 42.2547 66.7289 42.1798 66.6236 42.1142C67.3688 42.0721 68.3853 42.0538 69.2135 42.1995C69.2345 42.2021 69.2516 42.2048 69.2701 42.2048C69.4215 42.2048 69.5558 42.0945 69.5808 41.9435C69.6111 41.7688 69.4979 41.6073 69.3241 41.5745C68.1022 41.3617 66.567 41.4694 65.8862 41.5364C65.8678 41.2028 65.8533 40.8942 65.8428 40.6054C66.3207 40.5673 67.0567 40.5384 67.7019 40.6618C67.7204 40.6671 67.7401 40.6671 67.7612 40.6671C67.91 40.6671 68.0443 40.562 68.0719 40.411C68.1048 40.239 67.9916 40.0735 67.8204 40.0394C67.116 39.9054 66.3339 39.9317 65.8178 39.9737C65.8046 39.5982 65.7914 39.2699 65.7875 38.9981C65.9824 39.0453 66.1785 39.0887 66.3734 39.1359C66.7052 39.2226 67.0502 39.0873 67.2345 38.8037C67.4228 38.5201 67.4044 38.1511 67.199 37.8832C67.166 37.8438 65.8099 36.096 64.0073 33.3121C64.2312 33.3095 64.4603 33.3121 64.6275 33.3226C64.6328 33.3226 64.6407 33.3226 64.6459 33.3226C64.8131 33.3226 64.9514 33.1939 64.9646 33.0245C64.9725 32.8499 64.8382 32.7015 64.663 32.691C64.3694 32.6726 63.9244 32.6752 63.6058 32.6831C63.4767 32.4835 63.349 32.2773 63.2173 32.0685C63.5952 32.0134 64.0705 31.9779 64.4985 32.0554C64.6683 32.0843 64.8382 31.9727 64.8684 31.798C64.8987 31.626 64.7842 31.4619 64.6117 31.4317C63.9863 31.3214 63.3082 31.4041 62.8605 31.4881C62.688 31.2058 62.5129 30.9156 62.3391 30.6214C62.5366 30.6188 62.7815 30.6214 63.0356 30.6385C63.2134 30.6503 63.3648 30.519 63.3727 30.3444C63.3859 30.1697 63.2516 30.0187 63.0791 30.0082C62.609 29.9754 62.1864 29.9872 61.9678 29.9977C61.8006 29.7075 61.6308 29.4133 61.4609 29.1126C62.1245 29.0102 62.8987 28.9157 63.1792 28.9577C63.3595 28.9853 63.5162 28.8671 63.5412 28.6924C63.5689 28.5178 63.4517 28.3563 63.2766 28.3313C62.8237 28.2643 61.7203 28.4258 61.1265 28.5256C60.9408 28.1895 60.7539 27.8454 60.5629 27.4974C63.5096 27.1219 66.7684 27.1784 69.0002 27.2926C69.1647 28.8001 69.3675 30.5164 69.5993 32.3404C69.3425 32.4375 69.0699 32.5991 68.825 32.8486C67.8586 33.8282 67.565 35.7926 67.9534 38.6855C68.0061 39.0716 68.3352 39.3644 68.7316 39.367ZM65.8902 30.3536C65.9086 30.1789 65.7849 30.024 65.6097 30.0043C64.7737 29.915 64.1443 30.0016 64.1153 30.0056C63.9428 30.0305 63.8217 30.192 63.8454 30.3628C63.8717 30.5335 64.0231 30.6556 64.2048 30.6319C64.2075 30.6293 64.7881 30.5518 65.5399 30.6333C65.5531 30.6333 65.5636 30.6333 65.5729 30.6333C65.7361 30.6346 65.8717 30.5151 65.8902 30.3536ZM21.6329 66.7424C21.7159 66.7122 21.808 66.7148 21.8844 66.7568C21.9647 66.7949 22.0253 66.8658 22.0464 66.9499C22.5678 68.7502 24.1807 70.0121 25.9964 70.0528C26.4796 68.1422 26.9194 66.3103 27.3104 64.6151C25.737 63.902 24.4861 63.1115 23.4986 62.3052C23.4723 62.3197 23.4473 62.3302 23.4183 62.3367C20.3347 63.1036 18.7046 62.3486 18.6349 62.3157C18.4755 62.2369 18.411 62.0505 18.4861 61.8929C18.5638 61.734 18.7507 61.6697 18.91 61.7419C18.9232 61.7511 20.307 62.3709 22.914 61.8036C19.8738 59.0342 19.7093 56.2687 19.704 56.1071C19.6961 55.9325 19.8304 55.7867 20.0068 55.7775C20.1767 55.7867 20.3281 55.9049 20.336 56.0782C20.3386 56.1216 20.6007 60.1254 25.9621 63.2139C25.2656 60.4287 25.3986 57.8549 25.4039 57.7368C25.4144 57.5608 25.5579 57.4282 25.7383 57.4374C25.9134 57.4479 26.0464 57.5963 26.0372 57.7709C26.0372 57.8011 25.8884 60.736 26.7363 63.6341C26.9654 63.7523 27.2038 63.8705 27.4513 63.9834C28.4388 59.6645 29.105 56.2634 29.4237 54.576C28.0767 54.8925 27.3025 55.1288 27.2788 55.1354C27.2011 55.1617 27.1221 55.1709 27.0418 55.1709C26.7851 55.1709 26.5349 55.0448 26.3861 54.8242C26.1912 54.5366 26.2057 54.1518 26.4243 53.88C26.7021 53.5386 26.9826 53.1735 27.2604 52.7927C24.4809 52.4316 22.5151 51.4152 21.4302 49.758C21.4117 49.7305 21.3972 49.7042 21.3841 49.6884C21.2893 49.6018 21.2498 49.46 21.3038 49.3339C21.3683 49.1724 21.5526 49.0923 21.7159 49.1579C21.8265 49.2013 21.8778 49.28 21.9634 49.41C22.9838 50.9714 24.9127 51.905 27.683 52.2018C28.5626 50.9543 29.4316 49.5532 30.2782 48.0811C30.1676 47.6649 30.0649 47.2552 29.9793 46.8612C27.4592 45.3235 26.6442 43.4103 26.6073 43.3315C26.5402 43.1673 26.6178 42.9835 26.7798 42.9191C26.9417 42.8495 27.1274 42.927 27.1932 43.0859C27.2011 43.1043 27.8647 44.6381 29.8055 45.9945C28.9878 41.4038 29.9161 38.742 29.9648 38.6094C30.0241 38.4439 30.2071 38.3612 30.3717 38.4176C30.5362 38.478 30.6205 38.6593 30.5626 38.8234C30.5547 38.8457 30.0925 40.1851 30.1175 42.5725C31.8977 41.3355 32.4007 39.4734 32.4059 39.4511C32.4494 39.2843 32.6219 39.1806 32.7917 39.2252C32.9616 39.2686 33.0616 39.4419 33.0182 39.6126C32.9945 39.7072 32.3875 41.954 30.1399 43.3104C30.1966 44.445 30.369 45.7805 30.7285 47.2827C33.1301 42.9835 35.2644 38.2522 36.5995 35.1229C36.1216 34.8327 35.5712 34.6765 35.0077 34.6765C33.9504 34.6765 32.9708 35.2201 32.3875 36.1328C32.3124 36.2509 32.1716 36.3074 32.0373 36.2693C31.4843 36.1236 30.9365 36.05 30.4019 36.05C26.7837 36.05 23.8449 39.0795 23.8449 42.8036C23.8449 43.4549 23.9345 44.1036 24.1175 44.7339C24.1504 44.8495 24.1175 44.9729 24.0332 45.0517C23.9463 45.1344 23.8199 45.1607 23.7067 45.1213C23.1919 44.9361 22.6626 44.8416 22.1333 44.8416C19.4973 44.8416 17.3551 47.0503 17.3551 49.7659C17.3551 50.8873 17.7119 51.9458 18.3939 52.8256C18.4584 52.9083 18.4769 53.0173 18.4453 53.1171C18.4123 53.2156 18.3347 53.293 18.2346 53.3219C16.8995 53.7211 15.9686 54.9975 15.9686 56.4289C15.9686 57.4531 16.4492 58.4262 17.255 59.0368C17.3274 59.0906 17.3735 59.1747 17.3788 59.2679C17.3867 59.3598 17.3511 59.4504 17.2866 59.5148C16.436 60.346 15.9699 61.4622 15.9699 62.6611C15.9699 65.0563 17.8607 67.0037 20.1846 67.0037C20.6731 67.0089 21.1616 66.9196 21.6329 66.7424ZM96.2144 61.9927C96.2408 61.9008 96.3013 61.8285 96.3896 61.7905C97.248 61.4044 97.8037 60.5495 97.8037 59.6146C97.8037 58.3553 96.8109 57.3113 95.5403 57.2417C95.4297 57.2325 95.3323 57.1721 95.2783 57.0736C95.2269 56.9791 95.2296 56.8583 95.2862 56.7663C95.6667 56.1203 95.8668 55.3862 95.8668 54.6469C95.8668 52.3318 93.9787 50.4501 91.6601 50.4501C90.899 50.4501 90.1485 50.6589 89.4928 51.0567C89.3954 51.1132 89.2795 51.1171 89.1821 51.0686C89.0847 51.0173 89.0201 50.9202 89.0122 50.8099C88.8266 48.353 86.7463 46.4266 84.2775 46.4266C82.0839 46.4266 80.1813 47.9708 79.6533 50.0587C80.8923 51.5242 82.1998 53.0304 83.498 54.4618C83.5191 53.1565 83.6652 50.8926 84.396 49.2091C84.4684 49.0476 84.6527 48.9728 84.8147 49.0437C84.974 49.1133 85.0491 49.2997 84.9793 49.4613C84.1432 51.385 84.1208 54.2346 84.1353 55.159C84.2841 55.3206 84.4342 55.4808 84.583 55.6397C85.7087 55.4151 89.1426 54.6062 91.7786 52.6575C91.9195 52.5524 92.1156 52.5813 92.221 52.7245C92.3263 52.8623 92.296 53.0619 92.1564 53.1657C90.9609 54.0481 89.6311 54.7047 88.4066 55.1814C88.795 55.4322 90.1446 56.2148 91.6443 56.2017C91.8009 56.1741 91.9655 56.3409 91.9655 56.5155C91.9682 56.6902 91.8273 56.8333 91.6522 56.8372C91.6337 56.8372 91.6166 56.8372 91.5982 56.8372C89.6364 56.8372 87.9905 55.6685 87.9207 55.62C87.8509 55.5674 87.8075 55.49 87.7943 55.4085C86.691 55.8012 85.7298 56.0428 85.0912 56.1833C86.6185 57.7972 88.0866 59.2377 89.3651 60.3053C89.635 60.5312 89.7219 60.9093 89.5784 61.2311C89.452 61.5213 89.165 61.7025 88.8556 61.7025C88.8174 61.7025 88.7805 61.6999 88.745 61.6933C88.7041 61.688 86.2275 61.3427 83.0056 60.9842C83.2597 62.3407 83.7587 64.9105 84.4381 68.0017C84.8081 67.827 85.4954 67.4633 86.3512 66.8067C85.5612 64.9709 85.822 63.6223 85.8298 63.5645C85.8654 63.3925 86.03 63.2822 86.2051 63.3163C86.3776 63.3492 86.4882 63.5159 86.454 63.6867C86.4513 63.7011 86.2459 64.8304 86.8634 66.3918C88.1933 65.2664 89.793 63.4871 91.1505 60.7701C91.2282 60.6139 91.4204 60.5508 91.5771 60.6296C91.7312 60.7071 91.7957 60.8975 91.718 61.0525C90.8569 62.7766 89.905 64.1358 88.9846 65.1994C89.5758 65.5684 91.2585 66.4154 94.0735 66.3694C94.2513 66.376 94.3948 66.5073 94.3948 66.682C94.3974 66.8566 94.2579 66.9998 94.0841 67.0037C90.903 67.0431 89.1492 66.0792 88.5527 65.6761C86.7699 67.5762 85.1557 68.3864 84.579 68.6359C84.7699 69.4921 84.9727 70.3877 85.1913 71.3003C85.4401 71.341 85.7114 71.3594 86.0353 71.3594C87.7864 71.3594 89.3941 70.4704 90.3329 68.9839C90.4158 68.8513 90.5844 68.8014 90.7265 68.8605C91.2848 69.1008 91.8813 69.2229 92.4935 69.2229C94.9781 69.2229 97.0018 67.2072 97.0018 64.7293C97.0018 63.8456 96.7424 62.9894 96.2539 62.2553C96.2013 62.1765 96.1894 62.0794 96.2144 61.9927ZM38.8313 37.6114C39.3553 37.6114 39.8754 37.4157 40.3849 37.0309C39.8372 36.008 39.3132 34.9746 38.8313 33.9398C38.4837 34.7841 38.0163 35.8938 37.4606 37.1649C37.7714 37.3737 38.248 37.6114 38.8286 37.6114C38.8313 37.6114 38.8313 37.6114 38.8313 37.6114ZM45.1118 38.9324C44.7497 39.0401 44.543 39.1097 44.5377 39.1123C44.4482 39.1425 44.3573 39.1583 44.2678 39.1583C44.019 39.1583 43.7741 39.0401 43.6226 38.83C43.4172 38.5398 43.4251 38.1511 43.6463 37.8753C44.439 36.8773 45.2 35.8242 45.9268 34.7408C46.1454 31.0561 46.1809 28.6268 46.1783 27.4515L44.381 27.6051C44.0927 31.886 43.2079 38.4032 43.2013 38.4715C43.1908 38.5542 43.1605 38.6238 43.1263 38.6934C43.7069 39.694 44.302 40.671 44.8932 41.6125C44.9722 40.8824 45.0499 39.979 45.1118 38.9324ZM41.1565 42.2035C40.1229 42.2035 39.2592 41.5443 38.8471 41.17C38.2401 41.8056 37.5739 42.122 36.8905 42.1063C36.3125 42.0905 35.8227 41.845 35.4527 41.581C34.8102 42.9349 34.1097 44.3452 33.375 45.7542C33.9333 45.7897 34.8773 45.5953 35.8793 44.2612C35.9438 44.1784 36.0439 44.1325 36.1492 44.1377C36.2572 44.1417 36.352 44.2021 36.406 44.294C36.4139 44.3045 37.142 45.5244 38.456 45.7529C39.3948 45.9197 40.4205 45.5481 41.5054 44.6512C41.6292 44.5474 41.8162 44.5553 41.932 44.6709C41.9913 44.73 43.279 45.9512 45.4041 45.3038C45.1934 44.9887 44.9801 44.6683 44.7642 44.34C44.751 44.3216 44.7405 44.3084 44.7313 44.2901C44.1375 43.3866 43.5331 42.4346 42.9314 41.455C42.4166 41.929 41.8544 42.1811 41.2421 42.2008C41.2105 42.2035 41.1842 42.2035 41.1565 42.2035ZM45.5147 23.6985C44.7813 24.8107 43.9953 25.8402 43.2922 26.7017L47.3804 26.355C46.7063 25.4529 46.0598 24.5166 45.5147 23.6985ZM41.7043 45.3038C40.7431 46.0497 39.8017 46.4253 38.8984 46.4253C38.7101 46.4253 38.5232 46.4095 38.3375 46.3767C37.2236 46.1797 36.481 45.4351 36.115 44.9795C34.8826 46.4161 33.6976 46.4725 33.055 46.3543C32.2506 47.8671 31.4066 49.3628 30.5376 50.7626C31.2196 50.5118 32.0833 49.9576 32.8523 48.7522C32.9036 48.6721 32.9892 48.6182 33.084 48.609C33.1788 48.5972 33.2723 48.63 33.3408 48.6931C33.3513 48.7036 34.5363 49.8066 36.09 49.758C37.0446 49.7226 37.9412 49.242 38.7615 48.3359C38.8207 48.2689 38.905 48.2322 38.9932 48.2322C39.0775 48.2256 39.1683 48.265 39.2276 48.3306C39.2434 48.3451 40.7352 49.9012 42.4416 49.8119C43.3396 49.7685 44.1598 49.2787 44.8801 48.3556C44.9419 48.2742 45.0091 48.2216 45.1342 48.2322C45.2342 48.2322 45.329 48.2821 45.3857 48.3635C45.4396 48.437 46.543 49.9104 48.5233 49.737C47.7162 48.6419 46.7774 47.3274 45.7741 45.8527C43.7122 46.5526 42.2415 45.703 41.7043 45.3038ZM31.6844 63.3058C32.2163 63.2284 32.7469 63.1575 33.2407 63.0957C33.3329 62.3853 33.4922 61.2258 33.6963 59.9127L32.2308 60.1254C31.9754 61.2258 31.7924 62.3538 31.6844 63.3058ZM35.7713 55.4703C35.6818 55.3547 35.5501 55.2365 35.2262 55.2365C35.2157 55.2365 35.2052 55.2391 35.1959 55.2391C34.926 56.4289 34.6745 57.8326 34.4573 59.1628L35.9622 58.9449C36.1874 57.4557 36.2348 56.0638 35.7713 55.4703ZM35.853 59.6014L34.3506 59.8181C34.1505 61.1063 33.9886 62.2645 33.8872 63.0196C34.3757 62.9618 34.7996 62.9172 35.1117 62.883C35.3289 62.036 35.6331 60.8187 35.853 59.6014ZM34.4955 55.4558C33.5725 56.0205 32.876 57.6501 32.3967 59.4622L33.7976 59.2587C34.0017 57.9889 34.2387 56.6403 34.4955 55.4558ZM64.3247 53.4375C62.8302 53.4821 61.2081 53.5281 59.528 53.5675C59.6518 53.7001 60.817 54.8912 62.189 54.79C62.9632 54.7375 63.6808 54.2805 64.3247 53.4375ZM59.0014 53.5806C57.2502 53.62 55.4556 53.6515 53.6886 53.6699C53.6991 53.6778 53.7149 53.6804 53.7241 53.6909C53.7373 53.7041 55.2186 54.9778 56.8407 54.8373C57.6557 54.7651 58.3812 54.3423 59.0014 53.5806ZM29.0497 53.0344C31.9688 52.3423 37.4738 51.2957 44.0993 51.2957C46.0717 51.2957 48.019 51.3903 49.9058 51.5807C49.628 51.2169 49.3041 50.7889 48.9512 50.3148C46.9973 50.647 45.6727 49.5821 45.1381 49.0358C44.356 49.9235 43.4594 50.3962 42.4692 50.4435C40.9011 50.521 39.5423 49.4744 39.0103 48.9938C38.1282 49.8815 37.1538 50.3503 36.1097 50.3897C34.772 50.4461 33.6844 49.7633 33.1907 49.389C32.0926 50.9412 30.8404 51.4087 30.0425 51.5439C29.712 52.0547 29.3828 52.5551 29.0497 53.0344ZM54.6313 77.7322C52.0599 77.6928 49.5964 77.7374 47.2382 77.8477C47.5516 75.1846 49.0671 67.2991 55.9993 67.0654C56.0323 67.0654 56.0691 67.0654 56.1047 67.0654L55.9322 77.7624C55.5003 77.7505 55.0711 77.74 54.6313 77.7322ZM53.8519 75.1938C54.5128 75.1938 55.2067 74.6252 55.3357 73.9805C55.4766 73.2806 55.079 72.5518 54.4286 72.322C54.2943 72.2747 54.1613 72.2511 54.0296 72.2432C54.0559 72.0895 54.1139 71.9175 54.2218 71.7363C54.314 71.584 54.2653 71.3909 54.1165 71.3003C53.9677 71.2097 53.7715 71.2583 53.6794 71.4067C53.4661 71.7612 53.3937 72.0856 53.3858 72.3692C52.9486 72.5859 52.6471 73.0284 52.5628 73.4552C52.4878 73.8163 52.5931 74.2615 52.8354 74.6108C53.0513 74.9246 53.3449 75.1255 53.6662 75.1781C53.7294 75.1886 53.7913 75.1938 53.8519 75.1938ZM54.2179 72.9155C54.1876 72.9063 54.156 72.9076 54.1284 72.8997C54.1639 72.9772 54.1981 73.0232 54.2034 73.0297C54.3087 73.165 54.2864 73.3646 54.1494 73.4723C54.0902 73.5182 54.0204 73.5406 53.9546 73.5406C53.8624 73.5406 53.7689 73.5012 53.707 73.4237C53.6939 73.4106 53.5912 73.274 53.5016 73.0495C53.3291 73.1952 53.2185 73.4079 53.1883 73.5787C53.1474 73.7783 53.2146 74.0422 53.3607 74.2549C53.4766 74.4217 53.6254 74.532 53.7729 74.5556C54.1455 74.6174 54.6419 74.2326 54.7169 73.8557C54.7906 73.4618 54.5694 73.0429 54.2179 72.9155ZM78.6277 53.9614C78.4986 53.9614 78.3736 53.9523 78.2471 53.9299C77.3189 53.7684 76.6961 53.0541 76.4038 52.6312C75.5374 53.2116 74.7224 53.2681 74.1404 53.1906C74.2998 54.2582 74.4104 54.9844 74.4538 55.2588C74.7158 55.7894 74.9739 56.3002 75.2333 56.7939C75.5164 56.9633 75.8942 57.1261 76.2827 57.1025C76.679 57.0762 77.0384 56.8622 77.3571 56.4656C77.419 56.3868 77.519 56.3435 77.6217 56.3474C77.7244 56.354 77.8219 56.4105 77.8732 56.4971C77.8811 56.505 78.4723 57.4439 79.3439 57.5214C79.8785 57.5687 80.4341 57.2758 80.9924 56.6587C81.0675 56.5786 81.1701 56.5405 81.2807 56.5589C81.3887 56.5759 81.4782 56.6482 81.523 56.7466C81.5257 56.7571 81.9496 57.7354 82.8963 58.0808C83.4085 58.2699 83.9891 58.2292 84.6251 57.9915C83.2255 56.547 81.7706 54.9424 80.3538 53.3167C79.7692 53.7421 79.1912 53.9614 78.6277 53.9614ZM65.4122 78.3835C62.6472 78.0893 59.7005 77.8779 56.5682 77.7794L56.7406 67.0628C63.0462 67.2269 64.7434 72.4704 65.4122 78.3835ZM60.3786 73.3922C60.1311 72.9011 59.869 72.5268 59.4806 72.3193C59.4885 71.6168 59.1251 71.1861 59.1027 71.1598C58.9869 71.0272 58.7894 71.0154 58.6551 71.1296C58.5208 71.2452 58.5089 71.4448 58.6222 71.5774C58.6274 71.5787 58.7946 71.7862 58.8328 72.1434C58.7709 72.1368 58.7117 72.1302 58.6445 72.1302C58.2285 72.1302 57.8295 72.3167 57.5517 72.6384C57.2713 72.972 57.1475 73.4027 57.2146 73.8203C57.4003 74.9325 58.3022 75.4315 59.1172 75.4315C59.5925 75.4315 60.056 75.1649 60.318 74.7382C60.58 74.3206 60.5998 73.8321 60.3786 73.3922ZM85.1057 58.48C84.5843 58.7124 84.0826 58.8372 83.6086 58.8372C83.2821 58.8372 82.9687 58.7833 82.6698 58.6704C81.8956 58.3855 81.4098 57.7945 81.1557 57.3927C80.5487 57.9547 79.9259 58.2042 79.2834 58.1491C78.4841 58.0769 77.8916 57.5253 77.5809 57.1563C77.2083 57.5122 76.7843 57.7026 76.3182 57.7315C76.0996 57.742 75.8942 57.7105 75.6954 57.6593C75.9061 58.0467 76.1115 58.417 76.3156 58.7755C79.9364 59.021 83.922 59.478 86.4355 59.7918C86.0023 59.3795 85.5573 58.9383 85.1057 58.48ZM75.0015 49.435C74.492 49.435 73.9864 49.3037 73.5361 49.1251C73.7283 50.4225 73.8982 51.5768 74.0404 52.5314C74.5473 52.6352 75.3926 52.643 76.2958 51.9261C76.3656 51.867 76.463 51.842 76.5578 51.8617C76.65 51.8827 76.7303 51.9418 76.7738 52.0259C76.7791 52.0377 77.3623 53.1342 78.3604 53.3062C78.8541 53.3889 79.3834 53.2313 79.9391 52.8374C78.7659 51.4888 77.6296 50.1336 76.5829 48.8664C76.1128 49.2761 75.5572 49.435 75.0015 49.435ZM59.3582 73.0074C59.3068 73.1624 59.237 73.3239 59.1422 73.492C59.083 73.5957 58.975 73.6535 58.8644 73.6535C58.8131 73.6535 58.7591 73.6404 58.7077 73.6141C58.5563 73.5274 58.5023 73.3357 58.5866 73.1821C58.6709 73.035 58.7249 72.8984 58.7644 72.7684C58.7262 72.7658 58.6893 72.7632 58.6459 72.7632C58.4115 72.7632 58.1956 72.8643 58.0362 73.0481C57.8743 73.2399 57.8045 73.4815 57.844 73.7165C57.9757 74.5136 58.6129 74.7973 59.1199 74.7973C59.374 74.7973 59.6347 74.6436 59.7835 74.4046C59.8638 74.2707 59.9757 74.0028 59.8111 73.6758C59.6544 73.362 59.5122 73.1519 59.3582 73.0074ZM56.5603 64.7149C56.2311 64.7188 55.9072 64.7214 55.5833 64.7241C55.607 64.921 55.6425 65.181 55.6912 65.5041C55.7755 65.5001 55.8585 65.487 55.9454 65.4831C56.1587 65.4778 56.3641 65.4817 56.5708 65.4831C56.5866 65.2638 56.5761 64.9801 56.5603 64.7149ZM91.7891 86.0457C91.6522 85.9801 78.0984 79.3986 56.1929 79.0151C30.6205 78.6212 18.7494 84.7089 18.2543 84.9729C17.9331 85.1436 17.8093 85.5454 17.9844 85.8658C18.1543 86.1889 18.5532 86.3123 18.8798 86.1403C18.9983 86.0772 30.9589 79.8779 56.1705 80.3388C77.7547 80.7183 91.0676 87.1685 91.1992 87.2328C91.2967 87.2788 91.3967 87.3024 91.4955 87.3024C91.7377 87.3024 91.9734 87.1659 92.0893 86.9334C92.2499 86.6051 92.1156 86.2073 91.7891 86.0457Z" fill="#BFAA8F"/>
</svg>
