<svg width="14" height="14" viewBox="0 0 14 14" fill="none" xmlns="http://www.w3.org/2000/svg">
<path d="M10.1367 0.57469C9.25671 0.193851 8.31609 0 7.3424 0C4.52971 0 1.8934 1.64172 0.631272 4.18237C-1.18935 7.84837 1.18058 12.2057 4.51869 13.6519C5.30683 13.9933 5.53096 13.434 6.2695 13.7394C8.83417 14.7978 11.814 12.4733 13.225 9.63591C14.9941 6.07284 13.6383 2.09461 10.1367 0.57469ZM11.8912 9.05779C10.3719 12.1114 7.67125 13.5112 5.13597 12.4064C2.48496 11.2571 0.519205 7.66653 1.96505 4.75877C2.98834 2.7019 5.09739 1.37239 7.3424 1.37239C8.10114 1.37239 8.83417 1.52164 9.51943 1.82014C12.2733 3.01412 13.315 6.19292 11.8912 9.05779Z" fill="#757575"/>
<path d="M8.62657 8.42306C8.33997 8.15373 7.98724 8.14001 7.78515 8.30126C7.74841 8.33043 7.52244 8.47967 7.49672 8.51398C6.43668 8.05938 5.83409 6.71958 5.85063 5.84982C5.90574 5.84296 6.1905 5.59936 6.23643 5.56677C6.55058 5.35233 6.58733 5.28543 6.44587 4.93032L5.711 3.08788C5.59526 2.79797 5.36195 2.83056 5.02942 2.85972C4.69873 2.8906 4.35151 2.90776 4.29823 3.21483C3.91978 5.33346 4.46541 9.65307 9.2365 10.8316C9.29897 10.8453 9.36143 10.8556 9.42573 10.8556C9.68293 10.8556 9.77479 10.6069 9.91074 10.3924C10.0779 10.1248 10.1826 9.90696 9.95116 9.68566L8.62657 8.42306Z" fill="#757575"/>
</svg>
