<svg width="14" height="11" viewBox="0 0 14 11" fill="none" xmlns="http://www.w3.org/2000/svg">
<path d="M13.9651 9.33439C13.3953 7.55316 13.4317 2.53285 13.4917 0.74801C13.5008 0.542067 13.4189 0.339737 13.266 0.197022C13.1131 0.0561133 12.9019 -0.017954 12.6998 0.00372426C9.90171 0.256637 4.45113 0.281928 2.23558 0.281928L0.888405 0.278315C0.886584 0.278315 0.884764 0.278315 0.882943 0.278315C0.517022 0.278315 0.207537 0.549293 0.162025 0.910596C0.0746406 1.59165 0.0236665 2.03425 0.00546151 2.81467C0 3.00977 0.404151 3.29339 0.345895 3.3783C0.176589 3.54811 0 4.01961 0 4.16956C0.0163845 7.17199 0.3641 10.1889 0.385946 10.3623C0.411433 10.5737 0.527946 10.7615 0.706355 10.8808C0.826508 10.9584 0.968507 11 1.11051 11C1.17786 11 1.24522 10.9892 1.31076 10.9711C3.17131 10.4418 10.5771 10.29 13.2769 10.2756C13.5081 10.272 13.7248 10.1618 13.8595 9.9757C13.9978 9.79325 14.0361 9.55478 13.9651 9.33439ZM2.2374 1.72895C4.75697 1.72895 9.16623 1.69643 12.019 1.50675C12.0153 1.65849 12.0117 1.84457 12.0117 2.03064C9.34646 3.59508 7.3166 5.22637 6.48645 5.9273C4.18169 4.54712 2.05171 2.81828 1.50191 2.36304C1.51284 2.14987 1.52194 1.93309 1.54014 1.72714L2.2374 1.72895ZM1.75132 9.40846C1.64573 8.31551 1.47643 6.23621 1.46186 4.19123C2.54506 5.0403 4.32551 6.36447 6.20609 7.44116C6.32078 7.50619 6.4464 7.53871 6.57019 7.53871C6.7486 7.53871 6.92155 7.47368 7.06173 7.35083C7.08539 7.32915 9.09159 5.53528 12.0062 3.72335C12.0244 5.39799 12.1063 7.41225 12.3576 8.8394C10.122 8.8665 4.4129 8.97851 1.75132 9.40846Z" fill="#"/>
</svg>
