<svg width="51" height="51" viewBox="0 0 51 51" fill="none" xmlns="http://www.w3.org/2000/svg">
<path fill-rule="evenodd" clip-rule="evenodd" d="M25.5 51C39.5833 51 51 39.5833 51 25.5C51 11.4167 39.5833 0 25.5 0C11.4167 0 0 11.4167 0 25.5C0 39.5833 11.4167 51 25.5 51ZM37.1752 28.6682C37.9898 29.4392 38.8046 30.2103 39.5253 31.0757C39.9585 31.5949 40.367 32.1311 40.6781 32.7349C41.1211 33.5962 40.7211 34.5421 39.9492 34.5928L35.1594 34.5915C33.9228 34.6932 32.9381 34.1953 32.1075 33.3498C31.6661 32.8999 31.2454 32.4298 30.8248 31.9598C30.6149 31.7252 30.405 31.4907 30.1926 31.2587C29.9326 30.9723 29.6568 30.703 29.3309 30.4902C28.6781 30.0664 28.1109 30.1957 27.736 30.877C27.3547 31.5706 27.2666 32.34 27.2317 33.1132C27.1785 34.243 26.8381 34.5379 25.7049 34.5902C23.2836 34.7043 20.9853 34.3366 18.8504 33.1166C16.9658 32.04 15.5083 30.5191 14.2385 28.7991C11.7636 25.4447 9.86831 21.7626 8.16618 17.9749C7.78278 17.1217 8.0632 16.6651 9.0032 16.6477C10.5675 16.6166 12.1313 16.6209 13.6934 16.646C14.33 16.6557 14.7509 17.02 14.9947 17.62C15.8394 19.6987 16.876 21.6766 18.1738 23.5106C18.5198 23.9987 18.873 24.486 19.3751 24.8311C19.93 25.2123 20.353 25.0868 20.6147 24.4677C20.7819 24.0728 20.8543 23.6532 20.89 23.2311C21.0143 21.786 21.0292 20.3409 20.8147 18.9013C20.6807 18.0009 20.1734 17.4191 19.2755 17.2489C18.8185 17.1621 18.8853 16.9928 19.1075 16.7319C19.493 16.28 19.8564 16.0009 20.5781 16.0009L25.9913 16C26.8449 16.1668 27.0347 16.5498 27.1509 17.4089L27.156 23.423C27.147 23.7557 27.3224 24.7413 27.9198 24.9591C28.3686 25.1074 28.6755 24.7783 28.9481 24.486C28.9657 24.4671 28.9832 24.4483 29.0007 24.4298C30.2977 23.0532 31.2219 21.4272 32.0504 19.7451C32.4151 19.0034 32.7313 18.2349 33.0377 17.466C33.2645 16.897 33.6194 16.617 34.2611 16.6272L39.4721 16.6328C39.6253 16.6328 39.7824 16.6345 39.9343 16.6596C40.8117 16.8106 41.0521 17.1885 40.7811 18.0455C40.3685 19.3453 39.5785 20.436 38.792 21.5218C38.7641 21.5604 38.7362 21.5989 38.7083 21.6374C38.2988 22.2037 37.8762 22.7612 37.4536 23.3188C36.979 23.945 36.5043 24.5712 36.0479 25.2102C35.2572 26.3183 35.3211 26.8749 36.3032 27.8345C36.591 28.1152 36.883 28.3917 37.1752 28.6682Z" fill="#D7B283"/>
</svg>
